<svg width="190" height="52" viewBox="0 0 190 52" fill="none" xmlns="http://www.w3.org/2000/svg">
<path d="M17.8966 22.1522L22.7199 11.5685C23.4767 9.90576 24.1012 7.98934 25.1423 6.48859C25.58 5.85767 26.0341 5.42944 26.7647 5.16622C28.0539 4.70172 29.484 4.86553 30.7114 5.44815C31.2328 5.69568 31.7039 6.08923 31.898 6.64881C32.1342 7.32967 31.446 14.158 31.35 15.3927C30.9866 20.0673 31.0924 24.8454 31.1711 29.5328C32.3703 29.4253 33.169 29.1879 34.381 29.2528C34.6908 28.1036 34.916 26.9585 35.8022 26.0906C36.3125 25.591 36.9339 25.027 37.3514 24.4624C36.4917 23.6486 35.3587 22.4133 35.4386 21.2026C35.813 15.5319 45.6602 12.2661 49.5178 16.3834C50.9044 17.8632 51.274 19.713 51.2813 21.6782C51.3123 23.4519 50.5311 28.1816 50.9979 29.7301C51.9148 30.3357 53.185 28.063 54.9395 30.7477L55.008 30.8534C55.2774 30.1102 55.6522 29.4589 56.0283 28.7664C54.6907 26.8413 53.6946 24.8232 54.0064 22.4168C54.0685 21.9383 54.4565 21.2842 54.5945 20.8253C55.8944 16.5039 60.8918 13.8043 65.2462 14.709C66.7082 15.0127 67.3735 15.5906 68.667 16.1561C68.8604 14.6552 69.3866 13.1962 71.2942 13.4238C73.347 13.6687 74.979 16.0431 74.7225 18.0292C74.6848 18.3774 74.4386 18.9146 74.2909 19.2434C75.9789 16.9385 78.6742 15.7463 81.4328 15.3186C87.0424 14.4489 93.3635 18.4173 94.2431 24.1963C94.2774 24.4222 94.3079 24.6487 94.3347 24.8756C94.8388 19.3558 99.5379 14.1756 105.431 14.5894C107.823 14.7573 108.78 15.7494 110.498 17.2509C111.457 16.3629 112 16.1742 113.222 15.763C113.494 14.3599 113.629 12.9831 113.835 11.5716C114.104 9.72354 114.158 8.03849 115.889 6.8734C116.703 6.33238 117.7 6.14065 118.657 6.34121C119.503 6.51406 120.701 6.96649 121.184 7.71563C121.995 8.97487 119.76 14.8583 120.306 15.47C120.327 15.4938 120.475 15.5231 120.515 15.5327C121.788 15.8297 123.742 14.7472 124.621 16.1237C125.106 16.881 125.4 17.9343 125.204 18.8281C125.044 19.5576 124.68 20.2361 124.036 20.6426C122.913 21.3518 120.935 21.2591 119.658 21.0687C119.534 22.7537 119.062 28.1633 119.898 29.5011C120.171 29.6439 120.441 29.6267 120.71 29.5129C122.916 28.5834 124.645 27.9315 125.574 30.8296C125.788 31.4968 125.754 31.7817 125.765 32.5142C123.475 35.0387 117.395 37.2634 114.549 34.4527C112.069 32.0047 112.421 27.435 112.478 24.175C112.494 23.2481 112.75 22.166 112.786 21.1795C112.251 21.163 111.479 21.0634 111.123 21.4678C110.466 22.2131 110.717 22.9339 109.836 23.7194C108.013 25.3455 106.022 26.0146 103.68 26.5584C102.91 26.7372 102.096 26.8149 101.399 27.1288C101.947 28.5089 103.129 30.1034 104.785 29.3542C106.211 28.7097 106.598 27.7678 108.21 27.3747L108.236 27.3688C113.4 28.7764 110.261 32.9602 107.154 34.607C101.925 37.3801 95.9405 35.101 94.4661 29.2898C94.4957 31.1425 93.4328 35.0732 91.8387 36.1293C90.7443 36.3002 88.0387 36.3798 87.0689 35.6865C86.7874 35.4853 86.5682 35.1778 86.3936 34.8778C86.3458 33.3279 86.8309 32.4505 87.0813 30.998C87.508 28.5229 87.8581 25.4947 85.1853 24.1771C83.7863 23.7037 82.5469 23.691 81.1157 24.0351C80.2434 24.4212 79.4181 24.9434 79.1083 25.9287C78.5568 27.6901 78.8858 29.7861 79.2194 31.5505C79.4606 32.8256 80.0934 35.3902 78.4264 35.9486C76.8804 36.4215 73.6278 36.3893 72.9705 34.5421C71.8164 31.298 71.6098 27.4978 72.0255 24.1016C72.1704 22.918 73.2887 20.864 73.9125 19.8416C73.0487 20.746 72.6983 20.8922 71.5715 21.3965C71.8913 25.4302 70.1181 28.4466 66.4718 30.44C66.0892 30.6491 65.5547 30.7537 65.1448 30.926C67.7085 31.429 71.0548 32.2298 72.5739 34.554C74.3432 37.2611 73.1412 41.0767 71.0393 43.2391C70.666 43.6232 70.0635 43.95 69.6362 44.2694C67.3438 45.9768 64.3867 46.7836 61.58 47.03C60.8329 47.0956 59.8604 46.7752 59.1214 46.6712C56.781 46.3492 54.0646 45.1117 52.7191 43.1018C50.988 40.516 52.0418 36.3245 54.5732 34.5962C55.4381 34.0056 55.4611 34.0776 55.2735 33.1504L55.1698 33.0835C54.6273 33.5832 53.5558 34.6231 52.9178 34.9058C50.1899 36.1143 47.1265 36.0282 45.2136 33.5065C43.9274 34.56 43.0493 35.278 41.3667 35.6322C38.7312 36.1871 37.2366 35.1284 35.2837 33.676C34.296 34.7409 30.5485 35.6465 29.0713 35.6821C22.1131 35.8496 24.2145 26.8835 23.8859 22.6661C22.2293 25.8667 20.9804 29.4732 19.4779 32.745C19.1621 33.4323 18.6072 34.6885 18.2424 35.2795C17.0158 35.8104 16.0521 35.7727 14.8106 35.2891C13.7899 34.1523 13.7398 32.3207 13.1415 31.0125C12.0225 28.5653 11.3611 25.3742 10.1992 23.0115C10.0184 24.8076 9.89549 26.7699 9.73611 28.5078C9.44076 31.7265 9.46693 35.7771 5.04692 35.4597C4.59114 35.427 3.73259 35.4315 3.25601 35.4643C2.62476 35.1489 1.84977 34.6164 1.60933 33.9163L1.59437 33.8714C1.40423 33.3256 2.3802 30.9991 2.58176 30.3266C4.39207 24.2867 4.77913 17.3785 4.72703 11.0984C1.9086 11.5135 1.28386 11.5666 0.81127 8.48912C0.282662 6.19278 2.89451 5.86284 4.48276 5.55251C6.98905 5.0628 10.8713 3.96754 12.1705 7.10964C13.367 10.0032 14.4224 13.009 15.6121 15.9199C16.4348 17.9326 16.9415 20.1601 17.8966 22.1522ZM58.8893 28.6813C56.5549 30.5139 55.7159 32.0611 58.3766 34.1843C57.1123 34.8589 56.2792 35.2555 55.2507 36.3082C52.0309 39.6037 53.4675 43.2792 57.8072 44.552C59.2813 44.9761 60.8171 45.1447 62.3482 45.0505C65.5469 44.626 68.42 43.8024 70.4795 41.11C71.4375 39.8792 71.8557 38.3126 71.6387 36.7681C71.006 31.9435 60.3791 33.075 60.0353 30.62C60.5231 29.3182 62.4589 29.8115 63.5442 29.6144C66.1028 29.1497 68.4458 27.4125 69.4097 24.9615C70.1409 23.0352 69.934 21.5516 69.4321 19.6739C70.501 19.7072 71.5822 19.6961 72.4178 18.9198C72.817 18.5489 73.069 18.0636 73.0838 17.5142C73.0994 16.9359 72.8152 16.4117 72.4239 16.0029C72.0487 15.6107 71.3182 15.0754 70.7944 14.9252L70.7769 14.9543C70.2914 15.7753 70.5038 17.1484 69.1951 17.4836C67.9572 17.8007 66.3412 16.7683 65.0324 16.4777C61.755 15.7679 58.3934 17.2481 56.7043 20.1448C55.1005 22.8729 55.6037 26.7805 58.4878 28.4563C58.6206 28.5332 58.7544 28.6082 58.8893 28.6813ZM43.7285 22.4229C44.056 22.1645 44.2929 21.8884 44.3508 21.4587C44.384 21.2127 44.3059 20.9923 44.1515 20.8028C43.8343 20.4135 43.413 20.3447 42.9401 20.3032C42.8739 20.2973 42.8077 20.2928 42.7415 20.2897L42.447 20.372C42.3809 21.0081 43.0292 21.8202 43.3708 22.3536C43.5138 22.4225 43.57 22.4322 43.7285 22.4229Z" fill="black"/>
<path d="M72.8811 29.3426C72.7207 28.1892 72.7977 27.2407 72.8747 26.1093C73.4954 16.994 83.0351 13.6278 90.0583 18.8045C92.8491 20.8615 94.0229 26.0785 93.4707 29.3344C91.6568 29.3804 89.9627 29.3417 88.174 29.3628C88.2295 28.0859 88.2008 26.7863 87.8862 25.5473C87.2999 24.5021 87.0129 24.1469 85.9744 23.5369C85.708 23.7457 85.4452 23.959 85.1861 24.1767C83.7871 23.7033 82.5478 23.6906 81.1165 24.0347C80.8998 23.8831 80.7808 23.5897 80.5013 23.3408L80.0387 23.4662C79.4917 23.7991 79.1849 24.0345 78.7726 24.5327C77.828 25.9614 77.9233 27.9182 78.06 29.599L77.9788 29.4831C77.4744 29.1945 73.6627 29.3323 72.8811 29.3426Z" fill="#E25D5E"/>
<path d="M78.4798 23.5649C80.8067 20.7374 86.4483 20.7739 88.0089 24.2622C87.9857 24.6268 87.9662 25.2105 87.8852 25.5471C87.2989 24.5019 87.0119 24.1467 85.9734 23.5367C85.707 23.7455 85.4442 23.9588 85.1851 24.1765C83.7861 23.7031 82.5468 23.6904 81.1155 24.0345C80.8988 23.8829 80.7798 23.5895 80.5003 23.3406L80.0377 23.466C79.4907 23.7989 79.1839 24.0343 78.7716 24.5324C78.8171 24.0072 78.4025 24.0577 78.3065 23.7175L78.4798 23.5649Z" fill="#AE1A19"/>
<path d="M80.5 23.3407C81.9586 22.7474 84.4643 22.8985 85.9158 23.5123L85.9731 23.5368C85.7067 23.7456 85.4439 23.9588 85.1848 24.1766C83.7858 23.7032 82.5465 23.6905 81.1152 24.0346C80.8985 23.883 80.7795 23.5896 80.5 23.3407Z" fill="#230000"/>
<path d="M78.4798 23.5652C79.1072 23.683 79.129 22.9146 80.0377 23.4662C79.4907 23.7991 79.1839 24.0345 78.7716 24.5327C78.8171 24.0074 78.4025 24.0579 78.3065 23.7177L78.4798 23.5652Z" fill="#CC4948"/>
<path d="M88.6876 18.4326C88.7916 18.4522 88.8978 18.4821 88.9827 18.5481C89.5029 18.953 91.4706 20.9769 91.5287 21.5576L91.3893 21.5941L91.089 21.3809C90.5227 20.8101 89.9496 20.2458 89.37 19.6884L89.4122 19.6329C89.5989 19.7309 89.7442 19.8524 89.9572 19.8233L89.9539 19.8235C89.6695 19.3132 89.1029 18.8489 88.6876 18.4326Z" fill="#FB8C90"/>
<path d="M88.1737 29.3629C89.9625 29.3418 91.6566 29.3805 93.4704 29.3345C93.1134 31.3744 92.7721 33.3188 91.7259 35.1359C90.3137 35.1838 88.8998 35.1462 87.4922 35.023C87.4495 32.6946 88.0059 31.5566 88.1737 29.3629Z" fill="#FEFEFE"/>
<path d="M72.8811 29.3426C73.6626 29.3323 77.4743 29.1945 77.9787 29.4831L78.06 29.599C78.0653 31.4552 78.6969 32.6807 78.5104 35.0013C78.4746 35.0069 78.4387 35.012 78.4028 35.0166C77.3836 35.1473 75.1855 35.3624 74.4059 34.7422C73.4533 33.9844 73.0291 30.5726 72.8811 29.3426Z" fill="#FEFEFE"/>
<path d="M70.7942 14.9248C71.3179 15.075 72.0485 15.6103 72.4237 16.0025C72.815 16.4113 73.0991 16.9355 73.0836 17.5138C73.0688 18.0632 72.8168 18.5485 72.4176 18.9194C71.582 19.6956 70.5008 19.7068 69.4318 19.6734C69.9337 21.5511 70.1407 23.0348 69.4094 24.9611C68.4456 27.4121 66.1025 29.1492 63.544 29.614C62.4586 29.8111 60.5229 29.3178 60.035 30.6196C60.3788 33.0746 71.0057 31.943 71.6384 36.7677C71.8554 38.3122 71.4372 39.8788 70.4792 41.1096C68.4198 43.8019 65.5467 44.6255 62.3479 45.0501C60.8168 45.1443 59.281 44.9757 57.807 44.5515C53.4673 43.2788 52.0306 39.6033 55.2504 36.3078C56.2789 35.2551 57.1121 34.8585 58.3764 34.1839C55.7157 32.0607 56.5547 30.5135 58.889 28.6809C58.7542 28.6078 58.6203 28.5327 58.4876 28.4559C55.6035 26.7801 55.1003 22.8725 56.7041 20.1443C58.3931 17.2477 61.7548 15.7675 65.0321 16.4773C66.341 16.7679 67.957 17.8003 69.1948 17.4832C70.5035 17.148 70.2912 15.7749 70.7767 14.9538L70.7942 14.9248ZM58.782 39.2204C59.2059 40.0944 59.5931 40.7343 60.5688 41.0696C61.6691 41.4476 63.2735 41.3177 64.3616 40.8997C65.0184 40.4775 66.0702 39.8658 66.2397 39.0358C66.2739 38.868 66.2549 38.6434 66.1476 38.5027C65.6553 37.8576 62.2018 37.2888 61.262 37.1967C60.9968 37.1706 60.7299 37.1689 60.4643 37.1913C59.6032 37.7825 59.2105 38.2559 58.782 39.2204ZM63.5912 25.7327C64.2338 25.1842 64.4583 24.6146 64.528 23.7662C64.6051 22.8256 64.4528 21.6762 63.8197 20.934C63.5699 20.6411 63.1137 20.2917 62.7176 20.262C62.507 20.2462 62.2874 20.2646 62.077 20.2797C61.3607 21.2543 61.1166 22.112 61.2984 23.3327C61.4085 24.0715 61.6646 24.9796 62.2962 25.4474C62.5966 25.6698 63.0356 25.8362 63.4091 25.7725C63.4703 25.7618 63.5311 25.7485 63.5912 25.7327Z" fill="#FEFEFE"/>
<path d="M60.6917 35.2612C62.5138 35.4767 65.0651 35.9706 66.6825 36.7801C67.211 37.0447 67.6896 37.4527 67.8751 38.0313C68.109 38.7612 67.859 39.5663 67.5187 40.2194C66.8087 41.5814 65.6169 42.2146 64.2161 42.6617C62.5908 43.0664 60.9432 43.1079 59.392 42.3702C58.5248 41.9579 57.7867 41.3123 57.4621 40.3878C57.1586 39.5235 57.2035 38.5207 57.6028 37.6947C58.1945 36.4711 59.4474 35.6947 60.6917 35.2612ZM58.7831 39.2206C59.207 40.0946 59.5942 40.7345 60.5699 41.0698C61.6702 41.4478 63.2745 41.318 64.3626 40.9C65.0195 40.4777 66.0712 39.866 66.2408 39.0361C66.275 38.8683 66.2559 38.6436 66.1486 38.5029C65.6563 37.8578 62.2028 37.2891 61.2631 37.1969C60.9979 37.1708 60.7309 37.1691 60.4654 37.1916C59.6043 37.7827 59.2115 38.2561 58.7831 39.2206Z" fill="black"/>
<path d="M62.1213 18.5189C62.7371 18.4745 63.2849 18.4781 63.8552 18.7431C64.8683 19.2139 65.5252 20.205 65.8954 21.2279C66.3734 22.5491 66.3966 24.2356 65.7902 25.5131C65.3409 26.4596 64.6643 27.1543 63.6762 27.5098C62.9632 27.537 62.4049 27.4749 61.7709 27.1261C60.719 26.5478 60.0585 25.5103 59.7383 24.3763C59.3408 22.9681 59.3828 21.3039 60.1093 20.011C60.5941 19.148 61.1908 18.7787 62.1213 18.5189ZM63.5911 25.733C64.2337 25.1845 64.4582 24.6149 64.5278 23.7665C64.605 22.8259 64.4526 21.6766 63.8196 20.9344C63.5697 20.6415 63.1136 20.2921 62.7175 20.2624C62.5069 20.2465 62.2873 20.265 62.0768 20.28C61.3606 21.2547 61.1165 22.1124 61.2983 23.3331C61.4083 24.0719 61.6645 24.98 62.2961 25.4478C62.5964 25.6701 63.0354 25.8365 63.409 25.7729C63.4702 25.7622 63.531 25.7489 63.5911 25.733Z" fill="black"/>
<path d="M28.1853 6.69336C29.1134 6.71872 29.4364 6.85295 30.2818 7.17966C29.5173 14.285 29.3565 22.0487 29.5477 29.2147C29.62 31.9246 31.8887 31.11 33.7484 30.8641C33.8736 31.4656 33.9884 31.8669 34.1711 32.4509C31.1456 34.0441 25.8696 35.6582 25.6986 30.3961C25.5238 25.0139 25.6809 19.5748 25.9056 14.1926C24.8576 16.1234 23.872 18.6307 22.9285 20.6297C21.7397 23.1485 20.6041 25.6645 19.5017 28.2049C19.0258 29.3016 17.5508 33.1744 17.0006 33.8689C16.7273 34.012 16.4083 34.041 16.1137 33.9494C16.0945 33.9434 15.9366 33.8873 15.9346 33.8823C15.1397 31.923 14.4052 29.4626 13.7345 27.4954C13.1401 25.752 12.5444 24.4086 11.9879 22.7556C11.3256 20.7883 10.7157 19.0045 9.97033 17.0852C9.53336 15.9599 9.23425 14.8213 8.68919 13.7641C8.74545 14.5958 8.77466 15.4291 8.77672 16.2627C8.74447 20.9035 8.43882 25.5382 7.86136 30.143C7.77153 30.8138 7.67483 31.4804 7.55745 32.1468C7.25587 33.8589 4.84523 34.2181 3.52817 33.6346C3.49005 33.5915 3.44629 33.5421 3.39688 33.4865C3.57821 32.6781 4.26714 30.7854 4.45636 30.0903C6.14411 23.8908 6.39561 17.4434 6.48725 11.0563C6.49309 10.6491 6.47523 9.92653 6.17921 9.63609C5.46713 9.26712 3.54387 9.49744 2.64553 9.55053C2.6113 8.92464 2.55813 8.36189 2.49084 7.7387C4.42948 7.25852 7.63618 6.54563 9.58303 6.88813C10.691 7.08305 11.6234 10.3585 12.0338 11.4189C13.4008 14.9227 14.7066 18.4501 15.9503 21.9996C16.3747 23.2355 17.1508 25.7604 17.7209 26.7749C18.1233 26.0642 18.8963 24.0292 19.3137 23.1158C21.1449 19.1544 22.8563 15.1093 24.7463 11.1782C25.6058 9.39042 25.9796 6.96155 28.1853 6.69336Z" fill="#FEFEFE"/>
<path d="M44.2936 16.3165C45.491 16.2771 46.8022 16.4046 47.8118 17.1072C51.0495 19.3605 48.5881 26.3991 49.2368 29.776C49.4234 30.7476 49.8683 31.2135 50.6543 31.7512C51.4877 31.6388 52.3029 31.3334 53.0866 31.0408C53.3217 31.3632 53.51 31.72 53.7058 32.0672C52.7017 33.1533 51.4471 33.8738 49.944 33.9596C48.8785 34.0204 47.8247 33.7225 47.0233 32.9989C46.1635 32.2225 45.9091 31.2736 45.8491 30.1624C45.3028 30.7894 44.7733 31.4447 44.1963 32.0428C43.113 33.1656 41.7139 34.0461 40.1085 34.0654C38.8757 34.0803 37.9078 33.5929 37.0392 32.7467C36.5053 32.056 36.2701 31.288 36.2378 30.4204C36.1847 28.9921 36.4917 27.7641 37.4911 26.6947C39.5127 24.5315 43.1711 23.9858 45.9697 23.8832C46.0238 22.701 46.2587 21.1205 45.7578 20.0232C45.479 19.4126 44.8795 19.0179 44.2666 18.7939C43.4476 18.4946 42.3801 18.4363 41.5775 18.8208C41.1873 19.0079 40.8885 19.2995 40.7465 19.7148C40.4175 20.6772 41.1269 21.795 41.5334 22.6433C40.9705 23.0068 40.4437 23.2579 39.7678 23.318C39.1555 23.3726 38.5356 23.2262 38.0615 22.8218C37.6052 22.4327 37.3239 21.8413 37.2783 21.246C37.2145 20.4152 37.5842 19.6281 38.1146 19.009C39.631 17.2387 42.0489 16.4995 44.2936 16.3165Z" fill="#FEFEFE"/>
<path d="M44.9189 25.8431L45.7802 25.7861C45.3346 27.1452 44.7228 28.4199 43.7569 29.4932C43.014 30.3187 42.0832 30.8934 40.9574 30.9517C40.7595 30.863 40.5732 30.7505 40.4027 30.6167C40.0984 30.3787 39.9469 30.0389 39.9027 29.6606C39.8148 28.9098 40.0058 28.1206 40.4854 27.53C41.5371 26.2348 43.3636 25.9952 44.9189 25.8431Z" fill="black"/>
<path d="M103.83 16.3974C105.171 16.174 106.817 16.4239 107.929 17.2246C108.698 17.7783 109.288 18.6314 109.439 19.5762C109.583 20.4849 109.352 21.3749 108.809 22.114C106.947 24.6493 102.352 25.1023 99.462 25.5536C99.6238 26.8635 99.807 28.0711 100.542 29.2071C101.129 30.1145 101.97 30.8527 103.049 31.0808C105.219 31.5394 106.721 30.1682 108.387 29.0803L109.334 30.001C109.349 30.2396 109.071 30.5825 108.937 30.7693C107.749 32.427 105.731 33.7042 103.72 34.0391C101.959 34.3322 100.178 33.8597 98.7349 32.824C97.2234 31.7391 96.2947 29.9417 96.0034 28.1265C95.5686 25.4157 96.2836 22.2945 97.895 20.0677C99.3991 17.9907 101.307 16.8028 103.83 16.3974Z" fill="#FEFEFE"/>
<path d="M103.103 18.6086C103.731 18.556 104.244 18.6482 104.801 18.9649C105.185 19.1839 105.475 19.5158 105.587 19.9492C105.708 20.4205 105.596 20.9183 105.351 21.3303C104.661 22.4893 103.318 22.8708 102.099 23.1786C101.268 23.3687 100.42 23.4874 99.5685 23.5334C99.7877 22.5599 100.038 21.6522 100.533 20.7782C101.145 19.6969 101.887 18.947 103.103 18.6086Z" fill="black"/>
<path d="M103.593 20.3452C103.699 20.3756 103.72 20.4126 103.794 20.4924C103.542 20.9651 102.872 21.1462 102.393 21.3408C102.335 21.2993 102.317 21.2506 102.286 21.1882C102.568 20.7326 103.115 20.5307 103.593 20.3452Z" fill="#FEFEFE"/>
<path d="M117.627 7.96972C118.381 7.89719 118.913 8.13617 119.612 8.39103C119.62 9.93781 119.063 11.8324 118.814 13.3811C118.614 14.6285 118.455 15.8879 118.262 17.1411C119.954 17.2196 121.655 17.1311 123.36 17.1665C123.427 17.451 123.559 17.9611 123.535 18.236C123.504 18.5765 123.335 18.8894 123.067 19.1014C122.177 19.8123 119.296 19.3405 118.126 19.216C117.679 21.9782 117.726 25.3936 117.779 28.0862C117.855 31.9158 120.36 31.5409 123.052 30.5609C123.446 30.4176 124.73 31.2145 123.77 32.0841C112.206 39.2881 113.993 26.1238 114.64 19.2242C114.224 19.2198 111.916 19.4927 111.816 19.3623C110.739 17.973 114.089 17.2562 114.917 17.0559C115.181 14.8208 115.482 11.1887 116.158 9.00395C116.338 8.42277 117.084 8.14724 117.627 7.96972Z" fill="#FEFEFE"/>
<path d="M164.18 4.90648C165.556 4.65628 168.449 5.31005 168.606 7.0363C168.741 8.53475 168.351 9.89015 168.299 11.3308C168.212 13.7696 168.163 16.1658 167.916 18.5964C167.78 20.6058 167.89 22.7465 167.809 24.7745C167.761 26.0066 167.741 28.4605 168.027 29.5968C169.377 29.323 170.2 28.9459 171.424 29.5562C171.543 29.369 171.372 28.7136 171.323 28.4499C171.145 27.3766 171.061 26.3628 171.185 25.275C171.743 20.3855 174.942 15.9447 179.866 14.766C180.732 14.5586 181.386 14.5653 182.25 14.5771C183.502 14.597 185.297 15.3012 186.332 16.0645C188.334 17.5425 188.913 21.0463 187.435 22.9709C185.312 25.7339 181.55 26.4078 178.472 27.0183C178.646 27.662 179.024 28.4893 179.504 28.9653C181.501 30.9448 183.461 27.3371 185.407 27.4616C187.75 27.6115 188.651 30.0421 187.378 31.8889C183.901 36.4386 176.645 37.4205 173.013 32.5296C172.824 32.2744 172.61 32.0303 172.412 31.7968C172.578 33.6808 172.406 33.7136 170.67 34.4577C167.137 35.9735 161.808 36.9458 160.863 31.8131C160.525 29.9713 160.286 25.6805 160.642 23.8125C160.67 23.7094 160.735 23.0151 160.75 22.8654C159.865 23.5504 159.569 24.8099 159.103 25.8411C158.58 26.9952 158.018 28.1717 157.529 29.3338C156.851 31.1412 156.129 32.7189 155.356 34.5054C154.719 35.9745 152.963 35.8378 151.692 35.3444C150.659 34.9435 150.353 32.9431 150.035 31.8978C149.218 29.2209 148.156 26.5439 147.275 23.8814C147.201 23.6579 147.077 23.529 146.879 23.4221C146.471 23.8499 146.794 25.6573 146.67 26.2915C146.209 28.6458 146.595 33.0302 144.707 34.7048C143.705 35.5935 139.737 35.9002 138.809 34.7278C138.557 34.4084 138.284 33.7252 138.363 33.2716C139.092 30.8491 140.086 27.7372 140.425 25.273C140.667 23.522 141.82 12.1003 141.203 11.2871C140.516 11.1676 139.408 11.3017 138.472 11.1974C138.324 10.9963 137.892 10.3825 137.826 10.1427C136.719 5.99712 138.861 5.87535 142.265 5.37084C144.858 4.98652 145.242 4.45832 147.856 5.70353C148.199 6.13375 148.714 6.76537 148.924 7.26782C150.597 11.2768 151.941 15.4279 153.484 19.4873C153.826 20.386 154.151 21.209 154.427 22.1377C154.798 21.5806 155.396 20.1992 155.738 19.4935C157.352 16.1611 158.742 12.7023 160.299 9.33405C160.783 8.28758 161.822 6.14654 162.73 5.49889C162.956 5.33788 163.87 5.01734 164.18 4.90648Z" fill="black"/>
<path d="M154.338 26.7498C156.441 21.9997 158.581 17.2667 160.76 12.5511C161.515 10.9426 162.16 9.19162 163.063 7.67419C163.892 6.27962 165.675 6.67106 166.893 7.181C166.891 7.61812 166.854 8.01231 166.816 8.44991C166.226 15.2898 165.945 22.1764 166.155 29.0392C166.245 31.9707 168.363 31.0986 170.349 30.8658C170.523 31.376 170.655 31.9777 170.785 32.5064C169.149 33.3053 166.667 34.1474 164.825 33.961C163.498 33.8266 162.54 32.3294 162.407 31.0837C162.139 28.1515 162.229 25.0975 162.289 22.1483C162.334 19.9374 162.245 17.2526 162.569 15.0991C162.604 14.9879 162.693 14.1776 162.713 14.0105C162.069 14.9896 161.234 17.0019 160.692 18.1474C158.92 21.9576 157.201 25.7927 155.537 29.6515C155.129 30.5907 154.355 33.0283 153.615 33.8852C153.496 34.0243 152.801 33.9684 152.57 33.9059C152.408 33.617 151.989 32.2456 151.854 31.8366L150.45 27.6943C150.018 26.4395 149.543 25.2119 149.093 23.9659C147.87 20.5783 146.715 17.1677 145.433 13.8002C145.378 15.0671 145.468 16.3731 145.406 17.6367C145.191 22.0012 145.099 26.3991 144.505 30.7325C144.314 32.1279 144.117 32.9015 142.945 33.738C142.269 33.874 140.894 33.9333 140.261 33.6434C140.218 33.5927 140.169 33.534 140.113 33.4674C140.277 32.6472 140.956 30.6642 141.144 29.9619C142.504 24.8713 142.944 19.5601 143.038 14.3024C143.051 13.5693 143.29 10.1887 142.809 9.66652C142.396 9.21825 140.027 9.52314 139.275 9.58336C139.227 9.01331 139.211 8.34549 139.182 7.76658C140.805 7.30769 143.034 6.95374 144.715 6.78974C145.449 6.71893 146.907 6.8367 147.241 7.64936C147.731 8.84024 148.153 10.0664 148.626 11.2722C150.636 16.3885 152.424 21.595 154.338 26.7498Z" fill="#FEFEFE"/>
<path d="M180.886 16.3986C180.901 16.3961 180.915 16.3934 180.93 16.391C182.256 16.1812 183.849 16.4399 184.939 17.2345C185.734 17.8132 186.343 18.7124 186.493 19.6921C186.624 20.5443 186.399 21.351 185.89 22.0415C183.954 24.6708 179.434 25.1015 176.473 25.5501C176.625 27.007 176.955 28.5324 177.896 29.7024C178.536 30.5095 179.474 31.0249 180.499 31.1324C182.394 31.3264 183.988 30.1646 185.365 29.0325C185.718 29.3348 186.047 29.6752 186.383 29.9976C186.41 30.1497 186.388 30.2455 186.296 30.3752C184.956 32.2737 182.919 33.6775 180.609 34.0427C178.93 34.3079 177.214 33.9004 175.834 32.9087C174.277 31.7699 173.289 29.9932 172.994 28.1026C172.556 25.2132 173.291 22.2686 175.034 19.9232C176.529 17.8857 178.41 16.7825 180.886 16.3986Z" fill="#FEFEFE"/>
<path d="M180.17 18.5989C180.768 18.5497 181.295 18.6425 181.822 18.9437C182.176 19.1446 182.434 19.4804 182.536 19.8743C182.666 20.3806 182.557 20.9648 182.287 21.408C181.582 22.5637 180.195 22.9268 178.968 23.2192C178.181 23.3913 177.37 23.4722 176.566 23.5209C176.849 22.5606 177.142 21.561 177.614 20.6746C178.217 19.5413 178.966 18.9705 180.17 18.5989Z" fill="black"/>
<path d="M180.405 20.3125C180.543 20.3168 180.624 20.3816 180.733 20.4569L180.697 20.6337C180.423 20.9214 180.019 21.0854 179.667 21.2616C179.585 21.2945 179.501 21.2718 179.416 21.26C179.522 20.8584 180.073 20.5457 180.405 20.3125Z" fill="#FEFEFE"/>
<path d="M130.285 21.3179C132.121 21.4436 133.902 21.3873 135.736 21.3846C136.385 21.3835 137.106 21.4315 137.588 21.9198C138.173 22.5133 138.306 23.5909 138.29 24.3825C138.272 25.2908 137.865 26.217 137.203 26.8419C136.098 27.8866 133.732 27.605 132.3 27.5693C130.909 27.5528 129.504 27.5094 128.115 27.5723C127.274 27.6103 126.422 27.7708 125.583 27.7635C125.033 27.7587 124.748 27.3827 124.393 27.0199C124.282 26.6737 124.194 26.3045 124.175 25.9406C124.119 24.7986 124.381 23.6398 125.176 22.7832C126.516 21.3374 128.469 21.3804 130.285 21.3179Z" fill="black"/>
<path d="M128.207 23.1512C130.632 22.9316 133.856 23.1253 136.385 23.1055C136.491 23.4721 136.578 23.8441 136.61 24.2252C136.642 24.5849 136.551 24.9772 136.308 25.2526C135.809 25.8166 134.882 25.82 134.19 25.8659C132.724 25.9003 131.266 25.7428 129.803 25.7316C128.461 25.7213 127.1 25.8579 125.76 25.934C125.837 25.3234 125.913 24.6906 126.265 24.1686C126.727 23.4843 127.444 23.3006 128.207 23.1512Z" fill="#FEFEFE"/>
</svg>
