<svg width="18" height="18" viewBox="0 0 18 18" fill="none" xmlns="http://www.w3.org/2000/svg">
<path d="M16.2935 16.2688C15.5611 16.6844 14.5182 16.347 13.7879 16.3769C12.1987 16.4418 12.1636 15.9635 12.3975 14.5119C12.5222 13.7383 12.7925 12.8372 12.9184 12.0323C13.2021 10.2177 13.1026 7.50504 11.0976 6.69555C9.47686 6.17453 6.64084 5.99162 5.56453 7.59365C4.7075 8.90878 4.88618 10.607 5.02408 12.0919C5.13658 13.3032 5.84397 14.8985 5.28951 16.049C5.04169 16.5633 3.48831 16.4424 2.98686 16.387C2.6038 16.3447 2.11035 16.392 1.76659 16.1887C0.95562 15.5113 0.76938 14.328 0.529075 13.3548C0.459082 13.0713 0.394345 12.7982 0.35624 12.5116C-0.0488385 9.46505 0.033576 6.49643 1.84226 3.87484C4.66381 -0.214832 10.5491 -0.655792 14.4195 2.17092C15.6 3.03475 16.5273 4.19919 17.1051 5.54304C17.1679 5.68822 17.3469 6.09019 17.37 6.23817L17.3592 6.32657C17.3465 6.33049 17.335 6.32971 17.3287 6.34218C17.2904 6.41731 17.359 6.62125 17.3526 6.7225C17.4005 6.95469 17.4555 7.25046 17.5293 7.47196C17.5661 7.4879 17.5645 7.49458 17.5813 7.52932L17.5773 7.50566C17.6258 7.63002 17.6616 7.89178 17.6655 8.02475C17.688 8.01085 17.6878 7.99904 17.6938 7.97293C17.7124 7.89243 17.675 7.80498 17.7186 7.73292L17.7203 7.74101C18.1535 9.74523 17.7713 12.9025 17.0415 14.8115C16.843 15.3218 16.5924 15.8101 16.2935 16.2688Z" fill="#F77272"/>
<path d="M16.2935 16.2688C15.5611 16.6844 14.5182 16.347 13.7879 16.3769C12.1987 16.4418 12.1636 15.9635 12.3975 14.5119C12.5222 13.7383 12.7925 12.8372 12.9184 12.0323C13.2021 10.2177 13.1026 7.50504 11.0976 6.69555C9.47686 6.17453 6.64084 5.99162 5.56453 7.59365C4.7075 8.90878 4.88618 10.607 5.02408 12.0919C5.13658 13.3032 5.84397 14.8985 5.28951 16.049C5.04169 16.5633 3.48831 16.4424 2.98686 16.387C2.6038 16.3447 2.11035 16.392 1.76659 16.1887C0.95562 15.5113 0.76938 14.328 0.529075 13.3548C0.459082 13.0713 0.394345 12.7982 0.35624 12.5116C-0.0488385 9.46505 0.0335759 6.49643 1.84226 3.87484C4.66381 -0.214832 10.5491 -0.655792 14.4195 2.17092C15.6 3.03475 16.5273 4.19919 17.1051 5.54304C17.1679 5.68822 17.3469 6.09019 17.37 6.23817L17.3592 6.32657C17.3465 6.33049 17.335 6.32971 17.3287 6.34218C17.2904 6.41731 17.359 6.62125 17.3526 6.7225C17.2103 6.25135 17.0473 5.78395 16.8354 5.33894C16.0832 3.77505 14.854 2.49035 13.3248 1.67002C11.117 0.464474 8.51694 0.198064 6.11055 0.930815C4.13872 1.53024 2.42897 2.99224 1.4635 4.80532C0.72553 6.16517 0.338273 7.68754 0.336774 9.23471C0.330992 9.50743 0.330293 9.78023 0.334678 10.053C0.337192 10.0561 0.339804 10.0591 0.342216 10.0623C0.441755 10.1935 0.281865 10.3432 0.469822 10.3948L0.492196 10.3822C0.506896 10.3273 0.49713 10.2228 0.527544 10.1841C0.532392 10.4989 0.57684 10.8229 0.564762 11.1362C0.570153 11.2202 0.56806 11.2995 0.609335 11.3749L3.16452 11.3734C3.62382 11.3731 4.10003 11.346 4.55655 11.3883L4.57183 11.3902C4.64242 11.3367 4.69233 11.354 4.77463 11.3401L4.78609 11.3381C4.75555 10.9003 4.72859 10.4608 4.75357 10.0221C4.78755 9.08855 4.94774 8.14209 5.51925 7.37621C6.02749 6.69511 6.93366 6.33114 7.75681 6.21488C8.89904 6.05353 10.8434 6.18169 11.7759 6.88346C12.7002 7.57903 12.9978 8.61601 13.1494 9.70721C13.1893 10.2322 13.1895 10.7527 13.1685 11.2785L13.1939 11.1895C13.2115 11.2331 13.2006 11.2829 13.2354 11.315C13.275 11.2974 13.3281 11.27 13.3506 11.2317L13.3586 11.2874L13.354 11.3714L16.0322 11.3725C16.4786 11.3726 16.9456 11.3445 17.3892 11.3803C17.4004 11.3768 17.4231 11.3731 17.4322 11.367C17.5319 11.299 17.552 10.492 17.6869 10.3186C17.7353 9.97644 17.7133 9.58466 17.6985 9.23888C17.7177 8.64238 17.6012 8.05996 17.5293 7.47196C17.5661 7.4879 17.5645 7.49458 17.5813 7.52932L17.5773 7.50566C17.6258 7.63002 17.6616 7.89178 17.6655 8.02476C17.688 8.01085 17.6878 7.99904 17.6938 7.97293C17.7124 7.89243 17.675 7.80498 17.7186 7.73292L17.7203 7.74101C18.1535 9.74523 17.7713 12.9025 17.0415 14.8115C16.843 15.3218 16.5924 15.8101 16.2935 16.2688Z" fill="black"/>
<path d="M13.3539 11.3711L16.0322 11.3723C16.4786 11.3723 16.9456 11.3442 17.3892 11.38C17.4131 11.3876 17.4143 11.3959 17.4279 11.4163C17.3273 12.728 16.6962 14.8913 15.9807 15.999C15.4075 15.983 14.8343 15.9715 14.2609 15.9645C13.9067 15.9609 13.4065 16.0433 13.0729 15.9325C12.9357 15.887 12.8211 15.8053 12.7553 15.6742C12.6878 15.5397 12.6855 15.3552 12.6933 15.2073C12.7197 14.7098 12.824 14.1999 12.9182 13.7119L13.1332 12.547C13.1797 12.2965 13.2327 12.0471 13.2771 11.7963C13.3014 11.6588 13.311 11.5034 13.3539 11.3711Z" fill="#E5E5E5"/>
<path d="M14.7019 11.7466C15.4785 11.7973 15.4669 12.3564 16.0574 12.484C16.1518 12.5044 16.2558 12.5004 16.3522 12.5018C16.4629 12.3167 16.6005 12.1562 16.7582 12.01C16.4435 12.6642 16.3672 13.4059 16.0891 14.0776C15.9608 14.4008 15.8262 14.5963 15.5369 14.7955C15.4718 14.7681 15.4048 14.741 15.3439 14.7049C14.9103 14.4484 14.52 13.394 14.4091 12.9366C14.3164 12.5537 14.2549 12.1623 14.4688 11.812C14.5465 11.7824 14.62 11.7612 14.7019 11.7466Z" fill="#FEFEFE"/>
<path d="M0.609375 11.3746L3.16456 11.3731C3.62386 11.3728 4.10007 11.3457 4.55659 11.388L4.57187 11.3899C4.62791 11.689 4.638 12.0025 4.68751 12.305C4.76922 12.7932 4.84593 13.2822 4.91761 13.772C4.98158 14.1888 5.0523 14.6136 5.07657 15.0346C5.09584 15.3686 5.06108 15.6028 4.83122 15.8609C4.76343 15.8894 4.69231 15.9093 4.61954 15.9199C4.20396 15.9845 3.74605 15.9417 3.32531 15.9435C2.9635 15.9451 2.54796 15.9846 2.19167 15.939C2.09761 15.927 2.00666 15.8997 1.92996 15.8423C1.41672 15.4584 1.0898 14.0295 0.942018 13.4217C0.86192 13.0923 0.772834 12.7646 0.719237 12.4295C0.663375 12.0802 0.656052 11.725 0.609375 11.3746Z" fill="#E5E5E5"/>
<path d="M1.99792 12.4578C2.27364 12.4505 2.61769 12.6137 2.84503 12.7591C3.709 13.3117 4.18522 14.0603 4.40328 15.0567C4.3551 15.1692 4.29605 15.2621 4.22685 15.3624C3.98652 15.3743 3.84934 15.3401 3.63297 15.2347C3.63018 15.2336 3.62735 15.2325 3.62457 15.2313C3.31057 15.0998 2.39138 14.422 2.27518 14.1108C2.26613 14.0866 2.26458 14.0862 2.27452 14.0635C2.44165 14.1085 2.67092 14.3179 2.83937 14.3028C2.87576 14.2996 2.87933 14.2864 2.90007 14.2592C2.95363 13.8957 2.2169 12.7796 1.99792 12.4578Z" fill="#FEFEFE"/>
<path d="M0.334703 10.0527C0.337217 10.0558 0.339829 10.0589 0.34224 10.062C0.44178 10.1933 0.281889 10.3429 0.469847 10.3946L0.49222 10.382C0.506921 10.3271 0.497155 10.2225 0.527568 10.1838C0.532416 10.4987 0.576864 10.8227 0.564786 11.136C0.570178 11.2199 0.568084 11.2993 0.609359 11.3747C0.656036 11.7251 0.663359 12.0802 0.719221 12.4295C0.772818 12.7647 0.861904 13.0923 0.942002 13.4217C1.08979 14.0296 1.4167 15.4584 1.92995 15.8424C2.00664 15.8997 2.09759 15.9271 2.19165 15.9391C2.54794 15.9846 2.96349 15.9452 3.3253 15.9436C3.74603 15.9418 4.20394 15.9846 4.61952 15.9199C4.6923 15.9093 4.76342 15.8895 4.8312 15.861C5.06107 15.6028 5.09582 15.3687 5.07655 15.0347C5.05228 14.6136 4.98156 14.1888 4.9176 13.772C4.84591 13.2823 4.7692 12.7932 4.6875 12.3051C4.63798 12.0026 4.62789 11.6891 4.57185 11.3899C4.64245 11.3364 4.69235 11.3538 4.77465 11.3399L4.78611 11.3378C4.81417 11.4581 4.81457 11.6035 4.82753 11.7275C4.85345 11.9995 4.88771 12.2705 4.93027 12.5403C5.06263 13.3588 5.29862 14.1671 5.33791 14.9996C5.35192 15.2966 5.32407 15.7774 5.11015 16.0052C4.87564 16.255 4.36496 16.2798 4.04481 16.2855C3.72086 16.2912 3.39936 16.2583 3.07653 16.2382C2.75724 16.2184 2.39707 16.2285 2.08922 16.1399C1.94614 16.0987 1.82713 16.0309 1.72016 15.9269C1.47755 15.691 1.30446 15.3657 1.1755 15.0565C1.04696 14.7483 0.964367 14.4221 0.877533 14.1003C0.613007 13.12 0.38229 12.0617 0.368263 11.0431C0.31109 10.7466 0.333715 10.3573 0.334703 10.0527Z" fill="#928F90"/>
<path d="M0.334703 10.0527C0.337217 10.0558 0.339829 10.0589 0.34224 10.062C0.44178 10.1933 0.281889 10.3429 0.469847 10.3946L0.49222 10.382C0.506921 10.3271 0.497155 10.2225 0.527568 10.1838C0.532416 10.4987 0.576864 10.8227 0.564786 11.136C0.563871 11.1335 0.562899 11.131 0.562041 11.1284C0.499201 10.9437 0.499041 10.6957 0.494551 10.4997C0.471301 10.4904 0.458514 10.4914 0.433527 10.4955C0.26117 10.5234 0.478931 10.8882 0.368263 11.0431C0.31109 10.7466 0.333715 10.3573 0.334703 10.0527Z" fill="#F77272"/>
<path d="M17.6869 10.3184C17.6667 12.0249 17.3534 13.7672 16.6329 15.3207C16.5147 15.5758 16.3764 15.9221 16.1736 16.1209C15.9226 16.3669 15.3229 16.3047 14.9931 16.2975C14.6069 16.289 14.2258 16.2442 13.8409 16.2263C13.5542 16.213 13.2411 16.244 12.9609 16.1863C12.8367 16.1607 12.7157 16.1088 12.6263 16.0164C12.4622 15.8469 12.437 15.5808 12.4442 15.3557C12.4607 14.8361 12.6045 14.2987 12.7177 13.7931C12.8415 13.2621 12.9519 12.7282 13.0487 12.1916C13.1032 11.8914 13.1659 11.5844 13.1685 11.2782L13.1939 11.1892C13.2115 11.2329 13.2007 11.2826 13.2354 11.3148C13.275 11.2972 13.3281 11.2698 13.3506 11.2315L13.3586 11.2872L13.354 11.3711C13.3111 11.5034 13.3015 11.6589 13.2771 11.7963C13.2327 12.0471 13.1797 12.2965 13.1332 12.547L12.9182 13.7119C12.824 14.1999 12.7198 14.7099 12.6934 15.2073C12.6855 15.3552 12.6879 15.5397 12.7554 15.6742C12.8211 15.8054 12.9357 15.887 13.073 15.9326C13.4066 16.0433 13.9067 15.961 14.261 15.9645C14.8343 15.9715 15.4076 15.983 15.9807 15.999C16.6962 14.8913 17.3273 12.728 17.428 11.4163C17.4144 11.3959 17.4131 11.3876 17.3892 11.38C17.4004 11.3766 17.4232 11.3729 17.4322 11.3667C17.5319 11.2987 17.552 10.4917 17.6869 10.3184Z" fill="#939192"/>
<path d="M1.92499 4.96249C1.93865 4.93864 1.96463 4.91454 1.98405 4.89429C3.26845 3.55459 5.14435 2.47851 6.96028 2.06346C7.22268 2.00348 7.65294 1.9029 7.91648 1.89697C7.77666 1.9669 7.54904 1.9421 7.43594 2.00225C7.35916 2.04308 7.1712 2.43456 7.12766 2.525C7.14821 2.63156 7.26693 3.11491 7.27424 3.1832C7.31328 3.54865 7.30131 4.33868 7.10535 4.64503C6.94618 4.85955 6.75403 5.05262 6.57075 5.24647C6.54011 5.27888 6.39256 5.37967 6.38873 5.38822C6.30481 5.57505 6.16598 5.55611 6.02968 5.66166C5.85534 5.79664 5.69249 5.93878 5.49753 6.04513C5.49384 6.04574 5.49013 6.04634 5.48642 6.04696C5.47964 6.02695 5.47591 6.01648 5.47062 5.99589L5.41954 6.07027C4.89005 6.11047 4.26778 6.08812 3.75065 5.96794C3.2222 5.84514 2.79395 5.34714 2.29926 5.11994C2.12527 5.04003 2.0329 5.0738 1.85559 5.06975L1.86647 5.05724L1.89098 5.0286C1.91516 5.00036 1.92005 4.99782 1.92499 4.96249Z" fill="#F77272"/>
<path d="M6.99635 1.33397C7.24638 1.27397 7.55605 1.19032 7.80383 1.1519C9.6036 0.865381 11.4468 1.22336 13.0085 2.16274C13.2717 2.32472 13.526 2.5009 13.7701 2.69052C14.3506 3.15054 15.7282 4.42381 15.898 5.13326C15.9046 5.16116 15.9108 5.18918 15.9165 5.21729C15.3226 4.4866 14.4248 3.69472 13.6397 3.17154C12.511 2.42794 11.2173 1.97228 9.87169 1.84447C9.29449 1.78484 8.73528 1.79927 8.15909 1.86322C8.11762 1.86781 7.94451 1.88252 7.91654 1.89718C7.65301 1.90311 7.22275 2.00369 6.96035 2.06367C5.14442 2.47872 3.26852 3.5548 1.98412 4.8945C1.9647 4.91475 1.93872 4.93885 1.92506 4.9627C1.86021 5.01203 1.77687 5.08675 1.6965 5.09152C1.66436 5.07851 1.65734 5.05886 1.63892 5.0289C1.80379 4.63684 2.32897 3.92668 2.60099 3.60316C3.43076 2.61627 4.55557 1.79354 5.76625 1.34545C5.944 1.27966 6.27285 1.12477 6.46007 1.11165C6.56048 1.14113 6.63682 1.07548 6.69805 1.08966C6.71126 1.13196 6.71462 1.1376 6.71399 1.18115C6.81197 1.23527 6.90139 1.21549 6.95899 1.26979L6.93498 1.31764C6.96381 1.3313 6.96251 1.33183 6.99635 1.33397Z" fill="#FEA1A0"/>
<path d="M6.46007 1.11143C6.56048 1.14091 6.63682 1.07525 6.69805 1.08944C6.71126 1.13174 6.71462 1.13738 6.71399 1.18093C6.81197 1.23504 6.90139 1.21527 6.95899 1.26957L6.93498 1.31741C6.96381 1.33107 6.96251 1.33161 6.99635 1.33375C6.50462 1.48699 6.01273 1.63753 5.53321 1.82802C5.41068 1.87669 5.28292 1.97466 5.15602 2.03825C4.60159 2.31567 4.01529 2.70334 3.52753 3.08735C3.14959 3.38491 2.74001 3.90113 2.40949 4.25041C2.2842 4.38283 1.72449 4.9824 1.6965 5.09129C1.66436 5.07829 1.65734 5.05863 1.63892 5.02868C1.80379 4.63662 2.32897 3.92646 2.60099 3.60294C3.43076 2.61605 4.55557 1.79332 5.76625 1.34522C5.944 1.27944 6.27285 1.12455 6.46007 1.11143Z" fill="#F77272"/>
<path d="M0.336792 9.23435C0.338291 7.68718 0.725548 6.1648 1.46352 4.80496C2.42898 2.99188 4.13874 1.52988 6.11056 0.930455C8.51696 0.197704 11.117 0.464114 13.3248 1.66966C14.854 2.48999 16.0832 3.77469 16.8354 5.33858C17.0473 5.78359 17.2103 6.25099 17.3526 6.72214C17.4005 6.95433 17.4556 7.2501 17.5294 7.4716C17.6012 8.0596 17.7177 8.64202 17.6986 9.23852C17.639 9.01693 17.6376 8.58208 17.611 8.33663C17.5619 7.88611 17.493 7.37509 17.3683 6.94139L17.3506 6.94432L17.3121 7.00423C17.3039 6.95624 17.2848 6.89045 17.3028 6.85005L17.3268 6.89083L17.3517 6.8963C16.9678 5.1329 15.7652 3.4264 14.3329 2.35647C14.269 2.30874 14.1419 2.30978 14.0959 2.2474C14.1002 2.21959 14.1018 2.2198 14.0958 2.19268C14.0338 2.189 13.9577 2.18906 13.9017 2.16583C13.8795 2.1218 13.8919 2.12017 13.9094 2.06119C13.833 2.04778 13.7722 2.03834 13.6977 2.01422C13.6464 1.95342 13.6826 2.0019 13.6887 1.9238C13.4267 1.91695 13.632 1.73366 13.2615 1.76159C13.2154 1.73566 13.2226 1.72167 13.1987 1.66161C13.1694 1.63877 13.1135 1.64165 13.1102 1.63785C13.0012 1.51307 12.8321 1.46158 12.6923 1.39825C12.0757 1.11883 11.4408 0.91118 10.7805 0.764538C10.632 0.731571 10.4171 0.808848 10.3185 0.77136C10.2837 0.728066 10.2943 0.746505 10.2892 0.678051C10.2019 0.657925 10.2138 0.726202 10.1392 0.706805L10.1324 0.655756C9.99454 0.62973 9.99594 0.671126 9.89325 0.768117L9.66263 0.75098C9.59307 0.70585 9.58398 0.690805 9.53675 0.621412L9.55066 0.582165C9.38224 0.57074 8.59597 0.544418 8.56595 0.730873C8.64217 0.784352 8.8961 0.75127 9.00067 0.753088C10.6007 0.780891 12.2074 1.23753 13.5592 2.08686C15.4158 3.24373 16.7455 5.08168 17.2634 7.20699C17.3635 7.60451 17.4123 8.00334 17.4456 8.41002C17.4594 8.57867 17.5422 8.74761 17.52 8.92401C17.5178 8.94088 17.5866 9.04029 17.5971 9.0858C17.5703 9.12468 17.585 9.11524 17.5439 9.12577C17.5137 9.06345 17.4974 8.82415 17.48 8.74209C17.3902 8.32081 17.3849 7.87813 17.2961 7.45856C16.7692 4.96916 15.1056 2.84725 12.8355 1.70754C11.1666 0.885831 9.28419 0.600974 7.44685 0.892091C7.15196 0.939632 6.74354 1.01695 6.46005 1.11118C6.27283 1.1243 5.94398 1.27919 5.76623 1.34498C4.55555 1.79307 3.43074 2.6158 2.60097 3.60269C2.32895 3.92621 1.80377 4.63637 1.6389 5.02843C1.51852 5.20718 1.41962 5.43512 1.33243 5.6283C0.872707 6.64683 0.647631 7.72752 0.561465 8.83698C0.555877 8.90894 0.546511 8.9859 0.544086 9.0592L0.519858 9.1443C0.45732 9.15043 0.425148 9.1379 0.370356 9.17244L0.336792 9.23435Z" fill="#F77272"/>
<path d="M4.58939 9.81802C4.56856 9.53045 4.60753 9.16542 4.67081 8.88598C4.88148 7.95557 5.25959 7.09039 6.09778 6.56474C7.06602 5.95755 8.45039 5.94588 9.56041 6.01282C9.87596 6.03184 10.1968 6.04084 10.506 6.11171C11.3859 6.31346 12.2644 6.77314 12.7529 7.55871C12.9823 7.92766 13.4526 9.19776 13.3617 9.59128C13.344 9.57026 13.3425 9.5604 13.3137 9.55877C13.2734 9.5565 13.2267 9.57891 13.1992 9.60867C13.1759 9.63396 13.1622 9.67504 13.1494 9.70677C12.9977 8.61558 12.7002 7.57859 11.7759 6.88302C10.8433 6.18125 8.89896 6.05309 7.75674 6.21444C6.93359 6.3307 6.02742 6.69467 5.51918 7.37577C4.94766 8.14165 4.78747 9.08811 4.7535 10.0216L4.73514 9.92587C4.72975 9.96269 4.72287 9.99824 4.71379 10.0343L4.65792 10.0532C4.64898 10.0468 4.6408 10.0403 4.63298 10.0325C4.5756 9.97482 4.58782 9.89305 4.58939 9.81802Z" fill="#F77272"/>
<path d="M13.1494 9.70725C13.1623 9.67552 13.1759 9.63444 13.1993 9.60914C13.2267 9.57938 13.2734 9.55697 13.3137 9.55924C13.3425 9.56087 13.3441 9.57074 13.3618 9.59176C13.357 9.94487 13.4849 11.0304 13.3585 11.2875L13.3505 11.2317C13.3281 11.2701 13.275 11.2975 13.2353 11.3151C13.2006 11.2829 13.2115 11.2332 13.1939 11.1895L13.1684 11.2785C13.1895 10.7527 13.1892 10.2322 13.1494 9.70725Z" fill="#A25958"/>
<path d="M4.55654 11.3882C4.56734 10.8643 4.50934 10.3413 4.58945 9.81836C4.58788 9.89338 4.57567 9.97516 4.63304 10.0328C4.64086 10.0407 4.64904 10.0471 4.65799 10.0535L4.71385 10.0347C4.72294 9.99857 4.72981 9.96303 4.73521 9.9262L4.75356 10.022C4.72858 10.4607 4.75554 10.9002 4.78608 11.338L4.77462 11.34C4.69232 11.3539 4.64241 11.3366 4.57182 11.3901L4.55654 11.3882Z" fill="#F77272"/>
<path d="M0.336719 9.23472L0.370283 9.17281C0.425076 9.13827 0.457247 9.1508 0.519785 9.14467L0.544013 9.05957C0.549596 9.43017 0.556761 9.81478 0.52749 10.1841C0.497076 10.2228 0.506842 10.3273 0.492142 10.3822L0.469768 10.3949C0.281811 10.3432 0.441701 10.1936 0.342162 10.0623C0.33975 10.0591 0.337138 10.0561 0.334624 10.053C0.330238 9.78024 0.330938 9.50744 0.336719 9.23472Z" fill="#F77272"/>
<path d="M5.19834 6.59707L5.18184 6.57406C5.34464 6.3955 5.53387 6.19328 5.70667 6.01672C5.72695 5.99598 5.85485 5.96914 5.86114 5.94225C5.87121 5.89925 5.85017 5.89113 5.88848 5.84896L5.90969 5.87629C5.92625 5.8781 6.02963 5.81864 6.05327 5.8106C6.20893 5.75773 6.10003 5.63002 6.24885 5.58158L6.28342 5.63071C6.34915 5.65154 6.28442 5.57486 6.40309 5.52378C6.407 5.54233 6.41069 5.55841 6.41552 5.57673C6.48559 5.55391 6.58067 5.44937 6.60521 5.44218C7.07187 5.30544 7.89224 4.90816 8.37691 5.0047L8.38976 5.00598C8.49654 5.01597 8.69171 5.00545 8.80558 5.00414C9.03834 5.00078 9.27114 5.0076 9.50329 5.0246C10.6003 5.11351 11.8823 5.6222 12.6015 6.47783C12.925 6.8684 13.1261 7.34572 13.1798 7.85003C12.7237 7.20785 11.8636 6.56307 11.1598 6.20303C10.8291 6.03384 10.183 5.87172 9.81218 5.80445C8.23148 5.51766 5.46623 6.07429 4.61853 7.57404C4.6033 7.41835 5.07199 6.76272 5.19834 6.59707Z" fill="#B50D09"/>
<path d="M5.19839 6.59707L5.18188 6.57406C5.34469 6.3955 5.53392 6.19328 5.70671 6.01672C5.727 5.99598 5.8549 5.96914 5.86119 5.94225C5.87126 5.89925 5.85022 5.89113 5.88853 5.84896L5.90974 5.87629C5.9263 5.8781 6.02968 5.81864 6.05332 5.8106C6.20897 5.75773 6.10008 5.63002 6.24889 5.58158L6.28347 5.63071C6.3492 5.65154 6.28447 5.57486 6.40314 5.52378C6.40704 5.54233 6.41074 5.55841 6.41557 5.57673C6.48564 5.55391 6.58072 5.44937 6.60526 5.44218C7.07192 5.30544 7.89229 4.90816 8.37695 5.0047C7.27003 5.12862 6.51928 5.44431 5.64342 6.14685C5.50777 6.25566 5.27886 6.53621 5.19839 6.59707Z" fill="#E77474"/>
<path d="M17.37 6.23779C17.4849 6.57505 17.735 7.40565 17.7186 7.73255C17.675 7.8046 17.7125 7.89205 17.6938 7.97256C17.6879 7.99866 17.688 8.01048 17.6655 8.02438C17.6617 7.8914 17.6258 7.62965 17.5774 7.50528L17.5813 7.52894C17.5645 7.49421 17.5662 7.48753 17.5294 7.47158C17.4556 7.25008 17.4005 6.95431 17.3526 6.72212C17.3591 6.62087 17.2904 6.41693 17.3287 6.3418C17.3351 6.32934 17.3466 6.33011 17.3592 6.32619L17.37 6.23779Z" fill="black" fill-opacity="0.980392"/>
</svg>
