<svg width="47" height="50" viewBox="0 0 47 50" fill="none" xmlns="http://www.w3.org/2000/svg">
<g clip-path="url(#clip0_30141_32216)">
<path d="M36.1657 0.213867C36.3831 0.336947 45.6824 16.0478 46.7352 17.8028C46.2961 18.5509 45.8463 19.4095 45.4161 20.1781L41.9552 26.4008L33.4339 41.6856L30.3148 47.309C30.0307 47.8204 29.1274 49.5216 28.8383 49.8476C27.6966 49.8797 26.4222 49.8528 25.2707 49.8528L18.4574 49.8509L7.80469 49.8542L26.9423 16.3352L32.9804 5.77198C33.9913 3.9995 35.105 1.93393 36.1657 0.213867Z" fill="white"/>
<path d="M0.140625 0.151256L34.9892 0.148926C32.8316 3.84493 30.7046 7.55945 28.6093 11.2921C27.3163 13.4202 26.1281 15.6825 24.8346 17.8282L10.2469 17.8405C9.44408 16.2921 8.30723 14.4244 7.424 12.8899L2.68234 4.6308C1.87742 3.23658 0.861261 1.56268 0.140625 0.151256Z" fill="white"/>
</g>
<defs>
<clipPath id="clip0_30141_32216">
<rect width="47" height="50" fill="white"/>
</clipPath>
</defs>
</svg>
