<svg width="137" height="40" viewBox="0 0 137 40" fill="none" xmlns="http://www.w3.org/2000/svg">
<g clip-path="url(#clip0_30141_32206)">
<path d="M34.9367 11.9254C35.6004 11.8455 36.6081 11.8951 37.2713 11.891C39.9231 11.8746 43.0929 11.6216 44.8749 13.8491C45.7253 14.9122 46.4708 16.3382 47.173 17.4977L50.8679 23.5742L50.8634 16.3252C50.8632 15.7811 50.8529 15.1786 50.8632 14.6493C50.8957 12.966 50.5727 11.8047 52.9396 11.8814C54.5825 11.8897 56.2822 11.9296 57.9225 11.8823C60.2778 11.8144 59.9466 13.1554 59.9296 14.8276C59.8971 18.0163 59.9554 21.2234 59.9178 24.4183L51.3316 24.4134C51.6729 24.8536 52.2005 25.7502 52.5092 26.2431L59.9228 26.2429L59.9222 33.2383C59.9244 34.6527 59.9424 36.0695 59.9038 37.483C59.8843 38.1989 59.5368 38.5418 58.8122 38.7482C56.91 38.9195 53.8808 38.8472 52.0162 38.5451C50.2367 38.2568 49.146 37.0824 48.3005 35.7162C46.5201 32.8391 44.833 29.8439 42.9979 26.9905C42.9545 30.5812 42.9919 34.2436 42.9909 37.8388C42.723 38.2843 42.4663 38.7211 41.8379 38.744C39.6006 38.8247 37.2998 38.8395 35.0647 38.7367C34.6214 38.7164 34.2611 38.2883 34.0375 37.9927C33.9054 37.1151 33.9654 34.8444 33.966 33.8866L33.9704 26.2305C36.7615 26.2905 39.7693 26.2383 42.5772 26.2376C42.2026 25.6295 41.8229 24.988 41.4034 24.4081L33.975 24.4189C33.9192 22.0527 33.9921 19.5745 33.9657 17.1953C33.9536 16.0942 33.9006 13.6764 34.0358 12.6734C34.3259 12.2552 34.4552 12.1511 34.9367 11.9254Z" fill="white"/>
<path d="M113.663 0.331928C113.955 0.289314 115.569 0.410019 115.918 0.466396C119.143 0.986913 121.995 2.5991 123.922 4.99752C125.903 7.4592 126.742 10.5365 126.256 13.5607C125.759 16.4989 124.162 19.1237 121.49 20.9221C120.551 21.5543 117.369 23.2351 116.294 21.8744C115.545 20.927 116.984 19.1077 117.51 18.1556C117.748 17.7279 117.929 17.2753 118.048 16.8078C118.702 14.2101 116.858 12.4383 114.196 11.9209C113.993 11.9173 113.739 11.9146 113.537 11.9353C112.285 12.07 111.144 12.6577 110.369 13.5672C108.056 16.3367 110.948 18.4848 111.567 21.0288C111.982 22.7314 109.568 22.4659 108.441 22.0428C100.734 19.15 99.085 9.54487 104.564 4.11261C107.135 1.56583 109.932 0.506423 113.663 0.331928Z" fill="white"/>
<path d="M68.5671 26.2395L80.2028 26.244C78.8291 27.9744 77.2961 29.6742 75.9673 31.4204L82.9417 31.4137C84.0979 31.4131 85.2486 31.4057 86.4027 31.4345C87.5892 31.4641 87.8391 32.1168 87.8778 33.1007C87.8867 34.1832 87.8985 35.2724 87.8867 36.3543C87.8729 37.5937 88.0075 38.7017 86.3053 38.7658L71.618 38.7685L66.7834 38.775C65.8309 38.7758 64.8473 38.7987 63.8968 38.7357C63.2273 38.6831 62.7687 38.092 62.7368 37.5129C62.6494 35.9293 62.7821 34.2314 63.4664 32.7603C64.0337 31.5409 64.9978 30.5174 65.8651 29.4748C66.7593 28.392 67.6601 27.3136 68.5671 26.2395Z" fill="white"/>
<path d="M63.9373 11.9204C65.0209 11.8484 66.691 11.8966 67.8175 11.897H75.0687L82.1722 11.894C83.5106 11.8899 84.8517 11.8701 86.1902 11.9006C86.8756 11.9162 87.423 12.336 87.5382 12.9545C87.6397 13.5018 87.5645 14.0807 87.5935 14.6021C87.7198 16.8256 86.7161 18.622 85.1796 20.2769C84.2892 21.3459 82.8686 22.9449 82.0776 24.0283C82.0155 24.1043 81.7739 24.383 81.6924 24.3877C80.6805 24.4458 79.6154 24.4129 78.6021 24.4123L70.0809 24.4124C71.4538 22.6964 72.9337 20.9605 74.3418 19.2612C72.9061 19.247 64.566 19.4074 63.8313 19.162C63.5209 19.0583 63.2701 18.8666 63.1346 18.5875C63.0141 18.3392 62.9673 18.0553 62.9454 17.7863C62.8841 17.0329 62.8531 13.1581 63.0716 12.6514C63.2434 12.2532 63.5229 12.0884 63.9373 11.9204Z" fill="white"/>
<path d="M96.5401 22.1768C97.6425 22.0537 100.067 22.5929 101.093 22.9689C107.034 25.1472 110.403 30.9936 108.101 36.623C107.452 38.2073 105.619 40.4629 103.506 39.6662C103.361 39.602 103.225 39.5212 103.103 39.4256C102.787 39.178 101.932 38.2284 101.622 37.8948L98.8001 34.8515L93.7508 29.3333C92.8873 28.3802 92.0079 27.4268 91.1913 26.4395C90.5811 25.7014 90.6785 24.5141 91.3708 23.8474C92.7258 22.5431 94.6771 22.2934 96.5401 22.1768Z" fill="white"/>
<path d="M130.949 22.1768C131.022 22.1692 131.003 22.1683 131.061 22.1698C132.915 22.2237 134.959 22.5609 136.308 23.8235C136.89 24.3683 137.171 25.4569 136.706 26.1221C135.914 27.2553 134.889 28.3117 133.949 29.3531C132.335 31.1341 130.711 32.9072 129.077 34.6725L126.138 37.8432C125.739 38.2726 125.028 39.0984 124.616 39.4363C123.494 40.1083 122.383 39.9093 121.442 39.0982C117.762 35.9228 118.34 29.5446 121.591 26.2892C124.347 23.5289 126.993 22.41 130.949 22.1768Z" fill="white"/>
<path d="M21.2569 11.9384C22.257 11.791 23.7335 11.9297 24.7821 11.8831C25.9131 11.8889 26.7026 12.0946 26.9075 13.201C27.5914 16.893 28.5222 20.7249 29.0947 24.4145L16.9416 24.4105L8.99805 24.413L12.8977 18.6949C15.3432 15.0987 16.3288 12.7562 21.2569 11.9384Z" fill="white"/>
<path d="M7.74375 26.2351L18.3961 26.2369L13.1429 33.9118C12.6179 34.6844 10.6748 37.7076 10.0826 38.218C8.59512 39.2563 5.35117 38.6306 3.51377 38.7851C2.93136 38.834 1.96481 38.7986 1.37132 38.7854C0.255711 38.7606 -0.21038 37.8508 0.432424 37.0187C1.24769 35.7575 2.07389 34.5667 2.91013 33.347L7.74375 26.2351Z" fill="white"/>
<path d="M19.4844 26.2305C22.712 26.2897 26.1809 26.2392 29.4254 26.239C30.2836 29.8604 30.793 33.6386 31.5779 37.2809C31.69 37.8018 31.5641 37.9987 31.2494 38.4138C31.0945 38.5271 30.838 38.6889 30.6368 38.7171C29.3985 38.8651 27.9822 38.7944 26.7265 38.7808C25.7234 38.7699 23.09 38.9676 22.3648 38.5298C22.1273 38.3837 21.9482 38.171 21.8544 37.9237C21.5634 37.1797 21.2666 35.1546 21.0836 34.2971C20.5122 31.6187 20.1028 28.9057 19.4844 26.2305Z" fill="white"/>
</g>
<defs>
<clipPath id="clip0_30141_32206">
<rect width="137" height="40" fill="white"/>
</clipPath>
</defs>
</svg>
