<svg width="166" height="36" viewBox="0 0 166 36" fill="none" xmlns="http://www.w3.org/2000/svg">
<g clip-path="url(#clip0_30141_33081)">
<path d="M10.8491 12.43C9.67615 13.3114 8.43048 14.1354 6.96587 14.516C6.43751 14.6533 5.75419 14.6286 5.27224 14.8742C4.86297 15.0732 4.59698 15.544 4.27217 15.8177C3.74826 16.2595 2.55543 17.2905 1.84664 17.0071C1.40103 16.1716 3.00848 14.5201 3.55568 13.9017C6.56222 10.4781 10.0173 7.44197 13.835 4.86895C17.9584 2.05461 23.1089 -0.355553 28.3155 0.185324C30.4749 0.409639 29.8386 1.97014 30.4804 2.7561L30.7177 2.86554C30.4241 3.06292 30.356 3.10772 30.1521 3.39793L30.2259 3.27109L30.2548 3.45438C31.0129 3.64863 34.0165 1.61756 33.0598 4.37518C32.7306 5.32408 30.6723 7.99602 31.2627 8.79947C31.5138 8.84749 31.5919 8.82331 31.8459 8.77485L32.1092 9.26252C31.0676 10.1676 31.6051 10.203 29.853 10.7744C29.1203 8.41845 29.2559 6.2508 29.4209 3.81331C29.4608 3.22255 29.5371 1.70325 28.8423 1.49325C26.7632 0.864847 24.1459 1.49456 22.1076 2.06426C15.893 3.85376 10.6212 7.71399 6.06114 12.0278C5.10304 12.9342 3.43759 14.6302 2.83193 15.7459C2.78227 15.8378 2.7337 15.93 2.68612 16.0229C4.01742 15.3059 5.93417 13.1293 7.23729 11.9897C11.166 8.61348 15.6931 5.93998 20.6039 4.09586C18.8552 6.99762 22.4174 6.05446 23.8084 5.42082C24.0997 5.28816 24.9145 4.86851 25.1653 4.86538C25.0253 5.30025 24.0436 6.36998 24.5545 7.29904C25.6568 8.05691 26.8479 6.17721 27.6481 6.48046C27.9969 7.09357 27.2744 9.17379 27.1198 9.9127C27.4333 9.71992 27.9012 9.41328 28.2174 9.25539C27.6758 11.7406 26.857 12.626 24.7915 14.0758C22.0078 16.0297 18.7721 15.8039 15.9423 17.2126C15.8345 16.9551 15.87 16.7419 15.8876 16.4672C16.1714 16.2936 16.5387 16.0925 16.7544 15.8572C16.796 15.4826 16.5837 15.2629 16.3862 14.8504C14.8044 14.654 14.4952 14.4222 14.7265 12.8348C13.1616 13.0337 12.3225 13.0313 10.8491 12.43Z" fill="white"/>
<path d="M124.867 3.20335C129.217 2.77848 133.117 5.7842 133.624 9.95282C134.131 14.1214 131.059 17.9091 126.724 18.4584C123.861 18.8211 121.018 17.6756 119.283 15.4608C117.547 13.2462 117.189 10.3059 118.346 7.76682C119.503 5.22781 121.995 3.48381 124.867 3.20335ZM126.33 15.2488C128.863 14.8964 130.62 12.6411 130.256 10.2094C129.892 7.77769 127.544 6.08911 125.01 6.43638C122.472 6.78417 120.71 9.04185 121.075 11.4771C121.44 13.9123 123.793 15.6016 126.33 15.2488Z" fill="white"/>
<path d="M137.261 3.58002C137.283 3.57871 137.305 3.57767 137.327 3.5768C138.787 3.52669 140.295 3.58872 141.748 3.55357C144.851 3.47867 149.134 3.27511 149.351 7.31725C149.435 8.87195 148.526 9.57006 147.529 10.5799C147.789 10.6703 148.042 10.7811 148.284 10.9109C150.308 11.9891 150.722 14.2582 149.633 16.1267C148.244 18.4703 144.1 18.1329 141.709 18.1374C140.228 18.1402 138.755 18.1324 137.271 18.1673C137.129 13.5533 137.262 8.24936 137.261 3.58002ZM140.607 15.242C142.246 15.2187 145.297 15.4837 146.495 14.6985C146.917 14.2257 146.839 13.805 146.829 13.1783C146.185 12.4456 145.611 12.1539 144.57 12.1031C143.345 12.0434 141.836 12.0649 140.607 12.1147V15.242ZM140.609 9.44035C142.086 9.47419 144.26 9.68636 145.508 8.96495C146.181 8.1133 146.083 7.69435 145.569 6.79243C144.094 6.25926 142.186 6.33703 140.598 6.4355L140.609 9.44035Z" fill="white"/>
<path d="M15.105 18.4739C14.9232 18.7595 14.7535 18.9586 14.8597 19.2853C15.4842 19.5139 17.6625 18.4873 18.4034 18.2404C19.5188 17.8684 19.1177 18.608 19.8358 18.9265C20.6963 19.308 22.5143 18.2518 23.4875 17.9255C23.8441 18.052 23.5732 18.1682 23.8951 18.5611C25.1006 18.7884 28.0748 16.1923 28.9206 15.4208C29.3267 15.1535 30.4466 14.9306 30.7357 14.5723C32.293 12.6427 33.8103 11.6797 36.0541 10.6275C36.2826 10.5204 36.8408 9.53056 36.9989 9.5604C37.5213 9.6587 37.7805 10.3066 38.5877 9.80215L38.603 9.66983C38.3976 9.36371 37.7224 8.97834 37.3704 8.74982C37.5237 8.64682 39.5594 8.89352 39.8804 8.92971C39.6223 9.1973 39.1836 9.54431 39.2361 9.91193C39.4941 10.1008 39.5788 10.1349 39.8695 10.2526C39.8296 10.3971 39.8075 10.4658 39.7986 10.6197C40.0908 10.6831 40.4605 10.5296 40.7596 10.4381C40.8285 10.5758 40.9229 10.7355 40.9371 10.8843C39.9791 11.0803 38.3549 11.5602 37.5058 12.0904C37.3802 12.1687 36.9523 12.8076 36.915 12.8193C36.3253 13.0046 36.3405 12.4016 35.9112 13.0483C35.7237 13.3309 35.339 14.1208 35.0042 14.1843C34.7 14.2422 34.3951 13.8574 34.2075 14.1297C33.5474 15.0879 33.2948 16.1067 32.9577 17.142C32.2959 19.1739 29.2907 20.76 27.3548 21.5126L27.614 20.195C26.2757 22.3989 26.1367 25.9237 26.8008 28.3381C26.8212 28.4121 26.8421 28.4859 26.8636 28.5595L26.6558 28.9636C26.2898 28.8089 25.9637 28.8624 25.5969 28.9986C25.4953 29.3499 25.7559 29.9564 26.1494 30.099C26.5437 29.9905 26.5817 29.9077 26.9035 30.0381C27.2059 30.5049 26.9974 30.8647 27.277 31.0674C27.3935 30.9352 27.4261 30.9013 27.5082 30.7428L27.5724 30.6771L27.649 30.8611C27.6261 31.6271 27.6975 32.3565 26.7889 32.6596C26.3847 32.3218 26.9033 31.2188 26.6723 30.7062C26.1933 30.9485 25.703 32.6535 24.6567 32.402L24.6399 32.2569C24.8156 32.1772 24.8807 32.1431 25.0396 32.0361C25.1516 31.4209 25.2635 30.8394 25.3262 30.2165C24.8888 29.8728 23.6354 30.3855 23.2335 30.1421L23.2297 29.9677C23.436 29.5186 24.2572 29.239 24.7244 29.0475C24.2289 28.6933 23.8702 28.522 23.2999 28.3074C23.2731 27.7236 23.0144 26.1977 22.6183 25.7518C22.4537 25.757 22.3813 25.7693 22.2221 25.7978C21.9367 25.5086 22.0165 23.7125 21.9137 22.9965C20.0649 22.6691 16.3232 22.4297 14.8332 21.5425C12.6013 22.3951 12.4524 21.4838 10.3277 21.7317C9.37735 21.9301 8.31611 22.3519 7.42751 22.6865C6.34906 23.0927 1.10268 24.4528 0.203125 23.7523L0.237835 23.5748C0.485065 23.2363 1.86567 23.0558 2.43317 22.8747C4.52348 22.2076 6.58813 21.3759 8.5985 20.5143C9.36647 20.1852 9.88875 19.7397 10.7255 19.4398C10.8952 19.7413 10.7832 19.9025 11.1137 20.1298C11.8215 20.366 14.1749 18.8908 15.105 18.4739Z" fill="white"/>
<path d="M102.01 3.57516C104.204 3.55202 109.825 3.27208 111.662 3.97114C112.834 4.4175 113.779 5.16083 114.278 6.28963C114.836 7.55274 114.829 9.17757 114.283 10.4442C113.77 11.634 112.726 12.4133 111.514 12.8905C112.317 14.4558 114.189 16.4987 115.112 18.142L113.232 18.1426C112.57 18.1527 111.908 18.1487 111.246 18.1304C110.868 17.7792 108.445 14.2242 108.024 13.5996C107.256 13.4294 106.168 13.4908 105.372 13.5152L105.366 18.1625L102.017 18.1402C101.926 13.3816 102.011 8.35533 102.01 3.57516ZM105.384 10.5683C106.864 10.552 109.266 10.764 110.458 10.1911C111.265 9.38321 111.283 8.843 111.146 7.75648C110.811 7.26559 110.604 6.91492 110.001 6.72833C108.664 6.31434 106.934 6.45422 105.54 6.47353C105.319 6.68118 105.363 6.9064 105.359 7.25567C105.355 8.35994 105.363 9.4642 105.384 10.5683Z" fill="white"/>
<path d="M69.6469 3.57836C70.6886 3.55592 71.7309 3.55531 72.7728 3.57636C73.2187 4.27707 74.3536 7.08341 74.789 8.05067C75.7853 10.241 76.7658 12.438 77.7305 14.6414C78.1625 15.6192 78.9324 17.1811 79.1972 18.1464C75.1658 18.0727 75.8899 18.8102 74.4144 14.9338C73.9765 14.8809 73.3963 14.8836 72.9448 14.8736C71.5024 14.8674 69.3268 14.8107 67.9424 14.9704C67.5103 16.0172 67.0958 17.0707 66.6991 18.1303C65.5381 18.1716 64.3327 18.1435 63.168 18.1321C64.8469 14.1903 66.6893 10.2926 68.3802 6.35242C68.7548 5.47938 69.1954 4.39695 69.6469 3.57836ZM69.2331 11.9852C69.9381 11.9649 70.6438 11.9631 71.349 11.9799C71.875 11.9754 72.6407 11.9889 73.1436 11.95C72.8009 11.2153 71.4981 7.898 71.1467 7.53881C70.5094 8.91892 69.7732 10.5725 69.2331 11.9852Z" fill="white"/>
<path d="M153.848 3.58216C155.831 3.50126 158.169 3.60017 160.179 3.56024C161.162 3.54067 164.357 3.50839 165.156 3.68359C165.398 3.99389 165.276 5.95006 165.262 6.45739C162.894 6.37841 159.445 6.37232 157.086 6.46479L157.057 6.61076C156.996 7.42909 157.032 8.49012 157.039 9.32819C157.947 9.22189 162.278 9.0513 162.956 9.46085C163.266 9.87041 163.102 11.6249 163.075 12.2014C161.077 12.2517 159.038 12.124 157.023 12.2424C157.014 13.2361 157.025 14.2299 157.054 15.2232C159.762 15.1647 162.625 15.2071 165.344 15.2074L165.349 18.1595C161.52 18.1313 157.69 18.1323 153.861 18.1625C153.775 16.3323 153.825 14.2253 153.825 12.3785C153.815 9.44641 153.822 6.5142 153.848 3.58216Z" fill="white"/>
<path d="M85.5071 3.56209C89.7439 3.62899 94.0768 3.4838 98.3127 3.58366C98.3208 4.48402 98.3951 5.56967 98.3299 6.43845C98.0127 6.7197 94.2716 6.55807 93.6019 6.54345L93.5992 13.5228V18.1622L90.2369 18.1368L90.2388 6.54032C88.7226 6.614 87.046 6.58321 85.5135 6.58068C85.479 5.62134 85.5062 4.531 85.5071 3.56209Z" fill="white"/>
<path d="M50.2492 3.5656C50.9403 3.55569 52.9408 3.46722 53.4761 3.68548C53.7471 4.30555 53.6143 13.8248 53.5869 15.1915C56.18 15.1857 59.1099 15.1217 61.6746 15.2105C61.3474 15.9399 61.0345 16.6753 60.7364 17.4161C60.612 17.8469 60.6051 18.1425 60.0626 18.146C58.9724 18.1531 57.8818 18.1438 56.7914 18.1412C54.5909 18.1298 52.3903 18.1348 50.1898 18.1562C50.0286 17.1466 50.1071 13.0542 50.1064 11.8847L50.106 7.08944C50.1067 6.00562 50.0578 4.60811 50.2492 3.5656Z" fill="white"/>
<path d="M95.8502 24.7915C97.3963 24.7746 99.2007 24.6729 100.71 24.8804C102.471 25.1226 103.018 26.7652 102.674 28.2561C102.478 29.1105 101.83 29.4598 101.111 29.8974C101.688 30.878 102.46 31.6875 103.064 32.7772L101.854 32.8043C101.714 32.8069 101.251 32.8138 101.149 32.7767C100.379 32.4954 99.5342 30.8903 99.1091 30.2114C98.6687 30.196 98.1856 30.2021 97.7397 30.1987C97.7588 31.053 97.7542 31.9328 97.7606 32.7895C97.138 32.8092 96.4846 32.7891 95.8611 32.7797C95.8112 30.1596 95.8511 27.421 95.8502 24.7915ZM97.7524 28.5326C98.7602 28.5593 99.8196 28.698 100.675 28.1561C100.981 27.7249 101.037 27.0301 100.507 26.7298C99.6855 26.2644 98.6533 26.351 97.7407 26.3768L97.7524 28.5326Z" fill="white"/>
<path d="M66.1442 24.7883L68.0294 24.7705C68.027 25.7751 68.176 32.4754 67.9269 32.7961C67.4259 32.8111 66.8978 32.7899 66.3946 32.7776C65.1532 31.1176 63.7064 29.4461 62.5269 27.7669C62.4205 29.0075 62.5116 31.4643 62.526 32.7967L60.6523 32.7907L60.6525 24.7902C61.19 24.7721 61.8355 24.7878 62.3816 24.7879C63.5899 26.0497 65.1326 28.4792 66.2241 29.468C66.1048 28.011 66.143 26.2749 66.1442 24.7883Z" fill="white"/>
<path d="M86.6823 24.7896L92.9482 24.7651L92.9455 26.3621L88.5819 26.347L88.5737 27.9133C89.8497 27.9347 91.1729 27.9157 92.4516 27.9115C92.4933 28.3944 92.4833 28.9987 92.4897 29.4919C91.2617 29.4768 89.9984 29.4931 88.7676 29.4968L88.6335 29.5245C88.5202 29.8273 88.5719 30.7089 88.5773 31.0754C89.9893 31.1505 91.5952 31.1124 93.0262 31.1037C93.0733 31.7148 93.086 32.1776 93.0815 32.7901C90.9427 32.8033 88.8039 32.8011 86.666 32.7835C86.6914 30.1189 86.6968 27.4542 86.6823 24.7896Z" fill="white"/>
<path d="M55.51 24.7938L57.4119 24.7666L57.4155 26.2453L57.4249 28.0896C57.4277 29.5121 57.5029 30.9135 56.3967 31.9991C55.2041 33.1668 52.2991 33.1912 51.1113 32.0114C49.721 30.6308 50.2245 28.0511 50.1376 26.2821C50.115 25.822 50.1435 25.2576 50.1466 24.7882L52.0531 24.7746C52.0437 24.8792 52.0376 24.9841 52.0349 25.089C52.0134 26.3678 51.7682 30.184 52.6435 30.7412C56.4148 33.1423 55.519 25.8068 55.51 24.7938Z" fill="white"/>
<path d="M107.778 24.7183C108.672 24.603 111.065 24.7927 111.375 25.7557C111.269 26.0553 110.711 26.7593 110.493 27.0524C109.764 26.6116 107.563 25.5625 107.309 26.9928C107.716 28.0008 111.658 27.8171 111.716 30.0815C111.762 31.9164 110.78 32.6843 108.976 32.8473C108.112 32.88 105.522 32.5378 105.281 31.5603C105.314 31.2364 105.914 30.5296 106.153 30.2129C106.95 30.7004 108.41 31.631 109.405 31.0686C109.62 30.9494 109.775 30.7536 109.84 30.5241C109.449 29.3721 105.701 29.6122 105.489 27.5679C105.31 25.8557 106.067 25.0128 107.778 24.7183Z" fill="white"/>
<path d="M82.0785 24.7985L84.1085 24.7739C83.8819 25.5592 83.6019 26.1852 83.2784 26.9397C82.653 28.5379 81.5365 31.2644 80.7977 32.7903C80.1635 32.8138 79.6771 32.8273 79.0529 32.6956C78.2717 30.3289 76.8007 27.2361 75.8281 24.7744L77.8707 24.777C78.7032 26.5202 79.2563 28.4937 80.0695 30.1627C80.708 28.3491 81.4513 26.6016 82.0785 24.7985Z" fill="white"/>
<path d="M133.781 24.8266C134.317 24.7769 135.42 24.7517 135.937 24.8034L136 24.8932C135.952 24.9175 135.781 25.0094 135.762 25.0487C135.255 26.0944 134.551 27.0153 133.964 28.019C133.601 28.5115 133.254 29.0145 132.923 29.5272C132.869 30.4805 132.899 31.8086 132.897 32.7882C132.293 32.8118 131.571 32.7924 130.958 32.7895C130.914 31.1235 131.314 29.9453 130.24 28.4056C129.482 27.3209 128.434 25.9594 127.852 24.7838L130.017 24.791C130.715 25.723 131.248 26.9133 131.973 27.7355C132.643 26.8227 133.229 25.8091 133.781 24.8266Z" fill="white"/>
<path d="M119.23 24.7959C121.361 24.7206 123.947 24.7787 126.112 24.7752L126.12 26.4196C125.363 26.3621 124.371 26.3922 123.593 26.3969L123.6 30.2635C123.619 31.1034 123.616 31.9435 123.592 32.7832C122.868 32.8041 122.418 32.7953 121.696 32.7397C121.717 30.632 121.723 28.5242 121.711 26.4165C120.865 26.3622 120.066 26.3804 119.221 26.4151L119.23 24.7959Z" fill="white"/>
<path d="M28.627 29.1655C26.5976 28.0976 27.0524 24.7605 27.1257 22.8846C27.1678 21.804 29.63 21.0744 30.5868 20.4717C29.7344 22.2124 28.7503 26.7277 29.8356 28.4494L29.6163 28.7928C29.4065 28.7496 29.1724 28.6469 29.0197 28.8427L28.627 29.1655Z" fill="white"/>
<path d="M10.6255 22.1147C11.2951 22.0491 12.1719 22.3 12.8365 22.4558C10.8223 22.9932 4.86334 26.5847 2.67951 25.9758C2.07512 25.1436 1.20483 25.0759 0.132812 24.4608C2.99543 24.4579 5.25131 23.9287 7.93939 23.0073C8.68543 22.7516 9.93535 22.2651 10.6255 22.1147Z" fill="white"/>
<path d="M71.4174 24.7935L73.2855 24.77L73.2942 32.7981L71.4456 32.7913C71.2983 30.4896 71.394 27.1518 71.4174 24.7935Z" fill="white"/>
<path d="M114.506 24.7983L116.356 24.7764C116.292 27.3573 116.352 30.2069 116.347 32.8064C115.74 32.8057 115.116 32.7896 114.508 32.7809L114.506 24.7983Z" fill="white"/>
<path d="M14.2701 22.0755C14.5602 22.0325 16.159 22.4255 16.2122 22.7664C15.0449 23.6757 9.91632 26.0929 8.32437 26.5159C7.85583 26.5866 6.75708 26.7918 6.50586 26.3348C6.577 26.0695 6.89628 25.8037 7.13526 25.6703C9.42177 24.393 12.0194 23.4065 14.2701 22.0755Z" fill="white"/>
<path d="M36.5466 32.0854C36.6312 32.3026 36.7478 32.5475 36.7453 32.7749C36.0471 33.0995 35.5468 33.1044 34.7858 33.148C31.3379 33.3458 27.9424 33.5065 24.5427 34.1621C24.0872 34.2499 22.8323 34.3829 22.4875 34.5986L22.5074 34.7308L22.6407 34.8018L22.84 35.2036C22.7206 35.4143 22.7619 35.3508 22.4967 35.4658C21.2664 34.6787 20.2458 34.5625 18.8624 34.3637L18.8203 34.288C19.038 34.2822 19.1936 34.2733 19.4097 34.2478C19.3382 34.1666 19.0242 34.1068 18.8902 34.0708L18.8813 34.0006C21.1192 33.8597 24.0704 33.4308 26.3095 33.1943C28.0548 33.01 35.4256 32.5888 36.5466 32.0854Z" fill="white"/>
<path d="M39.0261 33.0561C39.4747 33.0498 39.9753 33.0322 40.419 33.0542C39.3388 34.185 38.5775 34.874 36.8734 34.8823C33.4866 34.8989 30.1378 34.739 26.8009 35.426C25.7793 35.6364 24.7118 35.9096 23.671 35.9831C23.1969 36.0098 22.8465 35.7366 22.4961 35.4657C22.7614 35.3507 22.72 35.4142 22.8394 35.2035L22.6401 34.8018C23.0921 34.9968 23.5491 35.1808 24.0108 35.3535C25.9882 35.0306 27.9403 34.6149 29.9474 34.3477C31.6137 34.126 38.2724 34.7677 39.0058 33.4008L38.8775 33.2647C38.9029 33.1975 38.9773 33.1168 39.0261 33.0561Z" fill="white"/>
<path d="M16.4941 31.475C16.8355 29.3574 18.6187 29.7576 20.2573 30.0308L20.2868 30.1783L20.1613 30.3542L19.7429 30.3519L19.6387 30.4515C20.0271 32.0579 20.3985 32.5458 18.8378 33.7478C18.7778 33.5505 18.9243 33.3775 18.9079 33.3314C18.7184 32.7974 18.4134 32.525 18.204 31.9584C17.8623 31.7892 17.4459 31.5489 17.0746 31.5104C16.8498 31.5599 16.7213 31.5192 16.4941 31.475Z" fill="white"/>
<path d="M17.2038 22.8062C17.654 22.9015 18.0259 22.9314 18.481 22.9729C18.4658 22.9959 18.4504 23.0187 18.4348 23.0414C17.5695 24.2914 15.4676 25.6985 13.8577 26.0077C13.4206 26 12.831 26.0228 12.4746 25.7663L12.5264 25.6041C12.9093 25.2326 16.715 22.956 17.2038 22.8062Z" fill="white"/>
<path d="M35.0288 7.25757C36.1774 7.38275 37.261 7.41754 38.4543 7.53124C39.3155 7.61336 41.7345 8.45831 42.3395 9.11118C42.7689 9.57449 42.7138 10.7398 42.4459 11.2979C42.1899 11.0578 42.4827 10.7544 42.0212 10.7608C41.6578 10.7657 41.2964 10.827 40.9386 10.8845C40.9245 10.7357 40.8301 10.5759 40.7612 10.4383C41.2225 9.9255 41.5066 10.2941 42.1835 10.1317L42.2613 9.97978C42.1791 9.6259 41.8747 9.28438 41.6443 8.98748C40.1518 8.59723 38.8998 7.85468 37.333 7.9241C36.7407 7.95028 36.0329 7.91757 35.4471 7.83797C34.4582 8.84742 33.509 8.89231 32.1091 9.26263L31.8457 8.77496C33.5177 8.39976 33.7695 8.36514 35.0288 7.25757Z" fill="white"/>
<path d="M34.0275 1.34302C34.8825 1.35372 35.9359 1.47081 35.8832 2.54402C35.8254 3.7217 34.754 4.87295 34.0938 5.81924C33.6269 6.48846 33.1522 7.36272 32.62 7.94321C32.3982 7.95235 32.3626 7.93591 32.2043 8.07161L32.0879 8.00463C32.1547 6.27716 37.0323 2.45764 33.712 1.86818L34.0275 1.34302Z" fill="white"/>
<path d="M32.3125 29.8618C33.2149 29.546 35.402 28.9574 36.2975 29.3649C37.3987 29.8659 37.4103 30.9936 37.3686 32.0025C37.1767 32.2721 36.9955 32.5546 36.7463 32.7751C36.7488 32.5478 36.6321 32.3028 36.5476 32.0857C37.5339 31.1607 36.5838 29.3902 35.2906 29.5207C34.2476 29.626 33.3868 29.8582 32.3125 29.8618Z" fill="white"/>
<path d="M28.627 29.1656L29.0197 28.8428C29.1423 28.9949 29.5895 29.5592 29.7194 29.6349C30.2459 29.9416 30.3415 29.6263 30.8639 30.1378L30.5504 30.2356C30.4752 30.605 30.5333 30.8774 30.5841 31.2495C30.4316 31.5628 30.0744 32.4659 29.6071 32.3037C30.3457 31.3135 29.4674 29.8697 28.627 29.1656Z" fill="white"/>
<path d="M31.3849 29.531L31.4609 29.5229C31.9056 30.0299 31.6403 29.873 31.8093 30.2886C31.4929 30.9252 32.5581 31.6849 31.3757 32.318C30.963 32.025 31.1034 30.6245 30.5508 30.2355L30.8643 30.1377L31.0062 30.1906C31.1419 29.8894 31.19 29.8036 31.3849 29.531Z" fill="white"/>
<path d="M15.887 16.4673C15.8694 16.7419 15.8339 16.9551 15.9417 17.2127C15.5187 17.5881 12.4636 18.7061 11.748 18.9609C12.3292 18.4256 15.098 16.8803 15.887 16.4673Z" fill="white"/>
<path d="M30.4785 2.75619C31.8445 2.12089 32.3589 1.5297 34.0264 1.34302L33.7109 1.86818C32.4758 2.11863 31.7564 2.55907 30.7159 2.86562L30.4785 2.75619Z" fill="white"/>
<path d="M31.6552 29.4131C32.5814 29.9456 33.3443 30.6539 32.8734 31.7772L32.7738 31.8181C32.7587 31.7575 32.6257 31.1571 32.6246 31.156C32.3261 30.8805 32.0041 30.6491 31.8094 30.2887C31.6404 29.873 31.9056 30.0299 31.4609 29.523L31.6552 29.4131Z" fill="white"/>
<path d="M27.5091 30.743C27.4103 30.5077 27.357 30.1597 27.4689 29.9294C27.8631 29.9143 27.848 30.1165 28.2068 30.1618L28.0996 29.9587L28.476 29.9082C28.7987 30.3637 28.9079 30.639 28.9844 31.193C28.6597 31.1548 28.5134 31.1679 28.1934 31.1902C28.1749 30.9491 28.0614 30.6672 27.8814 30.491L27.7397 30.5264L27.6499 30.8612L27.5733 30.6772L27.5091 30.743Z" fill="white"/>
<path d="M16.4941 31.4751C16.7213 31.5193 16.8498 31.5599 17.0746 31.5104C16.9038 32.1708 17.1586 32.659 17.2291 33.3676L17.1554 33.4423C16.5545 32.8794 16.4996 32.2237 16.4941 31.4751Z" fill="white"/>
<path d="M28.1934 31.1901C28.5134 31.1679 28.6596 31.1547 28.9843 31.1929C28.9747 31.6379 28.9046 31.8489 28.7301 32.2433L28.5496 32.2761C28.3249 32.0234 28.2648 31.5332 28.1934 31.1901Z" fill="white"/>
<path d="M26.8641 28.5596C27.2338 29.1529 27.9191 29.3817 28.4756 29.9081L28.0992 29.9586C27.5951 29.5581 27.1519 29.3839 26.6562 28.9636L26.8641 28.5596Z" fill="white"/>
<path d="M29.8365 28.4495C30.4311 28.8684 31.0217 28.9627 31.6557 29.4131L31.4614 29.523L31.3855 29.531C30.8992 29.2501 30.1599 28.9923 29.6172 28.7929L29.8365 28.4495Z" fill="white"/>
<path d="M20.2582 30.031C20.7607 30.0479 21.9088 30.0472 22.3221 30.2199C22.3207 30.2192 22.3191 30.2186 22.3177 30.2179L22.1497 30.1336L22.0741 30.3163C21.3657 30.3411 20.8763 30.3865 20.1621 30.3544L20.2876 30.1785L20.2582 30.031Z" fill="white"/>
<path d="M38.8775 33.2649C38.3677 33.319 37.4084 33.4009 37.0156 33.0233C37.2622 32.9393 38.6381 33.0426 39.0261 33.0563C38.9772 33.117 38.9029 33.1977 38.8775 33.2649Z" fill="white"/>
<path d="M157.162 12.5845L157.294 12.6181C157.513 13.8619 157.224 14.1051 157.293 14.9631L157.242 14.9596C157.095 14.3529 157.297 12.9357 157.162 12.5845Z" fill="white"/>
<path d="M157.057 6.61057L157.086 6.4646C157.575 6.80039 157.344 8.03262 157.291 8.61224C157.087 7.94632 157.358 6.91217 157.057 6.61057Z" fill="white"/>
</g>
<defs>
<clipPath id="clip0_30141_33081">
<rect width="165.447" height="36" fill="white"/>
</clipPath>
</defs>
</svg>
