<svg width="79" height="85" viewBox="0 0 79 85" fill="none" xmlns="http://www.w3.org/2000/svg">
<g clip-path="url(#clip0_30141_33165)">
<path d="M27.5971 0.538818C29.2113 0.634145 30.9929 0.565412 32.6308 0.755167C37.9295 1.36916 47.6716 2.59635 47.3015 9.7751C47.2206 11.3437 46.4868 12.7553 45.6424 14.04C48.4435 13.9023 52.5976 15.1531 54.6866 17.0409C56.1665 18.3669 57.0499 20.2332 57.1366 22.2183C57.337 26.3134 54.179 30.5183 51.5429 33.3887C50.782 34.2172 49.7468 35.3211 48.8882 36.0376C52.4945 36.601 56.7433 38.16 60.025 39.7162C60.2952 39.8442 61.3473 40.3508 61.5091 40.4766C61.6624 40.7097 62.1969 40.9317 62.4724 41.1737L62.4602 41.2075C62.0304 41.0707 61.5001 40.7383 61.1448 40.7509C57.2524 39.2024 53.5319 37.9933 49.4079 37.2793C48.9892 37.2068 48.5366 37.1159 48.1279 37.0092C47.5796 37.2409 46.2705 38.5391 45.6705 39.034C44.7267 39.8165 43.7597 40.5698 42.7694 41.2929L42.6457 41.2307C42.5447 41.0508 42.5854 41.0733 42.6198 40.8156C42.7583 40.6055 42.9116 40.3907 43.0613 40.1873C43.9241 39.0111 44.6606 37.7621 45.4368 36.5284L45.3807 36.5325C44.4655 36.6087 43.1305 36.4939 42.2032 36.4411C41.1505 36.3859 40.0962 36.3713 39.0425 36.3972C32.2767 36.6255 25.6107 38.0983 19.3784 40.7418C19.0532 40.6724 18.9038 40.8385 18.6432 40.9568L18.5762 40.8009C18.7566 40.5698 18.9724 40.5994 19.1398 40.3333C20.2479 39.6804 22.2998 38.7844 23.506 38.3147C29.6255 35.9213 36.1894 34.877 42.7493 35.2532C43.8136 35.3139 44.8906 35.3633 45.9406 35.5421C47.0731 33.8759 48.406 30.1229 48.636 28.1016C48.7116 27.3656 48.7528 26.9489 48.6868 26.217C48.4726 20.4495 41.3091 19.0006 36.7049 19.0204C36.1421 19.0229 35.7263 19.0435 35.1752 19.17C36.4791 18.0884 37.7861 15.5846 38.1966 13.9665C40.1084 6.43084 33.8952 2.43092 27.6345 0.743166L27.5971 0.538818Z" fill="white"/>
<path d="M48.6855 26.2173C49.0466 26.5726 49.0297 27.7656 48.6348 28.1019C48.7104 27.3659 48.7516 26.9491 48.6855 26.2173Z" fill="white"/>
<path d="M0.284981 51.4069C2.06864 51.3017 3.98327 51.427 5.77635 51.3979C7.8443 51.3635 11.0232 51.3281 12.1527 53.4472C12.9454 54.9344 12.3938 56.9161 10.9033 57.7535C10.2769 58.1157 9.69691 58.2817 9.0864 58.6021L9.02888 58.6333C10.1965 58.8363 11.1417 58.9738 12.1484 59.6685C13.7324 60.7619 13.8526 63.0845 12.7911 64.5734C10.965 67.0314 6.4062 66.5064 3.73007 66.601C3.47148 66.61 2.87155 66.6296 2.6248 66.6105C2.17523 66.5762 0.424192 66.7348 0.195312 66.4144L0.218523 66.3382C1.11485 65.9073 1.45915 66.472 2.24286 65.3527C2.28505 64.4951 2.25956 63.4525 2.25999 62.5844L2.26337 57.8371C2.26374 56.611 2.22715 54.6616 2.25978 53.5138C2.32719 51.1383 0.457976 52.237 0.284981 51.4069ZM4.40767 65.7693C6.37908 65.8925 8.67586 66.178 10.3106 64.8785C11.4838 63.7031 11.5021 61.3969 10.3169 60.2231C8.76547 58.6872 6.32214 59.0547 4.32064 58.996L4.3006 62.9481C4.29859 63.7999 4.2656 64.952 4.40767 65.7693ZM4.29674 58.4033C4.89916 58.4271 5.48661 58.4139 6.08675 58.416C7.34704 58.4213 8.48827 58.3843 9.46152 57.4717C10.1125 56.7516 10.3838 55.9749 10.3173 55.0159C10.0786 51.5734 6.59204 52.1825 4.37251 51.9916C4.25619 54.1408 4.39107 56.3017 4.29674 58.4033Z" fill="white"/>
<path d="M43.86 64.9716C44.4241 64.1489 44.9481 62.1673 45.3679 61.2108C45.8717 60.0635 46.3476 58.7936 46.7013 57.5934C46.7795 57.228 46.6986 56.8701 46.613 56.5566C46.4131 55.8254 45.3287 56.1331 45.1781 55.7207L45.2479 55.6324C45.7776 55.514 47.194 55.5266 47.7857 55.5229C49.2862 55.5113 50.7872 55.515 52.2877 55.5346C52.1148 56.7215 52.2364 58.3775 52.2353 59.6046C52.2343 60.8555 52.1164 62.1958 52.2692 63.4357C52.3601 64.17 52.6255 64.9108 53.243 65.3655C53.8241 65.7932 54.6061 65.8233 55.2955 65.716C56.0986 65.5912 56.7616 65.1667 57.2316 64.5079C57.5891 64.0072 57.8434 63.3823 57.9597 62.779C58.0897 62.1033 58.132 57.9767 57.994 57.2783C57.6684 55.635 56.9514 56.3081 56.3381 55.828C56.2593 55.7662 56.2868 55.7963 56.2773 55.6763C56.6131 55.4711 59.4221 55.5367 59.9614 55.5494C59.918 55.9523 59.8879 56.3308 59.89 56.74C59.9038 59.4571 59.8377 62.1879 59.918 64.9028C59.9503 66.0047 60.3907 66.1131 61.3841 66.1717C61.5983 66.2109 61.537 66.1564 61.6406 66.2812C61.6543 66.4282 61.6786 66.4805 61.6046 66.6032C61.3387 66.6428 60.7148 66.6174 60.4192 66.6164L58.2018 66.6264C58.2039 66.094 58.2462 64.7146 58.1199 64.2451L58.0485 64.215C57.7307 64.4503 57.4352 65.2761 56.8383 65.7794C55.8401 66.6206 54.9027 66.8755 53.6168 66.821C50.4366 66.6862 50.3478 64.2715 50.3589 61.8025L50.3742 58.6275C50.3811 57.0023 50.4879 56.1008 48.537 56.0617C47.9675 56.6877 47.4457 58.0354 47.0994 58.8364C46.1541 61.0237 45.3716 63.2797 44.4072 65.4627C43.962 66.4705 43.5607 67.6442 43.0051 68.5901C42.7158 69.0945 42.3394 69.5439 41.8942 69.9177C41.0382 70.6251 40.1595 70.8683 39.0609 70.7324C37.7842 70.5749 37.8938 69.8918 38.0103 68.8772C38.8087 68.9374 39.1957 69.2325 39.9237 69.4202C40.3303 69.5248 41.2339 69.4186 41.5654 69.1674C42.1396 68.7323 43.0854 67.2958 43.1668 66.6333C43.0098 66.3991 42.7507 66.5794 42.5572 66.1939C42.1649 65.413 41.8673 64.6099 41.5453 63.8005L39.8063 59.4254C39.441 58.479 38.8769 56.9224 38.2419 56.1664C37.923 56.0437 37.5773 56.0041 37.3359 55.7413L37.343 55.6572C37.4903 55.5399 37.6137 55.561 37.8068 55.5547C38.3492 55.5161 41.9735 55.4685 42.1887 55.6435L42.194 55.7598C41.9957 55.9322 41.7536 55.8904 41.4908 56.0041C40.7956 56.3054 40.7845 56.8088 40.9912 57.4617C41.255 58.2945 41.6315 59.0907 41.9312 59.9144C42.3066 60.974 42.6936 62.0288 43.0928 63.0798C43.3329 63.7185 43.5496 64.3651 43.86 64.9716Z" fill="white"/>
<path d="M18.5887 55.2756C19.6718 55.2143 20.8699 55.2444 21.8414 55.7895C23.6415 56.8004 23.5721 58.8391 23.5701 60.6257C23.5669 61.6091 23.5584 62.5925 23.5445 63.5759C23.5392 64.0068 23.4858 64.8411 23.6669 65.1958C24.0432 65.9329 24.8284 65.1461 25.1837 65.282C24.8042 66.0841 23.435 67.0611 22.5185 66.6799C21.6022 66.2987 21.8514 65.2868 21.5796 64.6529C21.4478 64.7385 21.1541 65.1414 21.059 65.2905C19.9756 66.9908 17.0364 67.3012 15.4689 66.0862C14.7569 65.3671 14.5494 64.4953 14.7049 63.5235C15.1815 60.5448 19.5024 60.66 21.5705 60.9635C21.7491 58.9211 21.8285 55.7541 18.8587 55.9555C17.0772 56.0761 16.8283 58.0736 16.0649 58.5399C15.2502 58.6657 15.168 57.3535 15.6008 56.7867C16.3461 55.8096 17.4499 55.4919 18.5887 55.2756ZM19.2777 65.8208C21.2222 65.2418 21.7393 63.2512 21.5781 61.4415C20.9163 61.3918 19.6146 61.3426 18.9549 61.4113C18.1658 61.5313 17.4824 61.7582 16.9911 62.4381C16.3055 63.3871 16.5161 64.9109 17.5282 65.5485C18.0786 65.8953 18.6647 65.8451 19.2777 65.8208Z" fill="white"/>
<path d="M77.274 65.1563C77.2174 65.2271 77.1582 65.2959 77.0958 65.362C75.3738 67.222 71.4693 67.268 69.6732 65.5026C67.6091 63.4739 67.5668 59.0629 69.5833 56.9671C70.5985 55.9033 72.0054 55.3016 73.4757 55.3032C74.6008 55.2937 75.939 55.5734 76.7411 56.4066C77.9333 57.6454 77.974 58.7615 77.9867 60.3413C75.3659 60.3746 72.7445 60.3704 70.1242 60.3297C70.1284 63.1022 70.9289 65.7284 74.2075 65.6771C75.3241 65.6596 75.8888 65.4201 76.8098 64.81C76.979 64.6646 77.6726 63.9984 77.7583 63.9492C78.1818 64.2548 77.5383 64.9617 77.274 65.1563ZM70.1353 59.7613C71.0495 59.7402 71.9641 59.7248 72.8783 59.7153L76.1135 59.6973C76.1531 57.7776 75.5551 55.9223 73.296 55.8118C71.0939 55.9752 70.4446 57.9002 70.1353 59.7613Z" fill="white"/>
<path d="M76.8105 64.8105C76.9797 64.6651 77.6734 63.9989 77.7591 63.9497C78.1826 64.2553 77.5391 64.9622 77.2748 65.1568L77.26 65.0753C77.3308 64.9511 77.3498 64.8961 77.4016 64.765L77.3546 64.6809C77.1183 64.6814 77.0273 64.7364 76.8105 64.8105Z" fill="white"/>
<path d="M14.1465 21.6933C15.8496 21.6918 17.3358 21.5137 19.0245 21.3913L27.3191 20.7911C29.2329 20.6465 30.9029 20.4604 32.8323 20.4048C31.2776 21.8279 29.4519 23.9807 28.037 25.5734C25.9504 27.9396 23.8337 30.279 21.6873 32.591C21.5019 32.5429 21.381 32.358 21.3068 32.1938C22.2631 30.1974 23.1962 28.19 24.1061 26.172C24.3827 25.5554 24.8184 24.7073 25.0506 24.12C23.9703 23.8697 22.8796 23.69 21.7929 23.4602C20.1136 23.0915 18.4378 22.7073 16.7656 22.3077C16.0511 22.1388 14.7912 21.8998 14.1465 21.6933Z" fill="white"/>
<path d="M62.0234 50.8323C63.2892 50.7985 64.5993 50.8181 65.8688 50.8212C65.7614 52.1441 65.809 53.57 65.8074 54.9061C65.8032 58.1677 65.7815 61.4346 65.8418 64.6957C65.8762 66.561 66.7538 65.999 68.0412 66.4373C67.3137 66.6319 66.7417 66.5911 65.9914 66.5954C65.8238 66.5996 65.6568 66.6033 65.4891 66.6054C65.0091 66.6112 62.4533 66.7101 62.2196 66.4828C62.5284 66.0439 63.2527 66.3611 63.7989 65.6358L63.8385 65.5824C63.9294 65.079 63.9041 64.1168 63.9057 63.5632L63.9099 60.3576L63.9078 55.347C63.9062 54.426 63.9157 53.4881 63.8787 52.5686C63.8686 52.309 63.8073 52.1404 63.6942 51.9331C63.36 51.3203 62.8292 51.2527 62.2196 51.103C62.0758 51.0676 62.0668 50.9576 62.0234 50.8323Z" fill="white"/>
<path d="M30.2694 56.2747C30.276 56.2647 30.2825 56.2546 30.2891 56.2446C31.6784 54.9973 34.1795 54.9122 35.6171 56.1219C35.9658 56.4159 36.3292 56.9562 36.4138 57.3015C37.011 59.7378 36.5552 62.3956 36.6918 64.8859C36.7888 66.6211 38.0966 65.9782 38.5915 66.3948L38.5482 66.4582C38.0718 66.6354 33.7676 66.6777 33.1912 66.573C33.078 66.4709 33.1211 66.5333 33.0958 66.3588C33.3461 65.966 34.0937 66.3721 34.5351 65.8571C34.6829 65.7069 34.8123 65.4997 34.8351 65.2845C34.92 64.4824 34.8655 63.6132 34.8649 62.808C34.8452 61.8056 34.8978 60.7978 34.8716 59.7959C34.8169 57.7059 34.2213 56.2203 31.868 56.2673C30.7479 56.5322 30.113 56.9938 29.5011 57.9803C29.3709 58.1871 29.2507 58.4007 29.141 58.619C28.967 58.3795 29.1016 58.2923 28.9102 58.0633C29.45 57.4643 29.5682 56.8737 30.2694 56.2747Z" fill="white"/>
<path d="M30.2694 56.2744C30.182 56.6223 29.8958 56.7169 29.7015 57.1225L29.8017 57.2361C30.3644 56.8745 31.1462 56.0804 31.868 56.267C30.7479 56.5319 30.113 56.9935 29.5011 57.98C29.3709 58.1868 29.2507 58.4004 29.141 58.6187C28.967 58.3792 29.1016 58.292 28.9102 58.063C29.45 57.464 29.5682 56.8734 30.2694 56.2744Z" fill="white"/>
<path d="M26.9191 65.7942C27.054 64.511 27.1401 57.4733 26.7852 56.5327C26.5472 55.9025 25.9305 55.9802 25.4143 55.736C25.3083 55.6857 25.2837 55.6831 25.2441 55.5694C25.5383 55.4023 28.26 55.4288 28.7994 55.4267C28.8046 55.9258 28.7233 57.7646 28.9111 58.0633C29.1026 58.2923 28.968 58.3795 29.142 58.619C29.0149 58.978 28.9389 59.2984 28.9016 59.6775C28.8184 60.5245 28.7252 64.9805 29.0041 65.5853C29.1484 65.8983 29.4602 66.0665 29.7625 66.1965L29.8303 66.5915C29.1022 66.6005 25.7777 66.7808 25.3586 66.5048C25.2743 66.4493 25.3025 66.4778 25.2826 66.3652L25.3736 66.252C25.7146 66.1262 26.0746 66.1431 26.4409 66.1341L26.9191 65.7942Z" fill="white"/>
<path d="M18.5089 82.8704C17.8911 83.0042 17.0807 82.8868 16.4938 82.67C14.4015 81.8981 14.1993 78.6492 15.4755 77.0926C15.9144 76.5576 16.3647 76.3249 16.9881 76.0601L17.1228 76.307C16.3469 76.7976 15.9029 77.3935 15.7162 78.2955C15.3358 80.1322 15.9554 82.5844 18.2419 82.5775L18.404 82.6288L18.5089 82.8704Z" fill="white"/>
<path d="M64.3 75.844C64.7965 75.8245 65.3622 75.8324 65.8645 75.8276C65.8021 77.9525 65.8116 80.1409 65.8973 82.2674C65.9195 82.8103 66.3911 82.5809 66.749 82.8632C66.5476 82.9288 66.4207 82.8949 66.2039 82.8738C65.5018 82.851 64.8668 82.9219 64.1504 82.8463C64.4438 82.712 64.6553 82.6919 64.9704 82.6369C65.0471 81.7952 65.1576 77.0024 64.9651 76.3135C64.7436 76.0032 64.4787 76.2263 64.3 75.844Z" fill="white"/>
<path d="M36.7204 82.8746C36.5081 82.8249 36.2983 82.7736 36.0877 82.7107C34.2191 82.1519 33.8033 79.7605 34.3443 78.1289C34.6474 77.2153 35.2407 76.6295 36.0957 76.2007L36.3375 76.4407C35.5146 77.1333 35.1639 77.7699 35.0851 78.8395C34.9697 80.4061 35.367 81.8769 36.9405 82.5209L37.1813 82.6774L37.1974 82.7726C37.023 82.8513 36.9087 82.8524 36.7204 82.8746Z" fill="white"/>
<path d="M24.2004 77.8633C24.3003 77.5477 24.5706 76.6277 24.7178 76.3761L24.775 76.375C25.025 76.8514 24.7498 77.674 24.9893 77.9548C25.0992 78.0695 25.0656 78.0045 25.1007 78.1536L24.9776 78.2006C24.7876 78.6458 24.8545 81.7071 25.0421 82.3034C25.1005 82.489 25.2853 82.6059 25.484 82.6424L25.6336 82.8983C25.4676 82.9131 25.3013 82.9215 25.1347 82.9242C24.8848 82.9284 24.619 82.8713 24.4409 82.6804C23.967 82.1713 24.1397 79.0757 24.134 78.2657C23.8801 78.2556 23.665 78.2974 23.5039 78.0864L23.5618 77.9828C23.7606 77.8491 23.9523 77.8728 24.2004 77.8633Z" fill="white"/>
<path d="M22.4887 77.9741C22.4795 77.9646 22.5194 82.1525 22.5329 82.5597C22.848 82.6104 23.0275 82.5993 23.3149 82.7431L23.2976 82.7971C22.9525 82.8711 21.7182 82.8393 21.1426 82.9002C21.0223 82.8431 21.0689 82.8859 21.0022 82.7722C21.152 82.6696 21.511 82.6427 21.7086 82.6141C21.6583 81.2299 21.7296 79.7607 21.6327 78.3908L20.7246 78.0196C21.1985 77.9752 21.9744 77.9948 22.4887 77.9741Z" fill="white"/>
<path d="M54.7584 77.8086C56.5455 78.0767 56.2177 79.4555 56.2478 80.8672C56.2594 81.435 56.2393 82.014 56.2346 82.5829C56.5032 82.6082 56.9563 82.5998 57.1165 82.7758C56.869 82.907 54.9271 82.9027 54.6754 82.7795C54.8398 82.623 55.212 82.6342 55.4426 82.6273C55.4537 81.9532 55.4923 81.2748 55.4949 80.6034C55.4991 79.5253 55.6836 78.3764 54.3867 78.0862C54.4914 77.8282 54.5115 77.8726 54.7584 77.8086Z" fill="white"/>
<path d="M62.6413 78.026C62.8813 78.0075 63.0389 77.9958 63.2778 78.0032C63.3238 78.1159 63.3212 78.1095 63.2805 78.2195C63.1187 78.652 63.2022 81.6852 63.2768 82.2107C63.3571 82.7786 63.6569 82.4671 63.9884 82.7257L63.9641 82.8235C63.6929 82.8822 62.6254 82.8616 62.258 82.8653C62.0364 82.8933 62.0153 82.9055 61.808 82.841L61.8027 82.7738C62.0412 82.612 62.2342 82.6157 62.5228 82.5771C62.4552 81.2263 62.5403 79.8299 62.4705 78.4336C62.2463 78.3839 62.0147 78.3654 61.8746 78.1936L61.927 78.1074C62.1533 77.9974 62.3827 78.026 62.6413 78.026Z" fill="white"/>
<path d="M52.0145 78.1156C51.7729 78.0955 51.6191 78.0828 51.3822 78.0357L51.35 77.94L51.2669 77.9559L51.304 78.0029L51.2469 77.9776L51.2595 77.9331C51.7708 77.8364 52.0991 77.8708 52.6189 77.8877C52.6226 78.299 52.6014 78.6887 52.7621 79.0693L52.8594 79.1508C52.6559 79.6224 52.7489 81.9355 52.7738 82.5625C53.193 82.6868 53.4405 82.6693 53.9015 82.8486C53.3025 82.8935 51.6767 82.9115 51.1348 82.7677L51.139 82.7048C51.4314 82.6477 51.7074 82.6498 52.004 82.6429C52.0484 81.1757 52.0093 79.5965 52.0145 78.1156Z" fill="white"/>
<path d="M59.6259 82.9181C59.36 82.9218 59.0375 82.9149 58.7853 82.8488C56.8935 82.3508 56.6435 79.4973 57.9949 78.331C58.2 78.1539 58.402 78.0481 58.6388 77.9233L58.845 78.1391C57.6337 79.0289 57.7019 81.149 58.7414 82.1604C59.0972 82.5067 59.157 82.4528 59.5916 82.5876C59.618 82.7129 59.6571 82.8071 59.6259 82.9181Z" fill="white"/>
<path d="M26.7051 77.8921C27.3585 77.8847 28.4616 77.8546 29.0792 77.9577C28.7968 78.0582 28.5028 78.1131 28.2095 78.1776C28.5873 79.5333 29.1754 80.9841 29.6095 82.3402L29.7863 82.5512L29.5142 83.1877L29.2437 83.0037C29.0602 82.3899 28.6721 81.6714 28.4411 81.0597C28.0722 80.0826 27.7379 79.197 27.2969 78.248C27.135 78.1385 26.8794 77.9968 26.7051 77.8921Z" fill="white"/>
<path d="M44.8457 77.9537C45.4088 77.8633 46.0908 77.8892 46.6703 77.8892C46.6687 78.8588 46.6523 79.8354 46.6824 80.804C46.7142 81.8355 46.9035 82.6941 48.1163 82.5989L48.2887 82.8443C45.385 83.6923 45.975 80.032 45.9729 78.2376C45.5959 78.1477 45.22 78.0531 44.8457 77.9537Z" fill="white"/>
<path d="M49.4103 78.2133C49.1196 78.1625 48.8911 78.1435 48.6289 78.0082L48.6363 77.9474C49.0672 77.8453 49.7101 77.9151 50.1664 77.9489C50.0062 78.8694 50.0765 81.5986 50.1743 82.5593C50.5994 82.6175 50.7702 82.6439 51.1747 82.7718C50.5608 82.8929 50.2145 82.8702 49.5864 82.8189C49.5589 82.5524 49.5621 82.3552 49.4378 82.1205C49.3342 82.038 49.3802 82.0533 49.2597 82.0274C49.1978 81.9883 49.1661 81.9523 49.1116 81.9021C49.5864 81.0927 49.413 79.1734 49.4103 78.2133Z" fill="white"/>
<path d="M43.1851 77.8374C43.8983 78.0833 44.509 78.3598 44.8415 79.0873C45.439 80.3943 45.0276 82.0444 43.69 82.6899C43.5821 82.5921 43.6118 82.581 43.5742 82.4055C44.5708 81.3327 44.4831 78.8018 43.0762 78.1044L43.1851 77.8374Z" fill="white"/>
<path d="M42.2414 82.8912C42.1098 82.8727 41.911 82.8246 41.7878 82.7802C41.2395 82.5761 40.7906 82.1696 40.5326 81.6445C39.8294 80.1906 40.3375 78.6198 41.8311 77.9219L42.003 78.1482C41.5107 78.4781 41.2601 78.8699 41.1597 79.461C40.972 80.5649 41.0703 82.2589 42.3451 82.6491C42.3043 82.8484 42.3556 82.7987 42.2414 82.8912Z" fill="white"/>
<path d="M31.1817 78.1763L30.677 78.1012C30.5304 78.08 30.5135 78.0647 30.3826 77.9944C30.482 77.8537 31.9137 77.8442 32.2281 77.8125C32.0019 77.9256 31.7744 78.0361 31.5457 78.1445L30.3286 81.2343C30.1917 81.579 29.8861 82.2421 29.7862 82.5513L29.6094 82.3404C29.9344 81.7102 30.1618 80.9118 30.4045 80.2409C30.6543 79.5504 30.9118 78.8594 31.1817 78.1763Z" fill="white"/>
<path d="M19.1384 40.334C18.9709 40.6001 18.7552 40.5704 18.5747 40.8015L18.6417 40.9574C18.9023 40.8392 19.0518 40.673 19.3769 40.7425C17.5545 41.5465 15.7318 42.4093 14.0449 43.4715C13.7561 43.6534 13.4813 43.8511 13.1717 43.9965L13.1562 43.9622C14.7248 42.8175 17.3482 41.1452 19.1384 40.334Z" fill="white"/>
<path d="M16.9883 76.06C17.5345 75.9188 17.9774 75.8639 18.5435 75.9701C19.1565 76.0849 19.9937 76.2736 20.1885 76.962C20.2361 77.1396 20.2688 77.6657 20.2041 77.8338L20.1155 77.8788C19.9772 77.7746 19.8416 77.4542 19.7565 77.2903C19.2292 76.2747 18.2072 75.8586 17.1229 76.3069L16.9883 76.06Z" fill="white"/>
<path d="M61.5088 40.4768C62.3696 40.9073 67.1301 43.5843 67.4885 44.1579C67.322 44.1299 67.4156 44.1415 67.2702 44.0485C65.8289 43.1275 64.357 42.2694 62.8137 41.5292C62.3278 41.2963 61.5744 40.9894 61.1445 40.7511C61.4998 40.7386 62.0301 41.0709 62.46 41.2077L62.4721 41.174C62.1967 40.9319 61.6621 40.7099 61.5088 40.4768Z" fill="white"/>
<path d="M58.6387 77.9233C59.4883 77.6807 60.8302 77.7314 61.1458 78.7645C61.2251 79.0236 61.2383 79.3318 60.9899 79.5021C60.7102 79.4217 60.6932 78.8042 60.5251 78.599C60.1032 78.083 59.464 77.9334 58.8449 78.1391L58.6387 77.9233Z" fill="white"/>
<path d="M36.9388 82.5211C38.4648 82.7575 39.0681 82.0966 39.9574 81.0059C39.3573 82.3906 38.274 83.1662 36.7188 82.8749C36.9071 82.8526 37.0213 82.8516 37.1958 82.7728L37.1797 82.6776L36.9388 82.5211Z" fill="white"/>
<path d="M38.925 76.2671C39.8344 76.6901 39.8487 77.3932 39.7746 78.3158C39.5008 77.5894 39.2729 77.067 38.6543 76.5499L38.7278 76.348L38.925 76.2671Z" fill="white"/>
<path d="M62.6315 75.9822C62.9254 75.9616 63.0084 75.9589 63.2353 76.1403C63.4388 76.5135 63.2093 76.7319 62.9656 76.9957C62.4052 76.9873 62.0731 76.4178 62.6315 75.9822Z" fill="white"/>
<path d="M21.9687 75.9346C22.7768 75.9346 22.6643 76.5193 22.1916 76.9597C21.5102 76.9428 21.373 76.3137 21.9687 75.9346Z" fill="white"/>
<path d="M36.0957 76.2003C37.1459 75.7847 37.8844 75.8429 38.9265 76.2664L38.7293 76.3473L38.6558 76.5493C37.8573 76.0036 37.1754 76.0174 36.3375 76.4403L36.0957 76.2003Z" fill="white"/>
<path d="M29.2427 83.0039L29.5131 83.1879C29.1237 84.0127 28.92 84.4357 27.9424 84.5388L27.8887 84.1798C28.6151 84.0629 29.1327 83.7853 29.2427 83.0039Z" fill="white"/>
<path d="M18.2422 82.5777C19.3045 82.3894 19.6381 82.1224 20.2725 81.2294C20.3803 81.0777 20.4139 80.9963 20.5643 80.8726C20.1106 82.0135 19.7419 82.5137 18.5091 82.8706L18.4042 82.6289L18.2422 82.5777Z" fill="white"/>
<path d="M21.3068 32.1938C21.381 32.358 21.5019 32.543 21.6873 32.5911C21.5436 32.7677 20.3835 34.127 20.2871 34.1598C20.3115 34.0516 21.1742 32.4879 21.3068 32.1938Z" fill="white"/>
<path d="M59.5898 82.5875L59.6506 82.5885C60.2264 82.5917 60.5426 82.3649 60.947 81.9593C61.057 81.8483 61.1654 81.7357 61.2727 81.6226L61.3235 81.6453C61.3219 82.2898 60.2576 82.947 59.6242 82.9179C59.6554 82.8069 59.6163 82.7128 59.5898 82.5875Z" fill="white"/>
<path d="M52.7617 79.0699C53.4279 78.3007 53.5648 77.7841 54.7581 77.809C54.5112 77.8729 54.4911 77.8285 54.3865 78.0865C53.6309 78.2843 53.3729 78.5751 52.859 79.1514L52.7617 79.0699Z" fill="white"/>
<path d="M27.9432 84.5388C27.5404 84.5605 27.1989 84.6409 26.9883 84.2126C27.0134 84.0329 26.9752 84.109 27.1161 83.9821C27.4253 83.9081 27.6025 84.0413 27.8895 84.1798L27.9432 84.5388Z" fill="white"/>
<path d="M41.2578 42.4473C41.758 41.9165 42.1704 41.3879 42.6182 40.8162C42.5838 41.0739 42.5431 41.0514 42.6441 41.2313L42.7678 41.2934C42.2708 41.6924 41.7886 42.0936 41.2578 42.4473Z" fill="white"/>
<path d="M43.5756 82.4058C43.6131 82.5813 43.5835 82.5924 43.6914 82.6902C43.2674 82.8774 42.6985 83.0021 42.2422 82.8916C42.3564 82.7991 42.3051 82.8488 42.3458 82.6495C42.8608 82.7378 43.1336 82.6553 43.5756 82.4058Z" fill="white"/>
<path d="M29.7617 66.1963C30.0344 66.219 30.6024 66.2153 30.765 66.4506C30.5903 66.6727 30.1032 66.5992 29.8296 66.5912L29.7617 66.1963Z" fill="white"/>
<path d="M49.1133 81.9023C49.1677 81.9526 49.1995 81.9885 49.2613 82.0276C48.9663 82.4263 48.7511 82.6505 48.2895 82.8445L48.1172 82.5992C48.5962 82.4099 48.7506 82.2487 49.1133 81.9023Z" fill="white"/>
<path d="M41.8301 77.9221C42.4249 77.7677 42.575 77.756 43.1846 77.8375L43.0757 78.1045C42.6432 78.0098 42.5047 78.0225 42.0807 78.1293L42.0019 78.1483L41.8301 77.9221Z" fill="white"/>
<path d="M24.9883 77.9549C25.3584 77.9227 25.874 77.8243 26.1804 78.039L26.1491 78.1072C25.7729 78.2447 25.507 78.1828 25.0996 78.1537C25.0645 78.0046 25.0981 78.0697 24.9883 77.9549Z" fill="white"/>
<path d="M25.4824 82.6424C25.9921 82.5298 26.0505 82.2707 26.5017 82.1274L26.5175 82.1882C26.252 82.5488 26.0755 82.7466 25.632 82.8983L25.4824 82.6424Z" fill="white"/>
<path d="M26.2324 0.420785L26.2854 0.420733C26.7775 0.415657 27.1107 0.471119 27.5957 0.539006L27.6331 0.743353C27.1372 0.65178 26.7128 0.585056 26.2324 0.420785Z" fill="white"/>
</g>
<defs>
<clipPath id="clip0_30141_33165">
<rect width="78.5032" height="85" fill="white"/>
</clipPath>
</defs>
</svg>
