<svg width="185" height="28" viewBox="0 0 185 28" fill="none" xmlns="http://www.w3.org/2000/svg">
<g clip-path="url(#clip0_30141_32358)">
<path d="M91.0465 6.55635C93.0569 6.40072 96.5434 6.35039 97.7065 8.16626C97.7352 7.71716 97.7927 7.24032 97.8386 6.79006L100.934 6.79015C101.004 7.45428 100.97 8.84916 100.97 9.55322L100.975 14.6845L100.976 20.8467C100.976 22.0544 101.178 24.8818 100.475 25.9328C99.9083 26.7826 97.8329 27.3696 96.6841 27.4474C94.0506 27.626 90.4568 27.888 88.137 26.45C87.2962 25.8774 87.1309 25.2149 87.0167 24.3499C87.0021 23.9165 87.0316 23.4172 87.0463 22.9788C87.9592 22.8525 89.3234 22.9081 90.2462 22.9504C90.2644 23.2971 90.2769 24.293 90.5717 24.4947C92.1101 25.5484 95.925 25.5377 97.4088 24.4892C97.9506 24.1066 97.7515 21.3629 97.7439 20.5933L97.2413 21.408C94.7054 22.8076 87.2282 23.1102 87.1171 19.2022C87.0708 17.5753 86.9157 15.8801 87.0107 14.2466C87.2204 10.6479 85.9353 7.22947 91.0465 6.55635ZM90.4463 18.8748C91.5309 19.9712 93.4886 20.1165 95.004 19.9434C95.7345 19.7915 96.978 19.6207 97.4232 18.9987C97.9631 18.2424 97.8788 11.4985 97.6098 10.4344C97.4882 9.95012 97.3025 9.68573 96.844 9.42454C95.7412 8.79776 94.1473 8.85672 92.8989 8.96032C92.022 9.06642 91.2476 9.19377 90.6799 9.88645C90.0452 10.6596 90.1687 17.1917 90.3391 18.3164C90.3678 18.5036 90.4042 18.6899 90.4463 18.8748Z" fill="white"/>
<path d="M21.7173 6.56523C24.242 6.29132 30.0427 6.45629 30.3932 9.69737C30.5608 11.2467 30.4657 13.0159 30.4521 14.5945C30.4107 19.3984 31.4787 21.4706 25.389 22.259C22.0388 22.4 16.3262 22.6048 16.5094 18.2338C16.5922 16.2563 16.489 14.249 16.5114 12.2699C16.5206 11.4594 16.4452 10.5094 16.5914 9.71702C16.6915 9.14671 16.9521 8.61117 17.3468 8.16456C18.3507 7.03985 20.2229 6.69187 21.7173 6.56523ZM19.8245 18.6827C20.6788 19.6061 21.5047 19.893 22.8381 19.9835C23.3957 20.0189 23.9556 20.0042 24.5101 19.9394C25.3114 19.7782 26.5505 19.5918 27.0234 18.8902C27.4546 18.2505 27.4047 11.2926 27.1567 10.3591C27.0452 9.93926 26.6235 9.61075 26.2374 9.39696C25.1381 8.78841 23.6206 8.8608 22.3858 8.96244C21.4539 9.0793 19.7999 9.5605 19.7871 10.638C19.7606 12.8736 19.4284 16.1916 19.7551 18.3449C19.7718 18.4585 19.7949 18.5713 19.8245 18.6827Z" fill="white"/>
<path d="M149.777 6.56212C151.592 6.37991 154.244 6.42775 155.982 6.92327C159.027 7.79097 158.893 9.89845 158.878 12.3352L158.867 17.5737C158.864 19.2138 158.65 20.5385 159.46 22.0544C158.481 22.012 157.282 22.2482 156.452 21.9132C155.911 21.6951 155.799 21.2146 155.622 20.7242C154.616 22.6305 152.203 22.347 150.251 22.3292C148.143 22.3099 146.001 21.8907 145.146 19.9134C144.867 18.7733 144.736 15.711 145.484 14.7485C147.5 12.1578 151.393 13.2112 154.256 12.6914C154.717 12.5988 155.195 12.4178 155.451 12.035C155.89 11.3749 155.367 9.54557 154.625 9.26766C153.181 8.72652 151.004 8.76769 149.529 9.18611C148.182 10.5242 148.837 11.5237 148.351 11.9982C147.793 12.3178 146.143 12.1637 145.41 12.1365C145.182 8.74421 145.779 7.00607 149.777 6.56212ZM148.981 19.462C150.621 20.2315 154.307 20.5123 155.257 18.6302C155.761 17.6319 155.596 15.8614 155.554 14.7533L155.473 14.6409C153.766 16.3299 147.742 13.6849 148.135 17.8597C148.217 18.7241 148.148 18.9313 148.981 19.462Z" fill="white"/>
<path d="M49.5501 0.329352C50.5136 0.308809 51.5249 0.320192 52.4924 0.316901C52.6844 1.24365 52.6182 4.17231 52.618 5.2433L52.6138 14.474C54.0487 12.8663 55.4702 11.2481 56.878 9.61976C57.5335 8.87087 58.7767 7.37114 59.5077 6.79745C60.0573 6.79123 62.735 6.69954 63.0386 6.88727C62.9951 7.41677 58.5182 12.2967 57.8573 13.1618C58.6675 14.6381 60.1548 16.7808 61.0912 18.2945C61.7522 19.4706 62.6573 20.7412 63.3844 21.9918C62.4273 22.1158 60.9238 22.202 60.0012 21.987C59.3912 21.8448 56.1792 16.5523 55.5671 15.6085C54.8019 16.8245 53.4791 17.8963 52.6274 19.1247C52.6304 20.1002 52.6106 21.0757 52.5679 22.0504C51.6282 22.0903 50.3217 22.0544 49.3974 22.0219C49.2548 18.8855 49.3977 14.5042 49.3945 11.2819L49.3887 4.56218C49.3883 3.76839 49.2865 0.950532 49.5501 0.329352Z" fill="white"/>
<path d="M0.433435 0.33514C1.06303 0.318066 2.75076 0.202545 3.19537 0.526786C3.49316 1.18354 3.3498 7.02557 3.34214 8.23138C4.48059 6.39416 7.19801 6.49945 9.13186 6.5184C11.2048 6.50746 13.8642 7.32891 13.9385 9.63684C14.0686 13.6808 14.1406 18.0184 14.0024 22.0599L10.8774 22.048C10.7535 19.3005 10.8494 15.9483 10.8501 13.1555C10.855 12.1675 10.861 11.3081 10.7776 10.3186C9.77756 8.85736 8.80791 9.0113 7.13999 8.91463C2.52306 8.64704 3.34959 11.4796 3.35327 14.7589L3.34921 21.9806C2.27143 22.0943 1.18315 22.0931 0.105672 21.9769C-0.0596641 17.932 0.0820649 13.1617 0.0793558 9.06279L0.0663366 3.69156C0.0640103 2.73716 0.0512208 1.75127 0.0937922 0.796245C0.104849 0.548218 0.254648 0.475295 0.433435 0.33514Z" fill="white"/>
<path d="M108.41 6.56371C110.666 6.33418 114.131 6.46669 115.855 8.03649C117.048 9.12305 116.8 10.7628 116.767 12.186C115.953 12.1041 114.466 12.1502 113.521 12.1094C113.511 11.5322 113.521 10.6507 113.291 10.1284C112.556 8.46025 108.985 8.77791 107.576 9.32634C107.54 9.36316 107.506 9.4006 107.472 9.43866C106.954 10.0285 106.53 10.7378 106.682 11.5249C107.024 13.308 110.787 12.8087 112.246 13.0945C114.321 13.5012 116.894 13.9595 117.095 16.3462C117.462 20.6949 116.2 21.8958 111.627 22.2722C110.777 22.3116 109.926 22.3181 109.076 22.2915C107.397 22.2272 105.217 22.0139 104.023 20.7984C102.936 19.6915 103.092 18.1568 103.167 16.7678C104.14 16.7281 105.288 16.7503 106.274 16.7463C106.305 17.5111 106.316 18.0714 106.471 18.8225C107.604 19.7953 108.968 20.1001 110.463 20.01C113.116 19.8503 113.964 19.1108 113.841 16.7972C111.718 14.7747 107.23 16.3436 104.686 14.2851C103.901 13.6926 103.545 12.9729 103.443 12.0482C103.05 8.45883 104.466 6.92362 108.41 6.56371Z" fill="white"/>
<path d="M77.5864 6.56415C80.247 6.24444 84.2647 6.56308 84.6532 9.67405C84.8168 10.9838 84.739 12.5484 84.7366 13.8808L84.7342 22.0448C83.6346 22.0567 82.5644 22.0744 81.4643 22.0286C81.4433 18.5402 81.4973 15.0368 81.4629 11.5475C81.4539 10.6293 81.4172 10.1007 80.652 9.47396C79.8291 8.79977 77.7671 8.90062 76.7341 8.94429C75.761 9.05127 74.2539 9.36484 74.078 10.4946C73.878 11.7781 73.9634 13.2592 73.9637 14.5713L73.9664 22.0395C72.8679 22.0566 71.8936 22.0599 70.7909 22.0238C70.6547 18.5324 70.8292 14.9467 70.7593 11.4453C70.7301 9.98379 70.7023 8.24565 70.8263 6.8007C71.3289 6.80141 71.9173 6.80355 72.4108 6.75392C73.9054 6.60372 73.9974 6.89177 73.9558 8.10932C75.0206 6.96905 76.0407 6.70403 77.5864 6.56415Z" fill="white"/>
<path d="M139.779 6.79241L142.778 6.78271C142.937 7.64925 142.885 9.45801 142.882 10.3985L142.883 17.5525C142.884 18.9708 142.928 20.6573 142.83 22.0548C142.164 22.0485 141.618 22.0678 140.954 22.1261C139.538 22.2506 139.626 21.528 139.677 20.5745C139.521 20.8359 139.367 21.1629 139.122 21.3586C137.638 22.4533 135.199 22.3042 133.424 22.2828C131.388 22.2582 129.123 21.3295 128.973 19.2082C128.865 17.675 128.872 15.9407 128.915 14.3884C128.983 11.9077 128.781 9.26112 128.963 6.79757L132.171 6.7981C132.23 8.66431 131.893 18.0183 132.498 18.927C132.842 19.4426 133.566 19.6997 134.17 19.8281C135.565 20.125 137.742 20.08 138.986 19.3273C139.234 19.1768 139.444 18.9506 139.527 18.6837C139.794 17.8207 139.68 16.7425 139.677 15.8491L139.658 10.3392C139.655 9.37807 139.598 7.66508 139.779 6.79241Z" fill="white"/>
<path d="M38.1273 6.5634C40.5967 6.37656 44.8467 6.37789 46.4131 8.57874C47.1301 9.58615 46.9216 11.5408 46.8761 12.7565C45.8296 12.7644 44.7832 12.7506 43.7374 12.7152C43.7218 11.8986 43.7894 10.9294 43.4275 10.1705C43.2025 9.69874 42.81 9.36142 42.2909 9.17894C41.0533 8.74389 38.6652 8.75901 37.4751 9.25764C37.1046 9.41291 36.5389 9.728 36.3978 10.0997C36.019 11.0971 35.9196 18.0122 36.4047 18.8557C36.6638 19.3063 37.2608 19.5794 37.7633 19.723C39.3533 20.1773 41.413 20.0979 42.8936 19.3672C42.9187 19.3483 42.9429 19.3286 42.9662 19.3079C43.8806 18.5108 43.7236 17.4236 43.7485 16.2803C44.6199 16.1764 45.9841 16.2202 46.8959 16.2302C46.9245 17.4597 47.1164 19.6347 46.2643 20.5465C43.9704 23.001 36.7455 22.7835 34.0819 21.0536C32.55 19.8077 32.96 16.3242 32.9672 14.5476C32.9859 9.86886 32.0594 7.10579 38.1273 6.5634Z" fill="white"/>
<path d="M120.461 0.314861C121.175 0.306502 122.969 0.21339 123.516 0.481072C123.766 1.02595 123.659 5.86262 123.655 6.77523L126.76 6.79577C126.834 7.61108 126.808 8.33374 126.791 9.1487C125.867 9.21228 124.612 9.18489 123.665 9.18863C123.661 10.5166 123.383 18.6162 124.026 19.3067C124.695 19.7287 125.89 19.6391 126.776 19.6858L126.808 20.8658L126.794 22.0342C120.214 22.2426 120.368 21.6185 120.367 15.7531L120.381 9.19352C119.809 9.18525 119.236 9.17111 118.665 9.15092C118.63 8.26899 118.623 7.67698 118.689 6.79968L120.361 6.78874C120.39 5.42971 120.266 1.38292 120.461 0.314861Z" fill="white"/>
<path d="M177.553 0.327501C178.559 0.306425 179.607 0.322166 180.616 0.3243C180.748 2.17424 180.667 4.87862 180.64 6.77266C181.71 6.77737 182.78 6.79151 183.849 6.81517C183.901 7.55223 183.879 8.40134 183.877 9.14915C182.893 9.20438 181.665 9.1849 180.664 9.19397C180.749 11.2931 180.584 13.4667 180.65 15.5845C180.68 16.5223 180.447 18.4987 181.102 19.2774C181.46 19.7035 183.174 19.65 183.847 19.692L183.885 20.7004L183.884 22.0122C177.213 22.4422 177.456 21.3169 177.457 15.7543L177.465 9.20331L175.747 9.16587C175.705 8.37875 175.717 7.59002 175.783 6.80423L177.476 6.78093C177.468 5.70665 177.376 1.11142 177.553 0.327501Z" fill="white"/>
<path d="M168.334 6.56127C168.899 6.5225 169.465 6.50551 170.032 6.51032C174.034 6.54162 174.241 9.19629 174.21 12.1141C173.165 12.175 171.978 12.1526 170.934 12.1129C170.863 11.2848 171.056 10.094 170.343 9.49598C169.097 8.45914 166.281 8.81664 165.144 9.83828C164.352 10.5489 164.566 12.2605 164.568 13.2511L164.582 17.7796C164.595 19.2066 164.587 20.6337 164.561 22.0605L161.455 22.0468C161.285 19.5645 161.445 16.1308 161.406 13.5804C161.382 12.0076 161.314 8.2088 161.489 6.79125L164.524 6.78404C164.58 7.26525 164.591 7.79145 164.613 8.27826C165.449 7.01793 166.839 6.71663 168.334 6.56127Z" fill="white"/>
<path d="M65.1455 6.8069C66.1052 6.76466 67.2633 6.79338 68.2373 6.79463C68.3738 7.72093 68.3305 11.3179 68.3066 12.5157C68.2456 15.572 68.4218 19.0281 68.2778 22.0316C67.2169 22.0642 66.155 22.0613 65.0943 22.023V12.3012C65.0936 10.6947 65.0201 8.37057 65.1455 6.8069Z" fill="white"/>
<path d="M66.2961 0.31958C68.7218 0.332831 69.0203 2.66593 67.1138 3.17719C64.8159 3.44104 64.2179 0.995453 66.2961 0.31958Z" fill="white"/>
</g>
<defs>
<clipPath id="clip0_30141_32358">
<rect width="184.258" height="28" fill="white"/>
</clipPath>
</defs>
</svg>
