<svg width="168" height="30" viewBox="0 0 168 30" fill="none" xmlns="http://www.w3.org/2000/svg">
<path d="M3.66331 4.91138C6.64405 4.97989 9.64179 4.88761 12.6363 4.95719C17.9882 5.08154 20.0695 12.4277 16.2251 15.5953C18.8155 17.5875 18.9218 20.5893 17.4222 23.3013C17.1826 23.6772 16.8577 24.0988 16.5441 24.4131C15.7334 25.2275 14.7133 25.8022 13.5964 26.0739C12.4581 26.3533 10.3013 26.2678 9.04071 26.2645L3.65234 26.2614C3.70556 23.8749 3.66102 21.3172 3.66143 18.9199L3.66331 4.91138ZM8.00308 21.9875C9.49727 21.9989 12.0942 22.3542 13.2569 21.3765C13.581 20.9492 13.8997 20.4305 13.8848 19.8642C13.8105 17.0474 10.0088 17.7453 7.99819 17.7489L8.00308 21.9875ZM8.00471 13.4765C9.41003 13.4879 12.2021 13.7916 13.113 12.8969C14.0397 11.729 13.878 9.66973 12.3161 9.32575C11.1368 9.06597 9.23973 9.20011 7.99946 9.2185L8.00471 13.4765Z" fill="white"/>
<path d="M149.266 4.98461C151.604 5.01302 153.949 4.96315 156.287 4.97982C157.335 4.97642 158.347 4.95743 159.374 5.21003C164.218 6.40141 165.235 13.1955 161.94 16.4877C160.1 18.327 157.928 18.1548 155.547 18.1406L153.558 18.1415C153.62 20.7714 153.57 23.6179 153.571 26.264C152.154 26.2413 150.686 26.2618 149.266 26.2643V4.98461ZM153.564 13.977C154.969 13.9881 157.782 14.2787 158.727 13.4258C160.074 11.7111 159.449 9.28133 157.053 9.22002C155.894 9.19043 154.718 9.26228 153.559 9.24152C153.573 10.82 153.575 12.3985 153.564 13.977Z" fill="white"/>
<path d="M123.971 4.13208C124.065 4.142 124.376 4.19097 124.417 4.28588C127.537 11.5343 130.256 19.0236 133.388 26.263C131.791 26.2418 130.152 26.2621 128.553 26.2648L127.687 23.9731L124.348 23.9778L120.654 23.973L119.827 26.2607L114.984 26.2573C117.175 20.6494 119.57 15.0923 121.782 9.48977C122.486 7.70624 123.222 5.89629 123.971 4.13208ZM122.206 19.9603L124.266 19.9588L126.088 19.9545C125.88 19.3197 124.381 14.8852 124.159 14.5169C123.582 16.1969 122.862 18.3097 122.206 19.9603Z" fill="white"/>
<path d="M56.5201 4.97119L69.4286 4.9712C66.951 10.6376 64.3115 16.3257 61.7702 21.9743L69.6893 21.9702L69.6875 26.268C65.2051 26.1407 59.9354 26.257 55.4004 26.2565L63.0528 9.12928C60.876 9.1162 58.699 9.11498 56.522 9.12577C56.5408 7.75458 56.5233 6.34564 56.5201 4.97119Z" fill="white"/>
<path d="M94.4668 4.76956C96.0789 4.48837 98.5937 4.8768 100.076 5.54363L99.5676 9.93306C97.4832 8.8847 95.2369 8.60726 93.0527 9.59481C89.7752 11.0768 88.7572 15.3706 90.2179 18.4776C92.0527 22.3794 96.4357 22.667 99.9735 20.9973C100.118 21.8086 100.187 22.6905 100.325 23.5254C100.32 23.9005 100.501 25.0048 100.56 25.4267C99.5397 25.8201 98.4743 26.0872 97.3883 26.2218C82.631 28.1091 80.4258 6.51694 94.4668 4.76956Z" fill="white"/>
<path d="M35.1094 4.97192L39.4087 4.97444C39.3647 12.0506 39.4704 19.1663 39.3921 26.237C38.8782 26.3099 35.8078 26.2648 35.1096 26.2665L35.1094 4.97192Z" fill="white"/>
</svg>
