<svg width="131" height="55" viewBox="0 0 131 55" fill="none" xmlns="http://www.w3.org/2000/svg">
<g clip-path="url(#clip0_30141_32294)">
<path d="M0.560547 26.739H17.3879L21.3006 32.7861H9.43063L9.4301 37.0885H20.1451L20.1438 42.5906H9.42995L9.43005 46.0789L9.43063 46.8857H24.2854V52.9177H0.56073L0.560547 26.739Z" fill="white"/>
<path d="M20.1855 26.739H30.0427L35.0684 35.2757L40.0867 26.739H49.7688C47.4203 30.4609 44.8529 34.2666 42.4336 37.9682L39.4086 42.5944L39.4092 52.9177H30.5379L30.5388 42.5795C29.1518 40.5385 27.7838 38.3722 26.4312 36.3022L20.1855 26.739Z" fill="white"/>
<path d="M51.2579 37.0665C52.5944 37.0617 54.0093 36.9979 55.3312 37.1317C57.103 37.3111 57.6527 39.3885 56.1568 40.234C57.4035 40.8883 57.5649 41.8046 57.0168 42.95C56.185 44.1212 54.9759 44.0311 53.5876 44.0262C52.8138 44.0235 52.0319 44.0225 51.2578 44.0203L51.2579 37.0665ZM55.4979 42.5801C55.7607 42.251 55.8297 42.0296 55.7497 41.6177C55.5596 40.6364 53.5976 40.8921 52.7125 40.9007V42.8677C53.608 42.8754 54.8072 43.0136 55.4979 42.5801ZM52.7125 39.7404C53.4116 39.7465 54.7816 39.8509 55.3077 39.5431C55.6844 39.0695 55.6196 38.4649 54.9263 38.3196C54.2648 38.1808 53.399 38.2358 52.713 38.2426L52.7125 39.7404Z" fill="white"/>
<path d="M86.3479 38.8728C87.5209 38.7783 87.1876 39.0054 88.0398 39.2358C88.0821 39.1523 88.0758 39.0802 88.0805 38.9884C88.2451 38.9255 89.2473 38.9611 89.4798 38.964L89.484 42.1713C89.4855 44.3139 89.7186 45.9347 86.6494 46.1133L86.3646 45.526L86.1609 45.1121C87.5126 45.0751 88.033 44.8931 88.0696 43.664C87.7952 43.8643 87.6275 43.9783 87.2837 44.0733C86.7999 44.2113 86.2737 44.1702 85.8249 43.9594C84.3927 43.2882 84.2229 41.0396 84.909 39.8644C85.2329 39.3088 85.6843 39.0466 86.3479 38.8728ZM87.2947 42.986C87.6756 42.8565 87.7952 42.7805 88.0628 42.5073V40.4825C87.7169 40.1579 87.545 40.0384 87.023 40.0257C86.9603 40.0236 86.8976 40.0236 86.8349 40.0254C85.7925 40.3761 85.8406 41.5249 86.1133 42.3417C86.2769 42.8327 86.732 43.0147 87.2947 42.986Z" fill="white"/>
<path d="M117.728 45.728L117.76 45.7383C117.83 45.8369 117.802 52.2498 117.802 52.9179C117.567 52.9174 116.549 52.9626 116.402 52.8888C116.393 52.7971 116.385 52.7058 116.378 52.614C116.155 52.6191 115.647 53.0755 115.002 53.0428C114.418 53.0133 114.034 52.8653 113.603 52.4822C113.086 51.9857 113.044 51.5223 112.889 50.911C112.428 49.0978 114.224 46.6069 116.385 48.1905V46.3335L117.728 45.728ZM114.679 49.1047C114.165 49.8078 114.038 51.2264 114.93 51.7648C115.139 51.8912 115.406 51.8769 115.651 51.8759C115.992 51.7423 116.131 51.6537 116.386 51.4108L116.385 49.4095C116.001 49.0098 115.717 48.8862 115.117 48.9194L114.679 49.1047Z" fill="white"/>
<path d="M74.5708 36.8367L74.6074 36.8687C74.6675 37.3247 74.6277 38.6206 74.6277 39.1746L74.6251 44.0198C74.3649 44.023 73.4396 44.0502 73.2426 44.0048C73.2065 43.8786 73.2081 43.8481 73.2039 43.7165C72.9641 43.7319 72.4609 44.1995 71.8287 44.1625C71.2304 44.1275 70.8438 43.9542 70.4122 43.5781C69.177 42.3604 69.4127 39.0253 71.6871 38.8334C72.2948 38.7821 72.764 38.9706 73.2118 39.3019V37.4376L74.5708 36.8367ZM72.335 43.0003C72.7802 42.902 72.8795 42.8269 73.2086 42.5408L73.2118 40.5109C72.8152 40.1422 72.6381 40.0364 72.0513 40.0221L72.0085 40.0213C70.9384 40.364 70.9906 41.5126 71.2754 42.3426C71.429 42.7895 71.8235 42.9739 72.335 43.0003Z" fill="white"/>
<path d="M102.92 36.9731C102.98 37.2158 102.948 38.9803 102.946 39.3082C103.072 39.222 103.238 39.1094 103.376 39.0436C103.837 38.8209 104.38 38.774 104.881 38.9139C106.556 39.3884 106.739 41.5418 106.261 42.8038C106.034 43.405 105.651 43.7786 105.009 44.047C104.448 44.1546 103.957 44.239 103.458 43.9413C103.292 43.8428 103.153 43.757 102.959 43.7109C102.947 43.8099 102.934 43.9088 102.92 44.0076C102.781 44.051 101.731 44.0225 101.531 44.0199V37.6011L102.92 36.9731ZM102.946 40.4754L102.946 42.4819C103.333 42.8806 103.733 43.0336 104.329 42.9163C104.445 42.8549 104.632 42.7571 104.699 42.6543C105.293 41.734 105.299 39.849 103.624 40.028C103.313 40.1727 103.179 40.24 102.946 40.4754Z" fill="white"/>
<path d="M91.9844 47.8157H93.4395C93.7342 48.8746 94.0368 49.9161 94.2478 50.9912C94.4198 50.1245 94.924 48.7008 95.2092 47.8157H96.41C96.7464 48.8862 97.0751 49.8917 97.3635 50.9746C97.5636 49.9852 97.9336 48.8036 98.2157 47.8157H99.6301L99.1238 49.3855L97.9947 52.9183H96.759C96.4632 51.8639 96.1194 50.7694 95.8054 49.716C95.5102 50.7888 95.192 51.8561 94.8508 52.9183H93.6235L91.9844 47.8157Z" fill="white"/>
<path d="M60.9965 47.732C61.5195 47.6978 62.042 47.8066 62.493 48.0432C64.4037 49.0657 64.2198 52.2421 62.018 52.9069C61.8649 52.953 61.6773 52.9881 61.5185 53.019C57.7549 53.1836 57.5799 48.1003 60.9965 47.732ZM61.4166 51.8374C62.854 51.3035 62.6967 48.7826 60.9176 48.9302C59.4337 49.5608 59.8528 52.0421 61.4166 51.8374Z" fill="white"/>
<path d="M50.6934 47.8157H52.1386C52.4402 48.8474 52.7119 49.8861 52.9528 50.9299C53.2344 49.8834 53.5777 48.8516 53.9089 47.8157H55.1065C55.4618 48.9 55.7842 49.8972 56.0648 50.9967C56.2764 49.9765 56.6108 48.835 56.8835 47.8157H58.2979L57.7796 49.4219C57.4489 50.5551 57.0251 51.7842 56.662 52.9183H55.4268L54.4722 49.7169C54.1911 50.7842 53.8462 51.8593 53.5197 52.9183H52.3231C51.763 51.2314 51.2312 49.5095 50.6934 47.8157Z" fill="white"/>
<path d="M102.264 47.7336C102.791 47.6935 103.319 47.8009 103.772 48.0401C105.802 49.1272 105.586 52.4766 102.832 53.0173C101.2 53.051 100.174 52.3313 99.9118 50.8575C99.6521 49.3992 100.484 47.9429 102.264 47.7336ZM102.704 51.8403C104.142 51.3074 104.009 48.822 102.242 48.9248C100.722 49.5237 101.136 52.0344 102.704 51.8403Z" fill="white"/>
<path d="M94.9649 38.8346C96.0888 38.6986 97.5539 39.0681 97.7111 40.1391C97.881 41.3005 97.7947 42.8382 97.7911 44.0201C97.3261 44.017 96.8861 44.0512 96.4185 44.017C96.3558 43.9161 96.3715 43.836 96.3725 43.7193C96.1081 43.7042 95.6023 44.195 94.909 44.1533C94.1822 44.1096 93.7809 43.9274 93.2673 43.4651C92.5995 42.6087 92.7082 41.4266 93.8561 40.9477C94.7601 40.5705 95.4994 40.6417 96.407 40.912C96.4122 40.7236 96.431 40.461 96.3302 40.295C95.8667 39.5308 94.5417 39.9266 93.8974 40.2098L93.2971 39.3016C93.8436 39.0316 94.3478 38.898 94.9649 38.8346ZM95.8516 43.0333C96.5371 42.6727 96.4671 42.5794 96.4488 41.8984C95.8463 41.6402 95.5323 41.6299 94.887 41.6885C93.6874 42.2733 94.4581 43.3761 95.8516 43.0333Z" fill="white"/>
<path d="M70.5846 45.7349C70.6279 47.04 70.596 48.4761 70.594 49.7914L72.2623 47.8541H73.8888L72.3281 49.5134C72.5235 49.8859 74.0853 52.7834 74.0367 52.9093L73.8418 52.918H72.5439L71.3417 50.5419C71.0898 50.8171 70.839 51.1131 70.594 51.3948L70.5945 52.918H69.1816V46.3563L70.5846 45.7349Z" fill="white"/>
<path d="M109.286 38.8772C111.638 38.687 112.199 40.085 112.217 41.8609H108.648C108.944 43.0861 110.015 43.3284 111.084 42.5612L111.371 42.8114L111.964 43.3388C111.159 44.1516 109.869 44.3608 108.76 43.9297C107.195 43.3066 106.873 41.3721 107.57 40.1204C107.952 39.4351 108.496 39.1058 109.286 38.8772ZM108.635 40.9614H110.117H110.863C110.661 40.2427 110.374 39.7697 109.405 39.9367C108.943 40.1696 108.834 40.3113 108.692 40.7695L108.635 40.9614Z" fill="white"/>
<path d="M123.027 38.8748C125.34 38.6578 125.931 40.1296 125.929 41.8607C125.26 41.8643 122.939 41.8113 122.441 41.8928L122.406 41.9905C122.665 43.1513 123.887 43.25 124.804 42.5551L125.122 42.8287L125.726 43.3361C124.869 44.1296 123.592 44.4031 122.452 43.9191C120.9 43.2511 120.586 41.3148 121.318 40.056C121.696 39.4071 122.27 39.0858 123.027 38.8748ZM123.86 40.9613H124.56C124.409 40.1904 124.087 39.8288 123.153 39.9303C122.789 40.0905 122.32 40.5049 122.391 40.8795C122.658 41.0485 123.457 40.9569 123.86 40.9613Z" fill="white"/>
<path d="M80.3749 47.7303C82.7763 47.628 82.6655 49.638 82.6635 51.1304L82.6577 52.9177H81.2449C81.249 52.1907 81.2402 51.4471 81.2553 50.7214C81.2752 49.7399 81.2334 48.5071 79.6721 48.9562C78.9114 49.4642 79.1282 50.4656 79.1084 51.217C79.0937 51.7753 79.1131 52.3571 79.1157 52.9177H77.6699V47.8152C78.1177 47.8198 78.5655 47.781 79.0096 47.8152C79.1747 47.9392 79.0002 48.0258 79.1319 48.1743C79.6528 47.9004 79.7746 47.7939 80.3749 47.7303Z" fill="white"/>
<path d="M81.3428 38.8794C83.7222 38.7525 83.6136 40.815 83.6109 42.2727L83.6052 44.0511H82.1929C82.1934 43.934 82.2117 43.6837 82.1955 43.5801C82.0461 42.6284 82.868 39.2161 80.5721 40.128C79.8422 40.6559 80.1029 41.8183 80.0674 42.5779C80.0454 43.0455 80.0715 43.5775 80.0736 44.0511H78.6289V38.9639C79.0861 38.9582 79.5391 38.9487 79.9963 38.9666C80.1133 39.1313 79.978 39.2058 80.0778 39.3271C80.6243 39.0411 80.7168 38.9461 81.3428 38.8794Z" fill="white"/>
<path d="M58.3254 38.9636H59.7403C59.7387 40.0113 59.6813 41.1227 59.7816 42.1601C59.8945 43.3343 61.7425 43.3183 61.8355 42.1156C61.916 41.0772 61.87 40.0071 61.8638 38.9636H63.2766V40.5465V44.0508L61.9484 44.0552C61.8146 43.9766 61.8904 43.9238 61.8371 43.705C60.8877 44.2425 59.9692 44.4683 59.0052 43.6767C58.2 43.0152 58.3175 41.6418 58.3196 40.7212L58.3254 38.9636Z" fill="white"/>
<path d="M118.891 37.0637L118.955 37.0894C119.002 37.4739 118.971 38.531 118.97 38.9642H120.278V40.1552H118.97C118.976 40.7142 118.964 41.3229 118.95 41.8807C118.924 42.9242 119.32 43.1965 120.42 42.7419L120.24 43.9362C120.078 43.9935 119.897 44.0484 119.731 44.1016C116.897 44.5899 117.506 41.7949 117.515 40.1552H116.672V38.9642H117.558L117.557 37.6554L118.891 37.0637Z" fill="white"/>
<path d="M114.825 37.0649L114.887 37.1179C114.931 37.6193 114.902 38.4358 114.9 38.964H116.102V40.1551H114.9C114.907 40.7725 114.88 41.4078 114.879 42.0261C114.877 43.0144 115.389 43.1841 116.344 42.7771C116.306 43.1664 116.257 43.5549 116.197 43.942C116 44.0161 115.827 44.0601 115.624 44.1148C112.87 44.5234 113.478 41.7811 113.488 40.1551H112.602V38.964H113.488V37.654L114.825 37.0649Z" fill="white"/>
<path d="M108.327 47.7269C108.965 47.6794 109.191 47.72 109.745 48.0017L109.384 49.2547C108.882 48.9966 108.749 49.003 108.182 48.9703C108.01 49.033 107.95 49.0763 107.792 49.1575C107.004 49.5608 107.675 52.652 107.319 52.9175H105.992V47.815C106.339 47.8076 107.146 47.744 107.388 47.9159C107.401 48.0118 107.396 48.033 107.466 48.1095C107.68 48.0957 107.893 47.8574 108.269 47.744L108.327 47.7269Z" fill="white"/>
<path d="M67.0595 47.7245C67.6782 47.682 67.9096 47.7254 68.4394 48.002L68.0867 49.2574C67.7137 49.0471 66.9811 48.8291 66.618 49.0789C65.6263 49.7599 66.3238 51.9732 66.0835 52.8944L65.9967 52.9179H64.6895V47.8153C65.0353 47.8079 65.805 47.7521 66.0772 47.8978C66.0955 47.9799 66.1112 48.031 66.1389 48.1117C66.3238 48.1182 66.6269 47.8466 67.0595 47.7245Z" fill="white"/>
<path d="M129.172 38.8321C129.774 38.7742 130.103 38.8215 130.6 39.1144L130.249 40.3638C129.735 40.0957 129.613 40.1046 129.03 40.0737C128.902 40.1256 128.749 40.184 128.642 40.2669C128.014 40.7538 128.298 43.1927 128.26 43.9837L128.171 44.0198H126.855V38.9326C127.206 38.9326 127.975 38.8566 128.245 39.0205C128.262 39.124 128.256 39.1313 128.321 39.2225C128.475 39.2141 128.795 38.9497 129.172 38.8321Z" fill="white"/>
<path d="M68.6151 36.8762L68.6669 36.891C68.7395 37.0714 68.6935 43.3753 68.6935 44.0514H67.403L67.3079 44.0259C67.253 43.8656 67.2802 42.4664 67.2802 42.2055L67.2775 37.4741L68.6151 36.8762Z" fill="white"/>
<path d="M111.854 45.7322C111.924 48.0278 111.864 50.6021 111.863 52.9179H110.471C110.434 52.7961 110.445 51.3246 110.445 51.1097L110.45 46.3538L111.854 45.7322Z" fill="white"/>
<path d="M74.9439 47.8157H76.3583L76.3593 52.9183H74.9434L74.9439 47.8157Z" fill="white"/>
<path d="M75.9062 38.9636H77.3207V44.0508H75.9062V38.9636Z" fill="white"/>
<path d="M64.5859 38.9636H65.9988V44.0508H64.5859V38.9636Z" fill="white"/>
<path d="M74.9434 45.8643H76.3599V47.1093H74.9434V45.8643Z" fill="white"/>
<path d="M75.9068 36.9741H77.3207V38.2188L75.9062 38.2189L75.9068 36.9741Z" fill="white"/>
<path d="M64.5845 36.9741H65.9973V38.2189H64.584L64.5845 36.9741Z" fill="white"/>
<path d="M58.635 0H58.6799V9.75584C57.952 9.90046 56.9593 10.0303 56.2069 10.1477L51.435 10.8915L36.9343 13.1512L12.8057 16.9114C8.57679 17.5703 4.27943 18.2769 0.046875 18.8921L37.6065 6.79119L51.5379 2.30177L56.0376 0.853408C56.8485 0.592419 57.8533 0.293384 58.635 0Z" fill="white"/>
<path d="M87.1079 52.5467C86.6607 52.8837 86.205 53.093 85.5937 53.039C82.7576 52.7868 82.8678 47.4496 86.019 47.7244C86.472 47.764 86.865 48.1199 87.0928 48.1338C87.1084 48.0402 87.1163 47.9687 87.1236 47.8742C87.2788 47.8189 88.2992 47.8516 88.5192 47.8544L88.5239 51.1027C88.5244 53.0552 88.817 54.5996 86.0974 55.0002H85.6904L85.2024 53.9952C86.5259 53.9684 87.1032 53.7776 87.1079 52.5467ZM86.3649 51.8643C86.7072 51.7449 86.8509 51.6569 87.1048 51.4172L87.1064 49.3748C86.6904 48.9622 86.4464 48.8774 85.8158 48.9253C85.3131 49.118 85.0717 49.4679 85.0284 49.9474C84.9448 50.8805 85.0514 51.9303 86.3649 51.8643Z" fill="white"/>
</g>
<defs>
<clipPath id="clip0_30141_32294">
<rect width="130.625" height="55" fill="white"/>
</clipPath>
</defs>
</svg>
