<svg width="142" height="40" viewBox="0 0 142 40" fill="none" xmlns="http://www.w3.org/2000/svg">
<g clip-path="url(#clip0_30141_32373)">
<path d="M0.313062 18.6601C0.378292 17.7263 0.669462 15.9736 0.875343 15.0949C2.00552 10.1524 4.9727 5.89576 9.11005 3.28168C13.267 0.654787 18.2435 -0.124968 22.9457 1.1138C28.0225 2.45409 31.7613 5.68929 34.4232 10.3679C35.3911 10.3512 36.2095 10.4138 37.1743 10.5156C36.6877 11.3692 36.1633 12.1982 35.6027 12.9999C35.9397 14.2455 36.693 16.7711 36.6951 18.0475C36.7449 19.2143 36.7946 20.4372 36.693 21.6114C36.3341 25.7613 34.7387 29.6188 32.1232 32.7243C28.8558 36.604 24.3127 38.8879 19.3827 39.1197C14.5793 39.3514 9.88364 37.5731 6.3186 34.1724C2.68719 30.6903 0.525333 25.8242 0.313245 20.6548C0.288878 19.9902 0.288812 19.3248 0.313062 18.6601Z" fill="white"/>
<path d="M0.314453 18.6601C0.379683 17.7263 0.670853 15.9736 0.876734 15.0949C2.00691 10.1524 4.97409 5.89576 9.11144 3.28168C13.2684 0.654787 18.2449 -0.124968 22.9471 1.1138C28.0239 2.45409 31.7627 5.68929 34.4246 10.3679C35.3925 10.3512 36.2109 10.4138 37.1757 10.5156C36.689 11.3692 36.1646 12.1982 35.6041 12.9999C35.9411 14.2455 36.6944 16.7711 36.6965 18.0475C36.1937 18.3338 35.6548 18.766 35.19 19.1248C32.1752 21.4524 28.5985 23.0699 24.9456 23.8719C23.838 24.1151 22.676 24.1981 21.5575 24.4194C21.5509 23.2827 21.3596 22.1555 20.9919 21.0869C20.163 18.6823 18.4595 16.7246 16.2579 15.6467C14.084 14.6129 11.6137 14.5108 9.36965 15.362C6.85159 16.3449 5.23846 18.0778 4.12978 20.6183C3.03782 20.1224 1.19923 18.9739 0.314453 18.6601Z" fill="white"/>
<path d="M34.4238 10.3681C35.3917 10.3515 36.2102 10.4141 37.1749 10.5158C36.6883 11.3695 36.1639 12.1985 35.6034 13.0002C35.2054 12.0809 34.8595 11.2748 34.4238 10.3681Z" fill="white"/>
<path d="M25.6891 11.9581C27.7063 11.7836 29.4799 13.3551 29.6633 15.4794C29.8468 17.6037 28.3714 19.4869 26.3575 19.699C24.3182 19.9138 22.5039 18.335 22.3181 16.1839C22.1324 14.0328 23.6465 12.1348 25.6891 11.9581Z" fill="#F05758"/>
<path d="M25.3644 12.4289C27.1552 12.0664 28.8844 13.3078 29.22 15.1969C29.5556 17.086 28.3697 18.9026 26.5757 19.2476C24.7934 19.5902 23.0836 18.3504 22.7502 16.4735C22.4167 14.5968 23.5852 12.789 25.3644 12.4289Z" fill="white"/>
<path d="M31.1783 9.48419C32.0234 9.35892 32.8064 9.97485 32.9327 10.8644C33.0589 11.7538 32.4814 12.5844 31.6386 12.7253C30.7851 12.868 29.9851 12.2501 29.8572 11.3495C29.7293 10.4488 30.3227 9.61109 31.1783 9.48419Z" fill="#F05758"/>
<path d="M30.963 9.81343C31.6426 9.56141 32.3871 9.93971 32.6233 10.6571C32.8595 11.3745 32.4973 12.1576 31.8156 12.4033C31.1381 12.6476 30.4007 12.2687 30.166 11.5557C29.9312 10.8428 30.2875 10.0639 30.963 9.81343Z" fill="white"/>
<path d="M4.12924 20.6185C5.23793 18.078 6.85106 16.3451 9.36911 15.3623C11.6132 14.511 14.0835 14.6132 16.2574 15.6469C18.4589 16.7248 20.1624 18.6825 20.9914 21.0871C21.359 22.1558 21.5504 23.2829 21.557 24.4197C21.5597 25.5489 21.3177 26.8278 20.934 27.8785C20.0836 30.2294 18.3847 32.1299 16.2088 33.1644C14.0023 34.2121 11.4886 34.2798 9.23432 33.3521C4.28553 31.3153 2.21138 25.7544 4.12924 20.6185Z" fill="#F05758"/>
<path d="M4.89113 21.1167C6.37637 17.2822 10.2356 15.099 14.0886 15.9137C17.9416 16.7284 20.7031 20.3115 20.67 24.453C20.6423 27.9313 18.637 31.0525 15.5828 32.3711C12.5286 33.6896 9.02202 32.9482 6.68681 30.4901C4.35161 28.032 3.64377 24.3371 4.89113 21.1167Z" fill="white"/>
<path d="M4.89062 21.1167C6.37586 17.2822 10.2351 15.099 14.0881 15.9137C17.9411 16.7284 20.7026 20.3115 20.6695 24.453C16.308 24.4703 12.898 24.0419 8.68268 22.5772C7.39943 22.1313 6.13234 21.535 4.89062 21.1167Z" fill="white"/>
<path d="M49.8681 9.61915C52.836 9.30898 52.2405 12.5029 52.2357 14.6534L52.2182 20.9912C53.9102 19.5212 55.4099 18.8365 57.5546 18.6326C63.5995 18.0582 68.8529 23.3631 68.4405 29.7703C68.2638 32.5143 67.6705 34.0241 65.9769 36.0922C62.9764 39.3909 59.1935 40.5325 55.0106 39.0067C52.7521 38.1179 50.5495 36.0954 49.4872 33.8293C48.4864 31.6942 48.5408 29.6305 48.5426 27.351L48.5497 22.2669C48.5553 18.751 48.5335 15.2356 48.5404 11.7201C48.5426 10.589 48.9188 10.068 49.8681 9.61915ZM59.2274 35.6963C62.6611 35.2668 65.1173 31.9896 64.7186 28.3697C64.3198 24.7498 61.2165 22.1527 57.7808 22.5637C54.3327 22.9763 51.8577 26.2612 52.2579 29.8942C52.6581 33.5272 55.7813 36.1273 59.2274 35.6963Z" fill="white"/>
<path d="M79.7281 9.61224C80.6336 9.53847 81.8391 9.79513 82.0211 10.9549C82.1935 12.0555 82.1157 13.4202 82.1157 14.5616C82.1231 16.6924 82.115 18.8232 82.0915 20.9538C83.1863 20.0958 84.0792 19.4767 85.3963 19.0616C95.0494 16.0206 102.437 27.9665 95.8477 36.0896C93.1586 39.2754 88.9131 40.5347 85.0742 39.1001C82.5699 38.1488 80.5221 36.1948 79.3759 33.6624C78.8931 32.5785 78.5945 31.4136 78.494 30.2208C78.3128 28.2818 78.4397 24.3681 78.4397 22.2831L78.4302 15.6417C78.4258 14.3499 78.4074 13.0582 78.428 11.7664C78.4463 10.6017 78.7251 10.0814 79.7281 9.61224ZM89.236 35.6778C92.6449 35.1766 95.0333 31.8742 94.5894 28.2773C94.1447 24.6804 91.0329 22.1328 87.6166 22.5682C84.1548 23.0094 81.6997 26.3407 82.1495 29.9844C82.6 33.6281 85.783 36.1856 89.236 35.6778Z" fill="white"/>
<path d="M110.473 18.6386C115.966 18.2516 120.718 22.6252 121.094 28.4131C121.47 34.201 117.328 39.2166 111.837 39.6225C106.333 40.0294 101.561 35.6517 101.184 29.8504C100.807 24.0492 104.969 19.0265 110.473 18.6386ZM111.909 35.6924C115.338 35.2448 117.779 31.9589 117.367 28.3431C116.955 24.7273 113.846 22.1432 110.414 22.5637C106.964 22.9864 104.496 26.2839 104.91 29.9189C105.324 33.5539 108.462 36.1422 111.909 35.6924Z" fill="white"/>
<path d="M125.675 18.5813C126.747 18.7153 127.012 19.1044 127.699 19.9602C128.138 20.5066 128.579 21.0706 129.015 21.6207L132.535 26.079L132.592 26.0015C133.914 24.2144 135.337 22.4765 136.698 20.7286C137.532 19.6577 138.538 17.9889 140.031 18.8114C140.636 19.1445 141.054 19.6595 141.101 20.3908C141.182 21.6571 139.647 23.1424 138.894 24.0892L134.878 29.1331C135.833 30.3067 140.841 36.3501 141.064 37.2575C141.181 37.7341 141.137 38.2104 140.894 38.6386C140.558 39.2296 140.084 39.503 139.468 39.6691C138.655 39.7112 138.178 39.3381 137.668 38.7183C136.946 37.8416 136.273 36.9178 135.565 36.0295C134.535 34.7381 133.559 33.3788 132.491 32.1229C132.179 32.5949 131.712 33.1806 131.362 33.6272L128.62 37.1138C128.079 37.8006 127.361 38.8101 126.73 39.3377C125.702 40.197 123.975 39.2715 123.933 37.8965C123.865 36.8888 124.509 36.1748 125.109 35.4427C126.803 33.3736 128.413 31.1744 130.133 29.1314C129.262 28.0404 124.156 21.8763 123.98 21.0094C123.876 20.4924 123.921 19.9656 124.2 19.5158C124.558 18.9396 125.056 18.7155 125.675 18.5813Z" fill="white"/>
<path d="M72.9817 32.0041C74.9826 31.6812 76.8514 33.1358 77.1471 35.2468C77.4435 37.3578 76.0531 39.3196 74.0485 39.6203C72.0594 39.9188 70.2147 38.4671 69.9205 36.3717C69.627 34.2763 70.9947 32.3245 72.9817 32.0041ZM73.9774 38.4451C75.3487 38.1856 76.2674 36.813 76.0399 35.3643C75.8117 33.9156 74.5218 32.9287 73.1446 33.1491C72.2369 33.2944 71.4738 33.9434 71.1466 34.8476C70.8201 35.7519 70.98 36.7715 71.5663 37.5164C72.1525 38.2613 73.0734 38.6161 73.9774 38.4451Z" fill="white"/>
</g>
<defs>
<clipPath id="clip0_30141_32373">
<rect width="141.622" height="40" fill="white"/>
</clipPath>
</defs>
</svg>
