<svg width="107" height="61" viewBox="0 0 107 61" fill="none" xmlns="http://www.w3.org/2000/svg">
<g clip-path="url(#clip0_30141_32219)">
<path d="M14.6065 12.1434C14.5901 11.0543 14.5123 9.95971 14.5588 8.85321C14.8728 1.37592 24.7261 -2.27844 30.9646 2.79075C33.04 4.47707 34.1517 7.01783 34.0711 9.4857C34.0466 10.4088 33.9904 11.3172 33.9591 12.2348C37.0996 9.64005 43.1786 9.89942 46.1479 12.6709C48.6613 15.0168 48.1626 17.5081 48.1511 20.4661C48.1482 23.5455 48.125 26.625 48.0816 29.7043L48.0304 43.7547C48.0208 45.7545 48.0581 47.9623 47.9772 49.9393C47.918 51.7988 47.0114 53.5583 45.4623 54.8218C43.9194 56.0736 41.3343 56.7935 39.2464 56.7327C37.584 56.6845 33.5235 55.6269 32.8657 54.1247C32.7253 55.0859 32.2694 56.288 31.6774 57.1042C30.6836 58.4911 29.0963 59.4656 27.2756 59.807C26.4444 59.9642 25.6287 59.9314 24.7906 59.9388C22.6914 59.9562 20.5849 59.9488 18.7637 58.8796C16.6684 57.6489 16.284 56.1335 15.8208 54.1432C14.5916 55.6655 11.8601 56.5643 9.81505 56.6871C7.54229 56.8242 4.82416 56.143 3.08447 54.8117C1.7255 53.7716 0.864033 51.8618 0.734924 50.2961C0.691368 49.6016 0.712756 48.6509 0.712275 47.9369L0.70056 43.6631L0.549823 30.3114L0.464813 21.332C0.449373 19.7387 0.352165 18.0456 0.514437 16.4809C0.957395 12.209 5.8506 9.83791 10.3553 10.5368C11.9577 10.7855 13.4108 11.193 14.6065 12.1434Z" fill="white"/>
<path d="M14.6053 12.1434C14.5889 11.0543 14.5111 9.95971 14.5576 8.85321C14.8716 1.37592 24.7249 -2.27844 30.9634 2.79075C33.0388 4.47707 34.1505 7.01783 34.0699 9.4857C34.0454 10.4088 33.9892 11.3172 33.9579 12.2348C33.6988 13.9416 33.6515 15.9853 33.523 17.7429L32.6722 28.9892C32.5308 30.6264 32.4787 32.5393 32.1397 34.1416C31.8389 35.0822 31.0951 36.3817 30.3648 37.0884C27.4948 39.8398 22.0044 39.9975 18.8501 37.5351C16.5739 35.7582 16.3683 33.6726 16.1236 31.1933C15.947 29.2416 15.7939 27.2885 15.6642 25.3341C15.3328 20.9571 14.8973 16.5032 14.6053 12.1434Z" fill="#FCA5A5"/>
<path d="M15.8188 54.1431C15.7172 50.3145 15.8754 46.9544 20.9613 45.5887C22.0316 45.3013 23.0411 45.3875 24.1203 45.3235C29.8013 44.9863 32.8025 47.4223 32.8833 52.5059C32.8955 53.0458 32.889 53.5857 32.8637 54.1246C32.7233 55.0858 32.2673 56.2879 31.6754 57.1042C30.6816 58.491 29.0943 59.4655 27.2736 59.8069C26.4424 59.9641 25.6267 59.9313 24.7886 59.9387C22.6893 59.9562 20.5829 59.9487 18.7616 58.8795C16.6663 57.6488 16.282 56.1334 15.8188 54.1431Z" fill="#FCA5A5"/>
<path d="M77.2919 17.6061C79.4277 17.2132 82.815 18.2408 84.4683 19.4597C88.973 22.7821 89.2187 30.7375 85.4254 34.5746C83.5539 36.4685 81.7684 37.1974 78.9609 37.3752C72.2225 37.715 68.75 34.5121 68.2766 28.7065C68.0321 25.7112 68.6473 22.6946 70.9387 20.3603C72.5067 18.7629 74.905 17.7558 77.2919 17.6061ZM78.8906 33.833C80.866 33.4439 82.2959 31.8724 82.5386 30.1457C83.0186 26.7326 83.0451 20.6656 77.3833 21.257C73.4716 22.1437 73.3292 26.355 73.5629 29.267C73.784 32.0253 75.4848 34.1659 78.8906 33.833Z" fill="white"/>
<path d="M96.9456 23.7902C97.2088 23.3575 97.6449 22.8546 97.9471 22.4157L99.8985 19.575C100.145 19.2207 100.651 18.4357 100.959 18.1715C101.469 17.993 105.324 18.0292 106.001 18.141L106.045 18.2057C105.726 19.1934 102.548 22.9197 101.683 24.097C101.237 24.7045 99.9273 26.4704 99.4287 27.0449C100.011 27.7316 100.682 28.7736 101.236 29.5231L103.835 33.0817C104.591 34.1113 106.083 35.9872 106.46 37.0946C105.416 37.1639 103.762 37.1501 102.679 37.1681C102.137 37.1798 101.594 37.1787 101.051 37.1644C99.7609 35.6913 98.7822 33.8011 97.6329 32.2279C97.3007 31.7727 96.9618 31.2852 96.6723 30.8078C95.7813 31.7568 94.5785 33.7164 93.7825 34.8148C93.2081 35.6072 92.7317 36.4779 91.9579 37.1724C90.5755 37.1861 88.6548 37.2174 87.3066 37.1406C87.3607 36.8474 87.4394 36.4901 87.6178 36.2339C89.6755 33.2787 91.7843 30.2366 93.9429 27.3421C93.6035 26.9987 92.3388 25.1401 91.9675 24.6166L87.3847 18.1208C88.4457 18.0811 89.5866 18.0918 90.6542 18.087C93.3349 18.0573 92.7269 17.8672 94.1201 19.7764C95.0045 20.988 95.9231 22.5878 96.8855 23.7197L96.9456 23.7902Z" fill="white"/>
<path d="M63.2106 18.0325C64.3496 18.0286 66.772 18.0012 67.8186 18.1051C67.7128 19.2278 67.9868 20.4928 67.2628 21.3463C66.5269 21.596 64.7023 21.4825 63.8252 21.4804C62.1388 21.4726 60.4523 21.4943 58.7671 21.5453C58.8495 22.7653 58.7714 24.529 58.7551 25.7825C60.0126 25.7774 65.7825 25.6838 66.5761 25.9577C67.0111 26.3047 66.9552 28.614 66.6146 28.9803C65.7843 29.3556 60.0348 29.1619 58.805 29.1354L58.8056 30.0099C58.8296 30.7398 58.8404 36.6968 58.6512 36.9615C58.5959 37.0388 58.4361 37.1002 58.337 37.1224C57.9795 37.2029 55.0363 37.1933 54.5466 37.1579C54.34 37.143 54.1724 37.1176 53.9921 37.0271C53.7728 36.6767 53.8137 34.5986 53.8089 34.119L53.777 29.6266L53.7584 22.8468C53.7572 22.1608 53.6413 18.5327 53.9795 18.1525C54.4241 18.0048 62.0823 18.0524 63.2106 18.0325Z" fill="white"/>
<path d="M83.2456 41.0964C85.391 40.9995 86.5271 41.7496 87.2258 43.5265C88.2219 46.0615 87.9485 50.3469 84.5415 51.3468C79.3387 51.9275 79.2564 45.16 81.0449 42.4499C81.5237 41.7247 82.3258 41.2631 83.2456 41.0964ZM84.1678 50.3474C86.6839 49.7249 86.473 45.4808 85.9034 43.7817C85.5556 42.7453 84.8533 41.9529 83.5207 42.0466C82.8815 42.2509 82.3799 42.6283 82.1239 43.1952C81.3057 45.0108 81.0545 47.0815 81.9028 48.9267C82.333 49.8626 83.0059 50.3697 84.1678 50.3474Z" fill="white"/>
<path d="M101.24 41.0998C106.384 40.5011 106.139 47.421 104.184 49.8591C103.375 50.9495 100.855 51.8742 99.4863 51.1734C99.2857 51.0707 99.0934 50.724 99.1619 50.5345C99.2989 50.156 99.6317 50.2216 99.9153 50.2465C103.02 50.851 103.579 48.8322 103.929 46.7164C103.336 46.8917 102.81 47.1616 102.187 47.2855C97.2532 48.2711 96.9684 41.6921 101.24 41.0998ZM100.941 46.3666C101.515 46.3883 101.896 46.3957 102.466 46.366C102.891 46.2803 103.6 45.9151 103.869 45.6006C104.118 45.3106 104.019 44.8082 103.979 44.4647C103.799 42.9392 103.346 41.8631 101.33 42.0478C100.705 42.3585 100.046 42.8492 99.9135 43.4955C99.6527 44.7696 99.6245 45.6239 100.941 46.3666Z" fill="white"/>
<path d="M55.8904 40.9465C56.0874 40.9301 56.2382 40.8931 56.4046 40.9751C56.4611 41.3403 56.4233 42.0655 56.4209 42.4615C56.4184 43.229 56.4251 43.9965 56.4401 44.764C57.7606 44.3273 58.8564 43.9319 60.2791 44.2564C61.1502 44.4549 61.8549 45.4199 61.8015 46.1445C61.7186 47.2804 62.0856 50.1097 61.7342 51.0783C61.6134 51.1847 61.5029 51.2228 61.3347 51.2355C61.107 51.253 60.8102 51.2276 60.6329 51.0884C60.3656 50.8793 60.4677 47.0491 60.4473 46.4192C60.4371 45.5686 60.1295 45.0837 59.0733 45.0493C58.0934 45.0139 57.1376 45.323 56.4166 45.9084L56.4605 49.0738C56.4677 49.664 56.4743 50.2362 56.4371 50.8264C56.4046 51.3483 55.6446 51.1276 55.2193 51.0693C55.1105 48.9743 55.2794 46.5404 55.2073 44.4083C55.1929 43.9753 55.188 41.2948 55.2415 41.0545C55.4332 40.9449 55.6561 40.9582 55.8904 40.9465Z" fill="white"/>
<path d="M92.6646 41.2014C93.0023 41.1824 93.3375 41.2258 93.674 41.2586C93.7148 41.6027 93.7382 43.2595 93.7124 43.5458C93.6337 44.4335 93.8752 50.6991 93.4811 51.1326C93.0918 51.302 92.646 51.2321 92.208 51.2057C92.2483 50.2688 92.2195 49.2048 92.2177 48.2584C92.1972 46.3412 92.2549 44.4933 92.1882 42.5618C91.0491 43.0424 91.0696 43.4648 89.4919 43.8968C89.2912 43.6342 89.1855 43.4055 89.0371 43.1197C89.3838 42.8461 92.2105 41.3761 92.6646 41.2014Z" fill="white"/>
<path d="M77.3118 41.1489C77.5635 41.142 77.671 41.1235 77.8645 41.2272C78.0309 41.5501 78.0165 50.2824 77.9378 51.0589C77.6795 51.26 77.1237 51.1494 76.7218 51.1325L76.702 47.7162C76.7164 46.0568 76.6653 44.1613 76.7278 42.5246C75.9624 42.9163 75.2649 43.4033 74.4719 43.7547C73.8885 44.0136 73.4638 43.7791 73.3262 43.2307C73.5082 42.9766 76.8402 41.2823 77.3118 41.1489Z" fill="white"/>
<path d="M67.3986 42.1597L68.3737 42.1284C68.3941 42.816 68.4049 43.5031 68.4061 44.1907C68.9895 44.2341 70.1466 44.2288 70.6074 44.3352C70.8405 44.5194 70.8357 44.7973 70.6362 45C70.2085 45.1683 69.0261 45.0757 68.4728 45.0768L68.4932 49.856C69.6786 51.0243 70.4644 50.1276 71.2118 50.5865C71.1703 50.7347 71.1277 50.9057 71.0129 51.0211C70.2962 51.7404 67.4803 51.3244 67.3614 50.2943C67.2737 49.5369 67.2622 48.5841 67.2755 47.8086C67.2905 46.9072 67.2214 46.0057 67.2142 45.1091C66.7089 45.0942 66.3743 45.1165 66.0024 44.7983C65.9417 44.6364 65.9459 44.7205 66.0264 44.5379C66.4446 44.206 66.6945 44.2494 67.2809 44.1976C67.2719 43.7196 67.1547 42.4566 67.3986 42.1597Z" fill="white"/>
<path d="M63.5516 44.2614C64.0202 44.2572 64.2773 44.2667 64.7435 44.3106C64.8475 45.301 64.7045 46.646 64.7616 47.6766C64.797 48.3224 64.9003 50.7626 64.6739 51.1887C64.2323 51.2676 64.0725 51.257 63.6339 51.2427C63.5252 50.6657 63.4507 44.697 63.5516 44.2614Z" fill="white"/>
<path d="M96.384 49.9942C97.6348 49.9513 97.8553 50.8205 96.825 51.3625C96.6213 51.3927 96.2825 51.4594 96.1034 51.3498C95.7003 51.1016 95.5273 50.6357 95.7688 50.244C95.8986 50.0339 96.1491 50.0281 96.384 49.9942Z" fill="white"/>
<path d="M63.7947 41.863C64.0362 41.7466 64.33 41.7551 64.5619 41.8847C64.7938 42.015 64.9266 42.2463 64.9092 42.4876C64.8911 42.7295 64.7253 42.9434 64.476 43.0461C64.1077 43.1969 63.6697 43.0641 63.4859 42.7449C63.3021 42.4257 63.439 42.0356 63.7947 41.863Z" fill="white"/>
</g>
<defs>
<clipPath id="clip0_30141_32219">
<rect width="106.78" height="60.1652" fill="white"/>
</clipPath>
</defs>
</svg>
