<svg width="132" height="70" viewBox="0 0 132 70" fill="none" xmlns="http://www.w3.org/2000/svg">
<path d="M3.07617 25.7544C3.37063 25.3559 4.38613 24.3854 4.78276 23.9891L8.23931 20.5374L20.3282 8.44563C20.6809 8.09289 22.5065 6.17203 22.7603 6.17139C35.5896 6.13674 48.8085 6.15167 61.6075 6.15144C61.6624 6.76447 61.6367 7.69838 61.6355 8.32955L61.6303 11.9782V23.8828L61.6274 38.1452V42.8527C61.6268 43.5284 61.6589 44.5887 61.6157 45.2408C61.688 47.3231 61.6285 49.7479 61.628 51.8512L61.632 64.8421C59.5519 64.7936 57.2783 64.8374 55.1856 64.8374H42.5752L3.09099 64.8327L3.08997 45.2296L3.08956 32.5624C3.09013 30.3907 3.14931 27.9083 3.07617 25.7544ZM44.8416 45.1381C45.0261 45.0976 45.6304 45.0665 45.8672 45.0499C46.9569 44.9731 47.7275 44.6052 48.5963 43.9657C49.3503 43.4106 50.3251 42.1409 50.4555 41.2115L50.5027 41.1601C50.5015 41.073 50.4971 40.9851 50.5321 40.9036C50.712 40.4851 50.6728 39.7714 50.6627 39.3075C50.6347 38.0181 49.8929 36.4531 48.8679 35.6499C48.527 35.3828 47.7479 35.0537 47.4605 34.7946C47.6288 34.4053 48.1042 34.0338 48.3535 33.6102C48.5728 33.2376 48.7432 32.4155 48.9514 32.03C48.9564 32.0082 48.9615 31.9864 48.9665 31.9646C48.9192 31.5747 48.9384 30.9652 48.9666 30.5726C48.9536 30.429 48.9223 30.4507 48.9078 30.3879C47.7428 25.35 43.6371 25.8634 39.2672 25.8715C39.3497 26.2803 39.3239 27.4432 39.3224 27.9047L39.3128 31.5007L39.3169 45.2458C41.0816 45.1735 43.0959 45.3178 44.7989 45.2292L44.8416 45.1381ZM18.4542 41.0635L18.5222 40.8264C19.1624 40.7532 26.1051 40.7545 26.4424 40.8667C27.0732 41.7642 27.5585 43.578 28.102 44.5845C28.1748 44.7192 28.3891 45.1488 28.4252 45.2773C28.8806 45.1058 31.052 45.4216 31.2792 45.139C31.1771 45.0501 30.6715 43.7997 30.559 43.553L27.2034 36.0772C26.8403 35.2464 26.26 34.2151 26.0527 33.358C25.8122 33.1849 25.4499 32.2162 25.3085 31.8995L23.5727 28.026C23.2407 27.2893 22.9773 26.5916 22.5773 25.899C22.3355 26.8594 21.3464 28.3653 20.9996 29.3661C20.7814 29.9959 20.2588 30.7498 20.0621 31.4553C19.7466 31.8895 19.6035 32.3742 19.372 32.8561C18.4002 34.8801 17.5263 36.965 16.5067 38.9634C16.5111 39.3237 14.5098 43.0845 14.3253 43.7043C14.2742 43.8756 13.796 44.8653 13.6857 45.061L13.7008 45.1704C13.9174 45.2999 16.0815 45.2334 16.4578 45.2295C16.7051 45.0216 18.0233 41.6929 18.4542 41.0635ZM33.6568 26.0183L33.6578 45.2432C34.6056 45.2283 35.5535 45.225 36.5013 45.2331C36.4453 44.7839 36.477 43.3555 36.4774 42.8407L36.4818 38.0931L36.4837 30.2988C36.4834 28.9594 36.4395 27.2967 36.5037 25.9793C35.9486 26.0611 34.2877 26.0215 33.6568 26.0183Z" fill="#9D9D9D"/>
<path d="M42.1429 36.5989C43.5718 36.5879 45.2971 36.4454 46.5768 37.1654C47.7381 37.8188 48.2766 39.5061 47.6625 40.6983C46.8562 42.8847 44.029 42.5368 42.161 42.5255C42.1102 42.1799 42.1347 40.9601 42.1356 40.5502L42.1429 36.5989Z" fill="white"/>
<path d="M42.1621 42.5256C42.2585 41.6489 42.1635 39.7661 42.199 38.762C43.3582 39.2187 44.6206 39.5602 45.7964 39.9827C46.3788 40.1919 47.0266 40.4033 47.6226 40.567L47.6636 40.6985C46.8573 42.8848 44.0301 42.5369 42.1621 42.5256Z" fill="#CECECE"/>
<path d="M42.1436 28.5267C42.4091 28.4338 43.7245 28.387 43.9334 28.5714C44.4838 28.572 45.1184 28.8961 45.5073 29.2726C47.0148 30.7321 46.2399 34.1978 43.8726 34.1399L43.8219 34.1382C43.523 34.3639 42.4977 34.3061 42.1348 34.2031C42.1848 32.3732 42.1446 30.3697 42.1436 28.5267Z" fill="white"/>
<path d="M42.1348 34.2033C42.3845 34.0543 43.4924 34.1275 43.8219 34.1384C43.523 34.3641 42.4977 34.3063 42.1348 34.2033Z" fill="#BBDEEF"/>
<path d="M42.1445 28.5267C42.4101 28.4338 43.7254 28.387 43.9343 28.5714C43.5483 28.5836 42.4694 28.6355 42.1445 28.5267Z" fill="#4AC9F5"/>
<path d="M22.5062 32.3901L22.609 32.3096C22.8465 32.4525 24.0386 35.2916 24.2481 35.7605L25.0289 37.5149C25.1159 37.7122 25.2874 37.8994 25.2609 38.1077C25.1062 38.2618 24.5911 38.217 24.3455 38.2166L22.5499 38.2086C22.1599 38.211 19.9029 38.2653 19.7344 38.1455C19.7334 37.9197 22.1879 33.0733 22.5062 32.3901Z" fill="#CECECE"/>
<path d="M22.5062 32.3899C22.63 32.5627 22.5624 33.8311 22.5605 34.123L22.5499 38.2084C22.1599 38.2108 19.9029 38.2651 19.7344 38.1453C19.7334 37.9194 22.1879 33.0731 22.5062 32.3899Z" fill="#9D9D9D"/>
<path d="M18.5212 40.8266C19.1613 40.7534 26.104 40.7548 26.4413 40.8669C27.0722 41.7644 27.5574 43.5782 28.101 44.5847C28.1737 44.7194 28.388 45.1491 28.4242 45.2775L22.5274 45.2773L22.5302 45.1985L19.8817 42.5668C19.5347 42.2201 18.7156 41.4278 18.4531 41.0637L18.5212 40.8266Z" fill="#CECECE"/>
<path d="M18.4531 41.064L18.5212 40.8269C19.5714 40.9141 21.4489 40.856 22.5516 40.8558C22.5524 41.8297 22.6198 44.3302 22.5302 45.1988L19.8817 42.567C19.5347 42.2204 18.7156 41.4281 18.4531 41.064Z" fill="#9D9D9D"/>
<path d="M18.4541 41.0635C18.7166 41.4276 19.5356 42.2199 19.8826 42.5665L22.5311 45.1983L22.5283 45.2771L28.4251 45.2773C28.668 45.3562 29.1208 45.3079 29.3519 45.3219C29.9329 45.3571 33.1777 45.196 33.511 45.3149C33.8573 45.3843 36.2489 45.3888 36.5864 45.2913C37.3728 45.271 38.5104 45.3251 39.223 45.2745L39.3167 45.2458C41.0815 45.1735 43.0957 45.3178 44.7988 45.2292L44.8415 45.1381C45.0259 45.0976 45.6303 45.0665 45.867 45.0499C46.9568 44.9731 47.7273 44.6052 48.5962 43.9657C49.3502 43.4106 50.3249 42.1409 50.4554 41.2115C50.5071 41.3851 50.5151 41.5556 50.6748 41.6108C51.2034 41.7934 51.7585 41.9777 52.2865 42.1539L56.0422 43.3972C56.9818 43.702 57.9192 44.0132 58.8547 44.3308C59.396 44.5204 59.8901 44.7545 60.4588 44.8668C60.7417 44.9227 60.9984 45.076 61.2802 45.1229V45.2612L61.3397 45.3108L61.5001 45.3164L61.5117 45.2607L61.6156 45.2408C61.6879 47.3231 61.6284 49.7479 61.6278 51.8512L61.6319 64.8421C59.5517 64.7936 57.2782 64.8374 55.1854 64.8374H42.5751L3.09087 64.8327L3.08984 45.2296C3.36794 45.2816 4.7067 45.2624 5.05515 45.2624L9.23908 45.2618L12.072 45.2624C12.5379 45.2628 13.0687 45.2809 13.5269 45.2383C13.584 45.233 13.638 45.1265 13.6855 45.061L13.7007 45.1704C13.9172 45.2999 16.0813 45.2334 16.4577 45.2295C16.705 45.0216 18.0231 41.693 18.4541 41.0635Z" fill="#9D9D9D"/>
<path d="M44.841 45.138C45.0254 45.0975 45.6298 45.0664 45.8665 45.0498C46.9563 44.973 47.7268 44.6051 48.5957 43.9656C49.3497 43.4105 50.3244 42.1408 50.4549 41.2114C50.5066 41.385 50.5146 41.5555 50.6743 41.6107C51.2029 41.7933 51.758 41.9776 52.286 42.1538L56.0417 43.3971C56.9813 43.7019 57.9187 44.0131 58.8542 44.3307C59.3955 44.5203 59.8896 44.7544 60.4583 44.8667C60.7412 44.9226 60.9979 45.076 61.2797 45.1228V45.2611L61.3392 45.3107C60.3889 45.748 58.0151 46.46 56.8881 46.8336L47.9052 49.8138L14.3231 61.0672C14.065 61.1559 13.7766 61.223 13.5103 61.2953C12.936 61.4505 12.4084 61.6885 11.8418 61.8781L6.15419 63.7727C5.83435 63.8801 3.61452 64.5871 3.44945 64.6798L3.19727 64.6921L16.1912 51.6623L20.2307 47.6198C20.9091 46.9409 21.846 46.0523 22.463 45.3522L22.5278 45.277L28.4246 45.2772C28.6675 45.3561 29.1203 45.3078 29.3514 45.3218C29.9324 45.357 33.1772 45.1959 33.5105 45.3148C33.8568 45.3842 36.2484 45.3887 36.5859 45.2912C37.3723 45.2709 38.5099 45.325 39.2225 45.2744L39.3162 45.2457C41.081 45.1734 43.0952 45.3177 44.7983 45.2291L44.841 45.138Z" fill="#787575"/>
<path d="M44.8418 45.138C45.0262 45.0975 45.6306 45.0664 45.8674 45.0498C46.9571 44.9731 47.7277 44.6051 48.5965 43.9656C49.3505 43.4105 50.3252 42.1408 50.4557 41.2114C50.5074 41.385 50.5154 41.5555 50.6751 41.6107C51.2037 41.7933 51.7588 41.9776 52.2868 42.1538L56.0425 43.3971C56.9821 43.7019 57.9195 44.0131 58.855 44.3307C59.3963 44.5203 59.8904 44.7544 60.4591 44.8667C60.7421 44.9226 60.9987 45.076 61.2805 45.1228V45.2611C60.5105 45.3087 59.5631 45.282 58.7751 45.2822L54.3816 45.2819C51.3497 45.2812 48.3078 45.2847 45.2753 45.2794C45.0033 45.2789 44.9835 45.2898 44.8418 45.138Z" fill="#CECECE"/>
<path d="M3.20742 45.3549L22.463 45.3525C21.846 46.0526 20.9091 46.9412 20.2307 47.6201L16.1912 51.6626L3.19727 64.6924C3.29364 62.8625 3.20761 60.1371 3.2076 58.232L3.20742 45.3549Z" fill="#9D9D9D"/>
<path d="M18.4541 41.0635C18.7166 41.4276 19.5356 42.2199 19.8826 42.5665L22.5311 45.1983L22.5283 45.2771L22.4635 45.3523L3.20793 45.3547L3.20811 58.2317C3.20811 60.1369 3.29415 62.8622 3.19777 64.6922L3.44995 64.6799C5.48757 64.7517 7.9593 64.6886 10.0258 64.6886L22.8243 64.6875L61.5112 64.6881L61.5123 52.28C61.5129 49.991 61.5467 47.5969 61.5001 45.3164L61.5117 45.2607L61.6156 45.2408C61.6879 47.3231 61.6284 49.7479 61.6278 51.8512L61.6319 64.8421C59.5517 64.7936 57.2782 64.8374 55.1854 64.8374H42.5751L3.09087 64.8327L3.08984 45.2296C3.36794 45.2816 4.7067 45.2624 5.05515 45.2624L9.23908 45.2618L12.072 45.2624C12.5379 45.2628 13.0687 45.2809 13.5269 45.2383C13.584 45.233 13.638 45.1265 13.6855 45.061L13.7007 45.1704C13.9172 45.2999 16.0813 45.2334 16.4577 45.2295C16.705 45.0216 18.0231 41.693 18.4541 41.0635Z" fill="#8ECB87"/>
<path d="M18.4534 41.0635C18.7159 41.4276 19.535 42.2199 19.882 42.5665L22.5305 45.1983L22.5277 45.2771C20.7371 45.1386 18.1878 45.4068 16.457 45.2295C16.7044 45.0216 18.0225 41.693 18.4534 41.0635Z" fill="#787575"/>
<path d="M42.0437 6.2897L42.1005 6.27832C43.1999 7.28486 44.4646 8.62204 45.5407 9.70138L51.6585 15.8272L57.9984 22.1754C59.1351 23.312 60.4476 24.5568 61.5168 25.7211C61.6177 29.2932 61.5285 33.2892 61.5273 36.891L61.5285 42.2497C61.5291 43.1887 61.5577 44.3393 61.511 45.2609L61.4993 45.3166L61.3389 45.311L61.2794 45.2614V45.1231C60.9977 45.0762 60.741 44.9229 60.4581 44.8669C59.8893 44.7546 59.3952 44.5206 58.8539 44.331C57.9184 44.0134 56.981 43.7022 56.0414 43.3974L52.2857 42.1541C51.7577 41.9779 51.2026 41.7936 50.6741 41.611C50.5143 41.5558 50.5063 41.3852 50.4547 41.2117L50.5018 41.1603C50.5006 41.0732 50.4962 40.9853 50.5313 40.9038C50.7111 40.4853 50.6719 39.7716 50.6618 39.3077C50.6338 38.0182 49.892 36.4533 48.867 35.6501C48.5261 35.383 47.747 35.0539 47.4596 34.7947C47.6279 34.4055 48.1034 34.034 48.3526 33.6104C48.5719 33.2378 48.7423 32.4157 48.9505 32.0302C48.9556 32.0084 48.9606 31.9866 48.9656 31.9648C48.9183 31.5749 48.9375 30.9653 48.9658 30.5728C48.9528 30.4291 48.9214 30.4509 48.9069 30.3881C47.7419 25.3502 43.6362 25.8636 39.2663 25.8717C39.3488 26.2805 39.323 27.4433 39.3215 27.9049L39.3119 31.5008L39.316 45.246L39.2222 45.2747C38.5096 45.3253 37.3721 45.2712 36.5857 45.2915C36.2482 45.389 33.8565 45.3845 33.5103 45.3151C33.177 45.1962 29.9321 45.3573 29.3511 45.3221C29.1201 45.3081 28.6672 45.3563 28.4243 45.2775C28.8797 45.106 31.0511 45.4218 31.2783 45.1392C31.1763 45.0503 30.6706 43.7998 30.5581 43.5531L27.2025 36.0774C26.8394 35.2465 26.2592 34.2153 26.0518 33.3582C25.8113 33.185 25.449 32.2164 25.3076 31.8997L23.5718 28.0262C23.2398 27.2895 22.9764 26.5917 22.5764 25.8991L22.5762 25.8532C22.747 25.5706 24.5998 23.7575 24.9195 23.4373L29.6535 18.6966C30.479 17.8717 31.5144 16.8925 32.2898 16.0416C32.4665 15.9252 34.1849 14.1485 34.469 13.8702C37.0112 11.3795 39.4944 8.76746 42.0437 6.2897ZM33.6569 45.2434C34.6047 45.2285 35.5526 45.2252 36.5005 45.2333C36.4444 44.7841 36.4761 43.3557 36.4765 42.8409L36.4809 38.0933L36.4828 30.299C36.4825 28.9595 36.4386 27.2969 36.5028 25.9795C35.9477 26.0613 34.2868 26.0217 33.6559 26.0185L33.6569 45.2434Z" fill="white"/>
<path d="M33.5074 25.9023C33.8764 25.8306 35.9705 25.8509 36.3982 25.8721C36.4911 25.9375 36.4858 25.9055 36.5038 25.9795C35.9487 26.0613 34.2878 26.0217 33.6569 26.0185L33.6579 45.2433C34.2858 45.2624 36.1135 45.2098 36.5866 45.2915C36.2491 45.3889 33.8574 45.3844 33.5112 45.3151C33.1779 45.1961 29.9331 45.3573 29.3521 45.3221C29.121 45.3081 28.6682 45.3563 28.4253 45.2775C28.8807 45.106 31.0521 45.4218 31.2793 45.1392C31.1772 45.0503 30.6716 43.7998 30.559 43.5531L27.2035 36.0774C26.8404 35.2465 26.2601 34.2152 26.0527 33.3582C26.617 33.6179 27.4358 33.8564 28.0484 34.0608L31.4487 35.1879C31.7091 35.273 33.377 35.846 33.439 35.8399C33.5385 35.4103 33.4778 33.7588 33.4922 33.2413C33.5573 30.8863 33.3891 28.2191 33.5074 25.9023Z" fill="#CECECE"/>
<path d="M33.5078 25.9023C33.8768 25.8306 35.9709 25.8509 36.3986 25.8721C36.4915 25.9375 36.4862 25.9055 36.5042 25.9795C35.9491 26.0613 34.2881 26.0217 33.6573 26.0185L33.6583 45.2433C34.2862 45.2624 36.1139 45.2098 36.587 45.2915C36.2495 45.3889 33.8578 45.3844 33.5116 45.3151L33.5214 32.6387C33.5227 30.4533 33.5681 28.0678 33.5078 25.9023Z" fill="#BBDEEF"/>
<path d="M36.5017 45.2333C36.5498 44.9554 36.5286 43.632 36.5285 43.2674L36.5221 39.2151C36.5209 38.5208 36.4873 37.5358 36.554 36.8809C37.1632 37.0145 38.3754 37.5589 39.1371 37.7489L39.1993 37.7641L39.1936 42.9742C39.1934 43.3276 39.1741 45.0157 39.2235 45.2747C38.5109 45.3253 37.3733 45.2712 36.5869 45.2915C36.1138 45.2098 34.2862 45.2624 33.6582 45.2434C34.606 45.2285 35.5539 45.2252 36.5017 45.2333Z" fill="#CECECE"/>
<path d="M39.1973 37.7637C39.2048 36.5714 39.1357 26.1162 39.2655 25.8713C39.3481 26.2801 39.3222 27.443 39.3208 27.9045L39.3112 31.5004L39.3152 45.2456L39.2215 45.2743C39.1721 45.0153 39.1914 43.3272 39.1916 42.9738L39.1973 37.7637Z" fill="#BBDEEF"/>
<path d="M48.9663 30.573C49.1119 30.8303 49.114 31.7244 48.9662 31.9651C48.9189 31.5751 48.9381 30.9656 48.9663 30.573Z" fill="#4AC9F5"/>
<path d="M3.07617 25.7547C3.5042 25.7072 4.71068 25.747 5.20508 25.7477L9.69472 25.7503L17.9988 25.7485C19.3873 25.7483 20.7799 25.7477 22.1688 25.7496C22.3738 25.7499 22.4291 25.7446 22.5771 25.8533L22.5773 25.8993C22.3355 26.8597 21.3464 28.3656 20.9996 29.3664C20.7814 29.9963 20.2588 30.7501 20.0621 31.4556C19.7466 31.8898 19.6035 32.3745 19.3721 32.8565C18.4002 34.8804 17.5263 36.9653 16.5067 38.9637C16.5111 39.324 14.5098 43.0848 14.3253 43.7046C14.2742 43.8759 13.796 44.8656 13.6857 45.0613C13.6381 45.1268 13.5842 45.2333 13.527 45.2386C13.0688 45.2812 12.538 45.2632 12.0722 45.2627L9.2392 45.2621L5.05528 45.2627C4.70683 45.2627 3.36806 45.2819 3.08997 45.23L3.08956 32.5628C3.09013 30.3911 3.14931 27.9086 3.07617 25.7547Z" fill="#787575"/>
<path d="M16.5063 38.9636C16.2731 38.9933 15.9276 38.5851 15.7673 38.4246C14.7242 37.3802 13.6836 36.3323 12.6412 35.2872L5.32844 27.952C5.06042 27.6813 3.46901 26.1745 3.4043 25.9527L3.48639 25.906C4.39105 26.0135 6.01152 26.8083 6.98155 27.0122C7.16909 27.0517 7.42249 27.2208 7.60921 27.284C7.93921 27.3954 8.31347 27.4384 8.64218 27.5491L17.1409 30.4327C17.6532 30.604 19.7041 31.2047 20.0617 31.4554C19.7462 31.8897 19.6031 32.3744 19.3717 32.8563C18.3998 34.8802 17.5259 36.9651 16.5063 38.9636Z" fill="#9D9D9D"/>
<path d="M61.6078 6.15186C61.6626 6.76488 61.6369 7.6988 61.6358 8.32996L61.6305 11.9786V23.8832L61.6276 38.1456V42.8531C61.627 43.5288 61.6591 44.5891 61.6159 45.2413L61.5121 45.2611C61.5588 44.3395 61.5302 43.1889 61.5296 42.25L61.5284 36.8912C61.5296 33.2895 61.6188 29.2934 61.5179 25.7213C60.4487 24.5571 59.1362 23.3122 57.9995 22.1757L51.6597 15.8274L45.5418 9.70161C44.4657 8.62227 43.201 7.2851 42.1016 6.27856C44.1821 6.33928 46.5787 6.28538 48.6875 6.28556L61.5418 6.28614L61.5413 20.0262L61.5418 23.7882C61.5418 24.1462 61.5197 25.3056 61.5693 25.6099C61.6492 24.6606 61.5815 22.4391 61.5821 21.4165L61.5815 11.3335C61.5809 10.0004 61.5057 7.4643 61.6019 6.22139L61.6078 6.15186Z" fill="#CECECE"/>
<path d="M22.6523 6.2878C29.0202 6.20427 35.6672 6.27526 42.0444 6.28943C39.4951 8.7672 37.0119 11.3792 34.4697 13.8699C34.1855 14.1483 32.4672 15.9249 32.2905 16.0414C32.2407 15.7843 23.5101 7.14769 22.6523 6.2878Z" fill="#CECECE"/>
<path d="M74.1973 34.6271C75.3843 34.6251 77.4033 34.602 78.6603 34.6353C78.7233 34.6807 78.7776 34.7194 78.8219 34.7514C80.3544 34.7478 81.5665 35.8838 81.9778 37.3112C82.0676 37.6294 82.1329 37.9539 82.1726 38.2821C82.1965 38.4929 82.1428 38.8457 82.3044 38.9599C82.3499 39.2132 82.3575 39.7722 82.3038 40.0227C82.1463 40.1714 82.1878 40.5977 82.1574 40.8491C81.9515 42.5385 80.6139 44.1764 78.791 44.1578C78.784 44.1661 78.7788 44.1756 78.7706 44.1828C78.6411 44.3024 74.6814 44.236 74.1973 44.2349V34.6271ZM76.2967 36.3502L76.299 42.5265C76.9255 42.5255 77.839 42.4974 78.4422 42.5523C79.2507 42.4104 79.8148 41.9517 80.0067 41.142C80.3083 39.8675 80.3234 38.4665 79.7827 37.254C79.5715 36.7797 78.5017 36.4108 78.0362 36.3029C77.7229 36.3628 76.6484 36.3491 76.2967 36.3502Z" fill="white"/>
<path d="M74.1973 34.6271C75.3843 34.6251 77.4033 34.602 78.6603 34.6353C78.7233 34.6807 78.7776 34.7194 78.8219 34.7514C77.3659 34.794 75.7828 34.7601 74.3174 34.7569L74.318 44.1703C74.7019 44.1699 78.7414 44.1374 78.791 44.1578C78.784 44.1661 78.7788 44.1756 78.7706 44.1828C78.6411 44.3024 74.6814 44.236 74.1973 44.2349V34.6271Z" fill="white"/>
<path d="M82.3053 40.0227C82.1151 39.8235 82.1186 39.1618 82.3059 38.96C82.3514 39.2132 82.359 39.7723 82.3053 40.0227Z" fill="white"/>
<path d="M76.1543 36.3259L76.2984 36.3499L76.3007 42.5262C76.9272 42.5251 77.8407 42.4971 78.4439 42.552C78.1347 42.7079 76.5673 42.6311 76.1642 42.6207C76.0866 40.6913 76.1543 38.2919 76.1543 36.3259Z" fill="white"/>
<path d="M76.1543 36.3264C76.3678 36.1593 77.8022 36.1804 78.0379 36.3031C77.7246 36.363 76.6501 36.3493 76.2984 36.3504L76.1543 36.3264Z" fill="white"/>
<path d="M64.6895 22.9236L68.151 22.9187C68.4683 22.9185 69.7493 22.8504 69.9529 23.0351C71.7198 23.0181 72.7295 24.8319 72.0838 26.4097C71.9304 26.7848 71.4526 27.1439 71.1435 27.4105C71.2998 27.5151 71.4153 27.52 71.5518 27.6037C72.9769 28.4784 73.0521 30.1146 72.1876 31.4499C71.7571 32.1144 71.1131 32.3564 70.335 32.4324C70.2591 32.4404 70.2311 32.4523 70.1646 32.4838C70.0054 32.5652 65.1911 32.5234 64.6895 32.5227V22.9236ZM66.6687 30.829C67.189 30.78 69.229 30.7692 69.7633 30.8198C70.1022 30.5801 70.5648 30.5703 70.6045 29.9865C70.6231 29.3358 70.6278 28.6441 69.8397 28.5264C68.7547 28.3643 67.7595 28.3443 66.6734 28.3496L66.6687 30.829ZM66.6734 26.7447C68.141 26.7566 68.6824 26.8886 70.0555 26.44C70.1395 26.152 70.3425 25.8602 70.3735 25.5947C70.1209 25.3285 70.251 24.7708 69.4699 24.6826C68.5447 24.5782 67.6055 24.6577 66.6734 24.6504V26.7447Z" fill="white"/>
<path d="M64.6895 22.9236L68.151 22.9187C68.4683 22.9185 69.7493 22.8504 69.9529 23.0351C68.5278 23.1224 66.331 23.0536 64.8493 23.051L64.8475 32.3957C66.1297 32.3979 68.6882 32.404 70.0905 32.3695C70.1127 32.3908 70.1343 32.4121 70.1565 32.4335L70.1646 32.4838C70.0054 32.5652 65.1911 32.5234 64.6895 32.5227V22.9236Z" fill="white"/>
<path d="M66.668 30.8289C67.1883 30.7799 69.2282 30.7691 69.7625 30.8198L69.7299 30.9221C69.3519 30.9804 67.0874 30.9996 66.7339 30.9329L66.668 30.8289Z" fill="white"/>
<path d="M66.6582 24.5272C67.0216 24.4719 69.2546 24.4446 69.548 24.5918C69.1648 24.6267 66.877 24.7113 66.6582 24.5272Z" fill="white"/>
<path d="M95.6367 22.9237C96.1501 22.9223 99.9213 22.8646 100.112 22.9894C100.394 23.0641 100.547 22.9985 100.796 23.0501C102.162 23.3331 103.204 24.6934 103.466 26.0008C103.508 26.2068 103.47 26.4505 103.596 26.6374C103.706 26.9159 103.705 28.7049 103.596 28.9553C103.433 29.2111 103.525 29.5498 103.427 29.8258C102.968 31.1242 101.88 32.3895 100.402 32.4236C100.137 32.6369 96.2457 32.5253 95.6373 32.5234L95.6367 22.9237ZM97.6218 24.6473V30.7988C98.3259 30.797 99.2721 30.7686 99.9557 30.8275C100.127 30.6877 100.702 30.5924 100.972 30.2587C101.488 29.6103 101.57 28.7694 101.573 27.9687C101.582 25.7678 101.228 24.5935 98.8439 24.6477L97.6218 24.6473Z" fill="white"/>
<path d="M95.6367 22.9237C96.1501 22.9223 99.9213 22.8646 100.112 22.9894C99.9184 23.1347 96.2971 23.06 95.7551 23.061V32.3703C96.321 32.3715 100.1 32.3029 100.402 32.4236C100.137 32.6369 96.2457 32.5253 95.6373 32.5234L95.6367 22.9237Z" fill="white"/>
<path d="M103.595 26.6367C103.705 26.9152 103.703 28.7042 103.595 28.9547L103.494 28.8382C103.461 28.2702 103.482 27.3517 103.496 26.7545C103.535 26.7083 103.568 26.669 103.595 26.6367Z" fill="white"/>
<path d="M97.4953 24.5362C97.7648 24.5109 99.1736 24.4973 99.4343 24.5244L99.4594 24.5632C99.2424 24.6027 99.0627 24.6238 98.8434 24.6475L97.6213 24.6471V30.7986C98.3254 30.7969 99.2716 30.7684 99.9552 30.8274C99.5778 31.0651 98.0244 31.04 97.5962 30.8754C97.5671 30.8415 97.5379 30.8077 97.5087 30.7739C97.4621 29.0854 97.4498 26.1048 97.4953 24.5362Z" fill="white"/>
<path d="M90.4621 48.9849C90.4778 47.7315 91.1067 46.613 92.1392 45.9037C92.9827 45.3241 93.3111 45.2277 94.3109 45.2132C94.4801 45.2108 94.8068 45.0337 95.0203 45.0854C95.4928 45.193 95.8369 45.2808 96.3322 45.3767C97.3828 45.5996 98.2169 46.5413 98.7927 47.3924C98.9397 47.6096 99.0219 48.4703 99.1742 48.6797C99.2745 48.9885 99.2506 50.8841 99.1794 51.1793L99.103 51.1939C99.1001 51.247 99.0954 51.2999 99.0878 51.3525C99.0482 51.6564 98.8323 52.4897 98.5792 52.726C98.3202 52.9681 97.7648 53.7682 97.4586 53.9514C96.3678 54.6042 94.8972 54.8605 93.6599 54.5508C93.202 54.4361 92.8485 54.2575 92.3626 54.139C92.1071 53.8285 91.9181 53.7964 91.6404 53.533C90.9433 52.8709 90.4866 51.8068 90.4545 50.8471L90.3606 50.7618C90.3536 50.7319 90.3466 50.702 90.3396 50.6722C90.3705 50.2305 90.1885 49.3181 90.4621 48.9849ZM95.239 52.9948C96.2808 52.5026 96.5824 52.5948 97.038 51.3242C97.7153 49.4381 96.9412 46.3473 94.3698 46.8697C94.1499 47.0194 93.7673 46.9635 93.6541 47.0504C92.5259 47.9202 92.1701 49.2252 92.3818 50.5965C92.6373 52.2503 93.5841 53.0313 95.239 52.9948Z" fill="white"/>
<path d="M99.1722 48.6794C99.2725 48.9882 99.2486 50.8838 99.1774 51.179C98.9441 51.0207 98.9394 48.9113 99.1722 48.6794Z" fill="white"/>
<path d="M90.3606 50.7618C90.3536 50.7318 90.3466 50.702 90.3396 50.6721C90.3705 50.2305 90.1885 49.318 90.4621 48.9849C90.4708 49.3452 90.5076 50.3692 90.4545 50.6733L90.3606 50.7618Z" fill="white"/>
<path d="M91.3544 6.28901C92.3705 6.21674 93.4579 6.29362 94.4764 6.26766C95.2359 6.2483 96.07 6.21557 96.6802 6.72453C97.662 7.52025 97.3849 10.1133 95.93 10.0972C95.6267 10.3623 95.5736 10.1926 95.5515 10.3373C96.1389 10.4716 97.5412 12.6738 97.767 13.2411C97.9915 13.1075 99.5741 8.43621 99.9603 7.89271C99.9475 7.91132 100.208 6.7082 100.626 6.29718C100.997 6.23395 101.361 6.27513 101.73 6.27356C101.826 6.27315 101.742 6.11016 102.039 6.18996C102.394 6.55805 102.439 6.97087 102.623 7.42803C103.079 8.53082 103.523 9.63811 103.957 10.7498C104.156 11.2505 104.894 12.974 104.973 13.3661L104.94 13.4337C104.427 13.4677 103.873 13.4556 103.359 13.4366C103.247 13.2878 102.824 12.0852 102.699 11.8012C102.483 11.8898 100.355 11.8494 100.015 11.8165C99.8944 12.1375 99.7649 12.531 99.5922 12.8247C99.4225 13.1148 99.5065 13.1875 99.412 13.4316C98.7995 13.5326 97.232 13.4138 96.525 13.4521C96.4661 13.4553 96.0916 13.4258 96.0765 13.409C95.4249 12.6701 94.9337 11.5726 94.2366 10.8668C93.728 10.3519 93.585 10.4719 92.9247 10.4645V13.448L91.3118 13.4482L91.3083 8.53607C91.3083 8.13976 91.2791 6.59398 91.3544 6.28901ZM92.8804 7.4947C92.9428 7.84523 92.958 8.90643 92.8856 9.24605C93.8761 9.21233 95.9475 9.64102 95.6302 8.05296C95.5421 7.61149 95.2102 7.72296 94.911 7.50433C94.3247 7.5335 93.4538 7.55432 92.8804 7.4947ZM101.296 10.4607C101.511 10.4615 101.931 10.4836 102.116 10.4185C102.153 10.2819 101.437 8.22166 101.368 8.16986C100.976 8.83491 100.856 9.82343 100.463 10.4161C100.572 10.4793 101.13 10.4612 101.296 10.4607Z" fill="white"/>
<path d="M91.3544 6.28906C91.3835 6.32389 91.4127 6.35877 91.4419 6.39365C91.4839 8.37885 91.4623 11.4261 91.4605 13.2972L92.8075 13.2968C92.8075 12.4208 92.7713 11.1999 92.8232 10.3513C92.9918 10.3555 93.3336 10.3468 93.469 10.4074C93.2718 10.4355 93.1236 10.4517 92.9247 10.4646V13.4481L91.3118 13.4483L91.3083 8.53612C91.3083 8.1398 91.2791 6.59403 91.3544 6.28906Z" fill="white"/>
<path d="M100.014 11.8166L99.9844 11.7434C100.167 11.6677 102.514 11.6562 102.693 11.7296L102.698 11.8014C102.482 11.89 100.354 11.8495 100.014 11.8166Z" fill="white"/>
<path d="M92.8789 7.49478C93.0667 7.27901 94.6528 7.3304 94.9095 7.50441C94.3232 7.53357 93.4523 7.5544 92.8789 7.49478Z" fill="white"/>
<path d="M92.885 9.24646L92.8313 9.21298L92.857 9.23648C92.7543 9.05594 92.7788 7.67729 92.8798 7.49512C92.9422 7.84564 92.9573 8.90684 92.885 9.24646Z" fill="white"/>
<path d="M81.5743 45.3533C82.2353 45.3512 86.6021 45.2777 86.9124 45.3892C87.7944 45.6917 88.2821 45.5259 88.8001 46.6257C89.6634 48.4579 88.7966 50.003 86.9112 50.4555C87.0699 50.7199 87.5634 50.9472 87.8428 51.3021C88.5038 52.1437 89.0282 53.3202 89.6687 54.1315C89.7183 54.238 89.769 54.3439 89.8215 54.449C89.5823 54.5274 87.7723 54.5193 87.5162 54.4245L87.389 54.2403C86.7083 53.1518 85.8537 51.9909 85.0679 50.9756C84.8778 50.7298 83.8902 50.7883 83.5728 50.7922L83.5734 54.4843C83.0537 54.4833 82.2271 54.5086 81.7324 54.4739L81.6076 54.4165C81.5504 54.1701 81.5726 52.1348 81.5726 51.7768L81.5743 45.3533ZM83.5723 46.9591V49.1756C84.0891 49.1735 85.1986 49.1426 85.6676 49.2115C86.4907 49.0298 87.4777 48.6882 86.9719 47.5647C86.7637 47.1014 86.4691 47.1675 86.1623 46.9281C85.4704 46.9946 84.2985 46.9598 83.5723 46.9591Z" fill="white"/>
<path d="M81.5743 45.3533C82.2353 45.3512 86.6021 45.2777 86.9124 45.3892L86.8768 45.504C85.24 45.5265 83.3978 45.4704 81.7307 45.4712L81.7324 54.4739L81.6076 54.4165C81.5504 54.1701 81.5726 52.1348 81.5726 51.7768L81.5743 45.3533Z" fill="white"/>
<path d="M89.6703 54.1318C89.7199 54.2384 89.7706 54.3442 89.8231 54.4494C89.584 54.5278 87.7739 54.5197 87.5178 54.4248L87.3906 54.2406C87.7505 54.3669 88.6442 54.338 89.0531 54.3299C89.3868 54.3233 89.469 54.3471 89.6703 54.1318Z" fill="white"/>
<path d="M83.4102 46.8441C83.8927 46.8369 85.8229 46.7579 86.1642 46.9284C85.4723 46.9949 84.3004 46.9601 83.5741 46.9593V49.1758C84.091 49.1738 85.2005 49.1429 85.6695 49.2117C85.33 49.3482 83.8629 49.2857 83.4155 49.2779C83.3846 48.5397 83.4108 47.5977 83.4102 46.8441Z" fill="white"/>
<path d="M89.1017 55.5919L92.2324 55.5863C92.5433 55.586 93.7859 55.5225 93.9842 55.6958C96.4015 55.7014 97.0805 58.2997 95.7138 59.9552C95.642 60.0427 94.8405 60.3583 94.6988 60.5292C94.6679 60.566 94.3925 60.4522 94.3336 60.587C95.3749 61.5745 96.1449 62.6304 96.7632 63.9149C96.8489 64.0922 97.0718 64.1955 97.1138 64.4241C96.9469 64.4813 95.0383 64.4959 94.9508 64.409C94.102 63.5701 93.3705 61.8615 92.4524 61.0525C92.2459 60.8705 91.372 60.8891 91.0873 60.864C91.0903 61.3482 91.1655 64.2847 91.0028 64.4667C90.4282 64.4451 89.7533 64.4597 89.1705 64.4574C89.0428 64.2952 89.1011 56.454 89.1017 55.5919ZM91.0768 59.2675C91.7418 59.2692 92.6122 59.2488 93.2632 59.2785C93.3997 59.2791 93.5776 59.2744 93.7094 59.2873C93.8599 59.1484 94.0384 59.1187 94.1796 58.9968C94.5337 58.7185 94.6317 57.9134 94.2899 57.6031C93.5846 56.9642 92.0166 57.2489 91.0996 57.1807C91.1008 57.749 91.1311 58.7325 91.0768 59.2675Z" fill="white"/>
<path d="M89.1017 55.5919L92.2324 55.5863C92.5433 55.586 93.7859 55.5225 93.9842 55.6958C92.5113 55.7537 90.7193 55.7106 89.2253 55.7088C89.2265 56.6538 89.3199 64.073 89.1705 64.4574C89.0428 64.2952 89.1011 56.454 89.1017 55.5919Z" fill="white"/>
<path d="M90.9436 60.7608C91.0836 60.7585 91.8046 60.7993 91.8565 60.7883C91.7142 60.8513 91.2609 60.8553 91.0853 60.8641C91.0882 61.3483 91.1635 64.2848 91.0007 64.4668C90.8812 64.1512 90.9395 61.3004 90.9436 60.7608Z" fill="white"/>
<path d="M90.9694 57.1577C91.1537 57.451 91.0195 58.7727 91.0767 59.2673C91.7417 59.2691 92.612 59.2487 93.263 59.2784C93.3995 59.279 93.5775 59.2743 93.7093 59.2872C93.595 59.4027 93.4316 59.44 93.2759 59.4353C92.8868 59.4219 91.1916 59.538 90.9373 59.3887C90.9361 58.7283 90.9075 57.7951 90.9694 57.1577Z" fill="white"/>
<path d="M93.2613 59.2782C93.3978 59.2788 93.5757 59.2741 93.7075 59.2869C93.5932 59.4024 93.4299 59.4398 93.2741 59.4351C92.885 59.4217 91.1899 59.5378 90.9355 59.3884C91.4261 59.3447 92.92 59.4812 93.2613 59.2782Z" fill="white"/>
<path d="M90.9688 57.1574L90.9985 57.0651C91.4967 57.023 92.9113 57.0309 93.4001 57.0834L93.3703 57.1306C92.6511 57.2122 91.7551 57.098 91.0988 57.1803C91.1 57.7486 91.1303 58.7321 91.0761 59.267C91.0189 58.7724 91.1531 57.4507 90.9688 57.1574Z" fill="white"/>
<path d="M114.624 22.9245C115.002 22.9203 116.162 22.8751 116.461 22.9873L116.467 29.8755C116.467 30.1835 116.485 32.2792 116.435 32.4831C116.305 32.5246 115.618 32.5567 115.469 32.5442C114.921 32.4982 114.673 32.6505 114.284 32.2687C113.892 31.5094 113.477 30.8544 113.021 30.1305L111.633 27.8862C111.471 27.6265 110.912 26.7901 110.83 26.5814C110.777 27.1101 110.805 28.1004 110.805 28.6686L110.808 32.5217L108.815 32.5219C108.817 29.6741 108.809 26.8263 108.81 23.9785C108.81 23.7188 108.768 23.2267 108.925 23.0389C109.308 22.8665 110.459 22.862 110.806 22.9866C111.251 23.3896 114.121 28.328 114.615 29.1185C114.69 27.2103 114.624 24.8667 114.624 22.9245Z" fill="white"/>
<path d="M108.815 32.5219C108.817 29.6741 108.809 26.8263 108.81 23.9785C108.81 23.7188 108.768 23.2267 108.925 23.0389C109.308 22.8665 110.459 22.862 110.806 22.9866C110.503 23.0973 109.347 23.0524 108.967 23.0482L108.968 32.4012L110.658 32.4033C110.658 31.7103 110.608 26.6759 110.709 26.4139L110.805 26.3945L110.91 26.5246L110.88 26.5756L110.83 26.5814C110.777 27.1101 110.805 28.1004 110.805 28.6686L110.808 32.5217L108.815 32.5219Z" fill="white"/>
<path d="M114.624 22.9248C115.002 22.9207 116.162 22.8754 116.461 22.9877C116.169 23.0881 115.105 23.0473 114.739 23.0436C114.74 23.79 114.831 28.9744 114.662 29.2178L114.562 29.1646C114.593 29.1172 114.573 29.1284 114.615 29.1188C114.69 27.2107 114.624 24.8671 114.624 22.9248Z" fill="white"/>
<path d="M114.283 32.2688C114.958 32.4206 115.622 32.3575 116.314 32.3814C116.334 32.382 116.409 32.4495 116.434 32.4832C116.304 32.5247 115.617 32.5568 115.468 32.5442C114.92 32.4983 114.672 32.6506 114.283 32.2688Z" fill="white"/>
<path d="M106.992 34.7179C107.227 34.5346 108.431 34.6235 108.824 34.6189C108.808 37.799 108.787 41.0707 108.822 44.2467C108.533 44.2474 106.918 44.267 106.74 44.213C106.733 44.1009 103.572 38.9999 103.219 38.3822C103.173 38.3858 103.126 38.3893 103.08 38.3928C103.009 38.8226 103.048 39.8594 103.048 40.3456V44.1934C102.661 44.273 101.624 44.2469 101.179 44.2467C101.214 41.071 101.192 37.7987 101.176 34.6189C101.6 34.6182 102.783 34.59 103.14 34.6542L103.16 34.6808C103.402 35.0052 103.66 35.4666 103.871 35.821C104.698 37.2037 105.575 38.5591 106.39 39.9469C106.535 40.1943 106.738 40.4327 106.842 40.6812L106.897 40.7138C107.072 40.4569 106.958 35.4415 106.992 34.7179Z" fill="white"/>
<path d="M101.176 34.6188C101.6 34.6181 102.783 34.5899 103.14 34.6541C102.935 34.8478 101.667 34.7703 101.289 34.7666L101.288 44.1456C101.617 44.144 102.807 44.1147 103.048 44.1934C102.661 44.273 101.624 44.2468 101.179 44.2467C101.214 41.0709 101.192 37.7987 101.176 34.6188Z" fill="white"/>
<path d="M106.993 34.7179C107.228 34.5346 108.432 34.6235 108.825 34.6189C108.809 37.799 108.787 41.0707 108.822 44.2467C108.534 44.2474 106.918 44.267 106.74 44.213L106.796 44.1377C107.341 44.1097 108.147 44.1414 108.712 44.1456V34.7665C108.355 34.7691 107.268 34.807 106.993 34.7179Z" fill="white"/>
<path d="M127.042 31.2757C125.046 32.7427 122.033 33.3342 119.975 31.8401C116.829 29.5576 117.671 23.316 121.92 22.844C123.229 22.7099 124.78 22.7772 125.833 23.6641C126.236 24.0031 127.16 25.2074 126.754 25.7352C126.352 25.7994 125.447 25.9502 125.067 25.9843C124.763 25.761 124.431 24.9836 124.112 24.8221C122.863 24.1901 121.277 24.5073 120.579 25.779C119.978 26.8741 120.134 28.1823 120.392 29.354C120.488 29.6252 120.763 29.7369 120.822 30.0304C120.826 30.053 121.242 30.4597 121.269 30.4811C121.876 30.9548 122.891 31.0455 123.622 30.8691C123.958 30.7881 124.393 30.4659 124.715 30.4429C125.083 29.9426 124.973 29.7351 124.972 29.0834L122.877 29.0835V27.359L127.079 27.3589C127.081 27.9835 127.153 30.9094 127.042 31.2757Z" fill="white"/>
<path d="M122.877 27.359L127.079 27.3589C127.081 27.9835 127.153 30.9094 127.042 31.2757C127.013 31.2462 126.979 31.211 126.939 31.1704C126.903 30.1385 126.922 28.4271 126.925 27.4674L122.995 27.4691V28.9254L125.129 28.9329C125.134 29.3672 125.205 29.8216 125.074 30.2241C124.963 30.3746 124.891 30.3843 124.715 30.4429C125.083 29.9426 124.973 29.7352 124.972 29.0834L122.877 29.0836V27.359Z" fill="white"/>
<path d="M67.4234 34.6538C67.7017 34.6067 69.2335 34.583 69.4768 34.6552C69.8215 35.0113 71.512 39.8035 71.9379 40.537C71.9525 40.5492 71.967 40.5613 71.9816 40.5735C71.9851 40.6318 71.9909 40.6901 71.9939 40.7484C71.9944 40.7601 73.2072 43.9057 73.3029 44.0858L73.3221 44.1217L73.2743 44.234C72.789 44.2569 71.6759 44.2953 71.2291 44.2281C70.9882 44.0307 70.5746 42.5397 70.3267 42.0983C69.8274 41.9699 67.1213 41.9829 66.6115 42.1494C66.339 42.8029 66.1757 43.551 65.891 44.1859C65.6064 44.3137 64.2087 44.253 63.812 44.2457C63.7922 44.2149 63.7724 44.1841 63.752 44.1533C64.767 41.3998 65.884 38.676 66.9387 35.9353C67.053 35.6389 67.3756 34.9207 67.4234 34.6538ZM68.512 40.4247C68.852 40.427 69.2545 40.4484 69.5806 40.3733C69.6349 40.0979 68.6409 37.4543 68.4198 37.0632C68.4408 37.6099 67.4433 39.6027 67.3237 40.333C67.4859 40.4653 68.2617 40.4291 68.512 40.4247Z" fill="white"/>
<path d="M67.4238 34.6538C67.7021 34.6067 69.2339 34.583 69.4772 34.6552C69.2911 34.8328 67.6198 34.8428 67.4238 34.6538Z" fill="white"/>
<path d="M94.4373 34.6552C94.7464 34.6138 96.2147 34.5801 96.4918 34.6536C96.4976 34.7292 96.5011 34.7215 96.5279 34.7907C97.6689 37.6828 98.8304 40.568 99.9906 43.4525C100.083 43.6825 100.163 43.9177 100.19 44.165C100.044 44.2817 98.2447 44.2869 98.1689 44.2263C97.7168 43.8639 97.6007 42.4556 97.1918 42.0669C96.1575 41.9513 94.6805 42.0392 93.6241 42.0641C93.5308 42.0662 92.983 44.0494 92.6995 44.2376C92.3927 44.2561 90.8813 44.3023 90.7109 44.1664C90.7792 43.7255 91.534 41.9447 91.7341 41.4202C92.5432 39.2974 93.3931 37.1687 94.2051 35.0442C94.2617 34.8957 94.3364 34.7779 94.4373 34.6552ZM95.5188 40.4247C95.7999 40.4264 96.371 40.4524 96.6178 40.38C96.6341 40.2765 96.6627 40.2823 96.5962 40.2063C96.3115 39.8791 96.2637 39.3282 96.0788 38.9775C95.8898 38.6198 95.6121 37.2968 95.3047 37.1721C95.3029 37.1873 95.3012 37.2027 95.2994 37.218C95.2609 37.5405 94.3194 40.2267 94.1765 40.3826C94.3101 40.4552 95.2854 40.4255 95.5188 40.4247Z" fill="white"/>
<path d="M94.4375 34.6552C94.7467 34.6138 96.2149 34.5801 96.492 34.6536C96.296 34.8456 94.623 34.8316 94.4375 34.6552Z" fill="white"/>
<path d="M109.483 48.7974C109.488 48.7892 109.494 48.7809 109.5 48.7727C109.84 47.092 110.828 45.7616 112.584 45.3093C113.702 45.0213 115.262 45.0833 116.338 45.6503C116.521 45.7423 117.4 46.4853 117.468 46.7027C117.513 46.8464 117.693 47.2815 117.739 47.4404C117.753 47.4896 117.868 47.4755 117.945 47.6861C117.855 47.8751 117.801 47.921 117.58 47.9966C117.344 48.0773 116.183 48.291 115.995 48.2546C115.934 48.1125 115.874 47.9419 115.805 47.8047C115.281 46.7648 113.743 46.706 112.904 47.0325C112.377 47.2406 111.954 47.6518 111.731 48.1739C111.308 49.1781 111.396 50.214 111.541 51.2637C111.546 51.3014 111.742 51.5208 111.776 51.5826C112.816 53.5069 114.395 53.1563 116.008 52.3091C116.153 52.1208 116.075 51.401 116.093 51.0954C115.798 51.2071 114.407 51.1628 114.011 51.1596L114.012 49.551C115.346 49.5595 116.682 49.5568 118.016 49.5429C118.093 49.8421 118.118 52.9788 118.008 53.2087C117.932 53.4644 117.607 53.5749 117.411 53.7026C115.476 54.9604 112.525 55.1115 110.75 53.4836C110.175 52.9565 109.693 51.9307 109.575 51.1648C109.55 51.0037 109.596 51.0534 109.484 50.8945C109.388 50.644 109.4 49.0561 109.483 48.7974Z" fill="white"/>
<path d="M114.01 49.5505C115.345 49.559 116.68 49.5564 118.015 49.5425L117.945 49.6975L114.128 49.6962V50.9936C114.619 50.9911 115.556 50.9609 116.011 51.014L116.092 51.095C115.797 51.2067 114.405 51.1624 114.01 51.1591L114.01 49.5505Z" fill="white"/>
<path d="M118.016 49.5425C118.092 49.8416 118.117 52.9784 118.008 53.2083C117.897 52.9677 117.946 50.1606 117.946 49.6975L118.016 49.5425Z" fill="white"/>
<path d="M109.483 48.7971C109.512 48.8291 109.548 48.87 109.593 48.92C109.607 49.52 109.572 50.1194 109.599 50.7201C109.602 50.784 109.526 50.8652 109.484 50.8942C109.388 50.6437 109.4 49.0558 109.483 48.7971Z" fill="white"/>
<path d="M120.279 34.7252C120.312 34.6936 120.345 34.6621 120.378 34.6306C122.282 34.5606 125.722 34.6793 127.436 34.6159L127.436 36.3403C126.484 36.341 122.912 36.4625 122.263 36.2976C122.263 36.9637 122.279 37.7101 122.261 38.37C122.621 38.2957 123.566 38.3163 123.971 38.317L127.08 38.3251C127.081 38.7062 127.105 39.6983 127.045 40.0236C126.631 40.0784 125.8 40.059 125.358 40.0584L122.266 40.0513L122.262 42.5783C122.687 42.4352 126.867 42.5215 127.548 42.5228L127.546 44.2493L120.283 44.2493L120.279 34.7252Z" fill="white"/>
<path d="M120.279 34.7249L120.385 34.773L120.388 44.1162L127.453 44.1152V42.6514C126.862 42.6522 122.442 42.7064 122.262 42.5779C122.687 42.4349 126.867 42.5212 127.548 42.5225L127.546 44.249L120.283 44.2489L120.279 34.7249Z" fill="white"/>
<path d="M120.279 34.7252C120.312 34.6936 120.345 34.6621 120.378 34.6306C122.282 34.5606 125.722 34.6793 127.436 34.6159L127.436 36.3403C126.484 36.341 122.912 36.4625 122.263 36.2976C122.418 36.1908 126.732 36.2379 127.287 36.2389L127.288 34.7721L120.385 34.7734L120.279 34.7252Z" fill="white"/>
<path d="M122.262 38.3698C122.622 38.2956 123.567 38.3162 123.971 38.3168L127.081 38.3249C127.082 38.706 127.106 39.6981 127.046 40.0235L126.945 39.9378C126.903 39.6 126.928 38.8135 126.931 38.4412C126.406 38.4424 122.441 38.5041 122.262 38.3698Z" fill="white"/>
<path d="M115.613 55.6599C115.786 55.5334 117.049 55.5876 117.34 55.5916L117.338 61.5982C117.339 62.1571 117.371 64.0301 117.302 64.4606L117.187 64.4531C116.748 64.4589 115.836 64.5003 115.439 64.4146C115.203 64.2057 112.136 59.2258 112.097 58.9966C111.818 59.7899 112.248 64.0955 111.946 64.4641L110.308 64.4589L110.305 55.6583L110.4 55.6017C110.758 55.5818 111.724 55.546 112.027 55.6498C112.66 56.1724 114.179 59.3046 114.799 60.0985C114.942 60.2811 115.465 61.1683 115.552 61.2301C115.668 61.1199 115.613 56.2386 115.613 55.6599Z" fill="white"/>
<path d="M115.611 55.6599C115.784 55.5334 117.047 55.5876 117.338 55.5916L117.336 61.5982C117.337 62.1571 117.369 64.0301 117.301 64.4606L117.185 64.4531C117.265 61.6046 117.089 58.5351 117.203 55.7068C116.802 55.709 115.957 55.7413 115.611 55.6599Z" fill="white"/>
<path d="M117.204 55.707C117.441 56.1878 117.127 62.1999 117.251 63.1402C117.292 63.4523 117.201 64.066 117.301 64.4609L117.186 64.4533C117.266 61.6049 117.09 58.5354 117.204 55.707Z" fill="white"/>
<path d="M111.945 64.464C111.853 64.2365 111.852 59.1381 111.914 58.8418L112.02 58.8237L112.117 58.9171L112.096 58.9964C111.817 59.7897 112.247 64.0953 111.945 64.464Z" fill="white"/>
<path d="M110.305 55.6586L110.4 55.602C110.758 55.5822 111.724 55.5463 112.027 55.6501C111.748 55.7469 110.581 55.7426 110.305 55.6586Z" fill="white"/>
<path d="M74.3187 22.9829C74.716 22.8848 75.8383 22.921 76.2986 22.9241C76.2986 25.0132 76.3511 27.3418 76.2875 29.4108C76.5097 31.5935 79.7974 31.3176 79.8802 29.6802C79.8225 29.1732 79.8534 27.9368 79.8534 27.3742L79.8551 22.9256L81.9563 22.9257C81.9575 23.6358 82.0076 28.9122 81.8927 29.1131C81.7848 29.5246 81.8741 29.9016 81.8245 30.2699C81.7247 31.0106 81.1414 31.8054 80.5301 32.2127C80.2349 32.4265 79.4684 32.5032 79.3541 32.6038C79.1073 32.7106 77.2021 32.7161 76.9175 32.6038C76.8679 32.5607 76.8451 32.5557 76.7792 32.5435C76.6427 32.5183 76.5097 32.4878 76.3767 32.4476C75.5157 32.1874 75.024 31.7104 74.5935 30.9304C74.1134 30.0613 74.3146 24.4028 74.3187 22.9829Z" fill="white"/>
<path d="M79.8577 22.9253L81.9588 22.9254C81.96 23.6355 82.0102 28.9119 81.8953 29.1128C81.7938 28.9238 81.841 23.7297 81.8416 23.0376L79.9813 23.0362C79.9825 23.8363 80.0554 29.3543 79.8828 29.6799C79.825 29.1729 79.8559 27.9365 79.8559 27.3739L79.8577 22.9253Z" fill="white"/>
<path d="M74.3203 22.9829C74.7176 22.8848 75.8399 22.921 76.3001 22.9241C76.3001 25.0132 76.3526 27.3418 76.2891 29.4108C76.0773 29.1492 76.1362 27.5935 76.1356 27.1665L76.138 23.0484C75.7862 23.0528 74.5799 23.1038 74.3203 22.9829Z" fill="white"/>
<path d="M76.918 32.6038C76.9506 32.5739 76.9903 32.5381 77.0364 32.4962C77.6477 32.4839 78.6283 32.4762 79.2122 32.4881C79.2851 32.5375 79.3015 32.5385 79.3546 32.6037C79.1078 32.7106 77.2026 32.7161 76.918 32.6038Z" fill="white"/>
<path d="M103.272 55.5887C103.566 55.5846 104.83 55.528 105.002 55.661L104.998 64.4587C104.621 64.464 103.474 64.5147 103.198 64.3998C102.905 64.1006 102.18 62.854 101.916 62.4217C101.326 61.4406 100.721 60.4687 100.1 59.5068C99.987 59.3306 99.8797 59.0501 99.7303 58.9433C99.6493 59.1277 99.6913 63.855 99.6907 64.4587C99.1575 64.4605 98.5829 64.4517 98.0533 64.4657C97.9208 64.3123 97.9634 63.7377 97.964 63.505C97.9693 60.8666 97.9681 58.2289 97.9669 55.5909C98.3782 55.5867 99.5244 55.5446 99.8698 55.652C100.124 55.9765 100.668 57.0165 100.919 57.4247L102.455 59.9169C102.663 60.2587 102.992 60.8794 103.209 61.1769C103.331 60.9891 103.274 56.2295 103.272 55.5887Z" fill="white"/>
<path d="M97.9669 55.5912C98.3782 55.587 99.5244 55.5449 99.8698 55.6523C99.5367 55.7516 98.5118 55.7141 98.1139 55.7109L98.1198 61.4671C98.1198 61.9274 98.1588 64.1423 98.0533 64.466C97.9208 64.3126 97.9634 63.738 97.964 63.5053C97.9693 60.8669 97.9681 58.2292 97.9669 55.5912Z" fill="white"/>
<path d="M103.272 55.5887C103.566 55.5846 104.83 55.528 105.002 55.661C104.683 55.7573 103.797 55.7223 103.416 55.7197L103.423 59.438C103.424 59.9338 103.458 60.9383 103.387 61.3887L103.314 61.4435C103.19 61.3315 103.216 61.3852 103.178 61.2364L103.209 61.1769C103.331 60.9891 103.273 56.2295 103.272 55.5887Z" fill="white"/>
<path d="M122.191 55.582C122.427 55.3493 123.746 55.4184 124.083 55.4775C124.169 55.5711 124.122 55.5715 124.24 55.5784C124.966 55.6205 125.765 55.9983 126.235 56.5569C126.491 56.862 126.987 57.707 126.92 58.113C126.596 58.238 125.493 58.5048 125.157 58.3934C124.883 58.0708 124.664 57.5718 124.344 57.3287C124.176 57.201 123.735 57.3349 123.555 57.0517C122.917 56.9531 121.993 57.2484 121.512 57.661C120.362 58.6454 120.55 61.0837 121.355 62.2247C122.094 63.2724 124.075 63.112 125.016 62.4342C125.331 62.2078 125.173 61.6163 125.233 61.2529C124.576 61.2599 123.918 61.2558 123.261 61.2406L123.131 61.1607C123.075 60.7868 123.104 60.0495 123.109 59.6435C123.681 59.6569 126.796 59.5752 127.071 59.7088C127.084 60.7652 127.128 62.23 127.064 63.2526C127.004 63.3086 127.008 63.3156 126.937 63.3512C126.535 64.1147 124.025 64.701 123.182 64.6479C121.961 64.5715 120.842 64.3218 119.981 63.3832C118.325 61.5766 118.335 58.2782 120.106 56.5516C120.588 56.0868 121.508 55.5569 122.191 55.582Z" fill="white"/>
<path d="M123.109 59.6435C123.681 59.6569 126.796 59.5752 127.071 59.7088C127.084 60.7652 127.128 62.2299 127.064 63.2525C127.004 63.3085 127.009 63.3155 126.938 63.3511L126.936 59.7945C125.984 59.7963 124.159 59.8523 123.255 59.7677C123.257 60.1393 123.243 60.7355 123.269 61.089L123.261 61.2406L123.131 61.1607C123.076 60.7868 123.104 60.0495 123.109 59.6435Z" fill="white"/>
<path d="M123.109 59.6435C123.681 59.6569 126.796 59.5752 127.071 59.7088C126.337 59.8085 123.701 59.6312 123.255 59.7677C123.257 60.1393 123.243 60.7355 123.269 61.089L123.261 61.2406L123.131 61.1607C123.076 60.7868 123.104 60.0495 123.109 59.6435Z" fill="white"/>
<path d="M122.191 55.582C122.428 55.3493 123.747 55.4184 124.084 55.4775C123.896 55.6615 122.523 55.6105 122.191 55.582Z" fill="white"/>
<path d="M119.555 45.3524L121.509 45.3537L121.508 48.9117L124.965 48.9121V45.3489L126.933 45.3537L126.934 54.4829L124.965 54.4829V50.5192C124.371 50.5175 121.935 50.5823 121.459 50.4557C121.56 50.9947 121.512 53.7577 121.509 54.4829L119.555 54.4829V45.3524Z" fill="white"/>
<path d="M119.555 45.3524L121.509 45.3537L121.508 48.9117L124.965 48.9121V45.3489L126.933 45.3537L126.934 54.4829L124.965 54.4829V50.5192C124.371 50.5175 121.935 50.5823 121.459 50.4557C121.701 50.3129 124.64 50.3846 125.144 50.3884L125.143 54.3371L126.814 54.3361L126.811 45.4716H125.144C125.14 46.021 125.226 48.6999 125.065 49.0428C124.083 49.0502 122.327 49.1055 121.399 49.0179C121.348 47.9438 121.388 46.5683 121.388 45.4716H119.718V54.3371L121.389 54.3362C121.392 53.7824 121.316 50.7208 121.459 50.4557C121.56 50.9947 121.512 53.7577 121.509 54.4829L119.555 54.4829V45.3524Z" fill="white"/>
<path d="M82.9074 55.6833L82.9127 55.6433L82.9768 55.5974C83.3152 55.585 84.5034 55.5429 84.7274 55.6528C85.1375 56.4042 88.2432 64.0534 88.2163 64.3871C88.0483 64.4997 86.7749 64.4577 86.4232 64.4466C85.9372 64.4308 85.7669 62.5076 85.4122 62.5076C84.7461 62.5064 82.7108 62.36 82.1082 62.5822C81.9385 62.6447 81.6153 64.2086 81.3172 64.4145C80.9702 64.5096 79.7312 64.4792 79.3777 64.4133L79.3613 64.3474C79.7405 64.0721 82.3731 56.0963 82.9074 55.6833ZM84.0887 58.8069C84.0846 58.5934 83.8851 58.053 83.7054 57.9495C83.5917 58.4668 82.9127 60.4233 82.6712 60.806L82.6385 60.8562C82.9663 60.8597 84.6971 60.918 84.8727 60.7838C84.7671 60.652 84.1633 58.9895 84.1715 58.8547L84.0887 58.8069Z" fill="white"/>
<path d="M82.9082 55.6833L82.9135 55.6433L82.9776 55.5974C83.3159 55.585 84.5042 55.5429 84.7282 55.6528C84.5211 55.7407 83.1188 55.7379 82.9082 55.6833Z" fill="white"/>
<path d="M84.8918 61.0153C84.536 61.0194 82.8216 61.0771 82.6191 60.9506L82.639 60.8555C83.1471 60.9716 84.5476 60.8211 84.9169 60.936L84.8918 61.0153Z" fill="white"/>
<path d="M105.99 45.3537C106.619 45.3509 107.294 45.3354 107.92 45.3697C108.019 45.665 107.995 50.802 107.924 50.9287C107.813 51.1185 107.805 51.5541 107.812 51.7709C107.904 54.8411 104.494 54.992 102.305 54.403C102.142 54.3593 101.722 53.8984 101.36 53.7671C101.057 53.391 100.788 52.6924 100.695 52.2272C100.653 52.0171 100.701 51.8966 100.616 51.6988C100.517 51.5126 100.563 46.0364 100.565 45.3537C101.181 45.351 101.881 45.3318 102.489 45.3715C102.594 45.6442 102.566 51.0176 102.526 51.622C102.871 53.3739 105.784 53.7539 106.002 51.2894C105.936 49.4206 105.989 47.2457 105.99 45.3537Z" fill="white"/>
<path d="M100.565 45.3537C101.181 45.351 101.881 45.3318 102.489 45.3715C102.594 45.6442 102.566 51.0176 102.526 51.622C102.356 51.3551 102.409 50.6681 102.414 50.3292C102.309 50.0436 102.371 46.0555 102.372 45.4716H100.686L100.69 49.657C100.69 49.9581 100.75 51.5359 100.616 51.6988C100.517 51.5126 100.563 46.0364 100.565 45.3537Z" fill="white"/>
<path d="M102.491 45.3711C102.597 45.6439 102.568 51.0172 102.528 51.6216C102.358 51.3547 102.411 50.6677 102.416 50.3288C102.545 49.5147 102.288 45.6943 102.491 45.3711Z" fill="white"/>
<path d="M105.991 45.3536C106.621 45.3507 107.296 45.3353 107.922 45.3696C108.021 45.6649 107.997 50.8019 107.926 50.9286L107.831 50.8662L107.814 50.4887C107.714 49.2036 107.784 46.853 107.786 45.4714H106.113C106.115 46.2327 106.197 50.9558 106.004 51.2893C105.938 49.4205 105.991 47.2456 105.991 45.3536Z" fill="white"/>
<path d="M107.92 45.3694C108.02 45.6647 107.996 50.8017 107.925 50.9284L107.829 50.866L107.812 50.4885C107.869 50.0036 107.844 49.1919 107.843 48.6837C107.838 47.6022 107.839 46.5207 107.845 45.4392L107.92 45.3694Z" fill="white"/>
<path d="M77.9021 45.3533C78.4913 45.3501 79.0892 45.3401 79.6766 45.3674C79.8336 45.7541 79.742 53.5143 79.7408 54.4842C79.406 54.4875 78.1384 54.5341 77.9179 54.419C77.838 53.719 77.9027 51.2842 77.9056 50.4673C77.5142 50.5501 74.7043 50.5537 74.3111 50.4719C74.3456 51.745 74.3158 53.1991 74.3164 54.4847L72.4766 54.4848L72.4771 45.3531L74.3164 45.3527V48.9106L77.9021 48.9104V45.3533Z" fill="white"/>
<path d="M79.6767 45.3667C79.8336 45.7534 79.7421 53.5136 79.7409 54.4836C79.4061 54.4868 78.1385 54.5334 77.918 54.4183C78.1385 54.2343 79.2392 54.3047 79.6102 54.3062C79.6096 53.4103 79.5437 45.6398 79.6767 45.3667Z" fill="white"/>
<path d="M74.3105 50.4721C74.454 50.3643 77.7365 50.3464 77.905 50.4675C77.5136 50.5503 74.7037 50.5539 74.3105 50.4721Z" fill="white"/>
<path d="M74.2207 48.9696C74.7142 48.9341 77.6665 48.898 77.9185 49.0285C77.5107 49.0962 74.5124 49.1102 74.2207 48.9696Z" fill="white"/>
<path d="M112.491 40.4209C112.753 41.5838 113.335 42.6549 114.683 42.6652C115.942 42.6749 116.464 41.7939 116.768 40.6975C117.096 40.6023 117.702 41.0082 118.099 41.0221C119.281 41.0806 118.387 42.1816 118.148 42.6736C117.18 44.6728 113.751 44.8865 112.155 43.5687C111.756 43.2392 111.648 43.3703 111.491 42.8697C111.081 42.6528 110.725 41.8032 110.615 41.3574C109.929 38.5618 110.709 35.0793 114.024 34.533C115.383 34.3088 116.983 34.6406 117.891 35.7335C118.163 36.0611 118.729 36.8593 118.669 37.2916C118.455 37.4647 116.88 37.8873 116.797 37.7993C116.491 37.4726 116.363 36.7081 115.83 36.4886C114.004 35.7379 112.963 36.6644 112.498 38.3957C112.531 38.8905 112.558 39.9343 112.491 40.4209Z" fill="white"/>
<path d="M112.497 38.3958C112.53 38.8906 112.557 39.9344 112.49 40.421C112.358 40.1368 112.344 38.6792 112.497 38.3958Z" fill="white"/>
<path d="M72.0984 55.5904L78.7502 55.5903L78.7507 57.1714C78.2497 57.228 77.4429 57.207 76.922 57.2066L73.9377 57.2016L73.9353 59.0902C74.3903 58.9712 77.6733 59.0354 78.3722 59.0313V60.6302C77.0369 60.695 75.2986 60.646 73.9377 60.646V62.8399L77.0795 62.8375C77.5899 62.8375 78.3774 62.8148 78.8686 62.8661V64.4586C76.6472 64.4592 74.3851 64.4365 72.1672 64.4616C72.0377 64.2901 72.0978 56.4596 72.0984 55.5904Z" fill="white"/>
<path d="M72.0984 55.5904L78.7502 55.5903L78.7507 57.1714L78.6813 57.1652C77.2487 57.0433 75.5407 57.2368 74.0619 57.109C74.2696 57.0269 78.1394 57.0698 78.6271 57.0704L78.6259 55.7132L72.2168 55.7118L72.2227 61.7012C72.2232 62.1183 72.253 64.1693 72.1672 64.4616C72.0377 64.2901 72.0978 56.4596 72.0984 55.5904Z" fill="white"/>
<path d="M73.9355 59.0906C74.3905 58.9716 77.6736 59.0358 78.3724 59.0317V60.6306C76.9759 60.5437 75.356 60.6907 73.9682 60.5787C74.2202 60.4457 77.7138 60.5 78.2528 60.5006V59.1577C77.729 59.1595 74.1642 59.2207 73.9355 59.0906Z" fill="white"/>
<path d="M117.813 14.7876C118.128 14.7817 119.436 14.7244 119.683 14.8254C120.163 15.0223 120.665 15.2803 121.063 15.6263C121.508 16.0131 121.335 16.0761 121.525 16.3557C121.952 16.9799 121.924 17.1381 121.972 17.9159C122.033 18.8986 121.829 20.0012 121.167 20.7681C120.818 21.1716 120.044 21.7096 119.536 21.7465C119.48 21.7417 119.422 21.7868 119.351 21.7943C117.367 22.0031 115.693 21.2103 115.382 19.0691C115.223 17.9763 115.363 16.7882 116.041 15.8626C116.335 15.4616 116.992 15.0074 117.48 14.8981C117.654 14.8601 117.647 14.8705 117.813 14.7876ZM118.97 20.4674C119.995 20.4849 120.45 19.2367 120.426 18.3792C120.382 16.7531 119.979 15.9948 118.292 16.0111L118.14 16.0131C117.353 16.518 117.167 16.4687 116.915 17.5456C116.724 18.3621 116.916 20.095 117.953 20.3737C118.239 20.4505 118.658 20.6139 118.901 20.576L118.97 20.4674Z" fill="white"/>
<path d="M82.893 34.8305L82.8457 34.7989L82.8615 34.6773C83.1368 34.5683 84.738 34.5635 85.0134 34.6647L85.0396 34.825C85.2712 35.8337 86.9075 39.6445 86.8695 40.3406C87.0556 40.5423 87.128 41.0543 87.2907 41.3881L87.3753 41.3823C87.6775 41.1097 89.1848 35.2202 89.6095 34.7709L89.6853 34.6418C90.0137 34.5894 91.4423 34.5477 91.689 34.713L91.7252 34.8376C91.6739 34.9059 91.685 34.9181 91.626 34.9389C91.6021 35.1567 89.9805 39.8758 89.886 39.9902C89.6725 40.2474 89.6585 40.5584 89.5535 40.8663C89.3079 41.5873 88.6691 43.6887 88.3045 44.2259C88.0887 44.2698 86.519 44.2593 86.2442 44.2393C86.036 44.0744 83.436 36.1886 83.0289 35.3229C82.9851 35.231 82.911 34.9435 82.893 34.8305Z" fill="white"/>
<path d="M82.893 34.8305L82.8457 34.7989L82.8615 34.6773C83.1368 34.5683 84.738 34.5635 85.0134 34.6647L85.0396 34.825C84.724 34.7451 83.1566 34.7001 82.893 34.8305Z" fill="white"/>
<path d="M89.6074 34.7707L89.6833 34.6416C90.0117 34.5892 91.4403 34.5475 91.687 34.7128L91.7232 34.8374C91.6718 34.9058 91.6829 34.9179 91.624 34.9387L91.61 34.838C91.4187 34.7021 89.9399 34.766 89.6074 34.7707Z" fill="white"/>
<path d="M121.649 13.4538L121.65 8.67452C121.649 8.16084 121.613 6.67696 121.675 6.22715C121.876 6.13434 121.928 6.30911 122.093 6.26769C122.408 6.18935 122.738 6.19378 123.051 6.28052C123.52 6.74194 124.827 9.22052 125.312 9.87788C125.46 10.078 125.619 10.4409 125.787 10.6308C125.94 9.80141 125.688 6.85779 125.877 6.28186L126.001 6.19629C126.321 6.28566 126.972 6.27638 127.318 6.26938L127.319 13.4542C127.008 13.4595 126.015 13.5057 125.767 13.4036L123.066 9.01711L123.007 9.02808C122.941 10.3395 122.999 12.1002 123 13.4542L121.649 13.4538Z" fill="white"/>
<path d="M125.878 6.28149C126.126 6.68329 125.913 10.0781 125.955 10.8058C125.941 10.834 125.927 10.8622 125.914 10.8904C125.767 10.8426 125.813 10.8554 125.715 10.6729L125.788 10.6305C125.941 9.80104 125.689 6.85742 125.878 6.28149Z" fill="white"/>
<path d="M87.616 23.0412L89.5235 23.0393C89.709 23.3591 89.6005 29.8752 89.5999 30.7987C90.3308 30.7961 93.9592 30.6768 94.3687 30.9657C94.4667 31.212 94.4206 32.2033 94.4171 32.5223C93.6984 32.523 87.7805 32.5794 87.6113 32.4514C87.6866 29.4345 87.616 26.0841 87.616 23.0412Z" fill="white"/>
<path d="M89.5235 23.0393C89.709 23.3591 89.6005 29.8752 89.5999 30.7987C90.3308 30.7961 93.9592 30.6768 94.3687 30.9657C94.4667 31.212 94.4206 32.2033 94.4171 32.5223C93.6984 32.523 87.7805 32.5794 87.6113 32.4514C87.9059 32.3701 89.4167 32.3981 89.8251 32.3985L94.2567 32.4045L94.2637 30.9673L89.4984 30.963C89.3987 29.5698 89.5264 27.6847 89.4739 26.2465C89.4576 25.7887 89.4576 23.3163 89.5235 23.0393Z" fill="white"/>
<path d="M63.9498 45.3534C66.3759 45.355 68.897 45.392 71.3155 45.3445C71.4042 45.6231 71.3715 46.5939 71.3739 46.9568C70.7036 46.9587 69.2179 46.9965 68.6176 46.9299C68.6865 47.3834 68.676 54.328 68.6176 54.447L68.4911 54.4726C68.0232 54.5065 67.2404 54.4837 66.7486 54.4852C66.5742 54.2908 66.6693 47.761 66.6699 46.9585L63.9492 46.9586L63.9498 45.3534Z" fill="white"/>
<path d="M63.9498 45.3534C66.3759 45.355 68.897 45.392 71.3155 45.3445L71.2205 45.4747L64.1114 45.4712V46.8387C64.935 46.8393 65.9961 46.8098 66.8006 46.8502C66.8023 47.8365 66.9236 53.9541 66.7486 54.4852C66.5742 54.2908 66.6693 47.761 66.6699 46.9585L63.9492 46.9586L63.9498 45.3534Z" fill="white"/>
<path d="M68.4922 54.4724C68.5435 54.052 68.5138 52.8549 68.5126 52.3744L68.5062 48.2737C68.5056 47.9293 68.4443 47.173 68.6188 46.9297C68.6876 47.3832 68.6771 54.3278 68.6188 54.4468L68.4922 54.4724Z" fill="#8ECB87"/>
<path d="M71.3171 45.3445C71.4057 45.6231 71.3731 46.5939 71.3754 46.9568C70.7051 46.9587 69.2194 46.9965 68.6191 46.9299L68.6839 46.8652C69.339 46.8118 70.5179 46.8471 71.2126 46.8492L71.222 45.4747L71.3171 45.3445Z" fill="white"/>
<path d="M65.8136 11.9571C65.8101 12.2764 65.6392 12.7502 65.4467 13.0029C65.442 13.2731 65.4858 13.2207 65.3376 13.3781C64.9999 13.5185 64.1464 13.4641 63.762 13.4256C63.7556 13.3598 63.7474 13.3508 63.7766 13.2885C64.1733 12.4405 66.2919 6.41611 66.5731 6.1875C66.7423 6.20436 68.1901 6.32756 68.0711 6.29198C68.1849 6.32598 69.2588 9.02985 69.3002 9.1807C69.4367 9.67834 70.979 13.1471 70.9522 13.3975C70.5771 13.474 69.6024 13.5239 69.2652 13.3761C69.1911 12.9473 68.76 12.2751 68.7659 11.9584C68.5232 11.762 66.0574 11.7724 65.8136 11.9571ZM67.4038 10.4605C67.6109 10.4626 67.955 10.4906 68.1236 10.4059C68.1049 10.1152 67.4569 8.66626 67.3449 8.28272L67.2264 8.22619C67.1926 8.67454 66.8309 9.25146 66.6857 9.69211C66.6052 9.93635 66.5994 10.2339 66.4763 10.4283C66.6373 10.5004 67.1932 10.4644 67.4038 10.4605Z" fill="white"/>
<path d="M65.8125 11.9573C65.8592 11.8553 65.8807 11.7513 66.0003 11.7314C66.4355 11.659 68.4445 11.6207 68.7344 11.7713L68.7647 11.9586C68.5221 11.7622 66.0563 11.7726 65.8125 11.9573Z" fill="#4AC9F5"/>
<path d="M115.891 11.7891C115.886 11.8916 115.394 13.3021 115.34 13.3994C115.109 13.4899 113.976 13.4867 113.768 13.3857C113.79 12.6726 115.124 9.93841 115.371 9.10103C115.508 8.63932 116.334 6.46477 116.586 6.21592C116.927 6.05591 117.549 6.42166 117.854 6.20729C117.865 6.19982 117.927 6.19335 117.936 6.19224C118.278 6.54405 120.925 13.2269 120.862 13.3997C120.522 13.4812 119.77 13.4688 119.409 13.4453C119.221 13.2941 118.641 11.9441 118.614 11.8155C118.323 11.8726 116.155 11.8766 115.891 11.7891ZM117.336 10.4612C117.51 10.4633 117.909 10.4904 118.039 10.4185C118.089 9.98589 117.389 8.67619 117.273 8.14786C117.205 8.59884 116.373 10.0631 116.515 10.434C116.826 10.4744 117.021 10.4677 117.336 10.4612Z" fill="white"/>
<path d="M115.891 11.7888C116.091 11.6064 118.162 11.695 118.593 11.6975L118.662 11.7527L118.614 11.8151C118.323 11.8723 116.154 11.8763 115.891 11.7888Z" fill="white"/>
<path d="M80.3586 6.15417C81.6571 6.13731 83.3861 5.95747 83.8382 7.54816C83.9198 7.83545 84.138 7.79614 84.0563 8.30848C83.8808 8.43296 83.0676 8.358 82.8284 8.39049C82.2673 8.49532 82.5012 7.94086 82.2591 7.72631C81.8099 7.32731 80.6759 7.23345 80.2524 7.68501C79.5384 9.24543 84.1234 8.57145 84.1718 10.7466C84.2144 12.6544 83.879 13.0125 82.0724 13.5729C80.7383 13.5917 79.1709 13.5048 78.5934 12.0009C78.4995 11.7567 78.5765 11.5266 78.3607 11.3056C78.2866 11.2293 78.3659 11.0573 78.4009 10.9853C78.8553 10.9702 79.3144 10.9079 79.7694 10.8898C79.8517 10.8866 80.1083 11.5174 80.1579 11.6067C80.2157 11.7118 80.386 12.0259 80.5068 12.0737C80.9443 12.2469 81.534 12.2042 81.9913 12.141C82.2177 12.1097 82.3653 12.0319 82.4848 11.8409C82.605 11.6729 82.7298 11.3324 82.6534 11.1443C82.3157 10.3121 80.3749 10.4172 79.5798 9.81954C79.1604 9.56369 78.7562 9.1483 78.6722 8.63514C78.4132 7.04177 79.182 6.6934 80.3586 6.15417Z" fill="white"/>
<path d="M67.0449 14.7791C67.4188 14.7801 67.9917 14.7326 68.3405 14.7938C69.1245 15.5798 70.0048 17.5348 70.6715 18.4885C70.7643 18.6211 70.9754 18.9311 71.0058 19.063L71.0717 19.0827C71.1288 18.8053 71.1055 17.9616 71.1049 17.6246L71.1043 14.8005C71.4351 14.7649 72.1223 14.7805 72.481 14.7792L72.4793 21.6764C72.4478 21.6872 72.4413 21.6907 72.404 21.6959C72.1485 21.7305 71.2729 21.7777 71.0443 21.6654C70.7794 21.5356 68.9588 18.017 68.5663 17.7408C68.5523 17.731 68.5377 17.7215 68.5237 17.7119L68.4992 17.5395L68.4251 17.5199C68.3259 17.8329 68.3977 21.1627 68.3988 21.7016L67.0467 21.7018L67.0449 14.7791Z" fill="white"/>
<path d="M77.3553 10.3879C77.0356 10.9669 77.5711 12.6685 76.2808 13.1663C75.2331 13.5705 74.798 13.7394 73.6809 13.5078C71.4438 13.0444 71.5861 11.5155 71.5914 9.67825L71.6054 6.35354L71.6835 6.27619C71.9309 6.21226 72.754 6.2675 73.0911 6.27018C73.087 7.7914 73.0748 9.22365 73.1232 10.8138C73.1629 12.1376 74.4054 12.6103 75.4525 11.869C75.53 11.8144 75.7844 11.3903 75.7861 11.307C75.8176 9.63152 75.7995 7.94703 75.7966 6.26907C76.272 6.27701 76.9289 6.19324 77.3547 6.28325C77.4498 6.57252 77.4399 10.2731 77.3553 10.3879Z" fill="white"/>
<path d="M77.3536 6.2832C77.4487 6.57248 77.4388 10.273 77.3542 10.3879L77.2737 10.3569C77.1786 9.53377 77.2883 7.35321 77.2696 6.41603C77.3029 6.36394 77.3309 6.31966 77.3536 6.2832Z" fill="white"/>
<path d="M106.713 14.7793L111.797 14.7796V16.1368L108.21 16.1367V17.4988L111.533 17.4989V18.7271H108.21V20.442L111.914 20.4422L111.914 21.702H106.715L106.713 14.7793Z" fill="white"/>
<path d="M75.4567 14.7875C75.8259 14.7799 76.1952 14.776 76.565 14.7759C77.4044 14.7822 77.9207 14.9814 78.5093 15.5752C78.5915 15.8686 79.0331 16.6374 78.7916 16.8902C77.6179 17.0084 77.6185 16.9682 76.9319 16.1378C76.8211 16.0034 74.9754 15.592 75.2076 16.865C75.2513 16.9161 76.1666 17.3017 76.2803 17.3332C77.0661 17.5506 77.9341 17.6124 78.5454 18.235C79.2769 18.9793 79.1708 20.5047 78.4223 21.2075C77.9376 21.6439 77.0282 21.8436 76.383 21.8185C75.1376 21.8192 73.9587 21.4839 73.6122 20.0789C73.5521 19.8357 73.4162 19.568 73.4658 19.3765C73.6868 19.2503 74.2538 19.422 74.5093 19.2894C74.5473 19.2288 74.8739 19.2191 74.8862 19.2642C75.1259 20.1286 75.6393 20.7613 76.6187 20.5817C76.8753 20.5347 77.3572 20.2495 77.5088 20.035C77.8816 18.6928 75.529 18.9073 74.6009 18.252C73.3415 17.3629 73.3573 15.7865 74.7508 15.0634C75.0209 14.9233 75.2239 14.9037 75.4567 14.7875Z" fill="white"/>
<path d="M64.6895 55.7065L66.485 55.7068C66.6185 55.8791 66.5585 62.0955 66.5573 62.8445C67.0794 62.8433 70.507 62.8031 70.804 62.8801C71.0548 63.1437 71.0799 64.2684 70.92 64.4621C68.858 64.4388 66.7545 64.4603 64.6895 64.4598V55.7065Z" fill="white"/>
<path d="M66.4848 55.7065C66.6184 55.8788 66.5583 62.0952 66.5571 62.8442C67.0792 62.843 70.5069 62.8028 70.8038 62.8798C71.0546 63.1435 71.0797 64.2681 70.9199 64.4618C70.833 64.1445 70.8604 63.368 70.861 63.0005L66.4545 62.9988C66.3874 61.6332 66.4825 59.9952 66.441 58.6022C66.4265 58.1186 66.4177 56.051 66.4848 55.7065Z" fill="white"/>
<path d="M99.6295 19.2564C99.5134 19.5781 99.6447 19.9498 99.5385 20.2877C99.3653 20.8429 99.0911 21.2245 98.5638 21.5046C97.7663 21.9282 96.6405 21.901 95.7813 21.6741C95.3356 21.5564 94.7097 21.0716 94.4938 20.7127C94.3725 20.5103 94.18 19.4655 94.173 19.2567C94.1514 18.6348 94.0738 15.2921 94.1963 14.9198C94.5131 14.6902 95.2312 14.7704 95.6413 14.7792L95.6348 17.8184C95.6337 18.3926 95.5783 19.0371 95.6774 19.6029C95.7043 19.754 95.7935 19.9017 95.8921 20.018C96.1225 20.2896 96.5122 20.5579 96.8791 20.5733C97.2198 20.5876 97.6888 20.3909 97.9256 20.146C98.4214 19.6335 98.2342 15.682 98.2324 14.7795C98.5737 14.7725 99.3787 14.7101 99.6301 14.8716C99.724 15.1737 99.7403 19.1234 99.6295 19.2564Z" fill="white"/>
<path d="M99.6298 14.8713C99.7237 15.1734 99.74 19.1232 99.6292 19.2561C99.5358 19.1421 99.5341 15.2117 99.6298 14.8713Z" fill="white"/>
<path d="M83.793 22.9231L85.781 22.9233L85.7821 29.7991C85.7816 30.2161 85.8014 32.2744 85.7576 32.5007L85.5896 32.5231L83.7947 32.5235L83.793 22.9231Z" fill="white"/>
<path d="M83.949 23.0635L85.6489 23.0632L85.6483 32.367L83.9473 32.3663L83.949 23.0635Z" fill="white"/>
<path d="M105.113 22.9232C105.497 22.9185 106.869 22.8618 107.101 23.0022L107.101 32.4381C106.919 32.5855 105.451 32.524 105.113 32.5222V22.9232Z" fill="white"/>
<path d="M105.113 22.9232C105.497 22.9185 106.869 22.8618 107.101 23.0022C106.766 23.0982 105.687 23.0616 105.285 23.0581C105.285 26.0982 105.344 29.3539 105.281 32.3761C105.628 32.374 106.821 32.3396 107.101 32.4381C106.919 32.5855 105.451 32.524 105.113 32.5222V22.9232Z" fill="white"/>
<path d="M122.933 14.8737C123.145 14.7135 126.838 14.746 127.304 14.8113C127.411 14.8258 127.516 14.852 127.617 14.8894C127.734 15.0855 127.7 15.7996 127.697 16.0697C127.51 16.2039 124.825 16.1371 124.367 16.1372C124.369 16.5235 124.395 17.2869 124.318 17.6288C125.278 17.6108 126.239 17.6067 127.199 17.6164C127.201 17.9778 127.194 18.3952 127.207 18.7517L127.131 18.8293C126.362 18.8855 125.168 18.8479 124.367 18.8446L124.367 21.7021H122.87C122.869 20.7547 122.757 15.4282 122.933 14.8737Z" fill="white"/>
<path d="M122.933 14.8735C123.104 15.4097 122.997 20.5763 122.995 21.5043L124.208 21.5045C124.215 21.0501 124.16 19.0564 124.311 18.7745C124.574 18.6663 126.963 18.6597 127.207 18.7515L127.131 18.8292C126.362 18.8854 125.168 18.8477 124.367 18.8445L124.367 21.7019H122.87C122.869 20.7545 122.757 15.4281 122.933 14.8735Z" fill="white"/>
<path d="M124.216 16.013C124.759 16.0152 127.281 15.9528 127.696 16.0695C127.509 16.2037 124.824 16.1369 124.365 16.137C124.368 16.5233 124.394 17.2867 124.317 17.6285C124.133 17.4649 124.211 16.3013 124.216 16.013Z" fill="white"/>
<path d="M106.719 55.5925C107.125 55.5894 108.281 55.5526 108.617 55.6484C108.64 55.682 108.668 55.7229 108.701 55.7709C108.737 58.2189 108.718 62.1088 108.717 64.4591L106.804 64.4649C106.657 64.3138 106.717 61.8731 106.718 61.5103L106.719 55.5925Z" fill="white"/>
<path d="M106.719 55.5925C107.125 55.5894 108.281 55.5526 108.617 55.6484C108.289 55.7421 107.262 55.706 106.866 55.7022L106.871 61.5039C106.872 61.9846 106.912 64.1172 106.804 64.4649C106.657 64.3138 106.717 61.8731 106.718 61.5103L106.719 55.5925Z" fill="white"/>
<path d="M84.8647 6.26781L84.9026 6.26694C85.633 6.24366 90.1176 6.33315 90.4425 6.16748L90.5312 6.21187C90.6158 6.52746 90.6129 7.12041 90.5779 7.44819L90.5295 7.51731L88.4901 7.53464L88.4907 13.4486C87.982 13.4459 87.3981 13.4292 86.8953 13.4478C86.848 13.092 86.8737 11.9514 86.8743 11.5271L86.8772 7.52507H84.776C84.772 7.25219 84.72 6.43173 84.8647 6.26781Z" fill="white"/>
<path d="M84.776 7.52508C84.772 7.2522 84.72 6.43174 84.8647 6.26782C84.9942 6.46966 84.9446 7.10141 84.94 7.37791C85.269 7.37551 86.7862 7.31071 86.9653 7.45811C87.0411 7.87916 87.016 9.01771 87.0155 9.49301L87.0085 13.3066L88.374 13.3057V7.53564L88.4901 7.53465L88.4907 13.4486C87.982 13.4459 87.3981 13.4292 86.8953 13.4478C86.848 13.092 86.8737 11.9514 86.8743 11.5271L86.8772 7.52508H84.776Z" fill="white"/>
<path d="M84.776 7.52508C84.772 7.2522 84.72 6.43174 84.8647 6.26782C84.9942 6.46966 84.9446 7.10141 84.94 7.37791C85.269 7.37551 86.7862 7.31071 86.9653 7.45811C86.8871 7.80992 86.9046 8.62851 86.9058 9.02291L86.9175 11.8305C86.9192 12.2531 86.9402 13.0483 86.8953 13.4478C86.848 13.092 86.8737 11.9514 86.8743 11.5271L86.8772 7.52508H84.776Z" fill="white"/>
<path d="M90.5065 7.39825L90.5304 7.51737L88.4911 7.53469L88.375 7.53568L88.4065 7.46691C88.6509 7.30229 90.1256 7.38081 90.5065 7.39825Z" fill="white"/>
<path d="M90.5315 6.21191C90.616 6.5275 90.6131 7.12046 90.5781 7.44823L90.5297 7.51736L90.5058 7.39824C90.4632 7.04806 90.441 6.55433 90.5315 6.21191Z" fill="white"/>
<path d="M79.6211 14.7794L85.0502 14.7793L85.0508 16.1363L83.068 16.1361V19.7456V21.7015L81.5718 21.7016L81.5729 16.1364H79.6228L79.6211 14.7794Z" fill="white"/>
<path d="M100.445 14.8008C100.75 14.781 101.074 14.7702 101.379 14.7782C102.895 14.818 104.487 14.7112 105.995 14.801C105.997 15.0649 106.042 15.8829 105.923 16.0576C105.677 16.1965 104.356 16.1345 104.008 16.1287C104.008 16.8461 104.12 21.4296 103.927 21.702L102.549 21.7018L102.549 16.1366C101.867 16.139 101.121 16.1566 100.445 16.1162V14.8008Z" fill="white"/>
<path d="M103.893 16.0149C104.303 16.0097 105.59 15.9702 105.923 16.0572C105.677 16.1961 104.355 16.1341 104.007 16.1283C104.008 16.8457 104.12 21.4292 103.927 21.7016C103.863 21.4413 103.884 20.1924 103.885 19.8469L103.893 16.0149Z" fill="white"/>
<path d="M87.9883 14.7793H93.4249V16.1366L91.4416 16.1368V19.7459L91.4428 21.7018L89.9734 21.702L89.9751 16.1368L87.9924 16.1367L87.9883 14.7793Z" fill="white"/>
<path d="M105.753 6.35311C105.976 6.20483 106.895 6.2624 107.217 6.26701L107.214 10.1368C107.214 10.6242 107.187 11.6796 107.241 12.1127C107.751 12.0201 110.203 12.075 110.8 12.0747L110.805 13.4369C110.118 13.4383 105.996 13.5439 105.711 13.3465C105.703 13.3414 105.695 13.3365 105.688 13.3314L105.646 13.264C105.838 12.8581 105.758 7.28901 105.753 6.35311Z" fill="white"/>
<path d="M107.241 12.1127C107.75 12.0201 110.203 12.0751 110.799 12.0747L110.805 13.4369C110.118 13.4384 105.996 13.544 105.71 13.3466C105.703 13.3414 105.695 13.3365 105.688 13.3314C106.903 13.235 109.411 13.3112 110.708 13.3119V12.192L107.206 12.1875L107.241 12.1127Z" fill="white"/>
<path d="M105.752 6.35311C105.975 6.20483 106.894 6.2624 107.216 6.26701L107.213 10.1368C107.213 10.6242 107.186 11.6796 107.24 12.1127L107.206 12.1874L107.131 12.1146C107.074 11.8521 107.094 10.6308 107.094 10.3079L107.098 6.42084C106.746 6.42299 106.056 6.46009 105.752 6.35311Z" fill="white"/>
<path d="M111.71 6.28575C112.1 6.19154 112.615 6.16389 113.006 6.26311L113.122 6.35563C113.193 7.76806 113.112 9.39567 113.14 10.8278C113.148 11.2402 113.164 13.0762 113.118 13.4112C112.835 13.4782 111.982 13.4542 111.649 13.453C111.648 12.6264 111.572 6.63942 111.71 6.28575Z" fill="white"/>
<path d="M111.649 13.4531C111.648 12.6265 111.572 6.63956 111.71 6.28589C111.735 6.31109 111.76 6.33635 111.785 6.36161C111.817 8.22256 111.789 11.5873 111.796 13.2883C112.135 13.2838 112.714 13.258 113.029 13.3122L113.118 13.4114C112.835 13.4784 111.982 13.4543 111.649 13.4531Z" fill="white"/>
<path d="M85.9232 14.7798L87.2678 14.7793C87.2684 15.5182 87.3226 21.5183 87.1978 21.702L85.7721 21.7017C85.7715 19.7482 85.7476 16.979 85.7954 14.9727C85.8456 14.8967 85.8882 14.8324 85.9232 14.7798Z" fill="white"/>
<path d="M64.3981 14.8713C64.6548 14.7101 65.454 14.7723 65.7987 14.7794L65.7993 21.7015L64.4203 21.7016L64.3655 21.6377C64.289 21.1169 64.3229 15.1248 64.3981 14.8713Z" fill="white"/>
<path d="M64.3981 14.8713C64.4693 15.1113 64.5066 21.3519 64.4203 21.7016L64.3655 21.6377C64.289 21.1169 64.3229 15.1249 64.3981 14.8713Z" fill="#BBDEEF"/>
</svg>
