<svg width="85" height="85" viewBox="0 0 85 85" fill="none" xmlns="http://www.w3.org/2000/svg">
<g clip-path="url(#clip0_30141_32647)">
<path d="M4.38506 60.1041C3.67723 58.9065 2.83179 56.3235 2.43425 54.9962C1.08526 50.4931 0.202932 45.623 0.460773 40.9105C0.499194 40.2082 0.474989 38.9371 0.621145 38.2602C0.88628 37.0326 1.09302 35.8103 1.3366 34.5829C2.57632 27.9981 5.40523 21.8156 9.57756 16.5727C9.97821 16.073 10.4465 15.6019 10.8668 15.1151C13.1722 12.3924 15.8385 9.99721 18.7918 7.99575C24.1249 4.45188 29.8153 2.01065 36.1632 1.08068C36.8036 0.986864 37.5039 0.695453 38.1341 0.628351C43.7543 0.0300079 49.9885 1.00919 55.3037 2.7535C62.1014 4.98079 68.2064 8.93056 73.0241 14.2182C74.003 15.2834 75.3674 16.9163 76.1795 18.1437C76.8689 19.0278 78.8954 22.1579 79.3098 23.1377C80.7282 25.6763 81.6922 28.3736 82.5136 31.1424C82.6581 31.6293 83.1547 33.179 83.1389 33.6597C83.4664 34.7109 83.879 36.5707 84.0653 37.7013C84.0885 37.8952 84.1651 38.6873 84.2111 38.8123C84.796 39.4335 84.4992 41.7965 84.4509 42.608C84.5526 43.1836 84.3909 45.8785 84.2562 46.4588C84.2158 46.7589 84.1396 47.2235 84.1363 47.5106C83.9398 48.8769 83.603 50.0123 83.34 51.327C82.8114 53.9699 82.1047 56.08 81.0506 58.546C78.1368 65.5493 73.4227 71.6575 67.3864 76.2502C63.169 79.3401 58.4303 81.6458 53.3961 83.0576C51.4068 83.6197 49.181 84.0694 47.1411 84.4099C45.3919 84.7022 43.4495 84.5837 41.6753 84.5925C41.3171 84.5893 40.8753 84.6023 40.5332 84.547C39.5084 84.5419 38.485 84.4708 37.4694 84.3338C36.3553 84.2139 33.9858 83.7224 32.8753 83.4557C32.7082 83.4488 32.0048 83.2606 31.8074 83.2109C29.1625 82.5456 26.663 81.492 24.223 80.2915C22.9115 79.6463 21.6224 79.1134 20.4016 78.2642C20.1373 78.0802 19.6199 77.8079 19.4015 77.6073C18.0352 76.7385 16.6565 75.7583 15.4674 74.6675C15.2595 74.477 15.047 74.332 14.839 74.1281C14.5169 73.8786 14.1695 73.5246 13.8634 73.2552C12.7123 72.2415 11.7431 71.1627 10.7863 69.9679C10.5253 69.6422 10.1764 69.3128 9.90578 68.9811C9.28004 68.2146 8.67888 67.4206 8.12041 66.6035C7.87609 66.2462 7.43767 65.6776 7.26261 65.3133C6.64603 64.6964 5.97792 63.2246 5.56927 62.4312C5.20978 61.7329 4.61884 60.8265 4.38506 60.1041ZM7.26261 65.3133C7.43767 65.6776 7.87609 66.2462 8.12041 66.6035C8.67888 67.4206 9.28004 68.2146 9.90578 68.9811C10.1764 69.3128 10.5253 69.6422 10.7863 69.9679C11.7431 71.1627 12.7123 72.2415 13.8634 73.2552C14.1695 73.5246 14.5169 73.8786 14.839 74.1281C15.047 74.332 15.2595 74.477 15.4674 74.6675C16.6565 75.7583 18.0352 76.7385 19.4015 77.6073C19.2752 77.2932 18.3517 76.7766 18.0341 76.5652C17.657 76.3092 17.2903 76.0379 16.9349 75.7527C17.2923 75.4033 18.1362 74.9267 18.6284 74.7901C18.9501 74.7009 19.254 74.7195 19.5984 74.5824C20.3775 74.1769 20.4557 73.5009 20.3029 72.7158C20.2346 72.365 20.0548 72.2605 19.8059 72.0189L19.8201 71.939C20.1507 71.6041 20.9704 71.3304 21.4245 71.1823C21.5815 71.0721 22.1963 71.2766 22.2948 71.2315C22.6192 71.0828 23.4501 70.8032 23.6075 70.4938C24.073 70.6317 25.22 71.6905 25.7295 71.697C25.4955 71.5349 25.2114 71.3792 24.9648 71.2306C23.1071 70.1114 21.3405 68.7377 19.7411 67.2641C19.617 67.0913 18.7549 66.2843 18.5377 66.0692C17.9692 65.5061 17.5301 65.0123 17.008 64.4033C14.1006 61.0119 12.1195 57.3711 10.7029 53.1486C7.93695 44.7204 8.61175 35.5409 12.5805 27.6078C16.5772 19.6133 23.6257 13.5658 32.1349 10.8305C38.7189 8.67974 45.8114 8.64643 52.4154 10.7353C53.4909 11.0736 55.0166 11.5888 56.0224 12.0936C57.0552 12.4832 57.9885 13.0279 58.9474 13.5528C62.6375 15.5722 65.169 17.85 67.9732 20.9454C68.5911 21.7513 69.2336 22.5453 69.819 23.3747C70.8178 24.7903 71.6805 26.3519 72.4452 27.9044C72.4782 27.3926 71.806 27.2207 72.3811 26.5969C72.4448 26.5279 72.8926 25.9078 72.9145 25.8272C73.0181 25.4432 73.1351 24.9791 73.2666 24.5862C73.3052 24.4665 73.1388 23.5892 73.3535 23.3856C73.4761 23.2691 73.95 23.0178 74.121 23.0083C74.3026 23.2062 74.1126 23.5469 74.2924 23.8273C74.3026 23.8433 74.4025 24.0917 74.4202 24.1349L74.4959 24.1137C74.8596 24.6598 75.5486 24.8879 76.1665 24.6669C76.7844 24.4458 77.1723 23.8324 77.1068 23.1795C77.3321 22.8612 76.6473 22.331 76.5145 22.119C76.4466 22.0104 76.861 21.6242 76.7876 21.4612C76.6933 21.2528 76.8996 21.0547 76.8768 20.8501C76.6106 20.257 77.0139 20.2242 77.1184 19.8586C77.5737 20.6006 78.029 21.3071 78.5577 21.9989C78.7863 22.2978 79.0148 22.9399 79.3098 23.1377C78.8954 22.1579 76.8689 19.0278 76.1795 18.1437C75.3674 16.9163 74.003 15.2834 73.0241 14.2182C68.2064 8.93056 62.1014 4.98079 55.3037 2.7535C49.9885 1.00919 43.7543 0.0300079 38.1341 0.628351C37.5039 0.695453 36.8036 0.986864 36.1632 1.08068C29.8153 2.01065 24.1249 4.45188 18.7918 7.99575C15.8385 9.99721 13.1722 12.3924 10.8668 15.1151C10.4465 15.6019 9.97821 16.073 9.57756 16.5727C5.40523 21.8156 2.57632 27.9981 1.3366 34.5829C1.09302 35.8103 0.88628 37.0326 0.621145 38.2602C0.474989 38.9371 0.499194 40.2082 0.460773 40.9105C0.202932 45.623 1.08526 50.4931 2.43425 54.9962C2.83179 56.3235 3.67723 58.9065 4.38506 60.1041C4.61884 60.8265 5.20978 61.7329 5.56927 62.4312C5.97792 63.2246 6.64603 64.6964 7.26261 65.3133ZM54.4623 26.1333C54.3564 26.3512 54.1934 26.594 54.474 26.7219C54.5144 26.4945 54.5074 26.4041 54.5023 26.175L54.4623 26.1333Z" fill="white"/>
<path d="M4.38506 60.1041C3.67723 58.9065 2.83179 56.3235 2.43425 54.9962C1.08526 50.4931 0.202932 45.623 0.460773 40.9105C0.499194 40.2082 0.474989 38.9371 0.621145 38.2602C0.88628 37.0326 1.09302 35.8103 1.3366 34.5829C2.57632 27.9981 5.40523 21.8156 9.57756 16.5727C9.97821 16.073 10.4465 15.6019 10.8668 15.1151C13.1722 12.3924 15.8385 9.99721 18.7918 7.99575C24.1249 4.45188 29.8153 2.01065 36.1632 1.08068C36.8036 0.986864 37.5039 0.695453 38.1341 0.628351C43.7543 0.0300079 49.9885 1.00919 55.3037 2.7535C62.1014 4.98079 68.2064 8.93056 73.0241 14.2182C74.003 15.2834 75.3674 16.9163 76.1795 18.1437C76.8689 19.0278 78.8954 22.1579 79.3098 23.1377C79.0148 22.9399 78.7863 22.2978 78.5577 21.9989C78.029 21.3071 77.5737 20.6006 77.1184 19.8586C77.0139 20.2242 76.6106 20.257 76.8768 20.8501C76.8996 21.0547 76.6933 21.2528 76.7876 21.4612C76.861 21.6242 76.4466 22.0104 76.5145 22.119C76.6473 22.331 77.3321 22.8612 77.1068 23.1795C77.1723 23.8324 76.7844 24.4458 76.1665 24.6669C75.5486 24.8879 74.8596 24.6598 74.4959 24.1137L74.4202 24.1349C74.4025 24.0917 74.3026 23.8433 74.2924 23.8273C74.1126 23.5469 74.3026 23.2062 74.121 23.0083C73.95 23.0178 73.4761 23.2691 73.3535 23.3856C73.1388 23.5892 73.3052 24.4665 73.2666 24.5862C73.1351 24.9791 73.0181 25.4432 72.9145 25.8272C72.8926 25.9078 72.4448 26.5279 72.3811 26.5969C71.806 27.2207 72.4782 27.3926 72.4452 27.9044C71.6805 26.3519 70.8178 24.7903 69.819 23.3747C69.2336 22.5453 68.5911 21.7513 67.9732 20.9454C65.169 17.85 62.6375 15.5722 58.9474 13.5528C57.9885 13.0279 57.0552 12.4832 56.0224 12.0936C55.0166 11.5888 53.4909 11.0736 52.4154 10.7353C45.8114 8.64643 38.7189 8.67974 32.1349 10.8305C23.6257 13.5658 16.5772 19.6133 12.5805 27.6078C8.61175 35.5409 7.93695 44.7204 10.7029 53.1486C12.1195 57.3711 14.1006 61.0119 17.008 64.4033C17.5301 65.0123 17.9692 65.5061 18.5377 66.0692C18.7549 66.2843 19.617 67.0913 19.7411 67.2641C21.3405 68.7377 23.1071 70.1114 24.9648 71.2306C25.2114 71.3792 25.4955 71.5349 25.7295 71.697C25.22 71.6905 24.073 70.6317 23.6075 70.4938C23.4501 70.8032 22.6192 71.0828 22.2948 71.2315C22.1963 71.2766 21.5815 71.0721 21.4245 71.1823C20.9704 71.3304 20.1507 71.6041 19.8201 71.939L19.8059 72.0189C20.0548 72.2605 20.2346 72.365 20.3029 72.7158C20.4557 73.5009 20.3775 74.1769 19.5984 74.5824C19.254 74.7195 18.9501 74.7009 18.6284 74.7901C18.1362 74.9267 17.2923 75.4033 16.9349 75.7527C17.2903 76.0379 17.657 76.3092 18.0341 76.5652C18.3517 76.7766 19.2752 77.2932 19.4015 77.6073C18.0352 76.7385 16.6565 75.7583 15.4674 74.6675C15.2595 74.477 15.047 74.332 14.839 74.1281C14.5169 73.8786 14.1695 73.5246 13.8634 73.2552C12.7123 72.2415 11.7431 71.1627 10.7863 69.9679C10.5253 69.6422 10.1764 69.3128 9.90578 68.9811C9.28004 68.2146 8.67888 67.4206 8.12041 66.6035C7.87609 66.2462 7.43767 65.6776 7.26261 65.3133C6.64603 64.6964 5.97792 63.2246 5.56927 62.4312C5.20978 61.7329 4.61884 60.8265 4.38506 60.1041ZM42.6913 5.41851C43.1722 5.3012 43.5531 4.93428 43.6879 4.45796C43.823 3.98164 43.6916 3.46954 43.3436 3.11731C42.9956 2.76507 42.4851 2.62718 42.007 2.75624C41.2809 2.95243 40.847 3.69639 41.0343 4.42526C41.2214 5.15412 41.9601 5.59685 42.6913 5.41851ZM21.7528 9.2382C21.8333 9.78295 22.0097 9.98058 22.3922 10.3657C24.418 11.4467 25.1906 8.81219 23.9786 8.2344L24.0525 8.1381C23.9063 7.67957 22.5049 7.77327 22.2711 8.11951L22.2874 8.22153L22.4237 8.31273L21.9384 8.58608C21.8197 8.85535 21.7813 8.94598 21.7528 9.2382ZM31.2271 4.59348C31.1906 4.68862 31.1564 4.79231 31.1081 4.88044C30.8801 5.56173 30.9352 5.93543 31.4681 6.39777C32.1715 6.79596 32.5332 6.85821 33.2364 6.4407C33.9123 5.95104 33.8791 5.59193 33.7317 4.83803C33.6794 4.64899 33.6774 4.62144 33.5751 4.45903C33.5423 4.41713 33.5082 4.37629 33.4727 4.33666C33.1407 3.97016 32.6896 3.95618 32.2334 3.93309L32.1987 3.86039C31.7539 3.78085 31.1589 4.13137 31.2271 4.59348ZM37.1275 3.01956C36.6804 3.15963 36.353 3.32474 36.127 3.77212C35.9698 4.08747 35.9441 4.45225 36.0554 4.7865C36.2577 5.39616 36.9228 5.88085 37.5687 5.77655C38.0505 5.52666 38.5027 5.20513 38.6685 4.65289C38.7653 4.31887 38.7217 3.9598 38.5477 3.65862C38.2457 3.13961 37.6886 2.99512 37.1275 3.01956ZM28.7002 7.85373C28.8763 7.66684 28.9257 7.42424 28.9836 7.18382C29.0119 6.93128 29.0362 6.7482 28.9663 6.50462C28.4823 5.12899 26.1617 5.34176 26.2979 7.20375C26.3581 7.44245 26.3735 7.5401 26.4884 7.76203C27.1218 8.5406 28.0378 8.68373 28.7002 7.85373Z" fill="white"/>
<path d="M69.0979 13.9318C69.7822 13.9026 69.8844 13.896 70.4628 14.2782C70.8688 14.4368 70.8024 14.8427 71.0338 15.1039C71.1648 15.0577 71.122 15.0735 71.2359 14.978C71.7339 15.0847 73.4013 15.4711 73.7971 15.7319C73.8561 15.7708 73.9021 15.7862 73.9718 15.7969L74.0758 15.756C74.0047 15.6592 73.693 15.2917 73.6935 15.2304C74.1678 15.579 75.5606 17.6208 76.0707 18.1575C76.0721 18.1591 76.159 18.1493 76.179 18.1434C76.8684 19.0275 78.8949 22.1576 79.3093 23.1374C79.0143 22.9396 78.7857 22.2975 78.5571 21.9986C78.0285 21.3068 77.5732 20.6004 77.1179 19.8583C77.0133 20.2239 76.6101 20.2567 76.8763 20.8498C76.8991 21.0544 76.6928 21.2525 76.7871 21.4609C76.8605 21.624 76.4461 22.0101 76.5139 22.1188C76.6468 22.3307 77.3316 22.8609 77.1063 23.1792C77.1718 23.8321 76.7838 24.4455 76.166 24.6666C75.5481 24.8876 74.8591 24.6595 74.4953 24.1134L74.4196 24.1346C74.402 24.0914 74.3021 23.8431 74.2918 23.827C74.1121 23.5467 74.3021 23.206 74.1204 23.008C73.9495 23.0175 73.4756 23.2689 73.3529 23.3853C73.1383 23.5889 73.3046 24.4662 73.2661 24.5859C73.1346 24.9788 73.0175 25.4429 72.9139 25.827C72.8921 25.9075 72.4442 26.5276 72.3806 26.5967C71.8054 27.2204 72.4777 27.3923 72.4447 27.9041C71.68 26.3516 70.8173 24.79 69.8184 23.3745C69.2331 22.5451 68.5905 21.751 67.9727 20.9451C68.2705 21.0735 68.5158 21.4894 68.7067 21.7535C69.4096 20.3553 68.3861 19.7624 68.3285 18.5527C68.2993 18.5205 68.2082 18.4239 68.1975 18.3859C68.0744 17.9392 68.4907 17.2333 68.5845 16.8102C68.7048 16.2675 68.5125 16.3386 68.2681 15.947C68.1153 15.7014 68.1329 15.384 68.1966 15.1276C68.204 15.0922 68.2119 15.0569 68.2207 15.0219C68.3522 14.493 68.6468 14.1976 69.0979 13.9318Z" fill="white"/>
<path d="M74.4954 24.1138C74.166 23.6191 74.1772 22.972 74.5237 22.489C74.8698 22.0059 75.4794 21.7878 76.0536 21.9414C76.6278 22.095 77.0473 22.588 77.1063 23.1796C77.1718 23.8325 76.7839 24.4459 76.166 24.667C75.5481 24.888 74.8592 24.6599 74.4954 24.1138Z" fill="#F05758"/>
<path d="M69.0985 13.9318C69.7829 13.9026 69.8851 13.896 70.4635 14.2782C70.6911 14.6324 71.0879 15.1899 70.9569 15.5865C70.561 16.7875 69.0874 17.1792 68.4063 15.9582C68.162 15.5191 68.2823 15.5136 68.1973 15.1276C68.2047 15.0922 68.2126 15.0569 68.2214 15.0219C68.3529 14.493 68.6474 14.1976 69.0985 13.9318Z" fill="#F05758"/>
<path d="M72.7789 17.7412C73.1023 17.7169 73.3095 17.6841 73.5882 17.8895C74.7394 18.7384 74.49 20.3603 73.008 20.5807C71.191 20.4131 70.6851 18.2968 72.7789 17.7412Z" fill="#F05758"/>
<path d="M19.74 67.2642C21.3394 68.7378 23.1061 70.1115 24.9637 71.2307C25.2103 71.3793 25.4944 71.535 25.7285 71.6971C25.219 71.6906 24.0719 70.6318 23.6065 70.4938C23.4491 70.8033 22.6182 71.0829 22.2938 71.2316C22.1953 71.2767 21.5804 71.0722 21.4234 71.1823C20.9693 71.3305 20.1496 71.6042 19.819 71.9391L19.8049 72.019C20.0538 72.2606 20.2335 72.3651 20.3018 72.7159C20.4547 73.501 20.3764 74.177 19.5974 74.5825L19.5323 74.5389C17.9719 75.0541 16.7196 73.4155 17.9674 72.0943L17.9246 72.0051C18.1083 71.8309 18.2186 71.7979 18.4603 71.7277C20.0891 71.2571 17.554 70.6365 17.5298 69.9178C17.525 69.7766 17.6608 68.9817 17.7301 68.9176C18.1183 68.5589 18.3406 68.5529 18.6566 68.9645C18.6635 68.9733 18.9621 68.9868 19.0569 69.0541L19.0482 69.253C19.083 69.312 19.7515 69.7998 19.8572 69.8843C20.4154 69.8941 20.9195 69.8685 21.4768 69.8416C21.762 69.6209 21.8034 69.6888 22.0193 69.5531C22.101 69.0091 19.9289 67.9262 19.74 67.2642Z" fill="white"/>
<path d="M17.9674 72.0942C19.6512 70.8139 21.344 73.4833 19.5323 74.5388C17.9719 75.054 16.7196 73.4154 17.9674 72.0942Z" fill="#F05758"/>
<path d="M14.8398 74.128L14.9132 74.0871C15.2804 74.3589 15.9179 75.0915 16.3156 75.0218C16.4643 74.8666 16.4195 74.954 16.4698 74.7579C16.4198 74.6037 16.3957 74.5726 16.3128 74.4392C16.411 74.3658 16.7665 74.3026 16.9278 74.2501C16.8974 74.1261 16.2602 73.7503 16.2595 73.4381C16.2591 73.288 16.355 73.1454 16.4152 73.0339C16.7204 72.469 16.9971 72.5884 17.5214 72.4035C17.5974 72.3765 17.8466 72.0945 17.9265 72.0049L17.9693 72.0941C16.7215 73.4153 17.9738 75.0539 19.5343 74.5386L19.5993 74.5823C19.2549 74.7194 18.951 74.7008 18.6293 74.79C18.1371 74.9266 17.2932 75.4032 16.9358 75.7526C17.2912 76.0378 17.6579 76.3091 18.035 76.5651C18.3526 76.7765 19.2761 77.2931 19.4024 77.6071C18.0361 76.7384 16.6574 75.7581 15.4683 74.6673C15.2604 74.4769 15.0479 74.3319 14.8398 74.128Z" fill="white"/>
<path d="M4.38477 60.1042L4.46806 60.0981C4.77901 60.6631 4.95587 61.2215 5.33525 61.7794C5.59494 62.1618 5.83169 62.5655 6.10226 62.9441C6.28289 63.2753 6.37623 63.6823 6.52847 64.0396C6.65971 64.3476 7.33878 65.0361 7.26232 65.3134C6.64573 64.6965 5.97762 63.2247 5.56897 62.4312C5.20948 61.733 4.61854 60.8266 4.38477 60.1042Z" fill="#2A261B"/>
<path d="M5.02786 51.2435C6.11725 51.1678 6.89231 51.8177 6.6038 53.0144C6.48812 53.4939 5.88626 53.8446 5.45374 54.049C5.12254 54.1034 4.87859 54.0755 4.56705 53.9315C4.23264 53.7731 3.97689 53.486 3.85861 53.1352C3.55701 52.2363 4.20342 51.5064 5.02786 51.2435Z" fill="#F05758"/>
<path d="M14.9642 68.4744C16.0397 68.4136 16.9214 69.3738 16.4839 70.4502C16.2874 70.9334 15.7557 71.1661 15.2953 71.3427C13.4505 71.2697 13.036 69.2159 14.9642 68.4744Z" fill="#F05758"/>
<path d="M3.65854 41.2571C4.42867 41.1287 5.15819 41.6454 5.2926 42.4145C5.42704 43.1836 4.91596 43.9172 4.14792 44.0575C3.37147 44.1992 2.62805 43.6816 2.49217 42.9039C2.35628 42.1263 2.87995 41.387 3.65854 41.2571Z" fill="#F05758"/>
<path d="M61.49 7.85265C62.696 7.82129 63.4765 9.02755 62.8187 10.0276C62.5952 10.3616 62.2519 10.5968 61.8602 10.6848C59.8579 10.7038 59.5299 8.20256 61.49 7.85265Z" fill="#F05758"/>
<path d="M65.4307 10.6702C66.1917 10.4765 66.9652 10.9372 67.1571 11.6983C67.3494 12.4595 66.8872 13.232 66.1257 13.4226C65.3662 13.6127 64.5964 13.152 64.4049 12.3931C64.2131 11.6341 64.6721 10.8633 65.4307 10.6702Z" fill="#F05758"/>
<path d="M11.5263 64.7627C11.9394 64.7813 12.2844 64.7929 12.6593 65.027C13.2984 65.4261 13.5219 66.4124 13.0665 67.0275C12.8251 67.3536 12.5411 67.467 12.1459 67.5283C10.1471 67.5757 9.80056 65.2607 11.5263 64.7627Z" fill="#F05758"/>
<path d="M18.8754 10.6177C19.6478 10.5769 20.3094 11.1648 20.3597 11.9366C20.4099 12.7085 19.8302 13.3772 19.0591 13.437C18.5517 13.4764 18.0624 13.2398 17.7782 12.8177C17.4938 12.3957 17.4585 11.8533 17.6856 11.398C17.9127 10.9426 18.3672 10.6445 18.8754 10.6177Z" fill="#F05758"/>
<path d="M8.64728 60.5745C10.8025 60.4286 10.9824 62.7329 9.42378 63.3447C9.13607 63.3642 8.88176 63.3549 8.60821 63.25C8.20013 63.0925 7.87757 62.7701 7.72022 62.3617C7.38767 61.5106 7.85086 60.8737 8.64728 60.5745Z" fill="#F05758"/>
<path d="M3.88417 46.3137C4.63437 46.106 5.41012 46.5483 5.61384 47.2995C5.8176 48.0507 5.37165 48.8242 4.6195 49.0245C3.87246 49.2233 3.10521 48.781 2.90284 48.0349C2.70047 47.2888 3.13908 46.5195 3.88417 46.3137Z" fill="#F05758"/>
<path d="M14.8057 13.9381C16.2004 13.8791 16.5991 14.4331 16.5284 15.788C16.199 16.2977 15.9618 16.4328 15.4289 16.6976C14.7535 16.8314 14.093 16.3566 13.7565 15.8017C13.6811 14.9434 13.9409 14.2581 14.8057 13.9381Z" fill="#F05758"/>
<path d="M11.4353 17.7886C12.1754 17.5722 12.9512 17.9948 13.1706 18.7341C13.3901 19.4732 12.9705 20.2507 12.2322 20.4731C11.4896 20.6968 10.7067 20.2744 10.486 19.5309C10.2653 18.7874 10.691 18.0063 11.4353 17.7886Z" fill="#F05758"/>
<path d="M52.0533 3.97458C52.8031 3.81542 53.5409 4.29007 53.7063 5.03812C53.8721 5.78617 53.4038 6.52799 52.6573 6.7003C51.9014 6.87475 51.1483 6.39945 50.9806 5.64206C50.8129 4.88467 51.2946 4.13574 52.0533 3.97458Z" fill="#F05758"/>
<path d="M4.92566 31.2847C5.68283 31.1185 6.43024 31.6018 6.58932 32.3605C6.74839 33.1192 6.25798 33.862 5.49779 34.0138C4.74768 34.1636 4.01695 33.6812 3.86001 32.9326C3.70308 32.184 4.17857 31.4487 4.92566 31.2847Z" fill="#F05758"/>
<path d="M8.74163 21.9185C10.5487 21.8228 11.1052 24.0744 9.35575 24.8083C9.14446 24.8338 8.9301 24.8119 8.72834 24.7441C8.33809 24.6189 8.01809 24.3362 7.84578 23.9643C7.41154 23.0483 7.89628 22.3098 8.74163 21.9185Z" fill="#F05758"/>
<path d="M3.84994 36.2867C4.3292 36.1422 4.84916 36.2668 5.21088 36.6128C5.57265 36.9587 5.72029 37.4726 5.59736 37.9578C5.47439 38.443 5.09989 38.8246 4.61706 38.9566C3.88377 39.157 3.12557 38.7308 2.91568 38.0003C2.70578 37.2696 3.12209 36.506 3.84994 36.2867Z" fill="#F05758"/>
<path d="M6.47937 26.504C7.21349 26.2906 7.9819 26.711 8.19807 27.4443C8.41429 28.1775 7.99677 28.9476 7.26432 29.1665C6.52796 29.3867 5.75286 28.9664 5.53553 28.2292C5.3182 27.492 5.74134 26.7186 6.47937 26.504Z" fill="#F05758"/>
<path d="M47.1375 3.03306C47.8864 2.88374 48.6144 3.36987 48.7636 4.11871C48.9127 4.86755 48.4263 5.59539 47.6774 5.74419C46.9289 5.8929 46.2014 5.40682 46.0523 4.65835C45.9032 3.90988 46.3891 3.18232 47.1375 3.03306Z" fill="#F05758"/>
<path d="M6.25503 56.1204C8.21322 55.8765 8.96347 57.8124 7.32941 58.7332C5.69879 59.2837 4.55504 56.9311 6.25503 56.1204Z" fill="#F05758"/>
<path d="M56.8023 5.68251C57.285 5.57306 57.7895 5.73148 58.1231 6.09733C58.4567 6.46322 58.5677 6.9801 58.4144 7.4508C58.2606 7.92146 57.8662 8.27333 57.3807 8.37214C56.642 8.52257 55.9201 8.05047 55.7616 7.31348C55.6027 6.57653 56.0669 5.8492 56.8023 5.68251Z" fill="#F05758"/>
<path d="M42.0084 2.75631C42.4865 2.62725 42.9971 2.76513 43.345 3.11737C43.693 3.46961 43.8245 3.9817 43.6893 4.45803C43.5546 4.93435 43.1736 5.30127 42.6928 5.41857C41.9615 5.59692 41.2228 5.15418 41.0358 4.42532C40.8484 3.69646 41.2823 2.95249 42.0084 2.75631Z" fill="#F05758"/>
<path d="M37.1267 3.01991C37.6877 2.99548 38.2449 3.13996 38.5468 3.65897C38.7208 3.96015 38.7644 4.31922 38.6676 4.65325C38.5018 5.20548 38.0496 5.52701 37.5678 5.7769C36.9219 5.8812 36.2568 5.39651 36.0545 4.78686C35.9432 4.4526 35.9689 4.08782 36.1261 3.77247C36.3521 3.32509 36.6795 3.15998 37.1267 3.01991Z" fill="#F05758"/>
<path d="M22.4228 8.3126C22.88 8.15613 23.5013 8.20268 23.9778 8.23427C25.1897 8.81206 24.4172 11.4465 22.3913 10.3655C22.0088 9.98045 21.8325 9.78282 21.752 9.23807C21.7804 8.94585 21.8188 8.85522 21.9376 8.58595L22.4228 8.3126Z" fill="#F05758"/>
<path d="M26.2987 7.20375C26.1626 5.34175 28.4831 5.12898 28.9671 6.50461L28.9125 6.55191L28.88 6.45556C28.6362 6.36469 27.628 6.36143 27.5383 6.45802C27.1096 6.9198 27.3866 7.04142 26.5887 7.02005L26.5051 7.01769L26.5184 7.05796C26.7738 7.14293 26.975 7.12895 27.1078 7.18172C26.838 7.2273 26.5712 7.2135 26.2987 7.20375Z" fill="#F05758"/>
<path d="M32.5966 6.10432C32.7354 6.06242 32.8297 6.05317 32.9171 5.94117C32.7334 5.7388 31.6084 5.87933 31.4316 5.73717C31.469 5.70386 31.8023 5.54786 31.8334 5.5435C32.0791 5.50902 32.2627 5.1258 32.374 5.08645C32.6884 4.97542 33.4107 4.79038 33.7319 4.838C33.8793 5.5919 33.9126 5.95102 33.2366 6.44067C32.9103 6.14456 32.9073 6.37628 32.6152 6.2338L32.5966 6.10432Z" fill="#F05758"/>
<path d="M33.5745 4.45923C33.6769 4.62164 33.6788 4.64919 33.7311 4.83822C33.4099 4.79061 32.6876 4.97564 32.3733 5.08668C32.262 5.12603 32.0783 5.50925 31.8326 5.54372C31.8015 5.54809 31.4683 5.70409 31.4309 5.7374C31.6076 5.87956 32.7326 5.73903 32.9163 5.94139C32.829 6.0534 32.7347 6.06264 32.5958 6.10455C32.3502 6.11045 31.7247 6.14083 31.6044 6.30469C31.5972 6.31458 31.4888 6.38766 31.4675 6.39797C30.9347 5.93563 30.8796 5.56193 31.1076 4.88064C31.1523 4.90819 31.2047 4.94391 31.2562 4.95906C31.4922 5.02833 33.348 4.59962 33.5745 4.45923Z" fill="#F05758"/>
<path d="M32.2346 3.93311C32.6909 3.95619 33.1419 3.97018 33.4739 4.33668C33.5094 4.3763 33.5436 4.41714 33.5763 4.45904C33.3498 4.59944 31.494 5.02814 31.258 4.95888C31.2065 4.94373 31.1541 4.908 31.1094 4.88046C31.1576 4.79233 31.1919 4.68864 31.2284 4.59349C31.5841 4.19522 31.7222 4.05691 32.2346 3.93311Z" fill="#F05758"/>
<path d="M27.1079 7.18164C27.4501 7.23042 28.5584 7.1828 28.9845 7.18373C28.9266 7.42415 28.8772 7.66674 28.7011 7.85364C28.6447 7.81643 28.5961 7.79515 28.5356 7.76486C27.9067 7.8489 27.1654 7.64965 26.4893 7.76193C26.3745 7.54001 26.359 7.44236 26.2988 7.20366C26.5713 7.21342 26.8381 7.22721 27.1079 7.18164Z" fill="#F05758"/>
<path d="M27.1066 7.18195C26.9738 7.12918 26.7726 7.14316 26.5172 7.05819L26.5039 7.01791L26.5875 7.02028C27.3854 7.04165 27.1084 6.92003 27.5371 6.45825C27.6268 6.36166 28.635 6.36491 28.8788 6.45578L28.9113 6.55213L28.9659 6.50484C29.0359 6.74842 29.0116 6.9315 28.9832 7.18404C28.5571 7.18311 27.4488 7.23073 27.1066 7.18195Z" fill="#F05758"/>
<path d="M26.4883 7.76233C27.1644 7.65004 27.9057 7.84929 28.5346 7.76525C28.5951 7.79554 28.6437 7.81682 28.7001 7.85403C28.0377 8.68403 27.1217 8.5409 26.4883 7.76233Z" fill="#F05758"/>
<path d="M31.4668 6.39791C31.488 6.3876 31.5965 6.31452 31.6037 6.30463C31.7239 6.14078 32.3494 6.11039 32.5951 6.10449L32.6137 6.23397C32.9058 6.37645 32.9088 6.14472 33.2351 6.44084C32.532 6.85835 32.1702 6.7961 31.4668 6.39791Z" fill="#F05758"/>
<path d="M22.4241 8.31278L22.2878 8.22159L22.2715 8.11957C22.5053 7.77332 23.9067 7.67962 24.0529 8.13815L23.979 8.23446C23.5026 8.20287 22.8812 8.15632 22.4241 8.31278Z" fill="#F05758"/>
<path d="M21.6883 9.84324C21.6625 9.66601 21.5823 9.28125 21.696 9.15112L21.7532 9.23823C21.8337 9.78298 22.01 9.98061 22.3925 10.3657L22.3356 10.4081C22.0134 10.2608 21.8991 10.1148 21.6883 9.84324Z" fill="#F05758"/>
<path d="M31.2261 4.59375C31.1579 4.13165 31.7529 3.78113 32.1977 3.86066L32.2324 3.93337C31.7199 4.05718 31.5818 4.19548 31.2261 4.59375Z" fill="#F05758"/>
<path d="M4.38281 59.4858L4.54305 59.5244C4.73775 59.6902 4.74909 59.7878 4.77176 60.0466C4.51215 59.9648 4.38588 59.7451 4.38281 59.4858Z" fill="#2A261B"/>
<path d="M77.1055 23.1795C77.3308 22.8612 76.6461 22.3311 76.5132 22.1191C76.4454 22.0104 76.8598 21.6243 76.7864 21.4612C76.692 21.2529 76.8983 21.0547 76.8755 20.8502C76.6093 20.257 77.0126 20.2242 77.1171 19.8586C77.5724 20.6007 78.0277 21.3072 78.5564 21.999C78.785 22.2978 79.0135 22.9399 79.3085 23.1378C80.7269 25.6763 81.6909 28.3737 82.5123 31.1425C82.6568 31.6293 83.1534 33.1791 83.1376 33.6598C83.4651 34.7109 83.8777 36.5708 84.064 37.7013C84.0872 37.8952 84.1638 38.6874 84.2098 38.8124C84.7947 39.4335 84.4979 41.7966 84.4496 42.6081C84.5513 43.1837 84.3896 45.8786 84.2549 46.4588C84.2145 46.7589 84.1383 47.2235 84.135 47.5106C83.9385 48.8769 83.6017 50.0123 83.3388 51.3271C82.8101 53.97 82.1034 56.0801 81.0493 58.546C78.1355 65.5494 73.4214 71.6576 67.3851 76.2503C63.1677 79.3402 58.429 81.6458 53.3948 83.0576C51.4055 83.6198 49.1797 84.0695 47.1398 84.41C45.3906 84.7022 43.4482 84.5837 41.674 84.5926C41.3158 84.5893 40.874 84.6023 40.5319 84.547C39.5071 84.5419 38.4837 84.4709 37.4681 84.3338C36.354 84.214 33.9845 83.7224 32.874 83.4558C32.7069 83.4488 32.0035 83.2607 31.8061 83.2109C29.1612 82.5457 26.6617 81.492 24.2217 80.2916C22.9102 79.6463 21.6211 79.1134 20.4003 78.2642C20.136 78.0802 19.6186 77.808 19.4002 77.6073C19.2739 77.2933 18.3504 76.7767 18.0328 76.5653C17.6557 76.3093 17.289 76.038 16.9336 75.7527C17.291 75.4034 18.1349 74.9267 18.6271 74.7902C18.9488 74.701 19.2527 74.7195 19.5971 74.5825C20.3762 74.1769 20.4544 73.501 20.3016 72.7158C20.2333 72.3651 20.0535 72.2606 19.8046 72.019L19.8188 71.9391C20.1494 71.6041 20.9691 71.3305 21.4232 71.1823C21.5802 71.0722 22.195 71.2766 22.2935 71.2316C22.6179 71.0829 23.4488 70.8032 23.6062 70.4938C24.0717 70.6318 25.2187 71.6905 25.7282 71.6971C26.2005 71.92 26.7354 72.2299 27.2018 72.4789C29.0092 73.4448 30.9533 74.0905 32.8971 74.7191C33.0364 74.7641 33.3589 74.8436 33.468 74.9058C34.1797 75.0122 35.3759 75.349 36.1711 75.5014C38.5256 75.972 40.9249 76.1801 43.3251 76.1221C48.2176 75.9934 53.7261 74.5128 58.01 72.196C58.6339 71.8583 59.2104 71.6102 59.826 71.2316C60.9735 70.5403 61.9519 69.62 63.0144 68.8135C66.863 65.8918 69.9482 61.9457 72.2298 57.707C72.9094 56.4448 73.4957 54.8225 73.9626 53.465C75.152 50.1117 75.7592 46.5801 75.7587 43.022C75.7699 41.7791 75.7285 40.5992 75.5938 39.3646C75.5218 38.7029 75.3067 37.7947 75.3057 37.1582C75.2602 37.0039 75.1994 36.569 75.1701 36.3884C75.1074 36.0688 75.0465 35.7805 74.9685 35.4645C74.9647 35.3613 74.9313 35.2582 74.9062 35.1555C74.8839 34.9164 74.7794 34.5701 74.7306 34.3199C74.3896 32.5717 73.6904 30.9334 73.0878 29.2658C72.9373 28.8496 72.6307 28.4126 72.4746 27.9896L72.4439 27.9044C72.4769 27.3926 71.8047 27.2207 72.3798 26.597C72.4435 26.5279 72.8913 25.9079 72.9132 25.8273C73.0168 25.4433 73.1338 24.9792 73.2653 24.5862C73.3039 24.4666 73.1376 23.5893 73.3522 23.3856C73.4748 23.2692 73.9487 23.0178 74.1197 23.0083C74.3013 23.2063 74.1113 23.547 74.2911 23.8273C74.3013 23.8434 74.4012 24.0918 74.4189 24.1349L74.4946 24.1138C74.8584 24.6599 75.5473 24.888 76.1652 24.6669C76.7831 24.4459 77.171 23.8324 77.1055 23.1795Z" fill="white"/>
<path d="M19.5971 74.5828C20.3762 74.1772 20.4544 73.5013 20.3016 72.7162C20.2333 72.3654 20.0535 72.2609 19.8046 72.0193L19.8188 71.9394C20.1494 71.6045 20.9691 71.3308 21.4232 71.1826C21.5802 71.0725 22.195 71.2769 22.2935 71.2319C22.6179 71.0832 23.4488 70.8035 23.6062 70.4941C24.0717 70.6321 25.2187 71.6909 25.7282 71.6974C26.2005 71.9204 26.7354 72.2302 27.2018 72.4792C29.0092 73.4451 30.9533 74.0908 32.8971 74.7194C33.0364 74.7645 33.3589 74.8439 33.468 74.9062C33.7056 75.2058 36.9021 75.6959 37.4775 75.8121C39.6282 76.2474 41.7442 76.1577 43.917 76.1791C43.8431 76.2464 43.425 76.6525 43.4194 76.6543C42.4921 76.9707 41.8222 77.2146 41.7339 78.3198C41.726 78.4188 40.9096 78.7946 40.8065 78.9219C40.6221 79.1221 39.9837 78.9386 40.0583 79.2578C40.0669 79.2945 40.0127 79.5226 40.003 79.5611C40.1262 79.9105 40.6181 79.6754 40.8773 79.5848L40.9858 79.6243L41.0245 79.7419L41.0593 79.7177C41.1741 79.6406 41.1932 79.6188 41.3325 79.5978L41.4022 79.6383C41.3256 79.8812 41.0685 80.075 41.0243 80.1823C40.9276 80.416 40.9312 80.8694 40.7146 81.1063C40.2759 81.1611 39.4128 81.3312 39.0335 81.3079L38.941 81.4849C38.8849 81.2986 38.9719 80.6961 38.892 80.409C38.6839 79.661 37.7019 79.2411 36.9961 79.3433C35.8264 79.5128 35.3817 81.5658 36.5365 82.0889C36.7191 82.1716 36.912 82.2919 37.074 82.3973L37.0855 82.448L36.9983 82.4759L37.1083 82.6022C37.0723 83.0993 36.0144 83.3056 36.4037 83.9453C35.5542 83.7808 35.0567 83.6294 34.1795 83.5787L34.211 83.5941C33.8314 83.5634 33.1346 83.405 32.874 83.4561C32.7069 83.4491 32.0035 83.261 31.8061 83.2113C29.1612 82.546 26.6617 81.4924 24.2217 80.2919C22.9102 79.6466 21.6211 79.1138 20.4003 78.2645C20.136 78.0806 19.6186 77.8083 19.4002 77.6076C19.2739 77.2936 18.3504 76.777 18.0328 76.5656C17.6557 76.3096 17.289 76.0383 16.9336 75.7531C17.291 75.4037 18.1349 74.9271 18.6271 74.7905C18.9488 74.7013 19.2527 74.7199 19.5971 74.5828Z" fill="white"/>
<path d="M32.2475 78.5171C33.5547 78.5352 33.9173 79.1666 33.8586 80.3898C33.5028 80.9198 33.1544 81.1308 32.5892 81.3589C31.8468 81.4857 31.146 80.9844 31.0036 80.2458C30.9235 79.849 31.0109 79.4374 31.2453 79.1076C31.4959 78.7536 31.8331 78.5905 32.2475 78.5171Z" fill="#F05758"/>
<path d="M22.5684 74.7241C23.0532 74.5355 23.6023 74.6256 24.0014 74.9596C24.4006 75.2932 24.5866 75.8177 24.4869 76.3282C24.3872 76.8388 24.0175 77.2546 23.5222 77.4135C22.7876 77.6495 21.9985 77.2588 21.7406 76.5317C21.4828 75.8047 21.8494 75.0042 22.5684 74.7241Z" fill="#F05758"/>
<path d="M27.4792 76.8265C28.2451 76.7243 28.9509 77.2563 29.0639 78.021C29.177 78.7852 28.6554 79.4987 27.8928 79.6228C27.3894 79.7046 26.881 79.5094 26.5622 79.1113C26.2434 78.7132 26.1638 78.1743 26.3537 77.7013C26.5436 77.2279 26.9737 76.8934 27.4792 76.8265Z" fill="#F05758"/>
<path d="M77.1057 23.1795C77.3311 22.8612 76.6463 22.3311 76.5134 22.1191C76.4456 22.0104 76.86 21.6243 76.7866 21.4612C76.6923 21.2529 76.8985 21.0547 76.8758 20.8502C76.6096 20.257 77.0128 20.2242 77.1174 19.8586C77.5726 20.6007 78.0279 21.3072 78.5566 21.999C78.7852 22.2978 79.0138 22.9399 79.3088 23.1378C80.7271 25.6763 81.6911 28.3737 82.5125 31.1425C82.657 31.6293 83.1536 33.1791 83.1378 33.6598C83.0077 33.9719 83.3822 34.4978 83.2967 34.6C82.9794 34.9789 82.6189 35.2812 82.4893 35.789C82.4312 36.0015 82.1687 36.8403 82.2198 37.0135C82.4117 37.6585 82.3132 37.344 82.0433 37.9325C81.9852 36.7417 81.6433 36.1828 80.3545 36.025C80.1524 36.0003 79.384 36.4851 79.2874 36.6215C78.7987 37.3092 78.8395 38.3151 79.5949 38.8058C79.7515 38.9121 80.1603 39.1059 80.2124 39.2108C79.6502 40.0694 78.001 40.6615 77.5271 41.6655C77.4723 41.7819 77.4379 42.0545 77.4203 42.1907L77.3315 42.1909C77.115 42.4085 76.886 42.7144 76.7898 43.012C76.6361 43.4856 76.1213 44.1411 75.8203 44.543L75.7835 44.5327C75.8806 42.3651 75.8509 40.2041 75.5053 38.0573C75.4709 37.8426 75.4309 37.2941 75.306 37.1582C75.2604 37.0039 75.1996 36.569 75.1703 36.3884C75.1076 36.0688 75.0467 35.7805 74.9687 35.4645C74.965 35.3613 74.9315 35.2582 74.9064 35.1555C74.8841 34.9164 74.7796 34.5701 74.7308 34.3199C74.3898 32.5717 73.6906 30.9334 73.0881 29.2658C72.9375 28.8496 72.6309 28.4126 72.4748 27.9896L72.4442 27.9044C72.4771 27.3926 71.8049 27.2207 72.38 26.597C72.4437 26.5279 72.8916 25.9079 72.9134 25.8273C73.017 25.4433 73.1341 24.9792 73.2655 24.5862C73.3041 24.4666 73.1378 23.5893 73.3524 23.3856C73.4751 23.2692 73.9489 23.0178 74.1199 23.0083C74.3015 23.2063 74.1115 23.547 74.2913 23.8273C74.3015 23.8434 74.4014 24.0918 74.4191 24.1349L74.4948 24.1138C74.8586 24.6599 75.5475 24.888 76.1654 24.6669C76.7833 24.4459 77.1712 23.8324 77.1057 23.1795Z" fill="white"/>
<path d="M77.7891 26.4747C78.5635 26.3998 79.2548 26.9603 79.3417 27.7335C79.4286 28.5067 78.8785 29.2065 78.1069 29.3051C77.5968 29.3703 77.0913 29.1557 76.7842 28.7435C76.4771 28.3313 76.4158 27.7856 76.6239 27.3156C76.8321 26.8456 77.2776 26.5242 77.7891 26.4747Z" fill="#F05758"/>
<path d="M79.1559 31.296C79.8992 31.0808 80.6765 31.5102 80.8902 32.2543C81.1039 32.9983 80.6732 33.7746 79.9285 33.9869C79.1861 34.1986 78.4126 33.7692 78.1993 33.0272C77.9861 32.2851 78.414 31.5106 79.1559 31.296Z" fill="#F05758"/>
<path d="M32.875 83.4554C33.1356 83.4043 33.8324 83.5627 34.212 83.5934L34.1805 83.578C35.0577 83.6287 35.5552 83.7801 36.4047 83.9446C36.4481 83.9441 37.3087 84.2354 37.5541 84.273C37.8676 84.2447 38.4449 83.2384 38.9065 83.5176C39.2049 83.6979 39.259 84.195 39.5259 84.4036C39.9074 84.4788 40.0921 84.3562 40.5329 84.5467C39.5081 84.5415 38.4847 84.4705 37.4691 84.3334C36.355 84.2136 33.9855 83.722 32.875 83.4554Z" fill="#9D8D75"/>
<path d="M84.2116 38.8125C84.7965 39.4336 84.4997 41.7967 84.4513 42.6082C84.4132 42.6364 84.4077 42.6598 84.3803 42.7055C84.3988 42.8546 84.4077 42.8717 84.3844 43.0242C84.3858 42.9132 84.2938 41.4873 84.2767 41.4393C84.2423 40.7873 84.128 39.3813 84.2116 38.8125Z" fill="#D6CB9A"/>
<path d="M84.2766 41.4392C84.2938 41.4872 84.3858 42.9131 84.3844 43.0241C84.4077 42.8717 84.3988 42.8546 84.3802 42.7054C84.4076 42.6597 84.4132 42.6364 84.4513 42.6081C84.5531 43.1837 84.3914 45.8786 84.2567 46.4589L84.1828 46.2438L84.1707 46.261C84.1052 45.5586 84.2836 44.0896 84.2808 43.3124C84.279 42.7687 84.2427 41.9436 84.2766 41.4392Z" fill="#D1BC92"/>
<path d="M72.8315 64.5272C73.5813 64.5151 74.1276 64.819 74.4092 65.5284C74.8352 66.6024 74.2684 67.185 73.3351 67.5423C72.9759 67.5725 72.7037 67.5279 72.3901 67.3448C72.0059 67.1172 71.7318 66.7413 71.6333 66.306C71.4345 65.4182 71.9687 64.7163 72.8315 64.5272Z" fill="#F05758"/>
<path d="M65.3653 71.75C66.1468 71.5474 66.943 72.0204 67.1391 72.8032C67.3347 73.586 66.8552 74.3785 66.0706 74.5676C65.5633 74.6902 65.0285 74.5309 64.6713 74.1504C64.3135 73.7695 64.1881 73.2259 64.3419 72.727C64.4905 72.2461 64.878 71.8764 65.3653 71.75Z" fill="#F05758"/>
<path d="M36.9548 79.4848C37.7149 79.2409 38.5291 79.6567 38.778 80.4149C39.0269 81.1731 38.6171 81.9902 37.8605 82.2444C37.0964 82.5013 36.2695 82.0864 36.0181 81.3208C35.7668 80.5547 36.1872 79.7306 36.9548 79.4848Z" fill="#F05758"/>
<path d="M52.099 78.4629C53.9954 78.5433 54.4734 80.7249 52.5631 81.3813C50.6773 81.7218 50.2439 78.8675 52.099 78.4629Z" fill="#F05758"/>
<path d="M80.1105 36.2174C80.6141 36.0724 81.1568 36.2111 81.5289 36.5801C81.901 36.949 82.0446 37.4904 81.9038 37.9952C81.7635 38.5 81.3607 38.8893 80.8511 39.0125C80.0868 39.1976 79.3143 38.7377 79.1131 37.9773C78.9115 37.217 79.3547 36.4351 80.1105 36.2174Z" fill="#F05758"/>
<path d="M69.1275 68.5231C70.9779 68.4236 71.8769 70.1899 69.9605 71.2859C69.1521 71.5386 68.5723 71.041 68.1175 70.4352C68.0143 69.4192 68.1421 68.9695 69.1275 68.5231Z" fill="#F05758"/>
<path d="M77.6385 55.9539C78.4018 55.7672 79.173 56.2308 79.3663 56.9922C79.5595 57.7537 79.1029 58.5286 78.3433 58.7288C77.5739 58.9314 76.7869 58.4677 76.5914 57.6965C76.3953 56.9253 76.8659 56.1425 77.6385 55.9539Z" fill="#F05758"/>
<path d="M80.4537 46.2755C80.7227 46.2671 80.9666 46.3071 81.2096 46.4297C81.5798 46.6137 81.8581 46.9421 81.9789 47.3379C82.2665 48.2559 81.5673 48.8599 80.7575 49.094C78.8477 49.1934 78.4467 46.5881 80.4537 46.2755Z" fill="#F05758"/>
<path d="M42.0742 79.7784C42.8514 79.6381 43.5952 80.1547 43.7351 80.9323C43.8744 81.71 43.3569 82.4533 42.5792 82.5923C41.8024 82.7307 41.0605 82.2141 40.9212 81.4373C40.7818 80.661 41.2979 79.9187 42.0742 79.7784Z" fill="#F05758"/>
<path d="M61.2875 74.5641C62.0522 74.4071 62.8011 74.8939 62.9683 75.6568C63.1356 76.4191 62.6589 77.1745 61.8989 77.352C61.3976 77.4695 60.8722 77.3078 60.5237 76.9288C60.1753 76.5501 60.0573 76.0136 60.2157 75.5234C60.3737 75.0338 60.7834 74.6672 61.2875 74.5641Z" fill="#F05758"/>
<path d="M47.0189 79.4445C47.2386 79.4376 47.5917 79.4608 47.798 79.5356C48.2463 79.6931 48.6063 80.0336 48.7885 80.4726C49.1146 81.2694 48.6653 81.9188 47.9118 82.2045C47.1039 82.3709 46.5357 82.0935 46.0855 81.4268C45.9754 80.6111 46.066 79.6629 47.0189 79.4445Z" fill="#F05758"/>
<path d="M56.7343 76.73C57.2281 76.5902 57.7587 76.7277 58.1225 77.0901C58.4862 77.452 58.6261 77.9825 58.4881 78.4768C58.3506 78.9711 57.9566 79.3525 57.4581 79.4747C56.7064 79.6587 55.9454 79.2062 55.7485 78.4578C55.551 77.7093 55.9896 76.9405 56.7343 76.73Z" fill="#F05758"/>
<path d="M80.4171 41.2002C82.1992 41.0549 83.185 43.356 81.2607 43.9776C79.5687 44.3869 78.6094 42.2779 80.4171 41.2002Z" fill="#F05758"/>
<path d="M75.422 60.5811C77.2134 60.6029 77.7021 62.8449 75.7881 63.4818C74.1049 63.348 73.3542 60.9067 75.422 60.5811Z" fill="#F05758"/>
<path d="M79.212 51.2414C79.5567 51.2219 79.8373 51.2135 80.1578 51.3603C80.5211 51.5238 80.8036 51.8277 80.9402 52.2026C81.0619 52.5375 81.0373 52.9083 80.8719 53.2242C80.6675 53.6111 80.3376 53.7923 79.9386 53.9168C79.2696 53.9763 78.5444 53.9182 78.2442 53.2251C77.8452 52.3034 78.3804 51.5698 79.212 51.2414Z" fill="#F05758"/>
<path d="M40.8432 78.9593C41.0155 78.9133 40.9744 78.898 41.1227 78.9407C41.0578 79.055 41.0318 79.0346 40.8831 79.1019C40.8257 79.1572 40.7688 79.2129 40.7124 79.2692L40.6367 79.2515C40.6801 79.0736 40.6889 79.1117 40.8432 78.9593Z" fill="#9D8D75"/>
<path d="M56.0227 12.0935C57.0555 12.4831 57.9888 13.0278 58.9477 13.5527C62.6379 15.5722 65.1693 17.8499 67.9735 20.9453C68.5914 21.7512 69.2339 22.5453 69.8193 23.3747C70.8182 24.7902 71.6809 26.3518 72.4456 27.9043L72.4762 27.9895C72.6323 28.4125 72.9389 28.8495 73.0895 29.2657C73.692 30.9333 74.3912 32.5716 74.7322 34.3197C74.781 34.57 74.8855 34.9162 74.9078 35.1553L74.8265 35.1213C74.7815 34.9518 74.7336 34.783 74.6825 34.6151L74.6458 34.6138C74.4944 34.7649 74.4451 35.029 74.4219 35.2355C74.5004 35.3842 74.4423 35.3221 74.6342 35.3941C74.6337 35.616 74.4762 36.008 74.4967 36.2405C74.5009 36.2866 74.6435 36.447 74.6398 36.6251L74.5362 36.6369C74.3271 36.4492 74.4707 35.7701 74.3494 35.5472C74.3861 35.5119 73.8026 36.3482 73.8119 36.33C73.5141 36.9293 73.2711 37.5744 73.0978 38.2201C73.0662 38.1037 73.0913 38.1566 73.0226 38.0609C72.7169 38.2081 72.8098 38.8205 72.5236 39.0583C72.3629 39.1919 71.8834 39.0637 71.6177 39.0416C71.4031 38.8186 71.0569 37.8318 70.7415 37.5758C70.0892 37.0461 69.9661 37.358 69.3324 36.597C69.2572 36.3011 69.4411 36.0672 69.5303 35.7934C69.5257 35.8072 69.5643 35.662 69.5564 35.6566C69.2488 35.4431 69.0908 35.4894 68.9296 35.1737L68.8349 35.2312C68.6453 35.1016 68.4493 34.818 68.3062 34.686C68.1914 34.5803 67.7919 34.6479 67.6102 34.4506C67.2832 34.0963 67.4035 33.7542 66.9598 33.5529C66.8753 33.616 66.918 33.5901 66.833 33.6331C66.7996 33.5601 66.6876 33.3062 66.6397 33.2783C66.4795 33.1841 65.856 32.7441 65.7241 32.7541C65.6651 32.8658 65.6186 32.9636 65.5661 33.0774C65.5085 33.0021 65.076 32.4509 65.0472 32.4393C64.7136 32.305 64.5357 32.4855 64.1826 32.1547C64.2225 32.0351 64.2262 32.0326 64.2337 31.9081C63.3008 30.9796 64.4627 30.3633 62.6086 30.3242C62.9189 30.2538 63.6423 30.3798 63.7027 30.052C63.8053 29.4949 63.7645 29.4498 63.2465 29.3932C63.3682 29.3375 63.4815 29.3372 63.6153 29.3237C63.5628 29.1146 63.6204 29.1931 63.4374 29.0798L63.4151 28.9552C63.6297 28.4598 63.4165 28.514 63.3222 27.9218L63.3138 27.8649C63.0397 27.5942 62.8497 27.4937 62.9203 27.0821C63.2195 27.0863 63.5303 27.0802 63.8304 27.0781C63.7106 25.9597 63.7724 24.2185 63.7877 23.0398C63.8146 21.0048 63.7296 19.8413 61.3175 19.597C60.2722 19.4911 59.5744 20.1052 58.8506 20.7861L58.9092 19.8755C58.6295 19.8643 58.3433 19.8754 58.0632 19.8811C58.0892 20.2525 58.1022 20.6248 58.1008 20.9971L58.0641 21.0025C57.9809 21.0895 58.0167 21.151 58.02 21.318L57.961 21.3232C57.8508 21.199 57.6278 20.5553 57.3835 20.3981C57.3319 20.3647 57.3593 20.2715 57.3747 20.2125C57.5043 20.3273 57.4406 20.3167 57.5684 20.3194C57.6116 20.2137 57.6046 20.2678 57.5707 20.1531C57.4039 20.0574 57.4759 20.0794 57.2501 20.1164L57.127 19.9979C57.1498 19.8658 57.1647 19.9248 57.1071 19.8137C56.9091 19.7499 56.5598 19.7676 56.3117 19.7501C56.4636 19.7105 56.492 19.7024 56.6341 19.6382L56.6095 19.573L56.5807 19.6662L56.6179 19.5882C55.8866 18.881 55.4555 19.1558 54.5156 18.9783C54.4302 18.9622 53.8336 18.6078 53.7528 18.5398C53.2594 18.1252 52.8636 17.2493 52.4724 16.7752C52.1551 16.391 51.1893 15.9357 50.9407 15.4743C50.8803 15.3622 50.6308 14.9204 50.5161 14.8279C50.485 14.8028 50.3395 14.9151 50.1421 14.8444C50.052 14.6009 49.8248 14.515 49.6543 14.0968C49.71 13.8077 49.8508 13.4876 50.0037 13.2376C50.0933 13.2177 50.1407 13.2061 50.2276 13.1766C50.1305 12.9416 49.6905 12.6161 50.0534 12.3378C50.2703 12.4328 50.4613 12.2294 50.7493 12.2761C50.7818 12.3789 50.8097 12.4571 50.8487 12.5576C51.0243 12.6425 51.2255 12.5892 51.4123 12.6443C51.934 12.7958 52.8854 12.3433 53.3788 12.3791C54.3698 12.4512 55.2018 13.1763 56.1301 12.4811C56.2936 12.3584 56.1273 12.5688 56.2727 12.3808C56.1965 12.1625 56.1012 12.334 56.0227 12.0935Z" fill="white"/>
<path d="M56.3107 19.75C56.5588 19.7675 56.9082 19.7498 57.1061 19.8136C57.1637 19.9247 57.1488 19.8657 57.1261 19.9978L57.1098 20.0398C56.379 21.9626 55.8991 24.119 55.2264 26.0737C55.1404 26.3231 55.0503 26.8747 54.8092 27.0482C54.4798 27.2118 54.0417 27.211 53.9126 26.7977C53.7634 26.3195 53.6742 25.8715 53.5511 25.4027C53.3328 24.5988 53.1093 23.7961 52.8817 22.9947C52.8324 22.8183 52.6438 22.1069 52.5853 21.9757C52.5035 21.9101 52.4589 21.8703 52.3962 21.786L52.3098 21.7614C52.1983 21.8485 52.1188 21.9541 52.0245 22.0211C51.4396 23.6858 51.1297 25.6208 50.6076 27.2067C50.3474 27.323 50.0524 27.2419 49.7681 27.1963C49.7263 26.7045 49.5307 26.2139 49.4085 25.7397C49.0707 24.4317 48.6071 23.204 48.1365 21.9424C47.8898 21.2808 47.7002 20.4922 47.5 19.8038C47.8206 19.7804 48.0868 19.7881 48.4087 19.7953C48.6373 20.5187 48.7827 21.2905 49.0173 22.0014C49.4076 23.1835 49.7746 24.3962 50.1792 25.5711C50.4064 25.0031 50.7181 23.8665 50.8961 23.2535C51.2213 22.1328 51.5781 20.9138 51.8192 19.7746C52.1899 19.8007 52.4008 19.8263 52.766 19.8933C52.903 20.5855 53.3555 21.8001 53.5744 22.5366C53.8471 23.4551 54.124 24.831 54.5007 25.6416C54.9332 24.8144 55.0694 23.7316 55.3444 22.8255C55.6571 21.795 55.9916 20.7774 56.3107 19.75ZM54.4733 26.7217C54.5137 26.4943 54.5068 26.4039 54.5017 26.1748L54.4617 26.133C54.3558 26.351 54.1927 26.5938 54.4733 26.7217Z" fill="black"/>
<path d="M52.2526 21.1611C52.4133 21.4872 52.4737 21.6304 52.5861 21.9757C52.5044 21.9101 52.4598 21.8703 52.3971 21.786L52.3106 21.7614C52.1991 21.8485 52.1197 21.9541 52.0254 22.0211L52.2526 21.1611Z" fill="#D1BC92"/>
<path d="M54.4627 26.1335L54.5026 26.1753C54.5077 26.4044 54.5147 26.4948 54.4743 26.7222C54.1937 26.5943 54.3567 26.3515 54.4627 26.1335Z" fill="#571C01"/>
<path d="M58.85 20.786C59.5738 20.1052 60.2716 19.491 61.3169 19.5969C63.729 19.8412 63.814 21.0047 63.787 23.0397C63.7717 24.2185 63.7099 25.9596 63.8298 27.078C63.5297 27.0801 63.2189 27.0862 62.9197 27.082L62.8644 26.9534C62.7357 26.6954 62.8393 24.2493 62.8295 23.7988C62.8249 23.5585 62.5708 22.575 62.5062 22.2822C62.607 22.3378 62.3441 22.1843 62.3775 22.2253C62.023 21.7938 61.8827 20.983 61.191 20.888C61.119 20.8781 61.1394 20.8716 61.0837 20.8149C61.1157 20.6889 61.1636 20.6964 61.3057 20.5982L61.2955 20.548C61.2384 20.5316 61.1812 20.5153 61.1245 20.4989C60.6112 20.6578 59.9092 21.009 59.4056 21.1595C59.2407 21.283 59.1315 21.4339 58.9996 21.5931C58.9275 22.4885 58.9615 23.5115 58.9763 24.4193C58.9893 25.2404 58.9512 26.3167 59.1004 27.104C58.744 27.1216 58.4314 27.1123 58.0741 27.1026C58.1354 25.265 58.1438 22.8362 58.1001 20.997C58.1015 20.6247 58.0885 20.2524 58.0625 19.881C58.3426 19.8753 58.6288 19.8642 58.9085 19.8754L58.85 20.786Z" fill="black"/>
<path d="M59.4062 21.1596C59.9256 20.6145 60.4464 20.3924 61.2005 20.3641C61.8857 20.3383 62.6732 20.64 62.8794 21.3627C62.9696 21.7183 62.937 22.1662 62.9398 22.5303C62.9068 23.9366 62.8906 25.3433 62.8864 26.75C62.8859 26.8174 62.8743 26.887 62.865 26.9535C62.7363 26.6956 62.8399 24.2494 62.8302 23.7989C62.8255 23.5587 62.5714 22.5751 62.5068 22.2824C62.6077 22.338 62.3447 22.1845 62.3782 22.2255C62.0237 21.7939 61.8834 20.9831 61.1916 20.8881C61.1196 20.8782 61.1401 20.8718 61.0843 20.815C61.1164 20.689 61.1642 20.6966 61.3064 20.5984L61.2962 20.5482C61.239 20.5318 61.1819 20.5154 61.1252 20.499C60.6118 20.6579 59.9099 21.0091 59.4062 21.1596Z" fill="white"/>
<path d="M58.1152 35.1384C58.3169 35.1396 58.5268 35.1499 58.7289 35.1568L58.8005 35.1797C59.2762 35.3297 60.1399 35.2754 60.3164 35.4892C60.3252 35.6074 60.3327 35.7257 60.3378 35.8441L60.3884 35.8873L60.5222 35.8278C60.7647 36.0789 60.8818 36.1166 61.1945 36.2588C61.1638 37.6688 61.1494 39.079 61.1513 40.4893C61.1508 40.8254 61.1327 41.9742 61.1824 42.273C61.2168 42.8257 61.1907 43.6349 61.1884 44.2091L61.1805 47.6446C61.181 48.3768 61.1526 49.258 61.2679 49.9712C60.9594 50.0185 60.5278 50.045 60.2091 50.0738C60.3466 48.7178 60.2978 46.6523 60.3155 45.2437L60.3852 36.037C59.6609 35.9961 58.8971 36.0072 58.1617 35.9791C58.1612 35.6727 58.1431 35.444 58.1152 35.1384Z" fill="black"/>
<path d="M63.2467 29.3936C63.7647 29.4501 63.8055 29.4952 63.7029 30.0523C63.6425 30.3801 62.9191 30.2541 62.6088 30.3245C60.7788 30.6662 61.3753 32.5887 61.2304 33.8458C61.1774 34.2413 61.3098 34.799 61.0915 35.0791C60.9321 35.1736 60.8499 35.1485 60.6701 35.1271C60.4332 35.0988 60.4518 34.9434 60.3607 34.828C60.2957 34.5649 60.3184 33.7755 60.3291 33.4533C60.3667 32.3405 60.1646 31.0723 60.953 30.1646C61.6206 29.3966 62.3342 29.4656 63.2467 29.3936Z" fill="black"/>
<path d="M61.2304 33.8455C61.2568 34.2886 61.262 34.7191 61.2689 35.1623C62.0373 35.1541 62.9289 35.1238 63.6875 35.1592L63.6341 36.085C62.848 36.0776 62.015 36.0832 61.2341 36.0408L61.2136 40.133C61.2109 40.7013 61.2355 41.7461 61.1839 42.2727C61.1342 41.9739 61.1523 40.8251 61.1528 40.489C61.1509 39.0787 61.1653 37.6685 61.196 36.2585C60.8833 36.1163 60.7662 36.0786 60.5237 35.8275L60.3899 35.887L60.3393 35.8438C60.3342 35.7254 60.3268 35.6071 60.3179 35.4889C60.1414 35.2751 59.2777 35.3294 58.802 35.1794L58.7305 35.1565C59.261 35.1378 59.727 35.229 60.2352 35.124C60.3732 35.0153 60.3295 35.0599 60.3607 34.8277C60.4517 34.9431 60.4331 35.0985 60.6701 35.1268C60.8499 35.1483 60.9321 35.1733 61.0915 35.0788C61.3098 34.7987 61.1774 34.241 61.2304 33.8455Z" fill="#150804"/>
<path d="M53.7418 52.6926C54.0076 52.68 54.3272 52.6852 54.5976 52.6824C54.5349 54.3943 54.5451 56.8863 54.632 58.5954C54.6933 58.5234 54.7551 58.4514 54.8173 58.3803C55.6192 57.4656 56.8647 56.6554 58.0782 56.6094C61.2977 56.4867 63.268 58.9053 63.3526 61.9807C63.4074 63.9779 63.1937 65.6332 61.7971 67.1444C60.1149 68.6427 57.7442 68.8452 55.851 67.6443C55.3209 67.308 54.9846 66.9567 54.5544 66.5131C54.5265 67.0715 54.5297 67.6443 54.5256 68.2046C54.094 68.1702 53.6619 68.147 53.2289 68.1358C53.1202 66.894 53.228 64.8272 53.2271 63.5003C53.2368 59.9083 53.221 56.3162 53.1797 52.7247L53.7418 52.6926Z" fill="#150804"/>
<path d="M57.8366 57.7922C60.106 57.6728 61.5453 58.8179 61.9318 61.1004C62.3411 63.5194 61.7725 66.7807 58.8898 67.2559C57.9063 67.3042 57.1866 67.2777 56.3513 66.724C55.4737 66.1386 54.8619 65.2527 54.7067 64.1981C54.2969 61.4079 54.5924 58.4272 57.8366 57.7922Z" fill="white"/>
<path d="M42.8535 34.8053C44.7397 34.6777 47.5694 35.3058 48.1957 37.453C48.4414 38.2959 48.401 39.6768 48.402 40.581L48.4038 45.8175C48.4043 46.3322 48.4145 46.9273 48.3973 47.4379C48.3471 48.9287 48.6589 49.5159 50.2277 49.2799L50.1766 50.1961C49.4682 50.2123 48.6538 50.3113 48.0995 49.8114C47.4263 49.2037 47.4389 48.289 47.3878 47.4621C46.3388 48.9891 45.3952 49.7687 43.535 50.1705C40.7381 50.774 37.7723 50.0576 37.1219 46.9083C36.5425 41.7517 42.1106 41.9434 45.5931 41.3563C46.2054 41.253 46.8591 41.1404 47.3878 40.8039C47.4579 40.1838 47.4147 39.6138 47.4361 39.0145C47.4997 37.2461 46.5785 36.2375 44.9027 35.8193C43.4895 35.4667 41.824 35.6085 40.528 36.3431C39.3861 36.9905 38.8836 38.1831 38.5806 39.416C38.3259 39.4363 37.9529 39.4672 37.7124 39.3903L37.6705 39.3024C37.7239 38.4261 38.3097 37.1557 38.9145 36.5041C40.0098 35.3241 41.2995 34.8967 42.8535 34.8053Z" fill="black"/>
<path d="M47.4132 41.7124C47.489 41.878 47.3682 45.9519 47.3171 46.1136C46.3693 49.1184 41.5173 50.4499 39.08 48.6204C38.1291 47.6982 37.838 46.0351 38.3803 44.8267C39.0282 43.3833 40.5584 43.0083 41.9735 42.74C43.7812 42.3973 45.6701 42.3608 47.4132 41.7124Z" fill="white"/>
<path d="M20.2715 28.9976C22.847 28.7578 25.6026 29.9495 26.8223 32.2683C27.3546 33.2801 27.4479 34.1351 27.6039 35.2391C27.264 35.2612 26.9924 35.2574 26.6506 35.2504C26.4803 33.8748 26.0968 32.4781 25.0927 31.4545C24.0244 30.3654 22.4849 29.8821 20.9834 29.8661C19.5105 29.8504 18.022 30.2727 16.9542 31.3348C15.3917 32.9159 15.3081 35.9254 17.2022 37.3003C17.74 37.6908 18.3003 37.9261 18.9137 38.1663C21.5481 39.1978 24.7373 39.3635 26.8855 41.3851C27.7675 42.2289 28.0713 43.4897 28.0693 44.6716C28.0809 46.1601 27.4865 47.5891 26.4228 48.6302C24.9698 50.0629 23.0898 50.4852 21.1181 50.4796C19.6481 50.3723 18.6676 50.2041 17.3663 49.4413C15.6314 48.4244 14.7235 46.554 14.4324 44.6172C14.3829 44.2878 14.3388 44.0286 14.2031 43.7262L15.2539 43.6983C15.2566 43.7448 15.2595 43.7908 15.2627 43.8372C15.5236 47.6118 18.2361 49.8014 22.0074 49.5235C24.9996 49.3033 27.3842 47.3075 27.0439 44.135C26.5566 39.5924 19.0971 40.3766 16.3488 37.9233C15.4586 37.1286 14.9281 36.1546 14.8234 34.9614C14.5113 31.4274 16.9159 29.2836 20.2715 28.9976Z" fill="#150804"/>
<path d="M28.4559 52.2275C29.7202 52.1727 31.1342 52.504 32.2195 53.1641C33.7834 54.1151 34.3749 55.3885 34.7822 57.1176C34.3932 57.1933 33.8212 57.2049 33.4221 57.2059C33.0168 55.6774 32.3496 54.4022 30.7728 53.828C27.9583 52.8138 25.0023 54.0463 23.9964 56.9271C23.1815 59.2607 23.2723 62.1884 24.2607 64.4457C25.0578 66.2664 27.0229 67.3967 28.9872 67.2736C29.8878 67.2174 30.4006 67.039 31.223 66.6534C32.7666 65.9277 33.1589 64.5303 33.4814 62.9786C33.9418 62.9647 34.4494 62.9833 34.9132 62.9902C34.6304 64.357 34.3293 65.5296 33.4185 66.6613C31.3362 69.0807 26.783 69.0691 24.4623 67.0287C23.8472 66.4875 23.3874 65.9166 23.0343 65.1914C20.6854 60.3673 21.9995 52.562 28.4559 52.2275Z" fill="#150804"/>
<path d="M43.063 19.5162C45.031 19.4285 46.5446 20.3986 46.8735 22.4015C47.2307 24.5795 46.5882 26.8979 44.1371 27.2985C41.9415 27.5055 40.5535 26.2863 40.2584 24.1001C39.9888 22.1021 40.7592 19.7712 43.063 19.5162Z" fill="black"/>
<path d="M43.2451 20.3542C44.6193 20.3167 45.6311 20.8318 45.9763 22.2508C46.3768 23.8977 45.9136 26.021 44.0516 26.5179C43.508 26.5445 43.1052 26.5578 42.5891 26.3212C40.3931 25.3148 40.5444 20.6613 43.2451 20.3542Z" fill="white"/>
<path d="M50.305 56.9685C50.3659 57.0665 50.3032 58.909 50.3036 59.2412C50.3083 62.2024 50.3426 65.1631 50.4072 68.1233C49.9956 68.1224 49.5552 68.1033 49.1417 68.0931C49.1385 67.6299 49.1807 67.0534 49.2058 66.5837C48.9285 66.8067 48.6488 67.144 48.3747 67.3911C47.6035 68.0861 46.6437 68.4257 45.6095 68.4239C44.5006 68.4248 43.4362 68.2311 42.6288 67.4116C41.8018 66.5716 41.6355 65.4725 41.6323 64.3417C41.6309 63.8553 41.63 63.368 41.6323 62.8816L41.6434 59.8479L41.6313 57.0006L42.9651 57.0154C42.9159 59.4679 42.9094 61.9213 42.9452 64.3742C42.96 65.2801 43.039 65.9249 43.7261 66.599C44.6497 67.5059 46.2929 67.4353 47.3707 66.8527C49.0836 65.9268 49.1213 64.0439 49.0943 62.3296C49.0669 60.5638 49.1529 58.7724 49.1036 57.0015L50.305 56.9685Z" fill="#150804"/>
<path d="M32.45 31.138L32.9816 31.1235C32.9131 32.4569 32.9274 33.7216 32.9557 35.0535C33.8399 35.0927 34.8174 35.0951 35.7087 35.1137C35.7107 35.3801 35.6893 35.6403 35.672 35.906C34.7579 35.8976 33.8436 35.9059 32.9297 35.9308C32.9521 38.8167 32.9499 41.7027 32.9234 44.5884C32.9211 45.7954 32.8689 47.0632 32.9431 48.2623C33.0281 49.6351 34.8064 49.4293 35.718 49.3061L35.6894 49.8961L35.6712 50.3584C34.6345 50.3412 33.3246 50.5767 32.5704 49.8153C32.2863 49.5338 32.0977 49.17 32.0312 48.7756C31.8749 47.9008 31.945 45.6244 31.9471 44.6251C31.9395 41.7441 31.9618 38.8631 32.0139 35.9827C31.3836 35.9866 30.7477 35.9994 30.1188 35.9614C30.1231 35.5959 30.1103 35.4283 30.0645 35.0647L31.9785 35.0624L31.9503 32.6625C31.9468 32.2733 31.9229 31.5475 31.9736 31.19C32.1075 31.1237 32.2936 31.1394 32.45 31.138Z" fill="#150804"/>
<path d="M55.956 29.4187L56.7908 29.4158C56.7732 29.6958 56.7495 29.9753 56.7188 30.2541C55.7488 30.3375 54.7026 30.0456 54.3973 31.4221C54.2733 31.9827 54.342 32.6515 54.336 33.2294C54.3295 33.8529 54.3481 34.501 54.3843 35.1241C55.1239 35.1618 56.1437 35.0947 56.8568 35.2019L56.8903 35.9993C56.2635 36.0698 54.9985 36.0198 54.3481 36.0094C54.2784 39.9489 54.3643 43.9254 54.342 47.8682C54.3388 48.4851 54.3434 49.1281 54.3834 49.7432C54.3885 49.9267 54.4178 49.8974 54.33 50.0103C54.0735 50.0855 53.7121 50.0289 53.4278 50.0108C53.3841 45.3376 53.4807 40.6412 53.4343 35.9827C52.7676 35.9742 52.0117 36.0086 51.3418 36.0358L51.3636 35.1127C52.035 35.0921 52.7862 35.1101 53.4635 35.1119C53.4816 33.9692 53.392 32.8336 53.4398 31.6929C53.4645 31.106 53.6298 30.4861 54.0531 30.0575C54.6143 29.489 55.2122 29.4357 55.956 29.4187Z" fill="#150804"/>
<path d="M30.0741 16.7292C31.0155 16.5848 32.0587 16.786 32.8864 17.2444C34.0473 17.8874 34.433 18.6968 34.7907 19.9119C34.4995 19.9325 34.196 19.9218 33.9034 19.918C33.5741 19.0764 32.9485 18.0364 32.0865 17.7583C29.1808 16.821 27.3366 18.8894 27.3413 21.6912C27.3455 24.2046 27.8516 26.4538 30.8018 26.5341C31.3698 26.5496 31.6973 26.5331 32.2151 26.2951C33.2013 25.7012 33.7744 24.844 33.822 23.6796C34.2258 23.6823 34.4734 23.6794 34.8677 23.7432C34.7434 24.5209 34.4383 25.2585 33.977 25.8968C32.6274 27.7699 29.9186 27.7912 28.1114 26.5318C26.9031 25.6447 26.6087 24.3464 26.3659 22.9975C25.8941 20.3755 27.0796 17.115 30.0741 16.7292Z" fill="black"/>
<path d="M37.3971 52.6807C37.8729 52.6677 38.3601 52.6779 38.8369 52.6821C38.6961 54.3299 38.7346 56.3652 38.7313 58.0525L38.7708 68.0742C38.4668 68.1035 37.712 68.0984 37.3789 68.1053C37.4261 66.196 37.3932 64.202 37.3944 62.2861L37.3971 52.6807Z" fill="#150804"/>
<path d="M39.0656 19.6044C39.2292 19.5859 39.4545 19.5857 39.6239 19.5801C39.6211 19.9136 39.6374 20.0931 39.6764 20.4262C37.1066 20.6124 37.1488 21.4479 37.1568 23.6515C37.1616 24.8242 37.1769 25.9969 37.2028 27.1694C36.9247 27.1896 36.6558 27.234 36.3966 27.1489C36.2853 27.0329 36.3266 27.1049 36.3198 26.8994C36.3192 24.6286 36.3491 22.0244 36.1758 19.7844C36.5634 19.8194 36.9125 19.8545 37.2891 19.9532C37.2677 20.1442 37.1847 20.473 37.1409 20.6708C37.8542 19.9985 38.1049 19.7994 39.0656 19.6044Z" fill="black"/>
<path d="M49.7661 15.0635C49.9092 15.1707 49.8571 15.1007 49.9036 15.297C50.036 15.3371 49.9696 15.3243 50.1363 15.2682C50.3231 15.3175 50.2892 15.3321 50.4495 15.4904C50.5261 15.4361 50.4913 15.4624 50.5247 15.3307L50.5731 15.3312L50.7816 15.6323C50.7645 15.7605 50.7686 15.7528 50.7017 15.8628L50.5233 15.8706C50.3793 16.036 50.2381 16.2039 50.1001 16.3742L50.1763 16.4826C50.2869 16.492 50.3161 16.4913 50.4211 16.5222C50.2808 16.6662 50.1475 16.6174 49.9998 16.6966C49.793 16.8074 49.7089 17.0437 49.4506 17.0621C49.2072 17.2828 48.6269 17.3808 48.4095 17.0818L48.5201 16.9648C48.3612 16.8864 48.1823 16.8451 48.2051 16.6511C48.304 16.5838 48.4806 16.4408 48.5926 16.4207C48.6478 16.4108 48.7449 16.4034 48.7914 16.3694C49.2685 16.019 49.623 15.7077 49.7568 15.1066L49.7661 15.0635Z" fill="white"/>
</g>
<defs>
<clipPath id="clip0_30141_32647">
<rect width="85" height="85" fill="white"/>
</clipPath>
</defs>
</svg>
