<svg width="197" height="27" viewBox="0 0 197 27" fill="none" xmlns="http://www.w3.org/2000/svg">
<g clip-path="url(#clip0_30141_33153)">
<path d="M55.4728 1.09061L61.898 1.09033C62.377 2.21113 62.8895 3.71 63.3241 4.86979L66.0521 12.1531L69.2586 20.7188C69.5444 21.4823 71.2428 25.7736 71.1988 26.3535C70.6473 26.5308 66.0698 26.4505 65.1964 26.4475L63.3654 21.3079L61.6402 21.3015L53.5504 21.3075C52.9468 22.7706 52.2624 24.9084 51.7141 26.4475C50.8301 26.4495 46.3345 26.5614 45.8881 26.2773C45.8276 26.0242 46.303 24.9284 46.4177 24.6253L47.8475 20.844C49.8776 15.4756 53.1154 6.83554 55.3059 1.21501C55.3721 1.16571 55.4277 1.12424 55.4728 1.09061ZM55.4076 16.154H58.5683L61.5627 16.152C61.2248 15.1773 58.789 7.82001 58.4701 7.64099C57.449 10.3176 56.4602 13.5976 55.4076 16.154Z" fill="white"/>
<path d="M94.0811 8.66308L99.5457 8.67027C100.571 11.9862 101.45 15.8536 102.542 19.0855C103.742 15.6651 104.884 12.1161 106.044 8.66987C107.796 8.59817 110.032 8.66575 111.821 8.66704C112.187 9.5797 112.619 11.0325 112.937 11.9969C113.713 14.3844 114.506 16.7667 115.316 19.1435C116.351 15.7462 117.316 12.1049 118.286 8.67626C118.888 8.63479 123.111 8.56195 123.46 8.82759C123.521 9.48399 121.847 14.4972 121.556 15.412C121.328 16.3733 120.733 18.0829 120.425 19.0703L118.126 26.446L112.677 26.4474L108.81 15.0156L105.015 26.4474H99.4714C99.1375 25.5546 98.7705 24.2565 98.4706 23.309L96.5466 17.2176L94.8862 11.9593C94.6081 11.0767 94.3139 10.178 94.0544 9.28861C93.959 8.95927 93.9776 8.95167 94.0811 8.66308Z" fill="white"/>
<path d="M178.324 8.66859C180.27 8.62284 182.429 8.66447 184.39 8.66334L187.58 13.5041C188.555 12.1493 189.778 10.1135 190.715 8.66495C191.86 8.66277 195.061 8.5736 196.389 8.75096C196.469 8.76172 196.478 8.92606 196.494 9.02379C196.2 9.68012 194.994 11.2841 194.509 11.9653L190.659 17.3598C192.248 19.8896 195.119 23.4525 196.745 26.1184C196.735 26.2474 196.727 26.3571 196.72 26.4478L190.623 26.4477L187.327 21.474C186.232 23.1103 185.154 24.797 184.075 26.4477C183.225 26.4491 179.015 26.5012 178.469 26.3862L178.359 26.2103C178.337 25.8759 183.431 18.6749 184.182 17.5853L180.131 11.8193C179.529 10.9642 178.861 10.0539 178.31 9.16364C178.195 8.97699 178.265 8.84846 178.324 8.66859Z" fill="white"/>
<path d="M145.274 0.565918L150.678 0.570268V18.9054L150.692 23.7633C150.693 24.3421 150.725 25.942 150.628 26.4477L145.213 26.4423C145.13 24.7868 145.198 22.5212 145.198 20.8307L145.196 9.93296C145.196 8.76962 145.052 1.30333 145.274 0.565918Z" fill="white"/>
<path d="M153.301 0.568604L158.722 0.573213C158.798 3.37392 158.726 6.52264 158.727 9.3464L158.722 26.4304C156.996 26.4967 155.008 26.4477 153.263 26.4448C153.211 24.6327 153.258 22.5597 153.258 20.7297L153.259 9.47914L153.25 3.69413C153.248 2.96495 153.208 1.23603 153.301 0.568604Z" fill="white"/>
<path d="M90.4791 8.52125C91.2754 8.45035 91.7329 8.50742 92.5163 8.66635C92.5195 9.45194 92.6464 13.5658 92.3627 13.8906C92.0062 13.9981 91.4427 13.8753 91.0515 13.8729C86.3111 13.8435 86.6135 17.8934 86.6151 21.1977L86.6199 26.441C84.915 26.4977 82.9054 26.4444 81.1771 26.4434C81.0744 25.6422 81.1496 21.9069 81.1496 20.8966L81.1553 8.68276C82.4091 8.57614 85.1082 8.66369 86.4251 8.67137L86.4308 11.0313C87.3418 9.36488 88.6724 8.78122 90.4791 8.52125Z" fill="white"/>
<path d="M73.0848 8.66311C73.9413 8.66683 77.8206 8.56562 78.3554 8.76456C78.548 9.53002 78.586 25.7696 78.4126 26.4475L72.997 26.4416C72.9962 24.6272 72.8737 9.18419 73.0848 8.66311Z" fill="white"/>
<path d="M75.1614 0.0933149C75.9431 0.0455041 76.4905 0.0603125 77.21 0.428845C77.9601 0.813385 78.526 1.48093 78.7827 2.28383C79.0395 3.08316 78.9687 3.95177 78.5857 4.69894C78.1085 5.62023 77.4023 6.06522 76.4478 6.36699C75.6188 6.5154 74.8755 6.4549 74.1283 6.02745C73.3887 5.60137 72.8505 4.897 72.6336 4.07149C72.4148 3.25216 72.5307 2.37948 72.9555 1.64557C73.4736 0.752235 74.2004 0.349285 75.1614 0.0933149Z" fill="white"/>
<path d="M11.4446 0H12.241C15.2819 0.561384 15.8034 1.58917 17.6561 3.80906L20.9896 7.80327L23.8424 11.2183C24.2044 11.6519 24.9714 12.5209 25.2685 12.9463L30.5856 10.7781C31.8037 10.2783 33.7769 9.37037 35.0193 9.20651C35.825 9.10296 36.6435 9.21783 37.3895 9.53925C38.6401 10.0792 39.6271 11.0905 40.1364 12.3539C41.0793 14.7103 39.7109 17.2166 38.8861 19.4699C37.9516 22.0229 37.1425 25.5036 34.3202 26.5381C33.5768 26.8106 33.1043 26.8606 32.3711 27H32.0572C30.439 26.766 29.242 26.391 28.1239 25.1204C27.1917 24.0612 26.3006 22.9714 25.3958 21.8885L16.045 10.6833C15.4485 9.96858 12.5555 6.41463 12.0408 6.00204C11.8022 5.9517 11.8794 5.93296 11.6811 6.04251C11.263 6.67569 6.51349 19.5971 6.48695 20.1564C6.48034 20.2958 6.49704 20.3056 6.58958 20.407C7.37724 20.5687 12.3754 17.9277 13.7911 17.7499C17.2546 17.3149 18.2163 21.7829 15.3332 23.1029C13.13 24.1534 10.7368 24.8758 8.53079 25.9045C5.48522 27.3246 2.42716 27.6141 0.593735 24.2132C0.202308 23.4871 0.118541 22.8481 0 22.0377V21.8715C0.0624722 21.439 0.145165 20.8877 0.287277 20.484C1.40408 17.3116 2.60564 14.1244 3.77314 10.9719L5.49235 6.33507C6.80721 2.79341 7.2145 0.767585 11.4446 0ZM29.1041 17.508C29.6324 18.145 30.2495 18.9313 30.7957 19.5353C31.0701 19.8762 31.7579 20.8484 32.1346 20.9202C32.7166 20.5362 33.7136 16.9182 34.1169 16.1414C34.1924 15.996 34.1018 15.8277 34.0269 15.6971C33.9605 15.6712 33.8211 15.6106 33.7582 15.6064L29.1041 17.508Z" fill="white"/>
<path d="M132.215 27C131.234 26.8554 130.261 26.8071 129.325 26.4537C119.846 22.8758 122.473 6.75508 133.427 8.22535C134.696 8.3956 136.055 9.04796 136.823 10.0913C136.948 10.2642 137.068 10.4407 137.182 10.6207C137.177 10.1585 137.076 9.04691 137.354 8.75137C137.895 8.62413 141.721 8.62898 142.468 8.67829C142.533 14.5657 142.48 20.5468 142.478 26.4413C140.713 26.4505 138.949 26.4507 137.185 26.4418L137.196 24.2969C136.023 26.2301 134.798 26.7064 132.61 27H132.215ZM133.6 22.2441C134.795 21.9891 135.718 21.5556 136.391 20.4745C138.207 17.5576 136.944 12.6329 132.88 12.8743C132.3 12.9431 131.879 13.0133 131.346 13.2571C128.426 14.5914 128.32 19.5813 130.734 21.4347C131.636 22.1281 132.493 22.2784 133.6 22.2441Z" fill="white"/>
<path d="M168.998 26.9996C166.304 26.5759 163.923 25.6556 162.272 23.3143C159.361 19.1822 160.02 12.8824 164.226 9.82844C167.914 7.1506 173.929 7.61363 176.708 11.4113C178.325 13.6223 178.499 16.2952 178.299 18.957L170.046 18.9571C168.727 18.9572 167.089 18.9109 165.791 18.9662C165.896 19.4173 165.986 19.8692 166.216 20.2732C167.649 22.7989 171.331 23.1468 173.102 20.8424C173.87 20.8385 177.416 20.7754 177.898 20.9015C178.003 21.03 178.092 21.117 178.044 21.3081C177.271 24.4309 174.512 26.4287 171.423 26.8802C171.209 26.9114 170.892 26.9508 170.684 26.9996H168.998ZM165.919 15.4262H170.124H173.116C172.665 13.2671 171.273 12.1934 169.014 12.4685C167.26 12.7735 166.295 13.6723 165.919 15.4262Z" fill="white"/>
</g>
<defs>
<clipPath id="clip0_30141_33153">
<rect width="196.841" height="27" fill="white"/>
</clipPath>
</defs>
</svg>
