<svg width="109" height="55" viewBox="0 0 109 55" fill="none" xmlns="http://www.w3.org/2000/svg">
<g clip-path="url(#clip0_30141_32246)">
<path d="M38.5813 25.8697C40.0907 25.73 40.4682 26.4768 40.4691 27.8461C40.4719 32.3246 40.4686 36.803 40.4715 41.2815L40.4737 46.046C40.4739 46.8972 40.4955 47.7992 40.4392 48.6458C40.4166 48.9847 40.305 49.2819 40.06 49.527C39.7998 49.7829 39.4479 49.9237 39.0831 49.9179C37.4513 49.9018 37.6021 48.4045 37.6147 47.2527C35.4625 50.5314 31.1166 50.8455 27.973 48.8301C23.1584 45.6931 23.8198 36.7859 29.539 34.9214C32.6254 33.9152 35.4998 34.5605 37.5223 37.1665L37.509 30.9716C37.5082 29.7941 37.4901 28.6124 37.5236 27.436C37.5487 26.5516 37.8 26.2016 38.5813 25.8697ZM33.3023 47.6068C39.8166 46.5587 38.7566 36.468 32.3236 36.9148C31.8179 36.961 31.4115 37.0187 30.9323 37.1966C27.2973 38.5458 26.7934 44.2318 29.6623 46.5759C30.7796 47.4889 31.8935 47.6969 33.3023 47.6068Z" fill="white"/>
<path d="M81.7954 34.4903C81.8935 34.4851 81.9911 34.4823 82.0893 34.4819C86.2857 34.4584 88.882 36.9906 89.2888 41.1104C89.3722 41.9529 89.2245 43.0232 88.1767 43.0991C86.9553 43.1876 85.6991 43.1452 84.4719 43.143L77.5461 43.1359C77.5873 44.0975 77.8743 44.9516 78.4504 45.7251C79.2292 46.7527 80.3819 47.4308 81.6582 47.6113C83.9137 47.9335 84.838 47.0428 86.4583 45.8195C88.1772 44.9001 89.0572 46.8525 87.9572 47.9076C83.3254 52.3515 74.8833 49.7786 74.5684 42.9396C74.3552 38.3131 77.0576 34.8002 81.7954 34.4903ZM82.3325 40.9723C83.6483 40.9716 85.0448 40.9924 86.3538 40.9595C86.138 37.9907 84.5679 36.6517 81.6229 36.809C79.2297 37.1555 77.9703 38.6778 77.5287 40.9668L82.3325 40.9723Z" fill="white"/>
<path d="M15.7944 34.4903C19.9948 34.3895 22.7003 36.8109 23.1639 40.9624C23.2743 41.951 23.1742 43.0523 21.9321 43.1115C20.7857 43.1661 19.6362 43.1391 18.4901 43.1383L11.4448 43.1333C11.491 43.9569 11.6499 44.6132 12.0778 45.3288C12.7454 46.4289 13.8223 47.2189 15.0718 47.525C16.519 47.8823 18.0646 47.6065 19.2288 46.6963C19.555 46.4412 20.1941 45.9332 20.5007 45.7471C22.0967 45.0494 22.898 46.7751 21.8483 47.8968C19.1785 50.75 13.9175 50.7635 11.0224 48.2517C9.48075 46.9143 8.55002 44.8945 8.46724 42.863C8.24428 38.2036 11.1027 34.776 15.7944 34.4903ZM16.2255 40.975C17.5474 40.9741 18.9552 40.9959 20.27 40.9623C19.9722 38.0441 18.5718 36.6325 15.5711 36.8041C13.1645 37.0909 11.8555 38.6868 11.4306 40.9753L16.2255 40.975Z" fill="white"/>
<path d="M44.2363 25.8646C46.3869 25.6844 46.0452 27.7354 46.045 29.2267L46.0424 32.5231C46.0399 35.2022 46.1214 38.4188 46.0121 41.0411C47.5324 39.4979 49.3828 37.9655 50.9545 36.4407C51.8436 35.6657 52.6706 34.769 53.5928 34.0388C54.0418 33.6833 54.9202 33.5991 55.3539 34.0377C55.6166 34.3087 55.7601 34.6735 55.7528 35.051C55.7343 35.9953 54.6242 36.7055 53.9848 37.3081C52.9386 38.2943 51.7746 39.2062 50.7459 40.2106C52.4159 42.5328 54.3093 44.9508 56.0414 47.2467C56.617 47.9888 57.1424 48.8601 56.2107 49.6025C55.9195 49.8352 55.5465 49.9397 55.1772 49.8921C54.936 49.8625 54.495 49.7061 54.3441 49.5215C52.3936 47.1419 50.6097 44.4417 48.739 42.0039C47.848 42.8261 46.9506 43.6414 46.0471 44.4498C46.0279 45.4319 46.2029 48.2358 45.9126 48.9927C45.78 49.3383 45.5386 49.6386 45.1941 49.7885C44.8391 49.943 44.3601 49.9248 44.0046 49.7802C43.6757 49.6463 43.3915 49.3246 43.2623 48.9982C43.1726 48.7717 43.1864 48.4836 43.1794 48.2426C43.1454 47.0806 43.172 45.9113 43.1717 44.7482L43.1712 38.1929C43.1716 34.625 43.1672 31.0571 43.1788 27.4893C43.1817 26.616 43.3929 26.1979 44.2363 25.8646Z" fill="white"/>
<path d="M68.4444 30.5591C69.1931 30.4815 69.248 31.1296 69.2432 31.7027C69.2379 32.3599 69.229 33.0179 69.2221 33.6751C70.4583 33.67 71.7377 33.6136 72.9622 33.7019C73.541 33.7436 73.9995 34.3154 73.9726 34.8889C73.9061 36.2821 72.499 36.1147 71.4998 36.1098C70.7395 36.1061 69.9914 36.1007 69.2406 36.0953C69.1588 39.3214 69.2432 42.6085 69.2406 45.8402C69.239 47.4761 70.6878 47.6802 71.983 47.423C73.0451 47.2122 74.2433 46.9554 74.2353 48.5209C74.2322 48.8986 74.0723 49.0981 73.7594 49.3076C71.8954 50.2233 69.0728 50.3905 67.4468 48.8712C67.0062 48.4601 66.5704 47.6297 66.485 47.0309C66.2971 45.7107 66.3757 44.2709 66.3789 42.9244L66.381 36.0982C65.5975 36.1051 64.7581 36.1507 63.9884 36.0525C63.455 35.9652 63.5119 35.3276 63.799 35.0276C64.8531 33.9258 65.9822 32.9074 67.0511 31.8195C67.4172 31.4473 68.0113 30.8146 68.4444 30.5591Z" fill="white"/>
<path d="M60.124 34.43C62.0571 34.3144 61.6942 36.5947 61.6947 37.8697V41.5767L61.6931 46.1125C61.6931 46.9424 61.7126 47.7718 61.6704 48.6006C61.6282 49.4264 61.1312 49.7762 60.3704 49.9273C59.7658 49.9494 58.9338 49.6025 58.8341 48.9333C58.718 48.1547 58.7591 47.2798 58.7586 46.4867L58.7576 42.6678L58.7581 38.2097C58.7581 37.6224 58.7686 37.0032 58.7607 36.4191C58.7465 35.3341 58.8837 34.609 60.124 34.43Z" fill="white"/>
<path d="M59.7891 27.6532C60.8195 27.4053 61.8568 28.0368 62.11 29.0665C62.3632 30.0962 61.7375 31.1372 60.7098 31.3961C59.6741 31.6569 58.6242 31.0251 58.3688 29.9877C58.1135 28.9503 58.7508 27.9031 59.7891 27.6532Z" fill="white"/>
<path d="M71.9475 0.000244141H72.3068C76.9844 1.10983 81.8119 2.12731 86.5133 3.16862L90.4671 4.04297C91.1652 4.1955 91.8785 4.33321 92.5659 4.52316C93.0835 4.66617 93.4618 5.13665 93.504 5.66947C93.6375 7.33915 93.7377 9.01106 93.8601 10.6815L94.7644 23.4837L95.2498 30.2C95.3099 31.0712 95.4054 31.974 95.3748 32.8427C95.3453 32.9721 95.2952 33.1084 95.2197 33.2181C94.6468 34.053 93.5098 33.4006 92.8334 33.0944C92.3027 32.854 91.8125 32.6329 91.3023 32.4024L85.6001 29.828L74.7564 24.9429L71.2732 23.375C70.6201 23.0813 69.9484 22.7932 69.3079 22.4724C68.6885 22.1622 68.5487 21.6174 68.6273 20.9663C68.8162 19.3995 69.0399 17.8341 69.2541 16.2691L70.4328 7.59309L71.0601 2.89868C71.1624 2.13296 71.2521 1.28692 71.4151 0.532066C71.4758 0.251437 71.7132 0.130607 71.9475 0.000244141ZM94.5798 33.0308C94.8847 32.725 94.8135 32.5447 94.7781 32.1241C94.6098 30.1126 94.4753 27.7448 94.3223 25.7692C94.2621 24.9891 93.8332 18.2441 93.7493 18.1264C93.6781 18.1617 93.6 18.18 93.5968 18.245C93.5388 19.396 93.5747 21.0715 93.58 22.178L93.5895 28.1999C93.5947 29.6936 93.6243 31.2938 93.5852 32.7801C93.9957 32.9568 94.1345 33.0515 94.5798 33.0308ZM93.5631 16.3956C93.5583 16.6926 93.5019 17.8645 93.6301 18.0476L93.7388 18.0802C93.7572 17.7656 93.7894 16.574 93.5631 16.3956ZM83.3947 3.52063C83.5572 3.6651 92.0673 6.1025 92.9648 6.36541C92.9374 6.00332 92.9469 5.23633 92.5105 5.12934C89.5971 4.41489 86.6416 3.78429 83.7018 3.18231C83.6712 3.19998 83.6411 3.21766 83.6105 3.23533C83.4839 3.0578 82.826 2.96191 82.5743 2.90819C82.5274 3.01664 82.4699 3.16406 82.4166 3.26534C82.7368 3.3552 83.0697 3.45609 83.3947 3.52063ZM70.3304 13.8944L72.0287 5.80839C72.3738 4.17382 72.712 2.42098 73.1008 0.802463C72.7642 0.726635 72.3965 0.636814 72.0599 0.578473C71.9016 0.845175 70.7657 9.76222 70.6369 10.7139L70.2808 13.2602C70.2354 13.5807 70.1014 14.3715 70.1231 14.6622C70.1848 14.6232 70.2455 14.2854 70.2681 14.1843L70.3304 13.8944ZM69.2937 20.5746C69.1876 21.2708 69.0436 21.7852 69.8302 22.0744C70.8939 22.4652 80.6671 27.0957 80.9826 27.0321L81.01 27.005L81.1873 26.8843C81.1524 26.6785 80.5151 26.4367 80.3046 26.323C79.3496 25.8108 78.391 25.3051 77.4292 24.806L72.3791 22.1732C71.3998 21.6608 70.2771 21.0387 69.2937 20.5746Z" fill="white"/>
<path d="M82.418 3.26542L78.9116 2.2122C78.7011 2.14868 78.0833 2.0208 77.9219 1.92468C78.1382 1.87636 82.0936 2.79992 82.5758 2.90827C82.5288 3.01672 82.4713 3.16414 82.418 3.26542Z" fill="white"/>
<path d="M85.0934 28.9378C84.3242 28.5682 81.7084 27.5357 81.2773 27.0727L81.386 26.9759L81.3818 26.9741C81.9031 27.0927 84.426 28.4649 85.1182 28.8249L85.0934 28.9378Z" fill="white"/>
<path d="M82.5757 2.9082C82.8274 2.96187 83.4853 3.05765 83.6119 3.23499L83.3961 3.51999C83.0711 3.45551 82.7382 3.35473 82.418 3.26497C82.4713 3.1638 82.5288 3.01654 82.5757 2.9082Z" fill="white"/>
<path d="M93.5633 16.3953C93.7896 16.5737 93.7575 17.7652 93.739 18.0798L93.6303 18.0473C93.5021 17.8642 93.5586 16.6923 93.5633 16.3953Z" fill="white"/>
<path d="M93.5205 14.561C93.6741 14.7546 93.6034 15.4831 93.5886 15.7463C93.4646 15.2567 93.4915 15.0583 93.5205 14.561Z" fill="white"/>
<path d="M85.1186 28.8252C85.3702 28.9518 85.7633 29.1312 85.9733 29.301C85.7216 29.2531 85.3328 29.0575 85.0938 28.938L85.1186 28.8252Z" fill="white"/>
<path d="M2.7637 37.5478C3.46001 36.197 4.13294 35.2703 5.72489 34.7048C6.96057 34.2658 9.51709 34.3209 8.75709 36.4448C8.48174 37.2144 7.02024 37.215 6.39942 37.2132C2.7025 37.7466 2.90039 41.5775 2.90149 44.2216L2.90417 47.2056C2.90856 48.2007 3.16952 49.5588 1.84775 49.8779C0.945921 50.0956 0.20983 49.5917 0 48.6872V35.7972C0.158309 35.3044 0.269796 35.0442 0.753233 34.7982C1.41571 34.4611 2.26954 34.6501 2.58098 35.3579C2.87708 36.0308 2.74714 36.8368 2.7637 37.5478Z" fill="white"/>
<path d="M100.49 42.503C98.9935 41.0421 97.9863 38.7628 96.9116 36.981C96.6568 36.5588 95.3863 34.4395 95.513 34.1045C95.6934 34.1087 95.8559 34.2992 95.9403 34.444C96.9718 36.2138 97.9167 38.0365 98.975 39.7911C99.491 40.647 99.9469 41.3912 100.666 42.0916C101.121 40.5686 102.301 38.2111 103.957 37.6928C104.749 37.4451 105.735 37.5361 106.471 37.9306C107.414 38.4365 107.748 39.1183 108.053 40.0879V40.9994C107.905 41.5025 107.796 41.9063 107.5 42.3468C106.068 44.4765 102.683 44.0204 100.823 42.767C99.0595 47.5003 97.3358 52.0325 92.3527 54.2826C91.8789 54.4964 90.9719 54.8025 90.5931 55.0005H90.2929C90.2766 54.9229 90.2454 54.7492 90.2924 54.707C90.5578 54.47 91.5117 54.2362 91.8367 54.0836C97.1184 51.6032 98.6073 47.4757 100.49 42.503ZM100.98 42.3941C101.929 43.0094 102.974 43.3724 104.114 43.4048C108.496 43.9424 108.842 37.5795 104.644 37.97C102.589 38.2256 101.572 40.6621 100.98 42.3941Z" fill="white"/>
</g>
<defs>
<clipPath id="clip0_30141_32246">
<rect width="108.052" height="55" fill="white"/>
</clipPath>
</defs>
</svg>
