<svg width="128" height="30" viewBox="0 0 128 30" fill="none" xmlns="http://www.w3.org/2000/svg">
<g clip-path="url(#clip0_30141_32235)">
<path d="M53.334 0.105469C54.3254 0.186795 56.0928 0.131311 57.1388 0.130012L64.5569 0.121911C68.1844 0.132818 71.7551 0.604155 74.4681 3.4231C76.5226 5.55826 77.296 8.54058 77.2646 11.4897C77.231 14.7057 76.5046 17.3196 74.2486 19.6366C70.5113 22.8868 66.7614 22.6227 62.2612 22.6609C59.4904 22.6844 56.0658 22.5481 53.3395 22.6959L53.334 0.105469ZM58.7433 18.2859L62.7375 18.2933C65.4602 18.2976 67.8536 18.4543 70.0007 16.334C72.3187 14.1417 72.3277 8.93738 70.2351 6.57681C68.9555 5.13401 67.0556 4.55832 65.2146 4.4966C63.072 4.45517 60.8726 4.47969 58.7218 4.48471C58.7834 5.86457 58.7769 7.39873 58.7528 8.78494C58.698 11.9281 58.8379 15.1513 58.7433 18.2859Z" fill="white"/>
<path d="M22.2539 0.117795C24.7074 0.136894 27.161 0.133274 29.6145 0.106934L29.6189 22.6889C28.0917 22.6087 25.9158 22.6316 24.3788 22.6881C24.425 19.4629 24.3874 16.1414 24.3884 12.9086C24.3839 11.4163 24.2957 7.79396 24.4666 6.50169C23.7446 8.06722 23.0256 9.82093 22.3226 11.4185L17.364 22.6549C15.9371 22.7298 13.9391 22.6605 12.4426 22.6754L5.29568 6.61581C5.26328 8.24926 5.31166 10.0648 5.31278 11.7145L5.31144 22.6905C3.81401 22.6006 1.62012 22.6388 0.101339 22.6847C0.218845 17.4068 0.114179 11.6732 0.115597 6.35223L0.100517 2.42129C0.0983522 1.84792 0.0746123 0.635615 0.156882 0.120976C2.57234 0.133385 4.98781 0.132283 7.40319 0.117672C7.6462 0.540129 8.10831 1.66217 8.32451 2.15272L10.0882 6.15602C11.6155 9.62129 13.4419 13.5095 14.8366 16.9933C16.372 13.413 17.9287 9.84255 19.5066 6.28221C20.3166 4.44558 21.3641 1.85714 22.2539 0.117795Z" fill="white"/>
<path d="M45.663 8.46614C47.3449 8.47288 49.0268 8.46676 50.7086 8.44777C50.7665 11.5828 50.6787 14.7553 50.7173 17.8947C50.7353 19.3653 50.8061 21.4694 50.5058 22.8738C50.2227 24.2201 49.6038 25.4655 48.711 26.4853C46.3758 29.1355 43.0289 29.7491 39.7588 29.9004C36.2138 29.7778 32.9565 29.1274 30.1426 26.7018C30.7951 25.5651 31.3656 24.324 32.0259 23.1574C32.8319 23.7148 33.6738 24.2973 34.5648 24.6991C37.5691 26.0543 41.7324 26.4371 44.3383 23.9922C45.7484 22.6691 45.6595 21.3835 45.7382 19.5737C43.1881 23.8118 37.9391 24.4213 34.3012 21.4587C31.1487 18.8914 32.1439 12.3073 32.0139 8.46544C32.6948 8.45568 36.5507 8.38166 36.9318 8.56898C37.0187 8.73312 37.0977 8.96716 37.0947 9.1558C37.0382 11.148 37.0711 13.1486 37.0476 15.1395C37.0179 17.665 38.6215 19.495 41.1135 19.4645C42.3861 19.448 43.6003 18.908 44.4899 17.9632C45.4947 16.892 45.6977 15.5938 45.6937 14.1565C45.6884 12.2593 45.6903 10.3633 45.663 8.46614Z" fill="white"/>
<path d="M109.842 5.85106C113.251 5.48683 118.693 6.77058 119.57 10.719C119.873 12.0834 119.77 14.3513 119.768 15.8042L119.773 22.6933C118.555 22.6281 116.753 22.6303 115.542 22.7029C115.353 21.7357 115.061 20.6202 114.832 19.6504C112.204 23.4961 106.171 24.228 102.283 21.9027C101.275 21.2998 100.754 20.2518 100.53 19.0848C100.516 18.9449 100.505 18.8047 100.496 18.6643C100.447 17.7365 100.732 16.7513 101.262 16.0043C104.187 11.8839 113.452 13.3743 114.702 11.8976C114.83 11.7472 114.891 11.5676 114.875 11.368C114.841 10.9506 114.595 10.6147 114.294 10.3556C113.204 9.41865 111.316 9.27923 109.971 9.41602C107.716 9.64533 105.346 10.6793 103.886 12.5266C102.978 12.029 101.674 11.1191 100.753 10.5403C102.351 7.31249 106.578 6.05519 109.842 5.85106ZM106.617 19.2804C109.232 20.2473 113.603 19.502 114.675 16.3989C114.805 16.0221 114.853 15.7521 114.718 15.3713C114.506 15.2275 114.479 15.2848 114.175 15.3069C112.389 15.4845 105.557 15.3611 105.514 18.0179C105.503 18.6301 106.096 19.0604 106.617 19.2804Z" fill="white"/>
<path d="M87.9964 5.85008C92.7347 5.52433 97.8538 7.81647 98.4324 13.3335C98.4899 13.8766 98.5294 15.4835 98.251 15.9219C97.9255 16.0281 94.7168 15.9854 94.1614 15.9851L84.0411 15.9933C84.4137 17.1132 84.8452 17.8504 85.8792 18.5103C88.286 20.0466 91.8471 19.8104 94.3801 18.6987C94.9975 18.4279 95.8 17.7163 96.4279 17.4591C96.4742 17.4403 96.5735 17.5251 96.631 17.563C97.2357 18.2977 98.08 19.1803 98.7392 19.8833C93.8389 25.5356 79.4021 24.2779 78.8272 14.9262C78.6764 12.7681 79.358 10.6363 80.722 9.00002C82.5256 6.87553 85.3528 6.01996 87.9964 5.85008ZM83.9919 13.0566L89.4984 13.0647C90.7661 13.0632 92.1658 13.0898 93.423 13.0519C93.105 11.7025 92.7832 10.8794 91.582 10.1007C90.8071 9.59792 89.0498 9.16393 88.1778 9.41038C85.9516 9.70231 84.5727 10.7941 83.9919 13.0566Z" fill="white"/>
<path d="M122.185 0.0999914L127.202 0.0805664C127.193 7.57575 127.13 15.2106 127.218 22.6956C125.727 22.6099 123.676 22.6369 122.174 22.6893C122.223 20.1943 122.181 17.5298 122.181 15.021L122.185 0.0999914Z" fill="white"/>
<path d="M36.2383 0.0981467C37.7143 -0.102354 39.0666 0.979337 39.2561 2.51201C39.4456 4.0447 38.4003 5.44586 36.9233 5.63882C35.4516 5.8311 34.1076 4.75055 33.9187 3.22319C33.7298 1.69584 34.7674 0.297951 36.2383 0.0981467Z" fill="white"/>
<path d="M45.975 0.0998954C47.4469 -0.103407 48.7989 0.970626 48.9946 2.49872C49.1903 4.02681 48.1555 5.43021 46.6834 5.63314C45.2116 5.83606 43.86 4.76207 43.6644 3.23424C43.4687 1.7064 44.5031 0.303164 45.975 0.0998954Z" fill="white"/>
</g>
<defs>
<clipPath id="clip0_30141_32235">
<rect width="127.31" height="30" fill="white"/>
</clipPath>
</defs>
</svg>
