<svg width="165" height="40" viewBox="0 0 165 40" fill="none" xmlns="http://www.w3.org/2000/svg">
<path d="M74.2933 1.73682C75.9755 1.75266 77.6578 1.75815 79.3401 1.75327C80.3565 3.59065 80.9877 6.03832 81.9093 7.95508C82.2566 8.67812 82.4331 9.48273 82.8285 10.2335L82.9279 10.257C83.2809 9.6707 83.3811 8.98531 83.661 8.42C84.6059 6.51 85.4264 3.72229 86.4114 1.96472C86.6263 1.58233 90.4411 1.76735 91.3089 1.71265C91.361 2.71913 91.2816 4.02873 91.3001 5.07744C91.361 8.46023 91.191 12.0337 91.3338 15.3977C90.0697 15.3793 88.7815 15.3914 87.515 15.3913C87.4894 13.1886 87.5142 10.9374 87.5134 8.73062C87.491 7.76487 87.5391 6.73001 87.5656 5.75973C86.9143 7.60279 86.129 9.42203 85.3518 11.2183C84.735 12.644 84.1647 14.0862 83.5496 15.5152C82.8461 15.5307 81.7216 15.6801 81.0831 15.4141C80.8104 15.3008 77.4864 6.88257 77.0557 5.84551C77.1804 8.85742 77.0919 12.3519 77.0895 15.3977L74.3112 15.3927C74.2297 14.078 74.2929 12.092 74.2927 10.7379L74.2933 1.73682Z" fill="white"/>
<path d="M1.35156 22.5053C2.54626 22.4826 3.77811 22.499 4.97588 22.5015C4.86905 24.5563 4.95345 26.6258 4.89997 28.687C6.53187 28.6937 8.16383 28.6916 9.79567 28.6806C9.74706 26.6694 9.78268 24.5199 9.78011 22.498L13.2968 22.5037C12.987 25.46 13.4901 34.6297 13.1637 38.0614C13.1607 38.094 12.9876 38.1014 12.9233 38.1089C11.8954 38.0435 10.8215 38.0846 9.78901 38.1058L9.79158 31.6408L4.89007 31.6405C4.91818 31.8812 4.92815 32.1134 4.92459 32.3553C4.89641 34.2699 4.9699 36.1975 4.92227 38.1106C3.77958 38.0537 2.52308 38.0926 1.36311 38.0805L1.35156 22.5053Z" fill="white"/>
<path d="M107.561 1.74209C108.804 1.68505 110.689 1.74629 112.011 1.73855C112.81 2.8325 113.982 5.34695 114.687 6.64483C115.275 7.72684 116.526 9.97877 116.883 10.9866C116.765 8.0451 116.834 4.71875 116.831 1.74387L119.648 1.74549C119.699 2.42608 119.659 3.54955 119.659 4.26177L119.656 9.1283L119.663 12.9644C119.667 13.6832 119.708 14.7178 119.639 15.3992C118.224 15.3713 116.754 15.3881 115.335 15.3854C114.629 14.7568 113.459 12.1332 112.915 11.1411C112.055 9.56963 110.962 7.67248 110.282 6.03045C110.402 6.84124 110.36 8.5544 110.36 9.43291L110.357 15.3973C109.436 15.3811 108.479 15.3924 107.556 15.3914C107.462 11.0706 107.502 6.0762 107.561 1.74209Z" fill="white"/>
<path d="M33.4125 25.8924C34.8699 25.6962 37.084 26.2722 38.4976 26.667C38.5086 30.1006 38.334 34.8404 38.7663 38.1142C37.8157 38.0574 36.8181 38.0837 35.8628 38.093C35.7585 37.6753 35.7183 37.2964 35.6658 36.8719C35.1657 37.3809 34.8305 37.7319 34.1634 38.0444C30.8639 39.5825 27.7821 37.0677 27.7176 33.5987C27.6397 29.4077 28.4939 26.2724 33.4125 25.8924ZM34.1572 35.8179L34.9484 35.0021C35.193 33.6923 35.0515 30.0153 35.0597 28.4948C34.2175 28.3228 33.8287 28.2942 32.9706 28.3759C30.9483 29.0605 30.8807 32.2259 31.1259 33.9291C31.2974 35.1204 31.9117 35.9762 33.1846 36.0474C33.6089 35.9871 33.7536 35.9565 34.1572 35.8179Z" fill="white"/>
<path d="M58.9501 22.507C60.1308 22.4939 61.3116 22.4948 62.4923 22.5096L62.3933 27.0007C63.8606 25.5799 66.7378 25.4041 68.2307 26.8525C68.678 27.2883 68.991 27.8374 69.1343 28.4376C69.3773 29.4509 69.3057 31.4657 69.3039 32.596L69.3038 38.0717C68.162 38.0871 66.995 38.0774 65.8509 38.08C65.8136 36.3907 65.8511 34.5523 65.8522 32.8517C65.8646 31.4073 66.3653 28.1821 64.2297 28.3693C62.0328 28.562 62.4186 31.4938 62.4254 32.9885C62.4322 34.682 62.4491 36.3753 62.476 38.0686C61.3974 38.1291 60.1135 38.0489 58.9621 38.1039C58.8317 33.0942 58.9562 27.5729 58.9501 22.507Z" fill="white"/>
<path d="M94.8228 1.73333C97.5859 1.776 100.36 1.73476 103.124 1.7508C103.721 1.75426 104.311 1.7421 104.907 1.69751L104.903 4.29797C103.514 4.15162 100.122 4.20509 98.6551 4.25499C98.6527 5.27384 98.6583 6.2927 98.672 7.31147C100.238 7.21752 102.358 7.3334 104.074 7.2677C104.058 8.0512 104.058 8.83495 104.073 9.61846C103.335 9.6144 99.0634 9.5551 98.6808 9.66455L98.6575 9.8244C98.6543 10.7946 98.6583 11.7647 98.6711 12.7348C100.802 12.7475 102.934 12.7448 105.066 12.7267L105.058 15.3963C101.693 15.3437 98.2124 15.3871 94.8388 15.392C94.7634 14.0448 94.8236 12.1215 94.8228 10.74V1.73333Z" fill="white"/>
<path d="M61.5996 1.70581C63.7223 1.86221 66.0355 1.69551 68.1787 1.75224C69.2846 1.78152 70.5501 1.76616 71.6479 1.70684C71.6945 2.52267 71.669 3.47921 71.6536 4.30166C70.3484 4.15901 66.8179 4.19905 65.4417 4.26212C65.4349 5.27839 65.4393 6.2947 65.4551 7.31087C67.2456 7.32604 69.0364 7.31409 70.8266 7.27502L70.8329 9.61785C70.2089 9.61285 65.7201 9.5216 65.4469 9.70949L65.4463 9.90246C65.4375 10.8465 65.4401 11.7906 65.4539 12.7346C67.5807 12.7453 69.7075 12.7436 71.8343 12.729C71.7762 13.269 71.8075 14.7868 71.8044 15.3962C68.4279 15.3553 64.9893 15.3867 61.608 15.3925L61.5996 1.70581Z" fill="white"/>
<path d="M126.292 1.60739C128.482 1.45581 129.707 1.58241 131.791 2.08894L131.79 4.708C129.753 3.89634 128.378 3.64978 126.241 4.20366C125.027 5.79842 126.647 6.05817 127.815 6.61497C129.718 7.5364 132.485 8.28216 132.787 10.7053C133.199 13.9981 130.846 15.2078 127.941 15.6022C126.121 15.8916 124.145 15.4448 122.312 15.1984L122.318 12.4315C123.517 12.7884 128.719 14.2475 129.049 11.8422C129.163 11.0071 126.273 9.95904 125.519 9.64982C123.066 8.6442 121.481 7.19613 122.202 4.39624C122.595 2.86455 124.767 1.76831 126.292 1.60739Z" fill="white"/>
<path d="M45.7534 1.59293C47.4723 1.44269 49.202 1.6449 50.8677 2.06044C50.9664 2.91902 50.9352 3.84986 50.9279 4.71825C48.9584 3.93009 47.4328 3.6053 45.3589 4.22051C45.0157 4.69722 44.6389 5.46806 45.3485 5.85479C47.0564 6.77131 48.9119 7.35357 50.523 8.44787C52.2248 9.60381 52.4014 12.1551 51.2177 13.7257C50.2371 15.0268 48.6321 15.3737 47.0852 15.6015C44.9644 15.9088 43.5334 15.4072 41.4561 15.2114L41.4533 12.4201C42.6705 12.8189 44.6342 13.2278 45.9151 13.2165C46.5466 13.1958 47.4443 12.9277 47.8949 12.4882C48.3683 12.0298 47.9335 11.229 47.4924 10.954C45.0757 9.44725 40.8239 9.09358 41.2348 5.3427C41.3296 4.47718 41.3925 3.78997 42.0903 3.11548C42.963 2.27189 44.534 1.64722 45.7534 1.59293Z" fill="white"/>
<path d="M21.2126 25.888C24.9386 25.5452 27.1707 28.4729 24.9655 31.7346C23.9738 33.2016 20.911 33.5267 19.1813 33.6782C19.9527 36.6003 22.3496 36.2627 24.5259 35.1276C25.1864 34.7831 25.464 35.9805 25.6294 36.4266C25.698 36.6229 25.8513 36.9317 25.9437 37.1317C23.6251 38.6378 19.9873 39.1162 17.6811 37.3185C15.0387 35.2587 15.2389 30.307 17.2018 27.8713C18.2985 26.5103 19.5042 26.0672 21.2126 25.888ZM19.028 31.2963C19.6641 31.2652 20.0539 31.25 20.6734 31.1241C22.9794 30.4892 23.8612 28.0846 21.3298 28.2139C19.6633 28.4476 19.3319 29.9443 19.028 31.2963Z" fill="white"/>
<path d="M96.3028 25.8886C100.071 25.5673 102.31 28.5031 99.986 31.7856C98.9513 33.2472 95.9868 33.5257 94.2367 33.6718C95.4326 36.924 97.5757 36.0894 100.044 34.949C100.247 35.3366 100.511 36.009 100.685 36.4269L101.085 37.142C98.4861 38.5565 95.3764 39.2127 92.7448 37.2951C91.6131 36.47 91.0412 35.0029 90.9032 33.6665C90.6963 31.665 90.9746 29.4153 92.3213 27.7988C93.4923 26.3929 94.5407 26.079 96.3028 25.8886ZM94.0915 31.3136C94.5743 31.2772 95.1438 31.2525 95.6082 31.1429C98.1805 30.6645 98.7652 28.1208 96.4071 28.2147C94.7773 28.5511 94.3385 29.8605 94.0915 31.3136Z" fill="white"/>
<path d="M107.977 25.8907C110.17 25.5851 112.345 26.6758 112.567 29.0037C112.66 29.9941 112.344 30.9798 111.689 31.7422C110.36 33.2999 107.849 33.5081 105.958 33.6714C106.192 34.5494 106.52 35.3509 107.453 35.7338C108.972 36.3573 110.338 35.5159 111.714 34.981C111.933 35.5179 112.159 36.1341 112.486 36.6084L112.644 36.9345C112.571 37.713 109.879 38.3318 109.118 38.4318C102.502 39.3009 100.853 32.153 103.993 27.7887C104.888 26.5447 106.422 26.041 107.977 25.8907ZM107.231 31.1498C108.299 31.0422 109.628 30.2509 109.501 29.0637C109.475 28.8207 109.349 28.5982 109.152 28.4476C108.795 28.1737 108.46 28.1998 108.026 28.2154C106.416 28.5123 106.071 29.938 105.753 31.3001C106.24 31.2755 106.762 31.268 107.231 31.1498Z" fill="white"/>
<path d="M84.4151 25.8824C88.2298 25.6249 88.918 27.9384 88.8282 31.0677C88.7624 33.3781 88.8811 35.7667 88.8298 38.0897C87.6956 38.0758 86.5607 38.0713 85.4265 38.0763C85.4009 36.3077 85.469 34.5669 85.4369 32.7554C85.3503 31.7299 85.7097 29.3681 84.8562 28.6388C84.1801 28.0606 82.7845 28.5642 82.2759 29.2539C81.757 30.1893 81.9334 31.7542 81.9222 32.8347C81.9038 34.5871 81.9784 36.3483 81.9351 38.1031C80.7849 38.067 79.634 38.0659 78.484 38.0994C78.2963 34.0706 78.6579 30.455 78.2695 26.1967C79.1482 26.1985 81.0463 25.7817 81.226 26.806C81.2605 27.0062 81.2725 27.4006 81.2822 27.6184C82.373 26.403 82.7002 26.1164 84.4151 25.8824Z" fill="white"/>
<path d="M49.7334 22.5033C50.4681 22.5049 52.536 22.3443 53.0057 22.6639C53.3213 23.0475 53.1091 25.5597 53.1055 26.189C54.1716 26.1943 55.2378 26.1866 56.3037 26.1661L56.3056 28.7696L53.1036 28.7608C53.15 30.4358 52.9021 33.6953 53.2098 35.1938C54.0438 36.2393 54.4726 35.9265 55.6935 35.5501C56.0012 36.0008 56.1255 36.4512 56.2984 36.9636L56.4996 37.6804C54.53 38.6424 50.6681 39.2285 49.8914 36.382C49.6284 35.4184 49.7274 33.8845 49.7299 32.8543C49.7355 31.499 49.7314 30.1436 49.7177 28.7884C49.0211 28.7619 48.5452 28.7643 47.8496 28.804L47.8619 26.1874L49.7278 26.1806L49.7334 22.5033Z" fill="white"/>
<path d="M127.613 25.8839C127.655 25.8789 127.697 25.8748 127.739 25.8717C129.099 25.7737 130.997 26.0298 132.066 26.9221C131.92 27.3404 131.252 28.6284 131.021 29.1277C130.049 28.5954 129.373 28.2572 128.207 28.2676C127.584 28.2732 126.726 28.8876 126.853 29.4218C127.252 30.5731 129.46 30.8947 130.555 31.2803C133.051 32.1592 133.558 35.1798 131.938 37.0597C131.122 38.0068 129.589 38.3961 128.276 38.453C126.061 38.4783 125.665 38.2101 123.645 37.4762C123.908 36.9008 124.309 35.8109 124.601 35.3636C125.239 35.0193 128.196 36.9832 129.214 35.5858C129.432 35.2883 129.52 34.9182 129.456 34.5576C129.236 33.3161 126.05 33.3443 124.921 32.3812C123.389 31.0734 123.389 28.9825 124.396 27.3999C125.055 26.3638 126.506 26.0511 127.613 25.8839Z" fill="white"/>
<path d="M41.4101 22.5085C42.014 22.5046 44.2721 22.4471 44.7465 22.5789C45.2436 23.234 44.5526 33.7935 45.083 35.3722C45.3846 36.2699 46.8354 35.7446 47.4966 35.5693C47.6885 35.905 48.0822 37.1892 48.228 37.6187L47.9104 37.8234C45.7436 38.783 42.025 39.0424 41.5304 35.9624C41.3122 34.6039 41.4426 32.7827 41.4462 31.3735C41.4535 28.4185 41.4415 25.4634 41.4101 22.5085Z" fill="white"/>
<path d="M54.098 1.73564C55.4119 1.75194 56.7777 1.77622 58.0868 1.71826C58.1479 4.47366 58.0306 7.43794 58.0716 10.223C58.0895 11.4429 58.1648 14.3301 58.0568 15.3977C56.7647 15.3722 55.4262 15.3901 54.1305 15.3914C54.0328 14.3199 54.1017 11.9063 54.102 10.7438L54.098 1.73564Z" fill="white"/>
<path d="M120.497 25.8812C121.261 25.782 122.115 26.033 122.836 26.2487C122.736 26.9646 122.395 28.3012 122.232 29.0665C121.142 28.6761 120.769 28.6658 119.658 28.7615C118.093 29.8836 118.461 31.3354 118.467 33.0407C118.484 34.7295 118.484 36.4183 118.466 38.107C117.567 38.0695 116.778 38.0714 115.881 38.0829L115.09 38.0976C114.986 35.7947 115.149 33.1976 115.088 30.8676C115.045 29.2136 115.202 27.8546 114.785 26.1822C115.682 26.2061 116.705 26.1779 117.612 26.1702C117.731 26.5951 117.824 27.3789 117.891 27.8413C118.547 26.5078 118.974 26.1075 120.497 25.8812Z" fill="white"/>
<path d="M72.1836 26.1619C73.3341 26.2008 74.4874 26.1766 75.6386 26.1626C75.6583 28.6762 75.6602 31.1898 75.6445 33.7034C75.6475 34.7391 75.7157 37.1987 75.6156 38.0873C74.4745 38.073 73.3333 38.0791 72.1925 38.1055L72.1836 26.1619Z" fill="white"/>
<path d="M159.383 17.6743C161.142 17.5334 162.689 18.7979 162.852 20.5095C163.015 22.2211 161.733 23.7415 159.978 23.9181C158.825 24.0341 157.698 23.5384 157.026 22.6201C156.353 21.7018 156.239 20.5024 156.727 19.4792C157.215 18.4561 158.229 17.7669 159.383 17.6743Z" fill="white"/>
<path d="M153.535 24.1102C154.897 23.9781 156.113 24.9446 156.253 26.2716C156.393 27.5986 155.404 28.7859 154.042 28.9265C152.675 29.0677 151.449 28.0996 151.308 26.7666C151.168 25.4337 152.166 24.2431 153.535 24.1102Z" fill="white"/>
<path d="M153.543 12.6824C154.891 12.5536 156.097 13.5 156.254 14.8104C156.411 16.121 155.463 17.3127 154.121 17.49C153.23 17.6078 152.343 17.2479 151.802 16.5489C151.26 15.8498 151.149 14.9207 151.511 14.119C151.872 13.3172 152.649 12.7679 153.543 12.6824Z" fill="white"/>
<path d="M147.751 7.52081C148.293 7.46998 148.832 7.64606 149.233 8.00512C149.782 8.4963 149.989 9.25239 149.764 9.94442C149.539 10.6365 148.924 11.1393 148.186 11.2342C147.498 11.3225 146.815 11.0425 146.399 10.5018C145.983 9.96114 145.899 9.24403 146.18 8.62606C146.459 8.00809 147.06 7.58552 147.751 7.52081Z" fill="white"/>
<path d="M147.336 19.0347C148.341 18.7219 149.416 19.261 149.739 20.2396C150.063 21.2183 149.512 22.2669 148.507 22.5836C147.5 22.901 146.42 22.3622 146.096 21.3808C145.772 20.3994 146.327 19.3483 147.336 19.0347Z" fill="white"/>
<path d="M147.409 30.4324C148.412 30.1633 149.451 30.723 149.75 31.693C150.05 32.663 149.499 33.6882 148.51 34.0017C147.85 34.211 147.125 34.0557 146.617 33.596C146.107 33.1364 145.894 32.4442 146.058 31.7874C146.223 31.1307 146.74 30.6121 147.409 30.4324Z" fill="white"/>
<path d="M73.3833 20.8629C74.3177 20.807 75.2216 20.9409 75.6356 21.8901C75.8086 22.2841 75.8109 22.7295 75.642 23.1253C75.3756 23.7557 75.0176 23.878 74.426 24.1211C74.3445 24.1328 74.2627 24.1422 74.1806 24.149C73.3251 24.2194 72.8806 23.9701 72.2463 23.4488C71.7412 22.0579 72.0735 21.4166 73.3833 20.8629Z" fill="white"/>
<path d="M141.742 25.1202C142.53 24.9503 143.31 25.4284 143.495 26.1929C143.679 26.9574 143.199 27.7242 142.416 27.9135C141.901 28.0381 141.357 27.8832 140.991 27.508C140.627 27.1328 140.497 26.5953 140.652 26.1009C140.808 25.6066 141.224 25.232 141.742 25.1202Z" fill="white"/>
<path d="M141.695 13.708C142.469 13.5149 143.259 13.9584 143.476 14.707C143.693 15.4555 143.257 16.2358 142.494 16.4649C141.983 16.6181 141.428 16.4899 141.042 16.13C140.657 15.7701 140.503 15.235 140.638 14.732C140.774 14.229 141.178 13.837 141.695 13.708Z" fill="white"/>
<path d="M135.815 19.7748C137.359 19.5623 138.047 21.1727 136.475 21.8842C135.306 22.1551 134.198 20.6546 135.815 19.7748Z" fill="white"/>
</svg>
