<svg width="110" height="55" viewBox="0 0 110 55" fill="none" xmlns="http://www.w3.org/2000/svg">
<g clip-path="url(#clip0_30141_33125)">
<path d="M52.066 0H57.6163C58.3655 0.180632 61.2229 0.248257 62.1436 0.28618C64.698 0.36587 67.2504 0.513369 69.7974 0.728523C81.0396 1.67541 94.586 4.04203 105.096 8.3271C106.197 8.76964 107.285 9.24421 108.359 9.75018C108.72 9.91832 109.368 10.2 109.694 10.3865C109.816 11.8044 109.728 14.3664 109.727 15.877L109.723 26.3789L109.728 38.1805C109.729 40.0131 109.813 42.8008 109.677 44.5824C107.643 45.5571 105.752 46.4326 103.627 47.2278C92.465 51.4048 80.4939 53.3423 68.6791 54.3398C66.3873 54.531 64.0911 54.6537 61.7923 54.7088C60.4876 54.7509 59.1884 54.7558 57.8827 54.8611C57.5631 54.8871 56.7741 54.9136 56.484 55H53.9569C53.5847 54.8914 52.294 54.8703 51.802 54.846L46.0569 54.611C43.4154 54.5008 40.7773 54.3198 38.1453 54.0691C35.6922 53.8548 33.2345 53.5459 30.8064 53.2007C21.1506 51.8283 11.4963 49.6394 2.52052 45.7295C1.67561 45.3615 0.857774 44.8793 0 44.5353V10.4427C11.9655 4.49107 27.1398 1.80151 40.3551 0.691563C42.6841 0.515178 45.0166 0.387304 47.3509 0.308026C48.1952 0.273053 51.4579 0.210483 52.066 0Z" fill="white"/>
<path d="M51.4429 5.53568C55.1873 5.45075 58.9331 5.4984 62.6741 5.67848C74.513 6.18774 86.9981 7.77626 98.221 11.734C100.418 12.5089 102.485 13.4631 104.581 14.473L104.583 40.4646C104.136 40.7268 103.419 41.048 102.929 41.2785C101.245 42.068 99.523 42.7703 97.7682 43.3829C85.5592 47.6911 71.5052 49.0669 58.6157 49.4302C44.4054 49.5846 29.9948 48.6294 16.2563 44.6825C12.6082 43.6343 8.72647 42.214 5.36328 40.4495L5.36349 14.4839C7.35652 13.5262 9.3515 12.6096 11.4343 11.864C24.0479 7.34858 38.1316 5.86557 51.4429 5.53568Z" fill="#F05758"/>
<path d="M52.8513 7.26671C55.5493 7.19334 58.6624 7.27422 61.3651 7.3705C74.6054 7.84216 90.846 9.77369 102.866 15.5594L102.861 39.3364C101.941 39.9796 98.9499 41.1377 97.8349 41.5416C90.0296 44.3689 81.7119 45.8574 73.4904 46.7556C68.0049 47.3583 62.4925 47.6767 56.9743 47.7095C41.31 47.8602 21.387 46.1823 7.10904 39.3867C7.18623 38.622 7.13187 36.6919 7.13209 35.8493L7.13246 28.6534L7.13031 20.0492C7.12945 18.8114 7.19278 16.7195 7.09766 15.5781C19.9679 9.17918 38.6905 7.51778 52.8513 7.26671Z" fill="white"/>
<path d="M79.2269 15.5514C82.4377 15.4225 85.1448 17.9373 85.272 21.1675C85.3988 24.3978 82.898 27.1198 79.6866 27.2464C76.4769 27.373 73.772 24.8589 73.6452 21.6301C73.5185 18.4014 76.0171 15.6802 79.2269 15.5514Z" fill="#F05758"/>
<path d="M78.988 17.1902C80.8088 17.0536 81.5898 18.2689 81.7783 19.941C81.9749 21.6858 82.0742 24.9259 79.9451 25.5489C78.5954 25.7167 77.664 25.097 77.345 23.7638C76.9008 21.9106 76.6602 17.8774 78.988 17.1902Z" fill="white"/>
<path d="M58.2824 16.0646C60.0978 16.0245 62.0126 16.0509 63.8372 16.0428C64.2991 17.7428 64.8383 19.4212 65.3013 21.1211C65.4404 21.6328 65.5817 22.1444 65.7525 22.6465C66.3863 20.459 67.0652 18.285 67.678 16.09C69.3538 15.9984 71.4491 16.0478 73.163 16.0452C73.1614 16.533 73.1528 17.0208 73.1378 17.5083C72.7011 17.5182 72.2515 17.5472 71.8143 17.5699C71.8073 19.9057 71.737 22.9945 71.8637 25.2718L73.1711 25.3327L73.163 26.7337L67.7812 26.739L67.771 25.3452C68.0932 25.3328 68.5122 25.2774 68.8403 25.2425C68.9064 23.439 68.8779 21.5381 68.8629 19.7331C68.8511 19.0685 68.8543 18.3906 68.8511 17.7249C68.5621 18.5406 68.2866 19.6747 68.0529 20.5325C67.6877 21.87 67.3053 23.2028 66.9062 24.5306C66.6903 25.2674 66.4991 26.0108 66.2472 26.7356C65.5103 26.7494 64.7492 26.7322 64.0101 26.7235C63.104 23.6803 62.236 20.6256 61.4067 17.5603C61.3557 18.2732 61.3761 19.3192 61.3702 20.0579C61.3455 21.795 61.3563 23.5325 61.403 25.2692L62.5062 25.3135L62.5094 26.7252C61.1946 26.7744 59.6117 26.7455 58.2856 26.7331C58.2759 26.2761 58.2851 25.7936 58.2872 25.3345C58.6449 25.3322 59.2121 25.3627 59.5236 25.2099C59.731 24.9354 59.7294 18.3659 59.6343 17.6331C59.4087 17.4504 58.6476 17.4961 58.3211 17.4955C58.2797 17.0025 58.2824 16.5574 58.2824 16.0646Z" fill="#F05758"/>
<path d="M52.4453 28.8207L56.0454 28.808C57.6632 28.803 58.9534 28.7162 60.5609 29.1228C63.609 29.8937 64.6193 32.8023 63.8851 35.6637C63.5773 36.8645 62.878 37.5772 61.8129 38.1838C59.9486 39.116 58.5457 38.9999 56.5208 39.0003L52.4816 38.9979L52.4894 37.6657C52.8921 37.6585 53.3703 37.6147 53.7778 37.5875C53.8879 36.7201 53.8379 34.8997 53.8385 33.9773C53.8395 32.8848 53.8986 31.287 53.8267 30.2294C53.3305 30.1777 52.9494 30.1602 52.4498 30.1497L52.4453 28.8207Z" fill="#F05758"/>
<path d="M56.8346 30.1166C58.7257 30.0743 60.3849 30.2061 60.6502 32.5535C60.8086 33.9562 60.8479 35.716 59.9622 36.9002C59.1339 37.7619 57.9303 37.6683 56.84 37.6629C56.8775 35.1713 56.7819 32.6202 56.8346 30.1166Z" fill="white"/>
<path d="M11.9321 28.8103C13.4119 28.82 14.8918 28.8197 16.3717 28.8091C18.4097 28.8019 22.8021 28.5018 21.6403 32.185C21.402 32.9403 20.2628 33.3445 19.5679 33.6084C20.0182 33.8075 20.5056 33.9114 20.9674 34.1335C22.3717 34.8088 22.7427 36.2077 22.0853 37.5842C20.9239 39.3271 18.1031 39.0063 16.2686 39.0036L11.9254 39.0087L11.9288 37.6996C12.2188 37.6841 12.7735 37.698 12.975 37.5035C13.1503 36.9502 13.0972 31.2032 13.0574 30.2174C12.6727 30.176 12.3002 30.1615 11.9141 30.1437L11.9321 28.8103Z" fill="#F05758"/>
<path d="M16.0667 34.3542C17.3807 34.3427 19.4181 34.2149 19.2345 36.1791C19.1915 36.64 19.1 36.8418 18.8072 37.2035C17.9897 37.8011 17.0615 37.6814 16.0722 37.6816C16.0615 36.5725 16.0596 35.4634 16.0667 34.3542Z" fill="white"/>
<path d="M16.0598 30.1144C17.0478 30.1086 18.8345 29.9744 18.8714 31.4101C18.8853 31.9489 18.794 32.2566 18.4293 32.6467C17.7958 33.1014 16.8213 33.046 16.0562 33.0638C16.0506 32.0807 16.0518 31.0975 16.0598 30.1144Z" fill="white"/>
<path d="M75.4599 28.8139C77.14 28.8331 78.8206 28.7996 80.5012 28.8082C82.437 28.8319 86.0087 28.4105 86.2021 31.1986C86.3117 32.7841 85.0027 33.3567 83.7158 33.614C84.2169 33.7971 84.63 33.9178 85.0543 34.2353C86.1924 35.0762 85.1413 36.707 85.8573 37.7334C86.114 38.102 86.5668 37.572 86.6683 37.3296C86.7687 37.0903 86.7516 36.8388 86.7542 36.5906C87.1372 36.5737 87.4793 36.5874 87.8623 36.6009C87.8113 36.9579 87.7672 37.3406 87.6781 37.6885C87.2414 39.3872 85.4185 39.4944 84.0338 39.0813C81.6394 37.9219 83.2802 35.5107 82.4128 34.6338C81.9745 34.1912 80.4035 34.3545 79.818 34.3572C79.8137 35.3611 79.7783 36.6036 79.8803 37.5925C80.4217 37.659 80.7418 37.6556 81.2854 37.654C81.287 38.1169 81.2784 38.5868 81.2741 39.0503C80.6511 38.9775 79.6956 38.9996 79.043 38.9987L75.4508 38.998C75.4481 38.5628 75.4578 38.1144 75.461 37.6779C75.9234 37.6637 76.2838 37.6543 76.7393 37.5896C76.9026 36.8333 76.9214 31.1194 76.7919 30.3181C76.6185 30.1382 75.7414 30.1541 75.4492 30.1437C75.4368 29.6849 75.4459 29.2731 75.4599 28.8139Z" fill="#F05758"/>
<path d="M79.8938 30.12C81.2725 30.1053 83.7491 29.8883 83.1755 32.0908C83.1025 32.3709 82.9768 32.5076 82.7764 32.7059C82.0196 33.1465 80.7333 33.0454 79.8164 33.0548C79.8143 32.5983 79.7407 30.2961 79.8938 30.12Z" fill="white"/>
<path d="M85.7832 16.0671L90.5334 16.0554C90.9121 16.6623 91.3648 17.5193 91.7274 18.1546C92.7474 19.9435 93.7217 21.6986 94.7975 23.4554C94.8168 21.7598 94.8663 19.2175 94.7631 17.5559C94.4339 17.5045 93.9242 17.4981 93.5772 17.4844L93.5675 16.0955C94.9452 16.0644 96.3659 16.0728 97.7468 16.0651L97.735 17.4999C97.2983 17.5051 96.9567 17.5203 96.5216 17.5587L96.5168 26.7335L95.9512 26.7452L93.2904 26.7371C93.0363 26.133 91.8558 24.1507 91.4895 23.5226C90.5919 21.9846 89.702 20.2334 88.7771 18.7408C88.7104 20.6717 88.6906 23.3641 88.7916 25.2499C89.2078 25.2968 89.5924 25.3164 90.0108 25.3373C89.9904 25.7965 89.9947 26.2651 89.9941 26.7254C88.6492 26.7526 87.2597 26.7411 85.9137 26.7386C85.8955 26.2795 85.8955 25.8053 85.8906 25.3447C86.2795 25.3139 86.5862 25.2796 86.9718 25.2198C87.0733 24.5409 87.0304 22.9178 87.0272 22.1738L87.0212 17.5749C86.6055 17.5359 86.2188 17.5145 85.8009 17.4953C85.7837 17.0355 85.7886 16.5308 85.7832 16.0671Z" fill="#F05758"/>
<path d="M45.2276 15.7438C46.7851 15.6902 47.4646 16.0663 48.8005 16.6935C48.8235 16.4541 48.8348 16.1844 48.8505 15.9417L50.2813 15.9203L50.277 19.6767L48.8493 19.6617C48.4035 18.1175 47.4496 17.3691 45.8441 17.1912C44.9455 17.0917 43.9027 17.4108 43.8225 18.4593C43.7356 19.5945 45.6157 19.7748 46.3889 19.9601C48.601 20.4039 51.0098 21.1038 50.8103 23.9106C50.6261 26.5038 48.0173 27.1696 45.842 27.0201C45.0567 27.0071 44.2262 26.8059 43.5316 26.4357C43.3259 26.326 42.9899 26.0311 42.7855 26.0669C42.6569 26.2625 42.6128 26.6466 42.5686 26.8909C42.117 26.9115 41.5946 26.8929 41.1376 26.8872C41.1285 25.5479 41.1302 24.2086 41.1426 22.8694L42.5954 22.8703C42.931 24.8092 44.3908 25.5652 46.2018 25.589C47.0185 25.5997 48.1159 24.9631 48.0107 24.0979C47.8571 22.8352 45.0243 22.6976 44.0869 22.3806C42.9286 22.0655 41.6002 21.4973 41.1605 20.2544C40.8095 19.2625 40.9628 17.8667 41.6995 17.0593C42.5855 16.0884 43.9922 15.8177 45.2276 15.7438Z" fill="#F05758"/>
<path d="M64.1284 28.8104C67.5853 28.8255 71.0426 28.8222 74.4995 28.8005L74.5274 32.4682L73.1084 32.4661C73.0724 31.8196 73.0557 31.2471 72.5621 30.7463C71.75 29.923 69.6091 30.1185 68.4854 30.1388C68.4978 31.1372 68.5021 32.1356 68.4989 33.134C69.7632 33.086 70.2225 33.0721 70.2649 31.6751C70.6999 31.6605 71.1603 31.665 71.598 31.6623L71.5958 35.9088C71.186 35.916 70.6989 35.8866 70.2837 35.8714C70.2101 34.5826 69.8502 34.231 68.5381 34.4352L68.4908 34.5225C68.5247 35.5508 68.5198 36.6405 68.5327 37.6739C68.9436 37.676 69.4066 37.6704 69.8148 37.6787C72.0406 37.7242 72.9816 37.515 73.0638 35.0684L74.543 35.0664C74.5424 36.3835 74.5312 37.7006 74.5081 39.0175C71.0942 38.9503 67.5509 38.9948 64.1295 39.0005L64.123 37.6833C64.4351 37.6731 65.2284 37.7162 65.4229 37.4918C65.5673 36.8489 65.5877 31.0035 65.4707 30.3156C65.3009 30.1371 64.4233 30.1628 64.1338 30.156C64.1198 29.6996 64.123 29.2671 64.1284 28.8104Z" fill="#F05758"/>
<path d="M92.0971 28.5468C93.5709 28.3057 94.8337 28.8276 96.1394 29.3688C96.2103 29.1747 96.2688 28.9341 96.3236 28.7313L97.6519 28.6918C97.6508 29.879 97.6562 31.0662 97.6685 32.2533L96.2554 32.2181C96.0851 31.721 95.9245 31.308 95.5153 30.8961C94.6113 29.9875 92.5601 29.4281 91.51 30.3431C91.2871 30.5653 91.2227 30.8725 91.2275 31.1692C91.2431 32.1133 92.4699 32.2533 93.1772 32.4075C94.6059 32.7192 96.242 32.928 97.3688 33.951C97.9043 34.4374 98.1734 35.3085 98.1868 36.0227C98.2132 38.5157 95.8456 39.2533 93.8078 39.2848C92.175 39.2984 91.5584 38.9681 90.1877 38.3186C90.1007 38.5512 90.0072 38.8635 89.9283 39.1048C89.4604 39.1398 88.9851 39.1345 88.5157 39.1358C88.4888 37.9045 88.5135 36.5787 88.5167 35.3412C88.9937 35.3335 89.4701 35.3347 89.9471 35.3448C90.4444 37.1975 91.8302 37.9772 93.7219 37.8956C94.1993 37.875 94.8573 37.6537 95.1307 37.2275C95.9681 35.7999 94.2901 35.4349 93.2959 35.225C91.444 34.8341 88.6553 34.4943 88.3943 32.1533C88.1144 29.6465 90.0486 28.797 92.0971 28.5468Z" fill="#F05758"/>
<path d="M36.369 16.0469L37.0902 16.0295L37.0679 17.5021C36.5776 17.5055 36.1779 17.5017 35.6888 17.5705C35.649 19.3384 35.9378 23.6524 35.3801 25.0469C35.0728 25.815 34.4731 26.3355 33.7274 26.6515C32.3404 27.2391 30.2357 27.2254 28.8495 26.6476C26.7932 25.7906 26.8507 24.0059 26.8515 22.094C26.8504 21.0942 26.8549 20.0943 26.8653 19.0945C26.869 18.755 26.9138 17.9263 26.7958 17.6379C26.5895 17.4412 25.7606 17.4823 25.4426 17.4794C25.4318 17.0254 25.4414 16.5364 25.4419 16.0795L26.1501 16.0721L31.3322 16.043L31.306 17.4896C30.8325 17.4875 30.359 17.4987 29.8861 17.5233C29.8099 18.4013 29.7875 24.059 30.0112 24.6144C30.1581 24.9867 30.4512 25.2816 30.8214 25.4294C31.318 25.6295 32.3603 25.6827 32.8511 25.4317C34.7105 24.4809 33.8171 21.2195 34.0155 19.4865C34.0594 19.1024 34.015 17.8616 33.9222 17.6415C33.7037 17.4528 32.9689 17.4953 32.6513 17.4937C32.6291 17.0334 32.6324 16.5451 32.628 16.0822C33.8749 16.0629 35.122 16.0512 36.369 16.0469Z" fill="#F05758"/>
<path d="M23.9726 28.8238L28.4656 28.8045L28.4298 30.1609C27.9328 30.1663 27.436 30.1799 26.9395 30.2019C26.9432 31.4034 26.796 36.1589 27.0799 36.9745C27.1918 37.296 27.4526 37.5406 27.7518 37.6871C28.3282 37.9695 29.2314 38.0333 29.8334 37.8109C30.2775 37.6468 30.6108 37.3077 30.801 36.8749C30.9317 36.5779 30.9918 36.2591 31.0213 35.9375C31.0861 35.2303 31.1393 30.7767 30.9702 30.3255C30.7553 30.1189 30.0209 30.1508 29.696 30.1444C29.6688 29.718 29.6699 29.2497 29.6628 28.8193L34.1882 28.8037L34.164 30.164L32.7979 30.1974C32.689 31.9776 33.03 35.8627 32.4851 37.2855C32.2011 38.0271 31.6266 38.5489 30.9153 38.8628C29.4758 39.4982 27.2838 39.4352 25.835 38.864C23.8718 38.0899 23.9469 36.4108 23.947 34.6264C23.9457 33.656 23.9503 32.6857 23.9605 31.7155C23.9639 31.3587 24.0072 30.6314 23.8768 30.3304C23.6638 30.1312 22.8992 30.1628 22.5727 30.1554L22.5547 28.8335L23.9726 28.8238Z" fill="#F05758"/>
<path d="M13.9926 16.0728L17.8826 16.0474L17.8691 17.4989C17.3282 17.5045 16.9578 17.5106 16.416 17.5757C16.3358 20.0482 16.3952 22.8365 16.39 25.3371C18.4377 25.3518 20.4143 25.6852 20.4395 22.9626C20.4407 22.8322 20.4537 22.6831 20.4597 22.5511C20.9304 22.5343 21.4392 22.5401 21.9132 22.5364L21.9045 25.6899L21.9015 26.722C18.7358 26.8033 15.2177 26.7529 12.0343 26.749C12.0304 26.2818 12.0373 25.8054 12.0393 25.3373C12.4203 25.3393 13.075 25.3975 13.3518 25.1635C13.4907 24.6213 13.495 18.3701 13.3913 17.6413C13.1292 17.4281 12.3971 17.4863 12.0303 17.4885L12.0234 16.0962C12.6666 16.0746 13.3464 16.0783 13.9926 16.0728Z" fill="#F05758"/>
<path d="M41.8574 28.8225L47.7729 28.8113L47.7483 30.1797C47.265 30.1821 46.7819 30.191 46.2989 30.2065L46.2998 37.6752C47.2995 37.6742 48.9737 37.8358 49.6735 37.1613C50.2963 36.561 50.2911 35.825 50.3313 35.0392C50.7568 35.007 51.3335 35.0174 51.7704 35.0126L51.761 36.3788C51.7231 37.2194 51.7328 38.1558 51.7242 39.0037L41.9025 38.9903L41.8971 37.6658C42.252 37.6754 42.9905 37.7767 43.2048 37.4413C43.3317 36.8198 43.3782 30.5603 43.234 30.3005C42.924 30.0939 42.2933 30.1382 41.8989 30.1337L41.8574 28.8225Z" fill="#F05758"/>
<path d="M51.4383 16.073C53.229 15.9962 55.423 16.047 57.2481 16.0413C57.253 16.5257 57.246 17.0101 57.2288 17.4942C56.7218 17.4918 56.2948 17.498 55.7888 17.5271L55.7877 21.9536C55.7883 23.0299 55.7679 24.2129 55.8323 25.2784C56.2942 25.3036 56.7787 25.3118 57.2422 25.3269C57.2417 25.5731 57.2691 26.5775 57.1837 26.7264C55.3371 26.7722 53.254 26.7561 51.4071 26.7347C51.4074 26.2675 51.4136 25.8003 51.4254 25.3332C51.8579 25.3306 52.2967 25.2966 52.7288 25.2684C52.8507 24.6806 52.8209 22.9805 52.8221 22.3084C52.8331 20.7095 52.8288 19.1106 52.8092 17.512L51.4514 17.4826C51.4322 17.1769 51.3682 16.3373 51.4383 16.073Z" fill="#F05758"/>
<path d="M35.1154 28.8158L41.0381 28.8064L41.0284 30.1545C40.5283 30.1654 40.0283 30.18 39.5285 30.1984L39.5144 34.7228C39.5135 35.5454 39.4823 36.7883 39.5779 37.5789C40.0695 37.6773 40.5381 37.6645 41.0364 37.6672L41.0306 39.0032L35.1254 39.0033L35.124 37.6871C35.4869 37.6744 36.1869 37.7257 36.4422 37.5004C36.611 36.9969 36.5821 31.1042 36.5441 30.2116C36.0777 30.1525 35.6071 30.1484 35.1372 30.136C35.1214 29.6961 35.1141 29.256 35.1154 28.8158Z" fill="#F05758"/>
<path d="M37.3443 24.337C38.0574 24.2 38.7461 24.67 38.8829 25.3872C39.0197 26.1044 38.5531 26.7975 37.8402 26.9359C37.1264 27.0744 36.4362 26.6042 36.2992 25.886C36.1622 25.1679 36.6303 24.4741 37.3443 24.337Z" fill="#F05758"/>
<path d="M24.0845 24.3248C24.7996 24.2228 25.4624 24.7208 25.5681 25.4395C25.6739 26.1582 25.1829 26.828 24.469 26.9387C23.749 27.0504 23.0761 26.5513 22.9694 25.8263C22.8628 25.1014 23.3631 24.4276 24.0845 24.3248Z" fill="#F05758"/>
</g>
<defs>
<clipPath id="clip0_30141_33125">
<rect width="110" height="55" fill="white"/>
</clipPath>
</defs>
</svg>
