<svg width="123" height="70" viewBox="0 0 123 70" fill="none" xmlns="http://www.w3.org/2000/svg">
<g clip-path="url(#clip0_30141_32826)">
<path d="M74.0184 22.628C78.6391 22.4969 82.4987 26.1191 82.6594 30.7371C82.8201 35.3552 79.2222 39.237 74.6039 39.4274C69.9432 39.6196 66.0167 35.9822 65.8548 31.3219C65.6923 26.6617 69.3559 22.7602 74.0184 22.628ZM74.8907 35.0371C77.1072 34.6903 78.6206 32.6102 78.2681 30.3955C77.9156 28.1807 75.8311 26.6729 73.6163 27.0309C71.4099 27.3875 69.9079 29.4624 70.2592 31.6694C70.6105 33.8763 72.6825 35.3828 74.8907 35.0371Z" fill="white"/>
<path d="M84.8861 23.2646L89.7589 23.2544C90.6653 23.2538 91.5614 23.2331 92.4791 23.277C96.7503 23.4815 99.3002 28.3681 96.8256 31.9206C96.3458 32.6098 95.795 33.0694 95.1545 33.6149C95.3308 34.0814 95.8607 35.0668 96.0985 35.5302C96.6577 36.6087 97.208 37.6916 97.7493 38.7788C96.3261 38.926 94.6305 38.7912 93.1847 38.8107C93.0085 38.8131 92.9206 38.7471 92.8203 38.6212C92.3363 37.3965 91.6158 35.8912 91.05 34.6841C90.3785 34.6316 89.7601 34.6531 89.0886 34.6651C89.1836 35.5072 89.1352 37.3774 89.1143 38.2865C89.0378 37.8673 89.1035 35.7042 89.0533 35.0169C89.0014 36.0772 89.0181 37.7578 89.0659 38.8115C87.8524 38.8638 86.0613 38.8423 84.8401 38.8097L84.8496 28.3559C84.8485 27.0489 84.7738 24.4837 84.8861 23.2646ZM92.7079 30.2858C93.4219 29.4631 93.496 28.2752 92.6655 27.5219C91.9731 26.8935 90.0445 27.0995 89.137 27.1121C88.9625 27.7304 89.0031 30.0126 89.0808 30.6901C89.8264 30.8149 91.8757 30.8936 92.4923 30.4603C92.5681 30.4078 92.6404 30.3494 92.7079 30.2858Z" fill="white"/>
<path d="M99.908 23.2623C101.292 23.2522 102.675 23.2549 104.059 23.2703L104.063 33.2036C104.063 33.8895 104.113 38.6684 103.999 38.8192C102.627 38.823 101.146 38.8539 99.7819 38.8063C99.724 34.12 99.8017 29.4206 99.77 24.7332C99.767 24.2754 99.7574 23.7851 99.7825 23.3304L99.908 23.2623Z" fill="white"/>
<path d="M69.2032 46.5977C70.0539 46.5266 70.2816 46.776 71.0714 46.9176C71.0911 46.9212 71.3343 46.7338 71.3289 46.7343C71.7274 46.6995 72.3613 46.7331 72.749 46.7451C72.7717 47.4498 72.6875 48.1004 72.6839 48.7897C72.6773 49.9227 72.6708 51.0439 72.6511 52.1774C72.0183 52.2057 71.5852 52.1785 70.9644 52.0316C70.8886 52.0137 70.7213 52.0971 70.6299 52.1321C66.4919 53.4678 65.2677 47.3604 69.2032 46.5977ZM70.045 50.9986C70.5486 50.7776 70.8975 50.5668 71.1084 50.0218C71.2614 49.6162 71.2446 49.1662 71.0624 48.7732C70.8916 48.4136 70.5845 48.1369 70.2093 48.0041C69.9577 47.9151 69.7498 47.9149 69.4869 47.9177C68.9522 48.0937 68.7138 48.1743 68.4283 48.7124C68.2269 49.0911 68.212 49.6524 68.3572 50.0549C68.4844 50.4159 68.7527 50.7096 69.101 50.8684C69.4338 51.0212 69.6895 51.0289 70.045 50.9986Z" fill="white"/>
<path d="M59.1742 54.7339C60.0837 54.6567 61.6382 54.8959 62.2626 55.7022C62.6324 56.1794 61.6161 56.6495 61.2816 56.8083C60.7761 56.4246 60.3179 56.1888 59.6654 56.1903C59.0699 56.1868 58.4978 56.4217 58.0766 56.8425C57.6198 57.3061 57.3675 57.9331 57.3759 58.5837C57.3843 59.1898 57.6332 59.768 58.0679 60.1903C58.8042 60.8945 60.1673 61.1346 61.0318 60.4519C61.2923 60.2464 61.7804 59.777 61.7679 59.4346C61.413 59.1162 60.5694 59.4453 60.0472 59.246C59.9707 59.1266 60.0293 58.1289 60.0347 57.9063C60.1685 57.8938 60.3824 57.8935 60.5234 57.8885C61.4554 57.8863 62.3874 57.8889 63.3195 57.8966C63.3416 58.9273 63.3565 59.7399 62.7716 60.6681C62.2835 61.4428 61.505 61.9899 60.61 62.1864C59.5822 62.4068 58.4104 62.2383 57.5254 61.656C56.6981 61.1184 56.1207 60.2721 55.9222 59.3063C55.7187 58.2759 55.9358 57.2069 56.5251 56.3373C57.1781 55.3843 58.0792 54.9392 59.1742 54.7339Z" fill="white"/>
<path d="M94.6381 56.9278L94.6811 56.9952C95.8933 56.2446 96.8397 56.4483 97.9157 57.3263C99.7254 55.8347 101.984 56.539 101.931 59.036C101.909 60.0587 101.962 61.1284 101.906 62.1498C101.391 62.1569 101.008 62.1629 100.498 62.1133C100.503 60.8979 101.04 56.7261 98.6536 58.2719C98.0286 58.6763 98.2599 61.4175 98.2318 62.1504C97.6911 62.1563 97.2824 62.1641 96.7471 62.1074C96.7393 61.4145 96.7567 60.7074 96.7447 60.0157C96.7196 58.5676 96.8917 57.8961 95.2302 57.987L95.1262 57.9768C94.1368 58.2927 94.4565 60.9761 94.4374 61.8977C94.0012 61.9371 93.7676 61.9312 93.3333 61.9138C93.246 60.5915 93.2675 58.238 93.3135 56.8881C93.7521 56.8547 94.2043 56.8559 94.6381 56.9278Z" fill="white"/>
<path d="M66.0937 56.6022C67.6531 56.233 69.2172 57.1975 69.5864 58.7566C69.9562 60.3155 68.9914 61.8792 67.432 62.2489C65.872 62.6186 64.3079 61.654 63.9381 60.0945C63.5689 58.5351 64.5338 56.9715 66.0937 56.6022ZM67.0783 60.9199C67.6178 60.8041 68.0516 60.4039 68.2111 59.8759C68.37 59.3475 68.2302 58.7745 67.8448 58.3795C67.4601 57.9844 66.8907 57.8295 66.3584 57.975C65.5656 58.1916 65.09 58.9999 65.2847 59.7977C65.4801 60.5962 66.2753 61.0937 67.0783 60.9199Z" fill="white"/>
<path d="M58.779 44.7607C60.2123 44.7702 60.8049 45.1152 61.645 46.2284C61.1544 46.5969 60.7792 46.6494 60.1931 46.8337C60.1573 46.7815 60.1197 46.7302 60.0814 46.6798C59.3399 45.7139 57.6681 46.2039 57.7603 46.8208C58.0035 48.4486 62.1181 47.262 61.8093 50.1096C61.6079 51.9618 60.0952 52.4459 58.6025 52.3402C58.2587 52.2951 57.9195 52.2203 57.5887 52.1164C56.7042 51.8294 56.3684 51.383 55.9707 50.6186C56.384 50.3839 57.0223 50.1513 57.4677 49.9855C57.9123 50.6265 58.2555 50.9954 59.0935 50.982C59.5753 50.9742 60.3831 50.6824 60.3144 50.094C60.2123 49.2219 58.6098 49.2582 57.9447 49.0394C56.9658 48.7443 56.2768 48.3021 56.2083 47.2113C56.1061 45.585 57.2645 44.8312 58.779 44.7607Z" fill="white"/>
<path d="M105.08 56.581C107.193 56.469 108.202 57.8704 108.139 59.8639C107.597 59.8609 104.525 59.8041 104.206 59.9045L104.167 60.0048C104.211 60.2091 104.303 60.4002 104.437 60.5615C105.054 61.317 106.046 61.0333 106.7 60.4934C106.912 60.5495 107.138 60.663 107.34 60.7538L107.854 61.0674C107.82 61.1205 107.785 61.1725 107.747 61.2227C106.856 62.4357 104.752 62.6442 103.687 61.7363C101.776 60.1052 102.451 56.9381 105.08 56.581ZM104.652 58.0491C104.453 58.279 104.262 58.515 104.078 58.757C104.536 58.7722 104.98 58.789 105.438 58.7811L106.626 58.7719C106.516 58.5795 106.392 58.3471 106.272 58.1653C105.892 57.9574 105.733 57.8901 105.298 57.8932C105.092 57.9421 104.853 57.9929 104.652 58.0491Z" fill="white"/>
<path d="M80.3801 46.6028C81.9359 46.3518 83.3453 47.6232 83.3895 49.1536C83.3967 49.392 83.3889 49.6401 83.3823 49.8786C82.142 49.885 80.6777 49.8333 79.4613 49.9032C79.8388 51.5133 80.9812 51.0422 82.1026 50.6084C82.1593 50.5865 82.5029 50.731 82.5788 50.7624C82.7598 50.8372 82.982 51.0125 83.1469 51.132C82.7054 51.7925 82.2221 52.1251 81.4269 52.2853C78.6451 52.8459 76.9968 49.9458 78.4677 47.6796C78.914 46.9911 79.5987 46.7341 80.3801 46.6028ZM81.0899 48.8287C81.3098 48.8314 81.5667 48.8649 81.7381 48.7419C82.0249 48.1769 80.9113 47.8982 80.4721 47.9222C80.1447 48.0342 79.5592 48.2453 79.5592 48.6784C79.84 48.9276 80.6502 48.8289 81.0899 48.8287Z" fill="white"/>
<path d="M78.4804 56.5826C78.7577 56.5569 79.0367 56.566 79.3115 56.6096C79.9938 56.7267 80.6014 57.1102 81.0005 57.6757C81.4665 58.3349 81.5669 59.0751 81.4378 59.8554C80.7555 59.8686 78.1477 59.7993 77.6619 59.905C77.604 59.9665 77.5478 59.9916 77.5729 60.0639C77.932 61.1067 78.8019 61.0464 79.5284 60.9287C80.0374 60.51 80.0876 60.4324 80.6868 60.7328L81.2664 61.0625C80.7878 61.6962 80.3672 62.0743 79.5666 62.211C78.8007 62.3526 77.7707 62.2869 77.1344 61.7661C75.1526 60.1433 75.8367 56.9363 78.4804 56.5826ZM77.512 58.7713L78.7899 58.7812C79.2046 58.7775 79.6365 58.7801 80.0494 58.7691C79.6885 58.1538 79.4991 57.8734 78.7135 57.8881C78.2307 57.9867 77.9971 58.0253 77.7091 58.4577C77.6416 58.561 77.5759 58.6655 77.512 58.7713Z" fill="white"/>
<path d="M111.713 56.5809C111.841 56.5699 111.97 56.5662 112.099 56.5696C114.878 56.6365 114.252 60.1992 114.213 62.1487C113.698 62.1607 113.326 62.1523 112.812 62.1201C112.829 61.6052 112.841 61.0898 112.848 60.5749C112.852 59.8648 112.897 58.7125 112.352 58.2031C112.06 57.93 111.774 57.9595 111.407 57.9667C110.025 58.3346 110.375 60.9452 110.357 62.1475C109.848 62.1583 109.465 62.1595 108.958 62.1254C108.945 60.4202 108.92 58.3723 108.979 56.6861C109.337 56.6773 109.988 56.6399 110.311 56.7169L110.367 56.8445C110.632 57.0282 111.122 56.6414 111.646 56.5872L111.713 56.5809Z" fill="white"/>
<path d="M89.4791 56.5852C90.1715 56.5293 90.8484 56.6145 91.3604 57.1269C92.0917 57.8591 91.9782 58.9184 91.9776 59.8645C91.9776 60.623 91.9633 61.3833 91.9525 62.1424C91.4489 62.161 91.0175 62.164 90.5168 62.1114C90.4905 61.0966 90.5784 60.0502 90.5156 59.0439C90.4565 58.0951 89.813 57.8948 89.0089 58.0104C87.8534 58.4784 88.1127 61.0751 88.1121 62.146C87.6072 62.1622 87.2607 62.152 86.7559 62.1198C86.7917 60.328 86.7308 58.4623 86.8102 56.6814C87.2069 56.6725 87.6712 56.6462 88.0601 56.6954C88.1198 56.8149 88.1204 56.8268 88.1426 56.9615L88.1485 56.9964C88.4467 56.9967 88.8111 56.6644 89.4791 56.5852Z" fill="white"/>
<path d="M74.3293 45.1474C74.8157 45.1346 75.2817 45.1423 75.768 45.151C75.7686 45.652 75.7949 46.2031 75.808 46.7082C76.3947 46.7334 76.9533 46.6898 77.5436 46.7714C77.5472 47.0833 77.5795 47.6017 77.4719 47.8733C77.2162 48.1297 76.3021 48.0159 75.8044 48.0269C75.7692 48.6093 75.713 49.6874 75.8068 50.2483C75.9538 51.1317 76.85 50.8774 77.4666 50.7011C77.5568 50.9157 77.6733 51.2977 77.7521 51.5298L77.8143 51.8008C77.5753 52.6483 75.2536 52.3824 74.7673 51.71C74.119 50.8131 74.3222 49.1234 74.3186 48.0093C73.9434 48.0022 73.5777 47.9896 73.2025 48.0129C73.19 47.5487 73.2007 47.1948 73.2252 46.7307L74.3252 46.7241L74.3293 45.1474Z" fill="white"/>
<path d="M115.81 55.0917C116.252 55.0762 116.721 55.0881 117.166 55.0922L117.183 56.6802L118.897 56.6807C118.925 57.0933 118.913 57.5286 118.91 57.9436L117.177 57.9552C117.169 58.7013 117.025 60.281 117.53 60.8293C117.885 61.2157 118.315 60.6567 118.743 60.6764C119.03 60.8729 119.096 61.3788 119.194 61.7455C119.185 61.8327 119.146 61.896 119.107 61.9761C118.695 62.2347 118.441 62.2819 117.959 62.2849C115.198 62.3004 115.696 59.8916 115.73 57.9698C115.365 57.9467 114.913 57.9486 114.541 57.9408C114.53 57.5057 114.542 57.121 114.559 56.6865L115.733 56.6793C115.724 56.3776 115.647 55.2947 115.81 55.0917Z" fill="white"/>
<path d="M63.2618 45.1472C63.7225 45.1421 64.1831 45.1405 64.6437 45.1424L64.6485 46.7069C66.2473 46.7779 66.5233 46.1981 66.4164 48.0025C65.8303 48.0003 65.2448 48.0126 64.6599 48.0394C64.6497 48.2912 64.6431 48.5522 64.6401 48.8044C64.6204 50.2452 64.4579 51.3085 66.3196 50.6911C66.4552 50.9691 66.5203 51.1464 66.6225 51.4401L66.696 51.7582C66.5968 52.1711 66.0364 52.3173 65.6767 52.3363C64.3575 52.4058 63.1973 51.8114 63.2457 50.3568C63.2708 49.6222 63.263 48.7408 63.2122 48.0139C62.837 48.0055 62.4618 47.9898 62.0872 47.9668C62.0627 47.5335 62.0574 47.177 62.0621 46.7431C62.4296 46.726 62.8311 46.7246 63.2021 46.7161C63.2481 46.1472 63.2624 45.7185 63.2618 45.1472Z" fill="white"/>
<path d="M74.2897 56.7003C74.7008 56.6635 75.3729 56.6783 75.8031 56.6752C75.7147 57.2285 75.508 57.6016 75.2743 58.1113C74.9446 59.2572 74.0388 60.8823 73.6558 62.1377C73.0948 62.167 72.5673 62.173 72.0111 62.0935C71.646 60.8883 70.9141 59.4671 70.4601 58.2673C70.2737 57.7753 69.9606 57.1965 69.877 56.6856C70.3997 56.6733 70.895 56.6823 71.4184 56.6937C71.686 57.2519 72.5171 59.6666 72.8122 59.9631L72.921 59.9505C73.1343 59.68 74.0066 57.2906 74.2897 56.7003Z" fill="white"/>
<path d="M85.4266 56.6407C85.6543 56.6268 85.8652 56.6634 86.091 56.6932C86.3694 58.7309 85.291 57.8466 84.4002 58.5568C83.5978 59.1964 83.8338 61.1176 83.7777 62.1419C83.2907 62.1688 82.8928 62.1449 82.4059 62.121C82.2822 61.9197 82.3354 57.3196 82.3366 56.6947C82.7733 56.6689 83.326 56.6813 83.7723 56.68L83.835 57.5418C84.3727 56.979 84.6714 56.7792 85.4266 56.6407Z" fill="white"/>
<path d="M93.0928 56.6888C93.4931 56.6709 94.0649 56.6219 94.4514 56.7081C94.5656 56.7335 94.5662 56.7991 94.6373 56.9283C94.2035 56.8564 93.7512 56.8552 93.3127 56.8886C93.2667 58.2385 93.2452 60.592 93.3324 61.9143C93.7668 61.9317 94.0004 61.9376 94.4365 61.8982C94.4556 60.9766 94.136 58.2932 95.1254 57.9773L95.2293 57.9875C94.2131 58.9502 94.6217 60.6756 94.544 62.1479C94.0093 62.1592 93.6287 62.1598 93.097 62.1198C93.0707 60.3274 93.0922 58.4851 93.0928 56.6888Z" fill="white"/>
<path d="M86.6407 56.6587C86.7805 57.0136 86.7046 61.3892 86.6885 62.0796C86.5445 61.7284 86.612 57.3272 86.6407 56.6587Z" fill="white"/>
<path d="M0.126953 0H66.2567C62.709 7.76361 58.8127 15.4793 55.3119 23.2392C57.5355 23.3316 59.9093 23.211 62.1426 23.2558C62.8165 23.2693 64.3878 23.2023 64.9835 23.3195C65.005 23.7036 65.0421 26.2369 64.9596 26.48C64.8766 25.7593 64.9548 24.3504 64.922 23.5088C64.8574 23.6569 64.9028 26.6824 64.8933 27.1041C63.6799 27.1076 61.9198 27.0546 60.7505 27.1395C60.7057 28.2736 60.7464 29.5538 60.738 30.7023C60.7195 33.3998 60.7673 36.1128 60.7267 38.8097C59.5308 38.8615 57.6492 38.8497 56.4509 38.8053C56.39 34.9609 56.5469 30.938 56.429 27.1173C55.6009 27.1017 54.2378 27.0601 53.4503 27.1715C53.1885 27.5851 52.5375 29.0584 52.2824 29.5964C51.4838 31.2632 50.6953 32.935 49.9171 34.6115C49.2398 34.2385 48.5973 33.765 47.8918 33.4362C47.0818 34.3616 46.1832 35.0186 44.9195 35.1569C43.8431 35.285 42.761 34.9686 41.9234 34.2808C41.0246 33.5402 40.454 32.5821 40.3446 31.4087C40.2489 30.3008 40.6024 29.2009 41.3256 28.3561C42.7525 26.6559 45.1956 26.4015 46.9838 27.7356C47.3316 27.995 47.6258 28.3584 47.9618 28.6485C48.3509 28.4051 51.1507 26.7031 51.2247 26.5574C51.221 26.5143 51.2055 26.4106 51.183 26.3782C48.9937 23.2218 44.5937 22.2417 41.1111 23.5419C39.0911 24.3103 37.4544 25.8421 36.5544 27.8064C35.7003 29.671 35.6199 31.798 36.331 33.7217C37.1338 35.8094 38.7372 37.4901 40.7851 38.3907C43.2371 39.4837 45.7138 39.1993 48.1507 38.2617L38.3589 59.0522L35.1303 65.8621C34.5406 67.1086 33.7748 68.6281 33.2716 69.8799C32.7178 69.1369 31.4148 66.1972 30.9498 65.2147L26.493 55.778L21.1924 44.5941C20.3285 42.7729 19.2278 40.5963 18.474 38.7706C19.3891 38.7433 20.4043 38.7626 21.3273 38.7608L25.8633 28.8401C26.6147 27.185 27.7011 24.9783 28.3304 23.3273C26.9786 23.2049 25.3769 23.3291 24.0086 23.3256C23.5929 23.3246 23.0765 24.7194 22.9031 25.0931L20.9224 29.3733C20.636 29.9912 20.0659 31.3101 19.695 31.8126L19.6756 31.8385C19.5187 31.163 18.9573 30.0501 18.6444 29.3747L16.855 25.5316C16.5423 24.8615 16.1246 24.0366 15.8662 23.3614C14.9513 23.2338 12.2058 23.3059 11.1333 23.2949C10.582 22.2192 10.0619 21.0621 9.55141 19.9619C6.45679 13.2933 3.18118 6.68536 0.126953 0ZM29.7067 38.7465C31.0248 38.7821 32.3838 38.7645 33.7053 38.7626L33.8118 38.7275C33.8841 36.9312 33.8245 34.7529 33.8241 32.9299L33.822 23.3216C32.6903 23.2868 30.962 23.2607 29.8309 23.3151L29.7183 23.3898C29.6787 23.7556 29.7034 24.6005 29.7048 25.0071L29.7096 27.9443C29.7113 31.5142 29.7564 35.1842 29.7067 38.7465Z" fill="white"/>
<path d="M113.256 23.2745C113.812 23.2353 114.544 23.2548 115.101 23.276C116.188 25.117 121.919 38.4323 122.359 38.6868V38.7299C121.739 38.8925 118.445 38.8298 117.631 38.811C117.399 38.2177 117.121 37.7304 116.927 37.0988C115.384 37.0376 113.039 37.0323 111.501 37.1032C111.231 37.6386 111.035 38.345 110.726 38.8231C109.225 38.8252 107.623 38.8546 106.131 38.8019C106.414 38.0039 106.805 37.2199 107.162 36.4485L108.769 32.9951L113.256 23.2745ZM112.917 33.5626C113.313 33.5687 113.725 33.5803 114.119 33.5773L115.507 33.5752C115.282 33.0183 114.467 30.5508 114.202 30.3211C113.881 30.6785 113.112 32.9824 112.917 33.5626Z" fill="white"/>
</g>
<defs>
<clipPath id="clip0_30141_32826">
<rect width="122.358" height="70" fill="white"/>
</clipPath>
</defs>
</svg>
