<svg width="100" height="50" viewBox="0 0 100 50" fill="none" xmlns="http://www.w3.org/2000/svg">
<path d="M11.6068 2.70721C11.864 2.61051 12.328 2.54738 12.4297 2.88612C13.8872 5.26259 15.7953 8.52631 17.1543 11.0556C17.2722 11.275 17.2311 13.1087 17.2285 13.5452L17.2125 17.0008L17.2254 31.1653C17.2203 32.0862 17.1886 32.9372 17.2783 33.8573C17.3229 34.3148 17.6181 34.9622 17.5751 35.2525C17.6248 35.445 17.5818 35.3868 17.7232 35.4883C17.9933 35.5267 18.091 35.4927 18.3332 35.5033C19.2419 35.4266 19.9321 34.9003 20.638 34.3764C20.693 34.2555 20.7348 34.237 20.8454 34.1598C22.0221 33.0417 22.425 31.4308 22.513 29.8545C22.5449 29.2826 22.5231 28.7138 22.5731 28.1423L22.5666 27.8754C22.5209 27.07 22.4667 20.9306 22.6505 20.4512L22.7196 20.1498C22.6261 20.0657 22.5647 19.6623 22.5494 19.5285C22.557 19.4619 22.5533 19.2998 22.5539 19.225C22.5336 18.8475 22.6051 18.6915 22.7343 18.3448L22.6171 18.0319C22.4826 17.4353 22.5359 16.438 22.5154 15.8127C22.4635 14.2335 22.607 12.3291 22.4987 10.7843L22.529 10.5136C22.4531 9.50395 22.5414 7.71753 22.5117 6.62295C22.4948 6.00332 22.4777 3.4298 22.5658 2.94939C22.6422 2.85031 22.697 2.83054 22.8053 2.77012C23.4413 2.70678 24.2895 2.72075 24.9403 2.72013L28.0234 2.71999C28.568 2.72009 30.7624 2.6732 31.1386 2.77134C31.4269 2.81505 31.768 2.7522 31.9049 2.83633L31.932 2.87662C32.0374 3.14854 32.4746 3.65453 32.6628 4.00251C33.5238 5.59497 34.415 7.175 35.3865 8.70307C35.7864 9.33203 36.1822 10.1387 36.6387 10.7294C36.7415 10.9531 36.7715 11.0707 36.7738 11.3168C36.7926 13.3082 36.7831 15.3079 36.7808 17.2991L36.7757 27.9249C36.7747 28.9727 36.8892 35.3418 36.7272 35.7772C36.6861 35.8851 36.642 35.9918 36.5947 36.0972C36.1744 36.772 35.7653 37.4274 35.3058 38.0546C32.3306 42.1164 27.6385 44.6845 22.5847 44.7959C22.1458 44.8056 22.1966 44.6441 21.9339 44.5621C21.396 44.7027 20.7036 44.521 20.1287 44.5329C19.5518 44.5448 18.9694 44.5962 18.397 44.5774C18.266 44.5919 17.9996 44.5926 17.8578 44.5975L17.5185 44.5931C17.2708 44.6038 17.0887 44.6086 16.838 44.5965L16.4623 44.5138C15.3965 44.6164 12.7133 43.9106 11.6391 43.5378C11.0716 43.3409 9.77541 42.6823 9.25119 42.3233C9.16252 42.2808 9.14919 42.2432 9.09167 42.1584C8.8361 42.0344 8.44602 41.6591 8.20686 41.4735C6.68962 40.2962 5.57829 38.539 4.74184 36.8113L4.62112 36.5752C4.38293 36.0893 3.98599 34.9259 3.93279 34.4002L3.84284 34.101C3.23346 32.9294 3.05651 29.4794 3.01401 28.1763L3.00119 27.8377C2.96785 27.6276 2.98267 26.9622 2.98255 26.7088L2.98054 24.4235L2.96715 21.8994C2.96404 21.5188 2.94101 20.7393 2.98957 20.3942C2.97391 20.2384 2.98485 20.0231 2.98831 19.8612C2.97521 19.752 2.97536 19.5983 2.97194 19.485L3.016 19.241C2.96699 18.8888 3.05277 18.6679 3.17243 18.3445C3.13799 18.2209 3.13729 18.1395 3.12853 18.0132C2.92594 17.105 2.9993 15.3454 3.00568 14.369C3.01346 13.1778 2.99446 11.9289 3.0148 10.7414L2.99171 10.497C2.9984 10.2303 2.9953 9.95644 2.99703 9.68857C3.01092 7.53007 2.99647 5.36977 2.96466 3.21157C2.96318 3.11098 3.00928 2.96256 3.04478 2.87041C3.08044 2.85447 3.22027 2.81697 3.26585 2.80381C3.81955 2.61963 8.48942 2.77386 9.43308 2.72434C9.59201 2.71601 11.4097 2.69824 11.6068 2.70721Z" fill="#F05758"/>
<path d="M31.9336 2.87695C32.0391 3.14887 32.4763 3.65486 32.6645 4.00284C33.5255 5.5953 34.4167 7.17533 35.3882 8.7034C35.7881 9.33236 36.1839 10.139 36.6404 10.7297C36.7432 10.9535 36.7732 11.0711 36.7755 11.3172C36.7943 13.3085 36.7848 15.3082 36.7825 17.2994L36.7774 27.9252C36.7764 28.9731 36.8909 35.3421 36.7289 35.7775C36.6878 35.8854 36.6436 35.9921 36.5964 36.0975C36.1761 36.7723 35.7669 37.4277 35.3075 38.0549C32.3323 42.1167 27.6402 44.6848 22.5864 44.7963C22.1475 44.8059 22.1983 44.6445 21.9355 44.5624C24.422 43.6188 26.0577 42.8822 27.8675 40.837C31.7764 36.4199 31.9825 31.0425 31.9772 25.5364L31.9716 18.924L31.9625 8.19315C31.9576 6.46786 31.9896 4.58912 31.9336 2.87695Z" fill="#FECACA"/>
<path d="M12.4297 2.88647C13.8872 5.26295 15.7954 8.52668 17.1544 11.056C17.2722 11.2754 17.2311 13.109 17.2286 13.5456L17.2125 17.0011L17.2254 31.1656C17.2203 32.0865 17.1887 32.9376 17.2784 33.8577C17.323 34.3152 17.6181 34.9626 17.5751 35.2529C17.384 35.1419 16.8631 35.0854 16.6122 35.0431C15.4584 34.8599 14.0932 34.1311 13.4578 33.1193C12.153 31.0414 12.4516 28.0514 12.4545 25.6729L12.442 18.295L12.4511 7.80368C12.4533 6.83293 12.4483 5.86217 12.4359 4.89152C12.4273 4.27376 12.3908 3.49221 12.4297 2.88647Z" fill="#FECACA"/>
<path d="M31.3551 19.1894L31.2786 19.2766C31.3341 19.3745 31.3454 19.376 31.4437 19.4378C31.3082 20.1292 30.0184 22.0799 29.6395 22.8409C28.8343 24.4578 27.7749 26.0693 26.9578 27.6708C26.5349 26.8201 23.0881 20.5073 22.721 20.15C22.6275 20.0659 22.5661 19.6625 22.5508 19.5287C22.5583 19.4621 22.5547 19.3 22.5553 19.2252C25.4884 19.191 28.4218 19.179 31.3551 19.1894Z" fill="white"/>
<path d="M31.3551 19.1894L31.2786 19.2766C31.3341 19.3745 31.3454 19.376 31.4437 19.4378C30.4352 19.4694 22.6659 19.4438 22.5508 19.5287C22.5583 19.4621 22.5547 19.3 22.5553 19.2252C25.4884 19.191 28.4218 19.179 31.3551 19.1894Z" fill="#F05758"/>
<path d="M12.4883 36.8145L21.9011 36.8108C21.4096 37.7497 20.9083 38.5329 20.412 39.4417C19.7162 40.7361 19.0056 42.0227 18.2805 43.301C18.1498 43.5324 17.6625 44.4383 17.5199 44.5932C17.2722 44.6039 17.0901 44.6087 16.8394 44.5966C16.6437 44.175 16.2865 43.704 16.0509 43.285L13.8703 39.3506C13.5529 38.7875 12.7185 37.3798 12.4883 36.8145Z" fill="white"/>
<path d="M3.17438 18.3448C4.24714 16.8335 5.11057 14.8618 6.10041 13.2632C6.57477 12.4972 6.95651 11.5868 7.42087 10.8098C8.85812 13.3791 10.2452 15.999 11.6928 18.5653C11.7709 18.7036 11.8141 18.8916 11.8271 19.0499L11.7862 19.1602C11.5257 19.2212 9.33371 19.1973 8.91208 19.1973C6.94728 19.1938 4.98249 19.2084 3.01795 19.2412C2.96894 18.8891 3.05472 18.6682 3.17438 18.3448Z" fill="white"/>
<path d="M22.7346 18.3448C22.9626 17.9987 23.2503 17.5956 23.4463 17.2365C24.6079 15.1083 25.8314 12.9825 26.9514 10.8342C27.8113 12.5439 28.8709 14.2531 29.7732 15.9482C30.2654 16.8728 30.8538 17.7578 31.3328 18.6892C31.4003 18.8121 31.4104 19.0614 31.354 19.1892C28.4207 19.1789 25.4873 19.1908 22.5542 19.225C22.5339 18.8475 22.6055 18.6915 22.7346 18.3448Z" fill="white"/>
<path d="M2.97266 19.4853C5.717 19.4374 8.47623 19.4817 11.2218 19.4679C11.4273 19.4669 11.6865 19.4698 11.8882 19.4888C11.7079 19.9734 11.3662 20.5841 11.1161 21.0549C10.6181 21.9892 10.1063 22.9161 9.58077 23.8352C8.84478 25.1281 8.16119 26.4329 7.42501 27.7224C7.03751 26.9759 3.21737 20.0138 2.98902 19.8615C2.97593 19.7523 2.97607 19.5986 2.97266 19.4853Z" fill="white"/>
<path d="M7.42958 28.2415C8.78021 30.9553 10.472 33.9035 11.9994 36.5389C9.56361 36.6075 7.05448 36.4767 4.62192 36.5753C4.38373 36.0894 3.98679 34.9261 3.93359 34.4004C4.43386 33.7579 4.95868 32.7493 5.36381 32.0042C6.03563 30.7685 6.77426 29.4797 7.42958 28.2415Z" fill="white"/>
<path d="M3.26758 2.80438C3.82128 2.6202 8.49116 2.77444 9.43481 2.72492C9.59374 2.71659 11.4115 2.69882 11.6085 2.70779C10.9811 4.09702 10.0498 5.66625 9.2789 6.99467C8.70141 7.98983 8.03393 9.38002 7.43281 10.3092C6.5725 8.65609 5.61542 6.95873 4.67178 5.35155C4.33303 4.77456 3.61583 3.26377 3.26758 2.80438Z" fill="white"/>
<path d="M22.8066 2.77047C23.4426 2.70713 24.2909 2.7211 24.9417 2.72048L28.0248 2.72034C28.5693 2.72044 30.7638 2.67354 31.14 2.77169C30.7588 3.40029 30.3529 4.24874 29.9731 4.92012L28.3494 7.8541C27.8854 8.67622 27.3979 9.47989 26.9528 10.3125C26.6975 9.70235 25.8965 8.34336 25.5621 7.75679L23.7185 4.45423C23.4564 3.98666 23.0083 3.23694 22.8066 2.77047Z" fill="white"/>
<path d="M17.8594 44.5979C18.7125 42.8133 19.9248 41.0221 20.8258 39.2371C21.2095 38.477 21.7594 37.7477 22.0904 36.9482C22.978 38.5798 24.399 40.8761 25.1188 42.5062C23.4718 43.4549 22.0875 44.0088 20.1904 44.3535C19.7022 44.4422 18.7782 44.4924 18.3986 44.5778C18.2676 44.5923 18.0012 44.593 17.8594 44.5979Z" fill="white"/>
<path d="M9.25195 42.3235C9.51665 41.7406 9.94385 41.201 10.2247 40.6537C10.8615 39.4126 11.5949 38.1986 12.255 36.9841C13.0956 38.5227 13.936 40.0058 14.817 41.5187C15.3841 42.4926 15.8628 43.5285 16.4631 44.514C15.3972 44.6166 12.7141 43.9108 11.6398 43.538C11.0724 43.3411 9.77617 42.6825 9.25195 42.3235Z" fill="white"/>
<path d="M4.74219 36.8114C5.06331 36.7643 6.62576 36.8038 7.0239 36.805L12.0392 36.8077C11.4144 37.8996 10.8236 39.0482 10.2209 40.1557C9.8739 40.7934 9.39465 41.5185 9.09202 42.1585C8.83645 42.0345 8.44636 41.6591 8.2072 41.4735C6.68997 40.2962 5.57864 38.539 4.74219 36.8114Z" fill="white"/>
<path d="M22.5734 28.1426C22.8981 28.212 26.3678 28.1815 26.7462 28.1348C25.4592 30.4131 24.2062 32.7216 22.8994 34.9884C22.6365 35.4444 22.3815 35.9437 22.0956 36.3812C21.7642 35.799 21.1814 34.6316 20.8457 34.1601C22.0224 33.042 22.4253 31.4311 22.5133 29.8548C22.5453 29.2829 22.5234 28.7141 22.5734 28.1426Z" fill="white"/>
<path d="M2.99388 10.4972C3.00057 10.2305 2.99747 9.95663 2.9992 9.68876C3.01309 7.53027 2.99863 5.36997 2.96683 3.21177C2.96535 3.11117 3.01145 2.96275 3.04695 2.87061C3.46367 3.59618 3.84721 4.33884 4.24567 5.07446C5.2226 6.87807 6.32807 8.64765 7.22333 10.4937C5.81899 10.4936 4.39673 10.4818 2.99388 10.4972Z" fill="white"/>
<path d="M22.5665 2.94971C23.3688 4.42822 24.254 5.88439 25.0441 7.37907C25.5961 8.42346 26.2725 9.38386 26.7279 10.4971C25.3285 10.4954 23.9291 10.501 22.5297 10.5139C22.4538 9.50427 22.5421 7.71784 22.5124 6.62326C22.4955 6.00363 22.4784 3.43011 22.5665 2.94971Z" fill="white"/>
<path d="M2.98957 20.3943C3.30571 20.6699 6.74187 26.9353 7.18625 27.8331L3.00119 27.8378C2.96785 27.6277 2.98267 26.9623 2.98255 26.7089L2.98054 24.4236L2.96715 21.8995C2.96404 21.5189 2.94101 20.7394 2.98957 20.3943Z" fill="white"/>
<path d="M22.5 10.7847C23.8223 10.724 25.3808 10.7599 26.7312 10.7429C25.9491 12.1162 25.1837 13.6026 24.403 14.9817C24.0583 15.5906 23.0423 17.5714 22.6183 18.0322C22.4839 17.4357 22.5372 16.4384 22.5166 15.813C22.4647 14.2338 22.6083 12.3294 22.5 10.7847Z" fill="white"/>
<path d="M22.6499 20.4514L25.1652 24.954C25.6387 25.7898 26.3529 26.9676 26.7232 27.8314C26.1456 27.832 22.8627 27.7762 22.566 27.8756C22.5203 27.0702 22.4661 20.9308 22.6499 20.4514Z" fill="white"/>
<path d="M7.16471 10.741L4.42261 15.7203C4.02738 16.4325 3.57229 17.3562 3.12925 18.0136C2.92666 17.1053 3.00002 15.3457 3.0064 14.3693C3.01418 13.1782 2.99518 11.9292 3.01552 10.7417C4.39855 10.7551 5.7817 10.7548 7.16471 10.741Z" fill="white"/>
<path d="M3.01562 28.1767L5.61418 28.1729C6.04509 28.1726 6.80295 28.1875 7.20549 28.1321C6.45476 29.3696 5.84519 30.7228 5.09421 31.9637C4.67625 32.6544 4.35979 33.4727 3.84446 34.1014C3.23507 32.9297 3.05812 29.4798 3.01562 28.1767Z" fill="white"/>
<path d="M13.7322 34.2769C15.161 35.4125 16.2265 35.7783 18.0586 35.5822C18.1655 35.5708 18.2374 35.547 18.3351 35.5038C19.2438 35.4271 19.9341 34.9008 20.6399 34.3769C21.1045 35.1012 21.4765 35.7933 21.8826 36.5524L12.4473 36.5741C12.8499 35.832 13.2956 34.9941 13.7322 34.2769Z" fill="white"/>
<path d="M26.9274 28.301C27.3497 28.65 29.8895 33.6443 30.5595 34.6348C30.3877 35.3061 30.1374 35.9252 29.872 36.5622C28.6463 36.5962 27.2113 36.5535 25.9733 36.5468C24.7517 36.5436 23.5301 36.5507 22.3086 36.5685C22.8655 35.5153 23.5288 34.5021 24.0809 33.4567C24.9996 31.717 25.9856 30.026 26.9274 28.301Z" fill="white"/>
<path d="M22.2949 36.8152L29.7471 36.8192C29.0775 38.2228 28.6943 38.9856 27.6748 40.221C26.8948 41.0851 26.2474 41.6114 25.3622 42.3508C25.1774 41.9386 24.7732 41.2657 24.54 40.8341C23.8155 39.4813 23.067 38.1415 22.2949 36.8152Z" fill="white"/>
<path d="M7.67383 28.1682L11.8204 28.1709C11.8564 30.2648 12.0675 32.4829 13.5535 34.1083C13.2944 34.5414 13.0307 35.0275 12.7805 35.4699L12.2723 36.3736C11.6458 35.5089 11.2859 34.6792 10.7582 33.7787C9.67305 31.9267 8.69644 30.0509 7.67383 28.1682Z" fill="white"/>
<path d="M31.3269 2.96875C31.4387 3.13581 31.3963 9.69782 31.3964 10.4956C30.0097 10.4922 28.623 10.4981 27.2363 10.5133L27.2218 10.5069L27.1953 10.4267C27.3679 9.9922 28.0775 8.8966 28.3318 8.42179C29.3148 6.586 30.3456 4.80931 31.3269 2.96875Z" fill="white"/>
<path d="M31.2886 20.3376L31.3699 20.4083C31.4349 20.9396 31.4015 22.3291 31.4019 22.9088L31.4021 27.8214L27.2903 27.8353L27.2336 27.8222L27.207 27.765C27.4649 27.1978 27.9405 26.5083 28.2408 25.9333C29.2293 24.0405 30.3369 22.2486 31.2886 20.3376Z" fill="white"/>
<path d="M27.1895 10.7493C28.4114 10.8167 30.1422 10.7617 31.3941 10.7573C31.4178 12.5313 31.3832 14.3132 31.3974 16.088C31.4028 16.767 31.4038 17.4597 31.3699 18.1376L31.3242 18.1345C31.2217 18.0457 27.2532 10.9573 27.1895 10.7493Z" fill="white"/>
<path d="M11.8354 2.96436C11.8788 3.13459 11.837 4.4336 11.8363 4.70862C11.8239 6.63762 11.8223 8.56667 11.8316 10.4957L7.72589 10.4966C7.72354 10.4881 7.71993 10.4797 7.71881 10.4709C7.70206 10.3373 11.44 3.54764 11.8354 2.96436Z" fill="white"/>
<path d="M11.7723 20.3904L11.8219 20.4394C11.8733 21.0851 11.8366 22.2427 11.8364 22.9258L11.8286 27.8336L7.77271 27.84L7.72852 27.7779C7.78794 27.5763 8.21641 26.8393 8.33511 26.6223L10.0023 23.6235C10.5887 22.5803 11.1643 21.3994 11.7723 20.3904Z" fill="white"/>
<path d="M7.67383 10.7402C8.98691 10.7839 10.5083 10.7575 11.8321 10.7464C11.8495 12.7887 11.8038 14.8323 11.8167 16.8748C11.8194 17.3112 11.8121 17.7526 11.8512 18.1875C11.6495 18.0858 10.672 16.1705 10.4802 15.82L7.67383 10.7402Z" fill="white"/>
<path d="M27.2012 28.1396C27.6642 28.1905 28.3576 28.171 28.8363 28.1709C29.692 28.1683 30.5477 28.1711 31.4032 28.1793C31.4076 30.337 31.3128 31.5123 30.8235 33.6494L30.6663 34.3625C30.4252 33.8809 30.0373 33.3063 29.7654 32.8038C29.2145 31.7853 28.6346 30.7625 28.0913 29.7396C27.9318 29.4394 27.2287 28.3546 27.2012 28.1396Z" fill="white"/>
<path d="M71.6577 2.42847C72.0737 2.25477 75.4067 2.26127 75.9204 2.46222C76.4726 3.15359 76.8979 4.18508 77.351 4.96927L81.604 12.458L90.8393 28.7509C92.0864 30.9678 93.4199 33.1429 94.6298 35.3808C95.0551 36.1673 97.956 41.0436 97.9316 41.3886C97.9199 41.5524 97.8183 41.7399 97.7363 41.8783C97.5732 42.1553 95.7768 44.7435 95.7319 44.7738C95.664 44.8192 95.6391 44.8089 95.561 44.7963C95.392 44.803 95.1884 44.7916 95.0166 44.7863C94.4291 44.7568 93.5742 44.7837 92.9707 44.784L88.8427 44.7934C88.2866 44.796 87.0078 44.832 86.5249 44.7756L86.331 44.7343C85.9482 44.4797 85.1938 42.9816 84.9287 42.5156L83.0239 39.2043C82.7592 38.7401 81.7885 37.1819 81.6679 36.7944L81.4834 36.5592L81.2915 36.2954C81.269 36.23 81.2055 36.2141 81.1279 36.1675L80.9658 36.1816L80.6206 36.0902C80.2573 36.1798 79.3081 36.1553 78.9018 36.1546C77.4804 36.148 76.0585 36.1486 74.6372 36.1566C74.3627 36.1585 73.101 36.1564 72.9067 36.1925C72.0292 36.32 70.9912 36.0191 70.3784 36.6734C70.3115 37.1134 66.2304 44.3036 65.8403 44.7078C65.6601 44.7641 65.4448 44.8075 65.2548 44.8095C62.7426 44.8355 60.2294 44.8156 57.7172 44.8346C57.4604 44.8365 57.1713 44.8473 56.9174 44.8336C56.6811 44.8354 56.5029 44.8292 56.2675 44.811L56.2031 44.8158C54.3393 44.88 52.3242 44.8032 50.4453 44.8305C49.8183 44.8397 47.2687 44.8803 46.7109 44.8011C47.7495 42.8506 48.9223 40.9555 49.9638 39.0092C50.2124 38.545 51.2119 36.9995 51.2724 36.6088C51.3769 35.9385 51.3852 34.2949 51.3798 33.5683L51.4096 33.7694C51.4121 34.0145 51.3828 34.9468 51.518 35.0858C52.1669 34.7926 52.1469 35.1876 52.6572 35.1663C52.7812 35.093 52.8227 35.0658 52.9306 34.9713L52.9702 34.8673C53.1669 34.5474 53.3286 34.2764 53.5024 33.944C53.5654 33.8987 53.7309 33.5722 53.7807 33.4818L54.2251 32.6687C54.2998 32.5821 54.3286 32.4783 54.3852 32.3818C55.0175 31.2974 55.6386 30.2089 56.2514 29.1128C56.3593 28.9196 56.4516 28.7553 56.6093 28.5969C56.6464 28.5081 56.7265 28.387 56.7788 28.301L56.7963 28.2057C56.8774 28.0361 56.9194 27.9264 57.0483 27.7882C57.206 27.4773 57.4741 27.0539 57.6557 26.7259L59.5419 23.3818C59.8173 22.8939 61.2797 20.1906 61.5439 19.9226C61.6396 19.6598 61.8002 19.4303 61.9985 19.2347C62.6328 17.7802 63.7211 16.058 64.5288 14.6677C64.9233 13.9885 66.0815 11.6796 66.4921 11.2126C66.5336 11.1333 66.604 11.0306 66.6538 10.9529L66.7421 10.7939L66.9462 10.5492C67.0493 10.2647 67.3828 9.73031 67.5346 9.44227C68.0449 8.47459 68.6259 7.54505 69.1694 6.59447L70.3964 4.4121C70.6127 4.0265 70.9702 3.34305 71.2426 3.03022C71.3271 2.80854 71.5039 2.60428 71.6577 2.42847Z" fill="#F05758"/>
<path d="M71.6582 2.42847C72.0742 2.25477 75.4072 2.26127 75.9209 2.46222C76.4731 3.15359 76.8984 4.18508 77.3516 4.96927L81.6045 12.458L90.8398 28.7509C92.0869 30.9678 93.4204 33.1429 94.6304 35.3808C95.0557 36.1673 97.9565 41.0436 97.9321 41.3886C97.9204 41.5524 97.8188 41.7399 97.7368 41.8783C97.5737 42.1553 95.7773 44.7435 95.7324 44.7738C95.6645 44.8192 95.6396 44.8089 95.5615 44.7963C95.2852 44.1156 94.7163 43.2468 94.3667 42.5648C93.9482 41.7491 93.4155 40.9357 92.9644 40.1382C92.4185 39.1726 91.8818 38.2007 91.3477 37.2285C91.1187 36.8111 90.8076 36.3872 90.5757 35.9695L76.3926 10.8996C75.5132 9.34125 74.583 7.80291 73.7461 6.21878C73.1196 5.03324 72.1392 3.65121 71.6582 2.42847Z" fill="#FECACA"/>
<path d="M61.5835 36.6807C64.4731 36.6315 67.5156 36.7613 70.3789 36.6736C70.312 37.1135 66.231 44.3037 65.8408 44.708C65.6606 44.7643 65.4453 44.8076 65.2554 44.8096C62.7432 44.8357 60.23 44.8158 57.7178 44.8347C57.4609 44.8366 57.1719 44.8475 56.918 44.8338C57.6567 43.6438 58.3237 42.4265 59.0205 41.2126C59.812 39.8337 60.9526 38.1075 61.5835 36.6807Z" fill="#FECACA"/>
<path d="M56.7969 28.2057C57.7041 28.1324 59.1445 28.1739 60.0889 28.1752L66.0762 28.1739C65.2676 29.6313 64.4233 31.1565 63.5708 32.5834C62.9419 33.6349 62.1157 35.4349 61.3442 36.2571C60.8286 35.54 60.5625 34.844 60.1167 34.1289C58.9429 32.2463 57.9912 30.1425 56.7793 28.3009L56.7969 28.2057Z" fill="white"/>
<path d="M66.7427 10.7939L72.7246 10.7912C73.2456 10.7904 75.3496 10.7367 75.7388 10.8483C75.7573 10.9621 75.7705 11.0242 75.6987 11.141C75.3037 11.7834 74.9277 12.4457 74.562 13.1033L71.2437 18.984C69.6733 16.3303 68.1436 13.653 66.6543 10.9529L66.7427 10.7939Z" fill="white"/>
<path d="M76.3457 28.1316C76.9209 28.2116 78.2324 28.1759 78.8774 28.1763L83.0937 28.1781C83.9062 28.1778 84.8457 28.1517 85.645 28.2C84.2705 30.6205 82.8818 33.0746 81.5117 35.5C81.3828 35.7276 81.2769 35.9509 81.1279 36.1674L80.9658 36.1815L77.6763 30.4917C77.2456 29.7427 76.7935 28.8478 76.3457 28.1316Z" fill="white"/>
<path d="M51.7852 36.8186L60.9116 36.8176C60.6914 37.1391 60.5356 37.4655 60.3423 37.801C59.062 40.0254 57.7939 42.257 56.4746 44.4582C56.4033 44.5769 56.3442 44.6945 56.2676 44.8111L56.2031 44.816L53.1328 39.3248C52.7446 38.6306 52.0024 37.5014 51.7852 36.8186Z" fill="white"/>
<path d="M56.6089 28.5972C56.9678 29.0035 57.4453 29.9248 57.728 30.418C58.1846 31.2131 58.6147 32.0646 59.0727 32.8582C59.5937 33.7625 60.1367 34.6449 60.6172 35.574C60.7749 35.8791 61.001 36.2225 61.1235 36.5321C60.1592 36.622 57.981 36.5693 56.9282 36.5538C55.4316 36.5317 53.4707 36.612 52.0273 36.5316C52.3086 35.9983 52.6685 35.4799 52.9302 34.9716L52.9697 34.8676C53.1665 34.5478 53.3281 34.2767 53.502 33.9443C53.5649 33.899 53.7305 33.5725 53.7803 33.4821L54.2246 32.669C54.2993 32.5824 54.3281 32.4786 54.3848 32.3821C55.0171 31.2978 55.6382 30.2092 56.251 29.1131C56.3589 28.9199 56.4512 28.7556 56.6089 28.5972Z" fill="white"/>
<path d="M66.4937 11.2126C67.1655 12.3102 67.7397 13.4567 68.3735 14.5685C69.2261 16.063 70.2349 17.6644 70.9917 19.2004C68.0625 19.2467 64.897 19.1321 62 19.2347C62.6343 17.7802 63.7227 16.0581 64.5303 14.6677C64.9248 13.9885 66.083 11.6796 66.4937 11.2126Z" fill="white"/>
<path d="M61.5444 19.9226C61.9478 20.3233 62.9248 22.2863 63.2852 22.8921C64.2446 24.5063 65.1831 26.1804 66.0791 27.8337C65.0576 27.8351 57.2339 27.8896 57.0488 27.7882C57.2065 27.4773 57.4746 27.054 57.6563 26.7259L59.5425 23.3818C59.8179 22.8939 61.2803 20.1906 61.5444 19.9226Z" fill="white"/>
<path d="M81.291 36.2954C81.5791 35.9776 82.0405 35.0943 82.2739 34.6803L83.9858 31.6214C84.3711 30.9395 85.4824 29.1203 85.7383 28.4976C86.2056 29.4802 86.9297 30.5516 87.4497 31.5231C88.0435 32.6327 88.6704 33.7166 89.3213 34.7933C89.6621 35.3575 89.9692 36.0285 90.3433 36.5642C88.3574 36.5081 86.3223 36.5611 84.333 36.5458C83.457 36.5391 82.3145 36.6093 81.4829 36.5592L81.291 36.2954Z" fill="white"/>
<path d="M81.668 36.7944C82.5762 36.8459 83.4961 36.7985 84.4048 36.8152C86.4585 36.853 88.5566 36.75 90.606 36.8187C90.2842 37.6 89.8442 38.3661 89.4287 39.1032C88.7061 40.3859 87.9639 41.6528 87.2832 42.9597C86.9746 43.5519 86.5771 44.1134 86.3311 44.7344C85.9482 44.4798 85.1938 42.9816 84.9287 42.5157L83.0239 39.2044C82.7593 38.7402 81.7886 37.1819 81.668 36.7944Z" fill="white"/>
<path d="M76.1431 28.2944C77.6333 30.786 79.0483 33.6875 80.6196 36.0904C80.2563 36.18 79.3071 36.1555 78.9009 36.1548C77.4795 36.1482 76.0576 36.1488 74.6362 36.1568C74.3618 36.1587 73.1001 36.1566 72.9058 36.1927L71.6992 36.1708C72.75 34.1997 73.8535 32.3397 74.936 30.3919C75.2759 29.7798 75.8843 28.8627 76.1431 28.2944Z" fill="white"/>
<path d="M71.2437 3.03003C71.5444 3.28338 72.4092 5.00008 72.6851 5.49129L75.52 10.5551C74.602 10.4849 73.2749 10.5223 72.3335 10.526L66.9473 10.549C67.0503 10.2645 67.3838 9.73011 67.5356 9.44208C68.0459 8.4744 68.6269 7.54486 69.1704 6.59427L70.3975 4.4119C70.6138 4.02631 70.9712 3.34286 71.2437 3.03003Z" fill="white"/>
<path d="M90.7427 37.301C91.0498 37.9539 91.5186 38.5364 91.853 39.176C92.6836 40.7642 93.6123 42.2973 94.4805 43.8651C94.6499 44.1718 94.8218 44.4977 95.0171 44.7862C94.4297 44.7567 93.5747 44.7836 92.9712 44.7839L88.8433 44.7934C88.2871 44.7959 87.0083 44.8319 86.5254 44.7755C87.0918 43.9118 87.5693 42.9362 88.0752 42.0332C88.958 40.4562 89.8408 38.8668 90.7427 37.301Z" fill="white"/>
<path d="M66.5898 28.2228C69.6138 28.2144 72.9229 28.2971 75.9023 28.2046C75.8047 28.3904 75.6978 28.5711 75.5894 28.7511C74.7061 30.2233 73.9209 31.7529 73.0337 33.2229C72.7544 33.6902 71.5532 36.0443 71.2871 36.155C70.8296 36.0341 70.0776 34.4067 69.8003 33.9236C69.2124 32.9129 68.6309 31.8983 68.0562 30.88C67.5718 30.0069 67.0938 29.0783 66.5898 28.2228Z" fill="white"/>
<path d="M61.8646 19.4985C62.4657 19.4242 64.1527 19.4717 64.8305 19.472L70.8685 19.4855C70.6972 19.7659 70.517 20.0605 70.3661 20.3525C69.5868 21.8565 68.7279 23.312 67.9047 24.7914C67.4452 25.6699 66.8705 26.8064 66.3275 27.6275C65.6644 26.6748 65.1747 25.5871 64.5848 24.5881C63.6552 23.0136 62.7289 21.4335 61.8681 19.8184C61.7875 19.6668 61.8187 19.6347 61.8646 19.4985Z" fill="white"/>
<path d="M71.5332 19.4763C74.4414 19.562 77.4355 19.4001 80.3516 19.4896C80.5078 19.4945 80.5327 19.5022 80.6465 19.6005C80.6265 19.7529 78.1099 24.2413 77.8071 24.7352C77.3086 25.542 76.6299 26.7706 76.1811 27.6114C76.0337 27.2895 75.8354 26.9876 75.6558 26.682C74.7104 25.0723 73.834 23.425 72.8574 21.8326C72.3867 21.0653 72.0483 20.2218 71.5332 19.4763Z" fill="white"/>
<path d="M75.9365 11.2097C76.0503 11.3074 80.1055 18.5698 80.4722 19.2331C79.0469 19.1711 77.395 19.2087 75.9531 19.209C74.4556 19.2047 72.958 19.2129 71.4609 19.2336C71.5874 18.9292 71.751 18.6176 71.9106 18.3289C72.9365 16.475 74.0269 14.6602 75.0308 12.7936C75.3169 12.2613 75.6846 11.7591 75.9365 11.2097Z" fill="white"/>
<path d="M80.8345 19.9084C81.0273 20.1256 81.5967 21.2258 81.8066 21.5838C83.0376 23.6586 84.2334 25.7538 85.3945 27.8685C84.249 27.7767 82.1953 27.8346 80.9824 27.8335L76.3379 27.8395L80.8345 19.9084Z" fill="white"/>
<path d="M66.2881 28.3896C66.4932 28.4652 70.2983 35.3984 70.7505 36.1437C69.4014 36.0888 67.6924 36.1404 66.3252 36.1439C64.8452 36.132 63.3647 36.1317 61.8848 36.1433C61.9976 35.9668 62.0996 35.7855 62.1968 35.6001C63.0107 34.0492 63.9126 32.5481 64.7788 31.0265C65.2798 30.1469 65.7285 29.2351 66.2881 28.3896Z" fill="white"/>
<path d="M51.6275 37.3267C51.8565 37.4763 55.4195 43.9907 55.898 44.776L51.6363 44.7799C50.2057 44.7764 48.7746 44.7812 47.3438 44.7946C47.7375 44.0194 48.219 43.3099 48.6316 42.5549C49.5997 40.7832 50.5787 39.0524 51.6275 37.3267Z" fill="white"/>
<path d="M71.2163 20.1023C71.3193 20.1906 73.8452 24.6482 74.082 25.0686C73.793 25.6616 72.9648 27.1033 72.8071 27.5841L69.9458 27.5831L66.9805 27.5841C67.0981 27.4272 67.2373 27.1914 67.3296 27.0159C68.2974 25.1744 69.3745 23.3973 70.3579 21.564C70.624 21.068 70.9023 20.5687 71.2163 20.1023Z" fill="#FECACA"/>
<path d="M41.4767 2.69176C41.6635 2.68853 41.8714 2.68001 42.0561 2.68274L42.3108 2.73924C42.7135 2.67482 45.7124 2.65899 46.0773 2.71349C46.2411 2.71725 46.4473 2.6986 46.5691 2.79189L46.5961 2.8686C47.1093 3.66874 47.4915 4.39728 47.9579 5.20666L49.8025 8.35114C50.0701 8.81486 51.2507 10.692 51.2893 11.0302C51.4109 12.0994 51.3201 14.0398 51.325 15.1758L51.3259 26.36C51.3206 27.9843 51.3293 29.6086 51.3528 31.2327C51.3611 31.833 51.3406 32.5832 51.3743 33.1667L51.3801 33.5683C51.3855 34.2949 51.3772 35.9384 51.2727 36.6088C51.2122 36.9995 50.2126 38.5449 49.9641 39.0092C48.9226 40.9554 47.7498 42.8506 46.7112 44.8011L46.5985 44.7803C46.3618 44.8193 46.301 44.8081 46.0604 44.7754L40.1484 44.7785C39.6929 44.7794 37.8771 44.817 37.5718 44.7586C37.4736 44.6413 37.4785 44.4944 37.46 44.3346L37.4049 44.0831C37.2484 41.8808 37.3577 39.0398 37.3514 36.7685C37.277 36.4618 37.2512 36.0299 37.1805 35.6949L37.1021 35.6467C36.9425 35.6967 36.7223 35.9642 36.5957 36.0975C36.6429 35.9921 36.6871 35.8854 36.7281 35.7775C36.8902 35.3421 36.7757 28.9731 36.7767 27.9252L36.7818 17.2994C36.7841 15.3082 36.7936 13.3085 36.7748 11.3172C36.7725 11.0711 36.7424 10.9534 36.6397 10.7297C36.7966 10.9043 36.8709 11.0592 37.1073 10.9837C37.3338 10.7487 37.3959 9.82082 37.4085 9.46633C37.3103 8.857 37.2645 3.36808 37.4375 2.81795C37.6281 2.71894 40.833 2.65092 41.1596 2.74242L41.4767 2.69176Z" fill="#F05758"/>
<path d="M46.5985 44.7804C46.6483 44.013 46.5863 42.6903 46.594 41.8396C46.6161 39.203 46.6237 36.5662 46.617 33.9295L46.6273 12.0101L46.5945 5.88621C46.5893 4.92136 46.5594 3.82026 46.5962 2.86865C47.1094 3.66879 47.4915 4.39733 47.9579 5.20671L49.8025 8.3512C50.0701 8.81492 51.2508 10.6921 51.2894 11.0303C51.4109 12.0995 51.3201 14.0399 51.325 15.1759L51.326 26.3601C51.3206 27.9844 51.3294 29.6087 51.3528 31.2328C51.3611 31.8331 51.3406 32.5832 51.3743 33.1668L51.3802 33.5683C51.3855 34.2949 51.3772 35.9385 51.2728 36.6088C51.2122 36.9995 50.2127 38.545 49.9642 39.0092C48.9227 40.9555 47.7498 42.8507 46.7113 44.8011L46.5985 44.7804Z" fill="#FECACA"/>
<path d="M41.4771 2.69192C41.6639 2.68869 41.8718 2.68017 42.0565 2.68291C42.1752 3.1001 42.4867 3.55167 42.6937 3.93598C43.1804 4.83977 46.1031 9.77953 46.0803 10.3528C46.0787 10.3916 46.0424 10.4092 46.0153 10.4346C45.5631 10.4924 37.6359 10.5471 37.4104 10.4399C37.322 10.2639 37.407 10.0331 37.4949 9.8703C38.2718 8.43036 39.0705 6.99916 39.8893 5.58299C40.4384 4.63324 40.8845 3.61574 41.4771 2.69192Z" fill="white"/>
<path d="M37.459 44.3347C37.9621 43.9318 38.6812 42.3094 39.054 41.7213C39.7318 40.6518 40.3273 39.4505 40.9224 38.3312C41.1513 37.8842 41.4887 37.3606 41.6896 36.9231L44.4242 41.8303C44.8134 42.5447 45.6443 44.1878 46.0594 44.7755L40.1474 44.7787C39.6918 44.7795 37.8761 44.8171 37.5708 44.7587C37.4726 44.6415 37.4774 44.4945 37.459 44.3347Z" fill="white"/>
<path d="M37.3516 36.7683C38.7168 36.801 40.0824 36.8145 41.448 36.8089C40.5779 38.4774 39.7122 40.1333 38.7534 41.7521C38.3626 42.4118 37.8731 43.5113 37.4051 44.0829C37.2486 41.8806 37.3579 39.0396 37.3516 36.7683Z" fill="white"/>
<path d="M37.4077 9.46622C37.3094 8.85689 37.2636 3.36797 37.4366 2.81784C37.6273 2.71883 40.8321 2.65081 41.1587 2.74231C40.9478 3.0358 40.7997 3.36114 40.622 3.67429C39.5555 5.55343 38.5349 7.63536 37.4077 9.46622Z" fill="white"/>
<path d="M42.3105 2.73924C42.7132 2.67482 45.7121 2.65899 46.0771 2.71349C46.025 3.11384 46.0532 4.50248 46.0535 4.96301L46.0549 9.53332C45.3484 8.12063 44.4471 6.57487 43.6754 5.18615C43.2739 4.46352 42.747 3.38016 42.3105 2.73924Z" fill="white"/>
<path d="M41.6989 19.604C42.1001 20.1346 42.8498 21.6551 43.2343 22.3393L45.1588 25.7921C45.514 26.4327 46.0132 27.1114 46.1199 27.8243C44.6952 27.8536 43.2023 27.8328 41.7725 27.834C40.313 27.8353 38.792 27.8563 37.3379 27.8178C37.3595 27.6621 37.3961 27.3872 37.4643 27.2543C38.1259 25.9653 38.853 24.7073 39.5672 23.4521C40.2968 22.17 40.9232 20.868 41.6989 19.604Z" fill="white"/>
<path d="M37.334 10.7589C38.5406 10.7167 39.848 10.7472 41.0672 10.7475L46.1209 10.744C45.9187 11.8316 43.8937 15.0083 43.2682 16.1888C42.7715 17.1169 42.2557 18.0347 41.7211 18.9416C41.129 17.9364 40.3693 16.5795 39.8229 15.5492C39.4139 14.7778 37.3365 11.3876 37.334 10.7589Z" fill="white"/>
<path d="M37.3963 28.1962C40.2065 28.1137 43.2918 28.1708 46.1245 28.1783C45.9256 28.9798 43.7624 32.7038 43.2578 33.58C42.7356 34.486 42.262 35.4178 41.719 36.3169L41.6744 36.2471C40.9544 35.1109 40.2254 33.6532 39.5558 32.455L38.1379 29.8853C37.9644 29.5645 37.3242 28.5177 37.3963 28.1962Z" fill="white"/>
<path d="M46.0211 11.8545C46.1221 11.9954 46.0874 18.5143 46.0877 19.1849C44.7667 19.1709 43.4456 19.1759 42.1248 19.1999L42.0214 19.1835L41.9961 19.0973C42.0842 18.8203 42.4769 18.1508 42.6309 17.8714C43.0833 17.0468 43.5438 16.2265 44.0122 15.4109C44.7034 14.1986 45.2806 13.0501 46.0211 11.8545Z" fill="white"/>
<path d="M41.9883 36.8205C43.1416 36.7521 44.8905 36.8052 46.091 36.807L46.0878 41.5854C46.0874 42.3614 46.0428 43.3749 46.0859 44.1171C45.8043 43.993 42.3059 37.5581 41.9883 36.8205Z" fill="white"/>
<path d="M46.0209 29.1855C46.1082 29.3173 46.0677 30.8371 46.0685 31.0868C46.0865 32.9007 46.0914 34.7146 46.0831 36.5286C44.7723 36.5232 43.4616 36.5308 42.151 36.5515C42.0413 36.5438 42.0913 36.5605 41.998 36.4937C41.9996 36.3015 45.5934 29.8922 46.0209 29.1855Z" fill="white"/>
<path d="M42.0137 19.4475C43.1061 19.5097 44.9293 19.442 46.0914 19.4392C46.0747 21.8618 46.1127 24.3086 46.0604 26.7283L45.961 26.6985C45.5317 26.0393 42.0577 19.714 42.0137 19.4475Z" fill="white"/>
<path d="M37.3651 11.8108C37.5278 11.9254 41.2282 18.6219 41.4963 19.1904L37.3574 19.1946L37.3758 14.7011C37.3819 13.7901 37.4153 12.7019 37.3651 11.8108Z" fill="white"/>
<path d="M37.3634 29.0449C37.424 29.0932 41.1623 35.9455 41.4565 36.5189C40.4576 36.6202 38.5486 36.514 37.3952 36.5639C37.3193 35.7336 37.3648 34.4639 37.3677 33.6057L37.3634 29.0449Z" fill="white"/>
<path d="M37.3663 19.4487C38.7264 19.4577 40.0866 19.4559 41.4466 19.4434C40.6064 21.0395 39.739 22.6212 38.8447 24.1877C38.3478 25.042 37.842 26.0197 37.3594 26.8973L37.3663 19.4487Z" fill="white"/>
<path d="M51.4093 33.7696L51.4987 33.6777C51.6246 33.7488 51.7843 33.9209 51.8458 33.9463C52.0861 34.0459 52.7706 33.9315 53.027 33.8876C52.7316 34.0407 52.5612 34.1667 52.2296 34.1996C52.2702 34.3889 52.3634 34.3015 52.3527 34.597C52.4728 34.7562 52.778 34.8299 52.9699 34.8674L52.9303 34.9714C52.8224 35.0659 52.7809 35.0931 52.6569 35.1665C52.1466 35.1878 52.1666 34.7927 51.5177 35.086C51.3825 34.947 51.4118 34.0147 51.4093 33.7696Z" fill="#C3C2C3" fill-opacity="0.0117647"/>
<path d="M51.373 33.1665C51.6177 33.4208 51.5068 33.2459 51.8818 33.3645C51.6875 33.4069 51.7031 33.3736 51.5767 33.4946C51.7271 33.6341 52.2607 33.5922 52.48 33.5834C52.6113 33.5773 52.7427 33.5653 52.873 33.5475L52.9395 33.4744L52.8955 33.4201C52.6689 33.4068 52.4419 33.3966 52.2153 33.3894C52.3662 33.3361 52.5762 33.3363 52.7407 33.328C53.0347 33.2405 53.5522 33.2662 53.7798 33.4816C53.73 33.5719 53.5645 33.8985 53.5015 33.9438L53.4272 33.8773C53.2505 33.859 53.2021 33.8482 53.0264 33.8872C52.77 33.9312 52.0855 34.0455 51.8452 33.9459C51.7837 33.9206 51.624 33.7484 51.498 33.6773L51.4087 33.7692L51.3789 33.5681L51.373 33.1665Z" fill="#989898" fill-opacity="0.0784314"/>
<path d="M53.0278 33.8875C53.2036 33.8485 53.2519 33.8593 53.4287 33.8776L53.5029 33.9441C53.3291 34.2764 53.1675 34.5475 52.9707 34.8673C52.7788 34.8298 52.4736 34.7561 52.3535 34.5969C52.3643 34.3014 52.271 34.3888 52.2305 34.1995C52.562 34.1666 52.7324 34.0406 53.0278 33.8875Z" fill="#B3B2B2" fill-opacity="0.027451"/>
<path d="M51.8833 33.3645C51.9868 33.3811 52.1191 33.4131 52.2168 33.3895C52.4434 33.3966 52.6704 33.4068 52.897 33.4202L52.9409 33.4744L52.8745 33.5475C52.7441 33.5654 52.6128 33.5774 52.4814 33.5835C52.2622 33.5922 51.7285 33.6342 51.5781 33.4947C51.7046 33.3737 51.689 33.4069 51.8833 33.3645Z" fill="#6C6A6D" fill-opacity="0.756863"/>
</svg>
