<svg width="106" height="40" viewBox="0 0 106 40" fill="none" xmlns="http://www.w3.org/2000/svg">
<g clip-path="url(#clip0_30141_32263)">
<path d="M18.6607 8.73321C19.2409 8.08915 19.8466 7.33388 20.4106 6.66316L23.6142 2.85291C24.268 2.0739 24.9147 1.25948 25.6108 0.521515C25.9696 0.141077 26.3076 0.529403 26.3997 0.916887C26.5651 1.61221 26.7242 2.30613 26.8827 3.00276L27.784 6.96471L28.3617 9.49822C28.4586 9.92486 28.6736 10.7548 28.6766 11.1662C28.479 11.605 27.4893 12.6547 27.117 13.096L22.4664 18.5593C22.1452 18.9351 19.9269 21.3945 19.9532 21.7134C20.2327 21.669 20.8849 20.9004 21.1137 20.6647L22.9468 18.7787L28.2988 13.2722C28.5595 13.0041 30.253 11.2186 30.4879 11.1216C30.8759 10.9614 33.7178 11.0655 34.3262 11.065C34.4135 11.065 34.5364 11.1362 34.61 11.1824C34.602 11.2811 34.5907 11.374 34.5264 11.4537C34.0364 12.0608 33.491 12.6851 32.9855 13.2757L28.5627 18.4632C27.739 19.4272 26.899 20.399 26.0953 21.3811C26.0114 21.4836 25.9817 21.5628 25.9646 21.6909L26.0158 21.7068C26.3708 21.5466 28.0019 19.7746 28.3878 19.3783L33.6163 14.0055C34.431 13.1671 35.2379 12.3213 36.0539 11.4844C36.5359 10.99 37.1312 11.0621 37.7576 11.0823C38.2477 11.0689 39.939 10.9513 40.1272 11.4515C40.1085 11.7178 39.6745 12.2127 39.4993 12.4303C37.4326 14.9975 35.2217 17.4881 33.1714 20.0653C34.6685 22.0015 36.3981 24.0316 37.9577 25.9379L39.2296 27.4943C39.454 27.7696 39.7084 28.0615 39.8997 28.3458C40.0491 28.5677 40.0204 28.87 39.7609 28.9767C39.6002 29.0427 39.4437 29.0498 39.2688 29.0547C37.8865 29.0688 36.4919 29.0562 35.1098 29.0477L28.5842 29.0393C28.446 29.8747 28.1929 30.716 27.9933 31.5399C27.6536 32.9418 27.3284 34.3466 26.9696 35.7434C26.695 36.8124 26.5245 37.9316 26.1992 38.9842C26.1449 39.1605 26.063 39.4482 25.9026 39.5529C25.7912 39.6254 25.6766 39.6153 25.5546 39.5731C25.1031 39.4179 19.4732 32.2343 18.4873 31.1936L12.0048 34.1521C10.986 34.6183 9.96807 35.0882 8.94449 35.5439C8.84114 35.5898 8.44369 35.7388 8.33798 35.7038C8.18032 35.6514 7.99004 35.4013 8.03163 35.2152C8.23522 34.304 8.45182 33.3961 8.66429 32.4874L10.0405 26.6278C10.1218 26.2813 10.2122 25.922 10.2872 25.5751C10.4501 24.8216 10.5669 24.9409 9.88994 24.6172L3.83708 21.7425C3.29646 21.4852 0.643061 20.3295 0.441406 19.9347C0.448845 19.7876 0.548277 19.529 0.638346 19.4913C1.13163 19.285 1.72256 18.9976 2.19377 18.7745L8.04877 16.0488C8.46541 15.8554 10.2263 15.066 10.454 14.8887C10.5118 14.5866 10.1562 13.2164 10.0699 12.8374L8.83083 7.37122C8.71139 6.84325 8.03319 4.4714 8.38231 4.16006C8.64492 4.05599 8.95194 4.1607 9.19733 4.27527C10.7731 5.01101 12.3473 5.77151 13.923 6.50686L17.0142 7.9496C17.5259 8.18939 18.1704 8.47106 18.6607 8.73321Z" fill="white"/>
<path d="M10.1055 5.08594C11.5775 5.70979 13.1239 6.47295 14.5796 7.14409C15.2006 7.43037 16.6999 8.1054 17.2067 8.4331C17.1586 8.43766 17.0696 8.45264 17.0267 8.43496C14.7081 7.48024 12.3994 6.39937 10.1858 5.22001C10.1858 5.22001 10.1125 5.09771 10.1055 5.08594Z" fill="white"/>
<path d="M24.6417 2.22095C24.6495 2.23242 24.6614 2.29912 24.665 2.31582C24.4565 2.53701 24.1031 3.0281 23.9046 3.28506C23.4856 3.82421 23.0593 4.35765 22.6257 4.88516C21.9646 5.6762 21.2951 6.46015 20.6172 7.23684C20.3214 7.57269 19.9528 7.95208 19.6762 8.28539C19.6662 8.2624 19.6602 8.1663 19.6669 8.15765C20.6992 6.82704 23.7107 3.18824 24.6417 2.22095Z" fill="white"/>
<path d="M19.7612 22.1291C19.6034 22.0396 19.5563 22.0222 19.5195 21.8401C19.5736 21.6828 19.6118 21.5327 19.7098 21.4007C19.6924 21.531 19.6732 21.661 19.6521 21.7908C19.7167 21.9304 19.6708 21.8725 19.8021 21.965C19.9598 21.9831 20.1666 21.898 20.2811 21.7906C21.4322 20.7102 22.5316 19.5631 23.6733 18.4695C23.8602 18.2904 24.5747 17.5053 24.7486 17.4331L24.7941 17.4692C23.9286 18.3208 23.0744 19.2827 22.2641 20.1897C22.1536 20.3134 22.0018 20.414 21.8799 20.5452C21.5052 20.9483 21.1331 21.3449 20.7464 21.7372C20.4992 21.9264 20.0969 22.3095 19.7612 22.1291Z" fill="white"/>
<path d="M9.12936 15.9336C9.20198 15.9184 9.16565 15.918 9.23793 15.9502C8.8857 16.4071 3.32788 18.6655 2.40796 19.106L2.33008 19.0894L2.34271 19.0525C2.63484 18.9442 3.4825 18.4745 3.8834 18.3026C5.59769 17.5675 7.40282 16.6232 9.12936 15.9336Z" fill="white"/>
<path d="M28.3785 19.6974C28.6556 19.4422 30.5572 17.5333 30.6492 17.5342C30.5467 17.7068 29.5603 18.6975 29.3411 18.9195C28.4007 19.872 27.2867 21.2423 26.2965 22.1014L26.2493 22.1074C25.8656 22.2768 25.8104 22.2634 25.5039 21.9771C25.5255 21.8365 25.5788 21.6349 25.6876 21.5369C25.6974 21.7519 25.6538 21.903 25.8753 21.9705C26.0428 21.9384 26.0755 21.9166 26.2267 21.8343C26.927 21.1909 27.6864 20.3758 28.3785 19.6974Z" fill="white"/>
<path d="M30.0468 28.1456L30.0968 28.1741C30.7041 28.1053 37.3923 28.134 37.4663 28.193C37.4001 28.2395 36.8291 28.2319 36.6336 28.2659L36.5833 28.2749C36.1942 28.369 35.4494 28.2702 35.0122 28.3052C33.0719 28.4607 31.1319 28.2408 29.1973 28.2226C29.4895 28.1755 29.7592 28.2004 30.0468 28.1456Z" fill="white"/>
<path d="M33.3165 21.4539C33.3244 21.4612 33.3322 21.4686 33.3401 21.476C34.9084 23.261 36.3791 25.1479 37.8359 27.0246C37.8373 27.0804 37.8385 27.1261 37.8393 27.1617C37.8355 27.1581 37.8316 27.1545 37.8278 27.1509C36.3817 25.5111 35.0018 23.8139 33.6914 22.0634C33.5742 21.908 33.3106 21.6261 33.3165 21.4539Z" fill="white"/>
<path d="M23.9478 36.5471C23.8166 36.3467 23.456 35.9932 23.2797 35.7852C22.0652 34.3504 20.8336 32.8929 19.7461 31.3582C20.0499 31.5256 21.2479 33.0249 21.549 33.3894C22.3992 34.4239 23.2438 35.4629 24.0826 36.5066L23.9478 36.5471Z" fill="white"/>
<path d="M10.9141 33.6408C11.2831 33.508 11.7562 33.2434 12.1275 33.0722L15.1901 31.691C15.5173 31.5454 17.1259 30.7928 17.3706 30.7578C17.251 31.0139 11.7724 33.4497 11.0375 33.7117L10.9141 33.6408Z" fill="white"/>
<path d="M27.3785 30.4072C27.4305 30.5561 27.4281 30.5819 27.4387 30.7422C27.0138 32.436 26.6659 34.1479 26.1817 35.8282C26.1311 36.0037 26.041 36.283 26.0051 36.4576C25.944 36.2956 25.9847 36.1033 26.0028 35.9235C26.0572 35.7767 26.1029 35.527 26.1401 35.3696C26.534 33.7079 26.9238 32.0538 27.3785 30.4072Z" fill="white"/>
<path d="M10.8422 26.824C10.8655 26.9189 10.8942 26.9977 10.8915 27.0925C10.8341 27.5766 9.63596 32.6621 9.47123 32.8625C9.4077 32.3018 10.5841 27.6945 10.8422 26.824Z" fill="white"/>
<path d="M31.2461 11.3058C31.6305 11.2721 32.6997 11.2534 33.0379 11.3268L33.054 11.3831L32.9809 11.3951C32.7009 11.4657 31.3776 11.5917 31.2461 11.3058Z" fill="white"/>
<path d="M37.4272 11.3878C37.6107 11.354 38.4311 11.3683 38.564 11.4526C38.5194 11.4852 38.2996 11.5327 38.2163 11.5629C37.9903 11.5938 37.1672 11.6206 37.0234 11.4752C37.1233 11.3959 37.2925 11.4 37.4272 11.3878Z" fill="white"/>
<path d="M92.6818 3.78711C92.7727 3.88941 92.7357 6.24237 92.7357 6.53991L92.7336 12.3014C93.5397 11.6261 94.4667 11.1103 95.4649 10.7812C97.3833 10.1656 99.7648 10.3002 101.573 11.2411C106.12 13.6072 106.412 20.6236 104.375 24.7267C103.562 26.3625 101.699 28.0478 99.9488 28.5957C99.676 28.7296 98.9292 28.9415 98.6202 29.0127C95.2026 29.8001 91.0029 29.1319 87.6868 28.1778V7.1163C87.0995 7.11588 86.4163 6.94798 85.7734 6.93507V4.03711C87.3601 4.00593 88.946 3.95813 90.5314 3.89367C91.1035 3.87131 92.1627 3.87532 92.6818 3.78711ZM92.7344 17.0017L92.7336 22.1215C92.7336 22.8957 92.6957 23.9932 92.7411 24.7248C94.2487 25.108 94.5105 25.2712 96.1275 25.2508C97.2503 25.1368 98.2661 24.8199 98.9923 23.9001C100.156 22.4266 100.256 20.2748 100.093 18.4844C99.9033 16.4052 99.0656 14.4184 96.631 14.6348C95.0283 14.8653 93.7561 15.774 92.7344 17.0017Z" fill="white"/>
<path d="M74.7459 10.3378C74.8671 10.3206 74.9993 10.3177 75.1214 10.3174C78.363 10.3093 82.132 11.118 82.9193 14.8313C83.2384 16.337 83.1213 18.0002 83.1209 19.5551L83.1197 25.7673C83.7015 25.8296 84.2841 25.8857 84.8672 25.9355V28.7943C82.9858 28.7808 80.9613 28.9371 79.0664 28.9637C78.9886 28.4933 78.8909 28.0263 78.7743 27.564C76.8887 29.0374 74.8179 29.6087 72.4385 29.4132C70.9996 29.295 69.7791 28.937 68.6164 28.0517C67.2915 26.9497 66.7422 25.4524 66.7582 23.767C66.8146 17.728 73.6711 17.7275 77.9875 17.7435C77.9938 16.1924 78.0211 14.7858 76.1326 14.4072C74.3939 14.0587 72.5875 14.3769 70.8872 14.7831C70.2637 14.9321 69.6297 15.2274 69.0222 15.3618C68.8774 14.9133 68.1015 11.8868 68.1318 11.5946C68.2257 11.4861 68.5995 11.3923 68.7726 11.3341C70.278 10.827 71.8773 10.5754 73.4514 10.4008C73.8559 10.356 74.298 10.3838 74.708 10.342L74.7459 10.3378ZM74.7316 25.6051C75.9347 25.5616 77.0781 24.8063 77.9866 24.0703L77.9875 21.2412C77.5913 21.2397 75.5777 21.1835 75.3058 21.2637C74.2988 21.3381 73.0822 21.4544 72.3846 22.2802C71.7173 23.0698 71.8062 24.4267 72.6077 25.0938C73.1866 25.5758 74.0037 25.6733 74.7316 25.6051Z" fill="white"/>
<path d="M56.9812 10.3377C57.0633 10.3258 57.1462 10.3198 57.2296 10.3196C59.0137 10.3133 60.9574 10.7444 62.2532 12.0468C64.5349 14.3397 64.1139 17.9971 64.1135 20.9607V28.963H58.9139L58.9131 21.2034C58.9135 19.8671 58.9851 18.4614 58.8356 17.13C58.6673 15.6315 57.9381 14.5953 56.3493 14.5873C54.5799 14.5785 53.7123 15.3173 52.5116 16.49L52.1765 16.8258V28.963H46.9618V14.1258C46.4436 14.0757 45.9224 13.9932 45.4004 13.9405V11.0766C46.7016 11.0872 48.1839 10.9065 49.5008 10.8723C49.7807 10.865 50.8311 10.7695 51.0222 10.8183C51.2159 11.3215 51.2744 12.1996 51.4394 12.6202C51.5526 12.5902 52.2355 12.0207 52.3849 11.9097C54.0019 10.7098 55.0893 10.5034 56.9812 10.3377Z" fill="white"/>
</g>
<defs>
<clipPath id="clip0_30141_32263">
<rect width="106" height="40" fill="white"/>
</clipPath>
</defs>
</svg>
