<svg width="63" height="85" viewBox="0 0 63 85" fill="none" xmlns="http://www.w3.org/2000/svg">
<g clip-path="url(#clip0_30141_32744)">
<path d="M26.731 0H35.5048C36.2625 0.321426 37.6124 0.243749 38.5257 0.702454C39.4687 1.17601 40.51 1.58132 41.5534 1.70442C42.6201 1.83028 43.7236 1.94484 44.8001 2.00231C46.429 2.14721 50.0933 1.52386 50.6065 3.74394C50.9502 5.23068 50.0626 8.04419 49.2999 9.37396C50.1526 9.52662 51.3319 9.67117 52.1286 9.82407C54.0489 10.1926 59.0257 11.2427 60.5253 12.416C60.9226 13.6331 61.4277 16.7265 61.6016 18.009C62.8495 27.2284 61.8037 36.3818 57.9384 44.8873C53.5762 54.4864 46.8375 60.9622 38.0685 66.539C36.5724 67.4996 35.0336 68.3922 33.4567 69.2134C32.7895 69.5635 31.924 70.026 31.2279 70.2874C29.6599 69.5002 28.1444 68.6732 26.6087 67.8226C24.282 66.5338 22.1236 64.9951 19.9758 63.4315C17.614 61.7425 15.4063 59.8478 13.3785 57.7695C6.82566 50.9598 2.52726 42.2983 1.06699 32.9611C0.129663 26.9505 0.277111 20.8206 1.50234 14.862C1.62212 14.2528 1.79067 12.7772 2.15024 12.3473C3.02319 11.3037 10.7814 9.73527 12.4706 9.5898C10.8943 7.86446 10.0982 4.37454 10.8993 2.1628C11.7957 -0.194055 15.0025 1.33316 16.8141 1.32293C18.3895 1.30027 20.6661 1.74131 22.1155 1.12491C23.6893 0.455598 25.0436 0.314276 26.6961 0.016872C26.7078 0.011248 26.7194 0.00562401 26.731 0ZM12.1924 1.98473C11.9572 2.29473 11.7835 2.54919 11.698 2.9379C11.1121 5.60291 12.4427 8.51613 14.3751 10.2466C12.6559 10.527 11.0592 10.7312 9.35216 11.1074C6.9603 22.7388 6.46787 36.0526 10.8212 47.3008C11.4339 48.8839 12.4212 51.314 13.3827 52.7049C13.8884 53.8086 16.0606 57.014 16.8057 57.9244C16.6253 57.3294 16.4239 56.738 16.2581 56.1397C14.2473 48.881 14.3565 41.2368 18.103 34.5569C18.4047 34.9062 18.7236 35.187 19.0842 35.4752C17.6027 38.477 16.0655 42.9349 16.1871 46.2908C16.4026 45.783 16.4464 45.3035 16.6986 44.7754C16.357 51.3329 18.3138 58.8562 22.8134 63.7702C23.7628 64.8067 24.2262 65.1575 25.3725 65.9274C23.2619 59.5611 24.8917 56.219 27.2733 50.318C24.825 52.6868 23.353 53.5903 22.3599 56.946C22.3856 56.264 22.4642 55.5542 22.7185 54.9144C22.0173 54.0606 21.4483 53.1064 21.0304 52.0836C20.8486 51.6392 20.708 51.2118 20.5689 50.7539C20.4856 50.4796 20.3485 49.5214 20.1579 49.3794C19.9408 49.6514 19.614 50.3987 19.4218 50.7651C19.4813 50.4033 19.5417 50.0405 19.6173 49.6818C19.7545 49.0309 20.0371 48.416 20.215 47.7788C19.9144 48.1952 19.6562 48.6586 19.434 49.1215C18.2083 45.5528 18.1487 41.5437 18.9558 37.8802C19.1266 42.273 20.1412 45.6173 23.1156 48.9333L23.2265 48.9401L23.3218 48.8297L23.5144 48.8745C23.2661 49.3561 22.9969 50.211 22.8008 50.7521C23.551 49.6985 23.9566 48.8581 24.9013 47.8364C26.4854 46.1235 28.339 45.0217 30.2409 43.7151C30.8961 43.2649 31.6554 42.591 32.2635 42.0606C31.5597 42.3548 30.9744 42.7691 30.2802 43.0724C32.2748 41.3897 33.8062 41.0634 35.2408 38.3798C35.2114 38.819 35.1668 39.1107 35.0913 39.5455C35.741 38.8747 35.9597 38.767 36.409 37.9401C36.2939 38.6591 36.1983 39.1606 35.9845 39.8562C36.5861 39.2243 36.8853 38.7855 37.2729 38.0076C37.432 38.2742 37.5332 38.4961 37.6626 38.7756C38.3942 38.4165 38.6225 38.1547 39.1079 37.5309C39.238 37.6943 39.3931 37.932 39.5156 38.108C39.8771 37.7526 40.0593 37.527 40.2759 37.0577C40.5314 36.5043 40.4576 36.9777 40.775 37.0254C41.0925 36.8859 41.576 36.436 41.8174 36.1811C42.2458 35.45 42.49 34.9925 42.7561 34.1842C43.3711 33.9072 44.2589 33.3593 44.7885 32.9418C44.5105 33.8332 44.4953 34.8953 44.5908 35.8149C44.7623 37.4681 46.0236 38.6754 47.2439 39.6777C49.5389 41.5626 51.1928 43.8163 51.9073 46.7439C52.4078 45.4759 53.0135 43.4272 53.339 42.101C53.5269 41.5621 53.8354 40.0411 53.9402 39.4672C54.0929 38.7157 54.2455 37.9811 54.3157 37.2155C54.414 36.9201 54.53 35.7294 54.5718 35.3603C54.8751 33.2288 54.957 30.5426 54.9509 28.4073C54.9463 23.8276 54.574 19.2557 53.8376 14.7356C53.6703 13.6921 53.4339 12.1362 53.1986 11.1267C52.1766 10.8817 50.9063 10.7072 49.8586 10.5319C49.2419 10.4287 48.1623 10.248 47.5682 10.2106C48.7743 8.6309 49.1211 7.59725 49.5592 5.69036C50.3695 2.39662 47.8004 3.14722 45.661 3.04943C44.0126 2.98269 42.373 2.87265 40.7398 2.63171C39.8675 2.50303 39.2194 2.1162 38.4303 1.75177C36.3655 0.798125 33.5936 0.745374 31.4427 1.44518C30.6725 1.14286 29.3569 1.02149 28.5121 0.983547C26.7893 0.906183 24.9877 1.24812 23.3353 1.723C22.5073 1.96096 21.8742 2.48428 20.9887 2.41885C19.17 2.4098 17.3785 2.30213 15.5676 2.14345C14.5696 2.05598 13.1339 1.69977 12.1924 1.98473Z" fill="#FEFEFE"/>
<path d="M31.4438 1.44528C33.5947 0.74548 36.3666 0.798231 38.4314 1.75188C39.2205 2.11631 39.8686 2.50314 40.7409 2.63181C42.3741 2.87275 44.0137 2.9828 45.6621 3.04954C47.8015 3.14733 50.3706 2.39673 49.5603 5.69046C49.1222 7.59735 48.7754 8.631 47.5693 10.2107C48.1634 10.2481 49.243 10.4288 49.8597 10.532C50.9074 10.7073 52.1776 10.8818 53.1997 11.1268C53.435 12.1363 53.6714 13.6922 53.8387 14.7357C54.5751 19.2558 54.9474 23.8277 54.9519 28.4074C54.9581 30.5427 54.8762 33.2289 54.5729 35.3604C54.5311 35.7295 54.4151 36.9202 54.3168 37.2156C54.2466 37.9812 54.094 38.7158 53.9413 39.4673C53.8365 40.0412 53.528 41.5622 53.3401 42.1011C53.0146 43.4273 52.4089 45.476 51.9084 46.744C51.1939 43.8164 49.54 41.5627 47.245 39.6778C46.0246 38.6754 44.7634 37.4682 44.5919 35.815C44.4964 34.8954 44.5116 33.8333 44.7896 32.9419C44.26 33.3594 43.3722 33.9073 42.7572 34.1843C42.4911 34.9926 42.2469 35.4501 41.8185 36.1812C41.5771 36.4361 41.0936 36.886 40.7761 37.0255C40.4587 36.9778 40.5325 36.5044 40.277 37.0578C40.0604 37.5271 39.8782 37.7527 39.5167 38.1081C39.3942 37.9321 39.239 37.6944 39.109 37.531C38.6236 38.1548 38.3953 38.4166 37.6637 38.7757C37.5343 38.4962 37.4331 38.2743 37.274 38.0077C36.8864 38.7856 36.5872 39.2244 35.9856 39.8563C36.1994 39.1607 36.295 38.6592 36.4101 37.9402C35.9608 38.7671 35.7421 38.8748 35.0924 39.5456C35.1679 39.1108 35.2125 38.8191 35.2419 38.3798C33.8073 41.0635 32.2759 41.3897 30.2813 43.0725C30.9755 42.7692 31.5608 42.3549 32.2646 42.0606C31.6565 42.5911 30.8972 43.265 30.2419 43.7152C28.3401 45.0218 26.4865 46.1236 24.9024 47.8365C23.9577 48.8582 23.5521 49.6986 22.8019 50.7522C22.9979 50.2111 23.2672 49.3562 23.5155 48.8746L23.3229 48.8298L23.2275 48.9402L23.1167 48.9334C20.1423 45.6174 19.1277 42.2731 18.9569 37.8803C18.1498 41.5438 18.2094 45.5529 19.4351 49.1216C19.6573 48.6587 19.9155 48.1953 20.2161 47.7789C20.0382 48.4161 19.7556 49.031 19.6184 49.6819C19.5428 50.0406 19.4824 50.4034 19.4229 50.7652C19.6151 50.3988 19.9419 49.6515 20.159 49.3795C20.3496 49.5215 20.4866 50.4797 20.57 50.754C20.7091 51.2119 20.8497 51.6393 21.0315 52.0837C21.4493 53.1065 22.0184 54.0607 22.7196 54.9145C22.4653 55.5543 22.3867 56.2641 22.361 56.9461C23.3541 53.5904 24.8261 52.6869 27.2744 50.3181C24.8928 56.2191 23.263 59.5611 25.3736 65.9275C24.2273 65.1576 23.7639 64.8068 22.8145 63.7703C18.3149 58.8563 16.3581 51.333 16.6997 44.7755C16.4475 45.3036 16.4036 45.7831 16.1882 46.2909C16.0666 42.9349 17.6038 38.4771 19.0853 35.4753C18.7247 35.1871 18.4058 34.9063 18.1041 34.557C14.3576 41.2369 14.2484 48.8811 16.2592 56.1398C16.425 56.7381 16.6263 57.3295 16.8068 57.9245C16.0617 57.0141 13.8895 53.8087 13.3838 52.705C12.4223 51.3141 11.435 48.884 10.8223 47.3009C6.46896 36.0527 6.96139 22.7389 9.35325 11.1075C11.0603 10.7313 12.657 10.5271 14.3762 10.2467C12.4438 8.51623 11.1131 5.60301 11.6991 2.938C11.7846 2.5493 11.9583 2.29484 12.1934 1.98483C13.135 1.69988 14.5707 2.05609 15.5687 2.14355C17.3796 2.30224 19.171 2.4099 20.9898 2.41896C21.8753 2.48439 22.5084 1.96107 23.3364 1.72311C24.9888 1.24823 26.7904 0.906289 28.5132 0.983653C29.358 1.02159 30.6736 1.14296 31.4438 1.44528ZM31.2099 12.7215L31.0048 12.4725C30.4996 12.203 29.6988 12.0136 29.129 11.9874C29.84 12.1667 30.6924 12.6024 31.2099 12.7215ZM44.9463 6.64203C44.8049 6.44577 44.6678 6.24738 44.507 6.06672L44.4014 6.05411L44.3819 5.99969C44.4731 6.26626 44.6816 6.51637 44.8513 6.74672L44.9463 6.64203Z" fill="#F05758"/>
<path d="M16.8426 32.8931C17.2129 33.4262 17.7001 34.0416 18.1036 34.557C14.3571 41.2369 14.2479 48.8811 16.2587 56.1398C16.4245 56.738 16.6259 57.3295 16.8064 57.9245C16.0612 57.0141 13.889 53.8087 13.3833 52.705C13.4133 52.4504 13.3433 51.6474 13.3226 51.3292C13.2702 50.5258 13.2289 49.7721 13.2285 48.9636C13.2268 45.3961 13.7338 41.4713 14.8278 38.0625C14.5502 38.365 14.1814 39.0448 13.914 39.4423C14.4465 37.3326 15.7136 34.7532 16.8426 32.8931Z" fill="#F0F0F0"/>
<path d="M46.293 31.5533L47.3353 30.3123C48.0453 31.1629 48.7621 31.6765 49.4258 32.6879C50.054 33.6454 50.4484 34.5045 50.96 35.4525C51.4755 36.4075 53.106 38.7611 53.9402 39.4676C53.8354 40.0414 53.527 41.5624 53.339 42.1013C53.1557 41.9177 52.9348 41.6557 52.7605 41.4509C50.6534 38.9745 47.2864 37.2242 46.5487 33.8333C46.3789 33.0529 46.3449 32.3266 46.293 31.5533Z" fill="#F0F0F0"/>
<path d="M50.5352 32.3679C51.4093 33.0966 53.607 35.003 54.5719 35.3606C54.53 35.7297 54.4141 36.9204 54.3157 37.2157C53.2927 36.4576 51.1378 33.4761 50.5352 32.3679Z" fill="#F0F0F0"/>
<path d="M23.3223 48.8297C23.4754 48.5604 23.7528 48.1949 23.9768 47.9785L23.5148 48.8745L23.3223 48.8297Z" fill="#E4E6E7"/>
<path d="M32.5711 2.42906C34.048 1.55012 36.3577 1.94963 37.9035 2.4241C39.0657 2.78084 40.1032 3.30405 41.3204 3.47973C43.6193 3.81154 45.7776 3.82079 48.0826 3.73528C47.3778 4.00826 46.1087 4.36479 45.3397 4.30131C45.2407 4.29314 45.3063 4.27658 45.2062 4.34731L45.2528 4.42765C45.9282 4.88558 47.4513 4.92587 48.2514 4.9212C47.0765 5.33928 46.4982 5.28209 45.2908 5.05167C46.0921 5.6241 46.4071 5.78359 47.3232 6.18331C45.7313 6.0857 45.1918 5.78912 43.8173 5.01543C43.1319 4.62961 42.1242 4.16266 41.3887 3.84925C41.7871 4.16176 42.0482 4.31775 42.4364 4.6797C43.2576 5.13534 43.6869 5.79551 43.9678 6.68812C44.0528 6.95833 44.1238 7.33501 43.8894 7.55102C43.2931 7.62393 42.0171 5.74684 40.1649 8.0692C40.0243 8.24548 39.9202 8.40413 39.7938 8.62867C39.6439 8.60275 39.5965 8.53607 39.4837 8.43114L39.4456 8.42135C38.493 8.16837 38.6343 8.05463 37.4993 8.394C38.1491 8.53446 39.4543 8.75508 39.8219 9.31385C39.5829 9.42494 39.3654 9.41325 39.2302 9.54317C39.4603 9.80652 40.0497 9.68236 40.3008 9.8276C41.2867 10.3981 43.9926 11.9702 43.8491 13.309C43.782 14.2755 42.975 14.8334 42.4999 15.5849C42.4929 15.596 42.5612 15.9451 42.5538 15.9692C42.2502 16.9671 41.251 17.3916 40.4975 16.5513C40.3752 16.4149 40.2885 16.1328 40.2129 15.9509C41.7917 15.2985 39.7148 14.7143 39.1442 14.4394C38.7703 13.8952 38.3827 13.3507 38.0051 12.8142C37.5124 12.1142 36.1909 10.8923 36.2922 10.0376C36.4383 9.76995 36.7149 9.72307 36.9938 9.64095C37.1326 9.60018 37.2717 9.56033 37.4111 9.52146C35.7035 9.23179 34.8748 9.60628 33.4519 10.586C33.1314 10.8067 31.42 12.2698 31.2372 12.5192L31.0042 12.4727C30.499 12.2032 29.6982 12.0138 29.1284 11.9876C28.5865 11.8911 27.6992 11.6748 27.1877 11.4789C28.8191 11.3755 30.1285 10.9648 31.3008 9.79598L32.1293 9.78786C31.7092 10.0919 30.0157 11.1461 30.3802 11.7499C31.4969 12.0257 33.5727 9.64585 34.6135 9.12663C35.5411 8.66386 35.9448 8.62308 36.9501 8.41968C35.0238 7.9933 34.8095 8.39809 33.2562 9.05499L33.222 9.06922C33.1497 9.11108 32.8348 9.2831 32.7901 9.26536C31.8603 8.89645 30.7593 7.79595 29.8668 7.43193C28.9717 7.06688 27.7112 6.94629 26.7944 7.08612C26.0605 7.19812 25.5767 7.35327 24.8428 7.36991C23.8468 6.76069 24.185 5.87343 24.3164 4.85616C24.2778 4.60106 24.3179 4.6139 24.1769 4.43717C23.599 4.53084 23.4216 5.8345 22.6524 5.8588C22.2425 5.8717 21.9141 5.87176 21.4938 5.85051C21.6431 6.40162 21.7574 7.22842 22.4252 7.27834C22.1563 7.736 21.9491 8.05596 21.789 8.56503C21.9091 9.05004 21.985 9.181 22.256 9.61475C21.1067 9.94473 20.7181 7.89776 20.2863 7.22277L20.2711 7.19933C19.6369 7.57227 19.5307 7.67789 19.0792 8.2597C19.3393 6.90713 19.6846 6.4713 20.7709 5.66059C19.8804 5.88529 19.4102 6.11305 18.6342 6.61384C19.4416 5.66121 20.3142 4.96317 21.3376 4.25047C17.4685 5.13097 17.3709 6.96685 13.4364 4.59055C14.1131 4.68012 14.6102 4.66917 15.2885 4.63249C15.1056 4.53843 14.8218 4.4773 14.6153 4.38728C13.9844 4.11229 13.5788 3.81114 13.0488 3.38579C14.8095 3.78062 16.6216 4.10677 18.4305 4.05798C17.0684 3.62977 16.7513 3.67323 15.4904 2.84493C17.3289 3.3599 20.2824 3.58458 22.2396 3.47051C22.5995 3.44953 23.8966 2.74659 24.4337 2.59635C27.1946 1.82401 29.8237 1.64416 32.5711 2.42906Z" fill="#F0F0F0"/>
<path d="M24.3169 4.8558L24.3637 4.84053C25.8945 4.33383 26.2952 3.69846 28.127 4.63571C28.3346 4.74191 28.8852 5.0022 28.9578 5.20807C30.1024 5.48645 32.0532 6.63871 32.3943 7.81771C32.9049 8.22422 33.0458 8.40908 33.2225 9.06887C33.1502 9.11073 32.8353 9.28275 32.7906 9.26501C31.8608 8.8961 30.7598 7.7956 29.8673 7.43158C28.9722 7.06653 27.7117 6.94594 26.7949 7.08576C26.061 7.19777 25.5772 7.35292 24.8433 7.36956C23.8473 6.76033 24.1856 5.87307 24.3169 4.8558Z" fill="#FEFEFE"/>
<path d="M32.3951 7.81812C31.4867 8.4893 29.9225 6.27953 29.1012 5.92243C28.2926 5.57087 27.6551 5.56123 26.8384 5.45855L26.7832 5.3806L26.8376 5.30797C27.3669 5.01663 28.3427 5.15541 28.9587 5.20847C30.1033 5.48686 32.054 6.63911 32.3951 7.81812Z" fill="#F05758"/>
<path d="M40.1435 5.83521C39.9906 5.63995 39.8417 5.44156 39.697 5.24015C39.172 4.49885 39.4609 4.05465 40.3553 4.16964C41.0771 4.26245 41.7289 4.52474 42.4354 4.67944C43.2566 5.13508 43.6859 5.79524 43.9668 6.68786C44.0518 6.95806 44.1228 7.33475 43.8884 7.55076C43.2921 7.62367 42.0161 5.74657 40.1639 8.06894C40.0233 8.24521 39.9192 8.40387 39.7928 8.6284C39.6429 8.60249 39.5955 8.5358 39.4827 8.43088C39.4859 8.17432 39.4696 8.06508 39.6045 7.85131C39.4458 7.0513 39.7048 6.5015 40.1435 5.83521Z" fill="#FEFEFE"/>
<path d="M40.1446 5.8354C40.5758 5.4427 41.1731 5.11913 41.7778 5.2508L41.8342 5.32422C41.6227 5.54098 41.396 5.50092 40.9996 6.00131C40.4496 6.69565 40.56 7.82536 39.6056 7.8515C39.4469 7.05149 39.7059 6.50169 40.1446 5.8354Z" fill="#F05758"/>
<path d="M29.2567 2.62238C30.5029 2.50977 32.2112 2.62772 33.3114 3.27773C34.6923 2.63235 35.8384 2.61366 37.317 2.90604C36.731 2.92664 35.5483 2.94994 35.0572 3.21955L35.0542 3.29647C35.6087 3.31593 35.7267 3.25191 36.285 3.36807C36.3791 3.36611 36.3526 3.36987 36.4476 3.40894C36.4159 3.48739 35.4589 3.65497 35.2811 3.70273C34.6797 3.86434 34.5891 3.94901 34.1861 4.39803C34.0541 4.40065 33.3605 3.9831 33.1445 3.91356C32.3024 3.64243 31.4237 3.48713 30.5586 3.31554C31.1118 3.28805 31.5745 3.27628 32.1277 3.28486C31.0639 2.82433 30.3893 2.82298 29.248 2.68664L29.2567 2.62238Z" fill="#F05758"/>
<path d="M37.0667 4.56823C37.2342 4.53779 37.7707 4.54397 37.9671 4.54175C37.26 4.81213 35.8397 5.34676 35.8124 6.24699L35.8112 6.30273C35.6875 6.34852 35.1191 5.89259 34.9502 5.78127C34.4917 5.47888 34.1056 5.29021 33.5898 5.0964C33.2237 4.95658 32.3365 4.76075 31.9121 4.65281C33.2334 4.6074 34.0805 4.77334 35.3138 5.18872C35.9627 4.75725 36.2984 4.68482 37.0667 4.56823Z" fill="#F05758"/>
<path d="M40.0156 13.3745C40.7791 13.3792 41.5947 13.4973 42.3743 13.4928C42.6273 13.4914 43.1083 13.3959 43.2371 13.4485C43.1711 13.5939 43.0942 13.612 42.9476 13.7169C42.5911 13.9123 42.2973 14.0004 41.9134 14.1309C41.2663 13.8102 40.7774 13.7836 40.1235 13.5617C40.0391 13.5331 40.0445 13.4724 40.0156 13.3745Z" fill="#F05758"/>
<path d="M17.023 8.12891L17.188 8.23441C16.0944 9.72669 15.5662 11.1332 15.1932 12.9481C15.5958 12.715 15.8374 12.622 16.274 12.452C14.9937 15.4725 14.4985 16.7138 14.5821 19.982C15.3369 19.5505 15.9521 19.1932 16.7707 18.8823L16.8513 18.9434L16.8769 18.9231L16.8548 18.8562L16.9076 18.8971L16.9028 18.8475L16.9391 18.8875C16.6753 19.1469 16.5307 19.1753 16.2489 19.3613C16.0204 21.6674 15.8559 24.0522 16.9581 26.1844C16.7705 26.5726 16.5361 27.0297 16.3824 27.4244C17.1854 26.5133 17.9287 25.7699 18.9338 25.0687C18.7185 25.3629 18.5168 25.6511 18.2711 25.9211C20.9684 29.7338 26.0583 28.3609 29.6481 30.0137C27.866 30.1113 25.1053 30.3128 23.7907 31.5661C23.3842 31.1292 22.9327 30.6461 22.5883 30.1607C21.9902 30.87 21.6686 31.3061 21.1984 32.1115C21.3169 31.7174 22.1609 29.7783 22.0992 29.6346C21.2062 30.1107 20.5042 32.7703 20.2892 33.6988C18.7578 32.8448 17.1995 31.4084 16.6643 29.6925C16.4704 29.8503 15.9607 30.2456 15.806 30.4048L15.6321 30.3446C15.8478 29.9995 16.43 29.4154 16.4627 29.1117L16.4049 29.0452C15.806 29.1906 14.8518 30.4997 14.6051 31.0596C13.3755 28.6735 13.0522 25.8801 13.4234 23.2385C12.9731 23.5899 12.5953 23.9371 12.1747 24.3204C12.7641 23.2679 12.9453 23.0422 13.7746 22.1355C13.0785 22.4699 12.7718 22.7785 12.2474 23.3282C11.7253 19.3354 12.623 17.4632 14.3599 14.032C13.9033 14.3233 13.5649 14.5176 13.0844 14.7682C13.8397 14.0371 14.0834 13.8693 14.9651 13.305C14.4991 13.4282 14.2677 13.5224 13.8228 13.7127C14.6198 11.2548 15.3586 10.0696 17.023 8.12891Z" fill="#FEFEFE"/>
<path d="M20.0527 9.33252C20.8322 11.5158 21.5143 11.6606 23.7384 11.4499C24.7299 11.3559 25.9794 11.371 26.9738 11.4901C27.1269 11.5085 28.0511 12.0352 28.2784 12.1421C29.0504 12.4997 29.8445 12.8074 30.6559 13.0634C30.4127 13.3266 30.1015 13.8194 29.8913 14.1325C29.5281 14.1363 29.1645 13.9626 28.8473 14.0718C28.2329 13.9678 27.7015 13.8718 27.0736 13.8509C27.9379 14.1532 28.805 14.4474 29.6749 14.7335C29.5929 15.2828 29.616 15.4643 29.6899 16.0338C29.1913 16.0033 28.7659 15.9247 28.2753 15.9999C27.7386 15.9474 27.3075 15.8433 26.7619 15.8446C27.7713 16.2553 29.3401 16.6031 30.1095 16.9504C29.8932 17.9246 29.2356 18.4735 29.2072 19.0795C29.098 21.409 30.5043 24.3976 31.4579 26.5129C31.8951 27.4827 32.5366 28.4094 32.6935 29.4156C32.4295 29.7249 32.0744 30.1196 31.8497 30.4447C31.5981 30.0927 31.3826 29.5364 31.0401 29.0864C30.016 27.7407 28.9879 26.5892 27.8263 25.3756C28.022 25.8044 28.2095 26.2549 28.3967 26.6889C26.8866 24.9692 26.1256 22.5146 26.3776 20.2512C26.5182 18.9873 26.89 18.1601 27.4269 17.0407C25.0227 17.0444 23.7789 17.591 21.9491 19.0263C22.5339 17.9848 23.1302 17.4825 24.1713 16.9495C23.5882 17.0361 23.0763 17.1437 22.5206 17.3381C20.4559 15.9002 20.0564 11.6518 20.0527 9.33252Z" fill="#F0F0F0"/>
<path d="M22.9511 12.4678C24.3533 12.4955 25.92 12.8146 27.4055 12.9274C26.7034 13.3006 26.2156 13.5397 25.4129 13.6358C25.1763 13.6642 24.7541 13.6897 24.5454 13.7416L24.4923 13.9343C24.5198 14.6884 24.5227 15.0355 24.8676 15.6993C24.6688 15.596 24.473 15.4869 24.2804 15.3725C23.0479 14.6534 22.2712 14.0342 21.8906 12.592C22.2883 12.5182 22.5484 12.4966 22.9511 12.4678Z" fill="#F05758"/>
<path d="M24.6556 35.3149C25.7311 34.4447 26.7379 33.8827 28.0966 33.5876C27.2205 34.3976 26.6148 34.4785 25.7974 35.6708C26.6539 35.0331 27.2125 34.7704 28.1967 34.3401C28.4725 34.7278 28.7998 35.0077 29.1506 35.3224C28.479 35.8232 27.5095 36.5354 27.0559 37.231C27.9057 36.6214 28.6295 36.1016 29.5333 35.5774C29.9556 35.9161 30.7648 36.3435 31.2595 36.5546C31.5059 36.9755 31.732 37.2768 32.0243 37.6695C30.9667 38.4326 28.9205 39.4384 27.6675 40.1234C27.4257 40.2703 27.1568 40.4141 26.9085 40.5532C27.7569 40.3914 28.6761 39.9899 29.5702 39.8956C26.8695 41.0404 24.9707 42.6262 23.1673 44.8894C22.0695 43.4314 21.8877 42.8162 21.4466 41.0334C21.3885 41.7312 21.4301 42.3384 21.476 43.0352C20.6211 40.513 20.4792 39.0629 20.578 36.4431C21.1253 36.6583 21.7489 36.8555 22.3103 37.0458C22.5163 35.9266 22.9317 34.703 23.3751 33.6641C23.6971 33.9722 24.2982 34.8979 24.6556 35.3149Z" fill="#F0F0F0"/>
<path d="M41.2422 17.5801C42.1456 17.0952 42.3066 16.8859 42.92 16.0601C43.7125 14.9932 44.433 14.2014 44.2325 12.7849C44.5271 13.0101 45.2688 13.8398 45.4234 13.9107C45.2765 14.0699 44.1175 14.6378 43.777 14.8982C44.3594 14.7991 44.9896 14.5377 45.5564 14.3363C45.6658 14.5752 45.753 14.8903 45.8321 15.146C46.4114 14.9062 47.0089 14.7131 47.6189 14.5685C47.5612 14.2671 47.4306 13.8227 47.3484 13.5131C47.5976 13.3956 47.9066 13.219 48.1552 13.0865L48.702 14.4916C48.5491 14.5972 48.0734 14.6868 47.8588 14.7407C46.3366 15.1227 44.8244 15.555 43.454 16.3419C44.2955 16.2931 45.0971 16.0327 45.9009 15.7857C45.9235 16.1049 45.9112 16.3327 45.8961 16.6489C46.6055 16.4795 47.1782 16.3809 47.9048 16.3269L47.7456 15.1128C48.0742 14.9899 48.4341 14.8325 48.7607 14.6969C48.7782 14.7416 48.7952 14.7864 48.8116 14.8315C48.8778 15.0163 48.9197 15.0779 48.8492 15.2309L48.6488 15.2781C48.5582 15.4405 48.7171 15.9514 48.7754 16.1351C49.2894 17.7553 49.2028 19.4297 49.1224 21.1186C48.8538 20.88 48.7039 20.7696 48.4132 20.5693C48.5863 20.9602 49.157 21.6439 49.448 22.0858L48.6888 21.5852C49.1316 24.1578 49.0751 26.8151 47.9948 29.2178C47.5985 28.6918 47.473 28.6057 46.9285 28.2559C47.302 28.9823 47.6295 29.2962 48.0206 30.207C47.7062 29.9186 47.1616 29.285 46.8295 28.9411C46.4523 29.4942 43.9817 32.3277 43.3511 31.8998C42.9933 30.5788 43.3127 30.6118 43.437 29.2852C43.4903 28.7171 43.3306 28.1097 43.1737 27.5691C44.499 27.4078 45.0425 26.2944 45.4678 25.1723C45.8962 25.6593 46.2538 26.0402 46.6778 26.5549C46.2361 25.4796 45.9817 25.3225 45.4485 24.3819C45.9059 24.743 46.0931 24.9549 46.4445 25.3966C47.1349 23.5245 47.3189 21.2452 47.3728 19.2561C47.0899 19.006 46.7366 18.8689 46.4102 18.557C47.5307 18.8724 47.89 19.232 48.7995 19.9312C48.5183 19.5005 48.29 19.2066 47.9567 18.8196C48.0463 18.0044 48.0422 17.5199 47.9726 16.6907C48.1582 16.6497 48.3784 16.6192 48.4907 16.4714C48.2732 16.4399 47.8486 16.5333 47.6149 16.5656C46.1714 16.7649 44.4675 17.2286 43.1729 17.9062C43.833 17.8845 45.1019 17.6147 45.769 17.4571C45.2696 18.3006 44.8513 18.9724 43.8459 19.2693C42.4254 19.6889 41.6071 18.8609 41.2422 17.5801Z" fill="#FEFEFE"/>
<path d="M31.9812 12.8052C32.8706 11.8675 33.7616 11.4493 35.0353 11.3514C36.2687 11.2565 37.4183 12.7947 37.9027 13.7684C38.5066 14.9826 38.5969 14.9995 39.5755 15.8834C40.0581 16.3194 39.8166 16.9638 40.7501 17.4548C40.0012 18.5056 39.1252 19.0211 37.8248 19.2108C36.5496 19.397 34.234 19.4301 33.1191 18.6991C32.63 18.3785 32.5814 17.8401 32.4856 17.314C33.4078 17.5404 35.6276 17.9198 36.5638 17.9402C34.1031 17.0411 31.4989 16.6221 28.9343 16.1415C28.7284 16.1029 28.4741 16.0572 28.2739 15.9996C28.7645 15.9244 29.1899 16.003 29.6885 16.0335C29.6147 15.464 29.5916 15.2825 29.6735 14.7332C28.8037 14.4471 27.9365 14.1529 27.0723 13.8506C27.7001 13.8715 28.2315 13.9675 28.8459 14.0715C29.1631 13.9623 29.5267 14.136 29.8899 14.1322C30.369 14.1842 30.6285 14.266 31.095 14.4021C31.22 13.9953 31.3538 13.7162 31.583 13.3625C32.9081 13.8396 35.365 14.6004 36.6788 14.7778C36.4558 14.6688 36.2094 14.5744 35.9783 14.4825C34.3997 13.8549 32.8108 13.2847 31.2099 12.7212L31.0047 12.4721L31.2377 12.5186L31.9812 12.8052Z" fill="#FEFEFE"/>
<path d="M27.0723 13.8508C27.7001 13.8718 28.2315 13.9677 28.8459 14.0718C30.3055 14.3841 31.8269 14.8272 33.2431 15.2978C34.2393 15.629 35.413 15.9602 36.3779 16.3509C35.0971 16.2588 32.3548 15.4915 31.0019 15.1439C31.3518 15.6566 31.7569 16.1165 32.1792 16.571C31.7653 16.45 30.0787 15.9971 29.6885 16.0338C29.6147 15.4642 29.5916 15.2828 29.6735 14.7334C28.8037 14.4474 27.9365 14.1532 27.0723 13.8508Z" fill="#F05758"/>
<path d="M42.5155 28.5281C42.5448 28.7175 42.6176 29.1628 42.587 29.335C42.3931 30.4172 42.0571 31.4824 41.7638 32.5419C41.6467 32.9647 41.5705 33.4048 41.4199 33.8162C41.1938 34.4336 40.8861 34.861 40.3682 35.2575C40.229 35.0567 39.9858 34.6845 39.8317 34.5156C39.5527 35.2116 39.2506 35.5583 38.5412 35.8612C38.3741 35.9315 38.2043 35.9955 38.0323 36.0532C37.9964 35.615 37.9594 35.2133 37.9019 34.7776C37.6956 35.5406 37.5985 35.9766 37.2442 36.6932C37.2806 36.1837 37.3273 35.9591 37.2977 35.4418L37.2408 35.4029C37.1116 35.5749 36.8755 36.0787 36.7985 36.1339C36.681 35.9356 36.8965 35.8333 36.766 35.6207C36.2996 35.7115 36.3185 35.8401 35.6686 35.9182L35.6431 34.9938C35.1035 35.151 34.7385 35.2453 34.1671 35.2606C34.1386 34.893 34.1233 34.6487 34.0415 34.2857C32.7851 33.4824 32.9491 32.984 32.4838 31.7197C32.3295 31.3004 31.7657 31.1049 31.848 30.4445C32.0727 30.1194 32.4278 29.7246 32.6918 29.4154C32.7645 29.7547 32.8665 31.0728 33.3691 30.8832C33.824 30.7599 34.4961 30.1145 34.8946 30.0028C36.6841 29.5013 39.2079 29.2301 40.9712 29.9428C41.3458 30.0942 41.7716 30.6915 42.1575 29.9584C42.3556 29.5819 42.4458 28.9499 42.5155 28.5281Z" fill="#FEFEFE"/>
<path d="M19.0993 10.1858C19.1908 10.3537 19.0743 10.8319 19.0644 11.0697C18.9005 14.9685 19.0114 19.5528 21.6433 22.6601C22.007 20.8504 23.1005 20.2348 24.6677 19.536C24.1922 20.226 23.8007 20.9936 23.6897 21.8326C23.3673 24.2692 25.418 25.1852 26.7341 26.9248C26.2203 26.8865 25.7108 26.804 25.2112 26.678C22.9104 26.0844 21.2429 25.1085 19.7404 23.2958C19.3287 23.5682 18.3208 24.0955 17.824 24.3876C18.1377 24.0361 19.2311 23.0405 19.336 22.8586L19.2634 22.8303C18.8713 22.9587 18.618 23.1247 18.2631 23.3327C17.809 21.5605 17.6649 19.7747 17.9443 17.9587C17.4655 18.0863 17.0345 18.2196 16.5625 18.3716C16.64 14.6524 17.4365 13.3614 19.0993 10.1858Z" fill="#F0F0F0"/>
<path d="M34.0956 24.1383C35.1802 24.0621 35.9565 24.7445 36.9658 24.8C37.476 24.8477 38.7337 24.0729 39.1382 24.1219C40.2593 24.2577 40.2721 26.7632 40.4205 27.6319C40.4427 27.7617 40.4013 27.8442 40.3286 27.9159C39.8393 27.907 39.3072 28.2163 38.6785 28.2524C37.9695 28.2931 37.7078 27.9404 37.3153 27.9263C37.1884 27.9514 37.131 27.9621 37.0024 27.9692C36.5375 27.5974 36.7586 25.6724 35.9071 25.406C34.9391 25.5506 35.1675 28.4171 34.593 28.792C33.995 28.4442 32.9211 24.918 33.7398 24.3315C33.8308 24.2663 33.9883 24.1847 34.0956 24.1383Z" fill="#F0F0F0"/>
<path d="M22.4253 7.27835C25.7619 6.94572 25.9408 10.053 29.7916 9.96454C27.3427 11.2777 25.7444 10.7962 23.2576 9.92302C22.9741 9.82345 22.5028 9.7578 22.256 9.61475C21.9851 9.181 21.9092 9.05005 21.7891 8.56504C21.9492 8.05596 22.1564 7.736 22.4253 7.27835Z" fill="#FEFEFE"/>
<path d="M45.6477 18.7004C45.7585 19.0837 45.3657 21.5515 45.2985 22.1659C44.9591 21.8703 44.792 21.7209 44.4081 21.4871C44.7419 22.2086 45.1373 22.5336 45.5363 23.5033C45.1909 23.1467 44.8523 22.7835 44.5207 22.4139C44.3442 23.1128 44.0759 23.7852 43.7226 24.4136C43.4806 24.7893 42.9354 25.4729 42.4423 25.1663C42.2391 24.8704 42.3527 24.5112 42.4089 24.1512C43.6552 22.638 43.8304 21.8089 44.3093 19.9105C44.862 19.6008 45.2569 19.1865 45.6477 18.7004Z" fill="#F0F0F0"/>
<path d="M36.2436 19.7089C36.4115 19.7003 37.1632 19.8221 37.1649 20.0084C37.1707 20.6379 36.9138 23.5414 36.4568 23.7645C35.8102 22.9096 35.4765 21.0228 35.3516 19.9757C35.7267 19.8247 35.8405 19.7811 36.2436 19.7089Z" fill="#FEFEFE"/>
<path d="M41.1875 9.70552C41.6503 9.6803 42.1841 9.62242 42.6002 9.3862C43.0702 9.11945 43.8309 7.72357 44.4713 8.19591C44.6855 8.79264 44.8071 9.07701 44.6064 9.7372C44.5497 9.92378 44.4626 10.102 44.4544 10.2973C44.3738 10.3376 44.2907 10.3727 44.2057 10.4023C43.4593 10.6645 41.8858 10.0641 41.1875 9.70552Z" fill="#FEFEFE"/>
<path d="M42.7194 19.7045C44.6156 19.5535 42.8984 22.4088 42.4651 23.0927C42.3245 23.285 42.2773 23.3564 42.0957 23.5088L42.0114 23.4816C41.9652 23.2734 42.0345 20.0912 42.0774 20.0116C42.1903 19.8019 42.5103 19.7571 42.7194 19.7045Z" fill="#FEFEFE"/>
<path d="M35.8355 25.6523C35.8605 25.6655 35.9268 25.6985 35.9448 25.7205C36.2142 26.047 36.792 28.4026 36.7998 28.7062C36.6925 28.8697 36.6146 28.8504 36.3915 28.9284C35.9816 28.9922 35.824 28.9292 35.4342 28.7996C35.3835 27.8205 35.4567 26.563 35.8355 25.6523Z" fill="#FEFEFE"/>
<path d="M44.9445 6.64185C46.3812 8.36137 47.3724 10.453 47.9373 12.5572C47.9716 12.6851 48.3059 12.7281 48.4422 12.7617L48.4333 12.8135L48.3998 12.8171C47.5829 12.9109 46.2001 13.5958 45.4225 13.9108C45.84 13.4575 46.9819 12.9651 47.5724 12.7834C47.1634 11.3585 46.6422 9.95097 45.9425 8.6409C45.8362 8.21907 45.1825 7.17701 44.8679 6.86529L44.8496 6.74654L44.9445 6.64185Z" fill="#FEFEFE"/>
<path d="M41.8322 25.7727L41.941 25.878C42.1929 26.6544 42.0079 27.9563 41.8237 28.7384C41.3681 28.9357 41.2931 29.0111 40.8141 28.8961C40.6109 28.7879 40.6108 28.8272 40.5117 28.6535C40.5263 28.5136 41.7008 25.9815 41.8322 25.7727Z" fill="#FEFEFE"/>
<path d="M45.6895 9.48193C45.9491 9.7154 46.1358 11.9514 45.9578 12.1428C45.8259 12.0497 45.8376 12.0238 45.7086 12.0248C45.6847 12.1465 45.8132 13.1709 45.8285 13.4165C45.6834 13.1643 45.544 12.9544 45.383 12.7142C45.1146 12.3958 44.5772 11.9352 44.2559 11.6494C45.4429 11.1501 45.4695 10.6252 45.6895 9.48193Z" fill="#F0F0F0"/>
<path d="M27.6259 7.51221C27.7342 7.52776 27.7977 7.54636 27.9033 7.57596C28.0487 8.11348 28.0772 8.61369 28.6277 8.98301C29.4262 9.51863 30.279 8.25014 30.5209 8.19209C30.5223 8.4301 30.4485 8.56066 30.3547 8.77909C30.1563 9.12773 29.8575 9.40605 29.4729 9.53436C29.0834 9.66301 28.6587 9.63145 28.2924 9.44659C27.594 9.09386 27.2663 8.21334 27.6259 7.51221Z" fill="#F0F0F0"/>
<path d="M44.8687 6.86548C45.1833 7.1772 45.837 8.21926 45.9433 8.64109C45.7375 8.54066 45.6837 8.4643 45.5074 8.5114C45.256 9.00027 45.274 9.90187 44.4531 10.2973C44.4614 10.102 44.5485 9.92375 44.6052 9.73717C44.8059 9.07698 44.6843 8.79261 44.4701 8.19588C44.6437 8.19611 44.7017 8.1877 44.8728 8.15551C45.2091 7.79443 44.6092 7.56155 44.8687 6.86548Z" fill="#F0F0F0"/>
<path d="M42.47 7.69556C42.5188 7.71617 42.5856 7.75856 42.6334 7.78637C42.9493 8.607 41.6007 10.1454 40.4888 8.80102C40.4114 8.62503 40.3324 8.47046 40.3793 8.28491C40.583 8.26464 41.1693 8.87392 41.6277 8.78374C42.2496 8.66154 42.5202 8.31244 42.47 7.69556Z" fill="#F0F0F0"/>
<path d="M41.0025 19.6292C41.3028 19.6379 41.4625 19.5959 41.6291 19.8599C41.6403 20.0866 41.5184 20.256 41.4074 20.4577C41.3653 20.469 41.2724 20.4654 41.224 20.4658C40.9041 20.2478 40.9052 19.9759 41.0025 19.6292Z" fill="#FEFEFE"/>
<path d="M37.9437 19.6382C38.0904 19.6405 38.1866 19.6512 38.3323 19.6698C38.636 19.9615 38.4025 20.2369 38.202 20.5361C37.8701 20.3879 37.6111 19.9403 37.9437 19.6382Z" fill="#FEFEFE"/>
<path d="M29.1837 7.84766C29.2856 7.84829 29.3874 7.85152 29.4891 7.85739C29.6625 7.86885 29.8064 7.88613 29.9251 8.01927C29.954 8.2297 29.9607 8.14406 29.8463 8.36975C29.6108 8.36169 29.3217 8.35115 29.1529 8.17176C29.1003 7.98259 29.102 8.0635 29.1837 7.84766Z" fill="#FEFEFE"/>
<path d="M37.2754 28.123C37.6669 28.2538 37.6895 28.5992 37.5098 28.9147C37.2361 28.8621 37.1748 28.87 37.0801 28.6063C37.1189 28.3776 37.161 28.3224 37.2754 28.123Z" fill="#FEFEFE"/>
<path d="M39.9392 28.1418C40.3841 28.3106 40.3684 28.5466 40.2219 28.9393C39.6972 28.8714 39.7707 28.5186 39.9392 28.1418Z" fill="#FEFEFE"/>
<path d="M29.1289 11.9871C29.6987 12.0132 30.4995 12.2026 31.0047 12.4722L31.2099 12.7212C30.6923 12.602 29.8399 12.1663 29.1289 11.9871Z" fill="#E4E6E7"/>
<path d="M41.8573 7.65454C42.0694 7.65638 42.1903 7.64464 42.3069 7.82742C42.2318 8.02668 42.2254 7.98567 42.0326 8.13448C41.8027 8.13298 41.6688 8.16477 41.541 7.95935C41.6328 7.7662 41.6564 7.79488 41.8573 7.65454Z" fill="#FEFEFE"/>
<path d="M17.0234 8.12878C17.1865 7.93626 17.4661 7.58596 17.6424 7.42632L17.7634 7.48051L17.7751 7.45322L17.7082 7.37461L17.7894 7.35889C17.7348 7.5696 17.3412 8.0333 17.1885 8.23428L17.0234 8.12878Z" fill="#A0A0A1"/>
<path d="M44.8503 6.74654C44.6806 6.51619 44.4721 6.26609 44.3809 5.99951L44.4004 6.05393L44.506 6.06654C44.6668 6.2472 44.8039 6.44559 44.9452 6.64185L44.8503 6.74654Z" fill="#A0A0A1"/>
<path d="M15.6309 30.3445L15.8049 30.4047C15.6261 30.5899 15.3512 30.8285 15.1562 31.0088C15.3169 30.7672 15.4535 30.5739 15.6309 30.3445Z" fill="#A0A0A1"/>
<path d="M6.40461 11.8127C6.83324 11.6416 7.41309 11.507 7.87161 11.3997C7.1441 15.6391 6.51282 19.9358 6.37484 24.2284C6.09127 33.0475 7.04441 42.045 10.7624 50.1384C10.986 50.625 12.1938 52.8085 12.2299 53.1176L12.2355 53.1623C12.2384 53.1953 12.2413 53.2283 12.2442 53.2612C12.9224 54.234 13.4887 55.2528 14.1349 56.2513C14.7833 57.253 15.5248 58.1289 16.1986 59.0917C13.3331 56.5318 10.8273 53.5957 8.74919 50.3635C3.39777 42.0536 0.871684 32.2382 1.54663 22.3773C1.7626 18.9319 2.2355 16.3238 2.93584 12.9813C4.00103 12.5239 5.29421 12.1257 6.40461 11.8127Z" fill="#F05758"/>
<path d="M6.40385 11.8127C6.83248 11.6416 7.41234 11.507 7.87085 11.3997C7.14334 15.6391 6.51206 19.9358 6.37408 24.2284C6.09052 33.0475 7.04366 42.045 10.7616 50.1384C10.9852 50.625 12.1931 52.8085 12.2292 53.1176L12.2348 53.1623C12.2376 53.1953 12.2406 53.2283 12.2435 53.2612C12.1293 53.1233 12.013 52.9719 11.9157 52.8197C6.41278 44.2171 4.38216 33.9152 4.79104 23.8121C4.96005 19.6362 5.63118 15.8376 6.40385 11.8127Z" fill="#F0F0F0"/>
<path d="M54.7215 11.3958C55.2146 11.5244 55.7046 11.6654 56.1907 11.8186C57.0274 12.0305 58.8696 12.6261 59.6436 13.0018C63.4801 30.2677 59.8042 45.7802 47.1435 58.3841L47.0469 58.2027C48.4133 56.3735 49.2594 54.9046 50.4818 52.983C50.6256 52.2087 51.7267 50.3665 52.0905 49.5261C56.3088 39.7836 56.8324 28.9219 55.7564 18.4863C55.5144 16.1395 55.0764 13.7628 54.7215 11.3958Z" fill="#F05758"/>
<path d="M54.7202 11.3958C55.2133 11.5244 55.7032 11.6654 56.1893 11.8186C56.3401 12.8956 56.6236 14.0671 56.8088 15.1549C57.2027 17.4389 57.4872 19.7404 57.6612 22.0515C58.3235 31.2338 56.9519 40.8506 52.7129 49.0868C52.1882 50.1062 51.2352 51.9862 50.5411 52.9047C50.5212 52.931 50.501 52.9572 50.4805 52.983C50.6243 52.2087 51.7253 50.3665 52.0892 49.5261C56.3075 39.7836 56.8311 28.9219 55.7551 18.4863C55.5131 16.1395 55.0751 13.7628 54.7202 11.3958Z" fill="#F0F0F0"/>
<path d="M41.1324 39.0691C41.563 39.3102 41.9956 41.8671 42.0673 42.3894C42.946 48.789 38.7088 53.0347 34.9316 57.4681C32.5299 60.2874 30.7403 65.3816 31.2106 69.141C30.1154 68.6399 28.8919 67.9598 27.8404 67.3736C27.5327 66.0318 27.4293 64.5149 27.4043 63.1385C27.439 59.9223 28.0832 57.0153 30.0092 54.3412C30.416 53.7764 30.9484 53.2484 31.4345 52.7451C30.4544 53.319 29.8902 53.7682 29.0594 54.5059C30.0387 53.1556 30.6706 52.648 31.8164 51.5177C31.1418 51.884 30.0266 52.6244 29.3833 53.0696C30.3101 51.6944 31.7407 50.6207 32.9212 49.5043C35.2689 47.2842 41.1556 42.5285 41.1324 39.0691Z" fill="#F05758"/>
<path d="M44.7889 32.9419C44.511 33.8333 44.4958 34.8954 44.5912 35.815C44.7627 37.4682 46.024 38.6754 47.2443 39.6777C49.5393 41.5627 51.1932 43.8164 51.9077 46.744C49.4138 53.9168 43.7119 61.6567 37.4043 65.9442C37.5912 63.9367 37.9783 62.6202 39.0783 60.862C39.3479 60.4313 39.9154 59.7489 40.129 59.3728C39.9352 59.5208 39.6046 59.7586 39.4333 59.9147C39.2377 59.9113 39.19 59.917 39.0071 59.8272C40.4531 57.0184 43.4089 54.9627 44.4898 51.7556C45.5496 48.6111 45.9965 46.7705 44.641 43.6775C45.7131 44.3492 46.0663 44.904 46.9347 45.5516C46.459 42.9336 45.5883 41.1701 43.9225 39.0726C44.1145 39.5821 44.2716 40.0481 44.4882 40.5517L44.357 40.8901C43.0885 39.144 42.6527 38.0961 41.8178 36.1812C42.2462 35.45 42.4904 34.9926 42.7565 34.1843C43.3715 33.9072 44.2593 33.3594 44.7889 32.9419Z" fill="#F0F0F0"/>
<path d="M39.0084 59.8271C39.1913 59.917 39.2391 59.9112 39.4347 59.9147C39.0407 60.2602 38.6219 60.7509 38.1777 61.1476C38.3901 60.7635 38.7194 60.1508 39.0084 59.8271Z" fill="#FED92B"/>
<path d="M44.4886 40.5515C44.5824 40.7704 44.7088 40.999 44.676 41.23L44.5916 41.2298C44.49 41.1003 44.4364 41.0381 44.3574 40.89L44.4886 40.5515Z" fill="#FED92B"/>
<path d="M47.046 58.2031L47.1427 58.3845C46.8633 58.6713 46.6459 58.8844 46.3438 59.1464C46.5732 58.8153 46.7994 58.521 47.046 58.2031Z" fill="#312E35"/>
<path d="M28.6279 79.462C28.6422 79.4274 28.6548 79.3923 28.6686 79.3578C28.7038 79.2696 28.7367 79.1844 28.7611 79.0929C28.9121 78.5262 29.3295 74.2295 29.1368 73.9151C28.9684 73.6404 28.108 73.5926 27.8772 73.2045L27.9099 73.1187C28.3163 72.8826 30.524 72.9545 31.0777 72.9937C31.3975 73.9456 32.5852 76.4023 33.0741 77.3174C33.2481 76.8671 33.7028 76.0171 33.931 75.5379C34.3255 74.696 34.6909 73.8402 35.0265 72.9724C35.5069 72.9511 37.5505 72.8877 37.8608 73.1354C37.9082 73.4302 36.9496 73.7003 36.7643 74.0303C36.6484 74.237 36.8185 78.779 36.9603 79.2017C37.0983 79.6129 37.8033 79.5749 38.1418 79.758C38.1542 79.7649 38.1665 79.7718 38.1788 79.7787C38.1334 79.9509 38.1307 79.9987 38.0022 80.1179C37.6767 80.2717 34.9045 80.2325 34.3917 80.1749C34.2018 80.1536 34.0713 80.1041 33.9576 79.9469C34.1211 79.2812 35.0165 80.0511 35.004 78.6857C34.9928 77.4729 35.0664 76.206 34.98 74.9839C34.6199 75.6399 32.8749 79.9901 32.5537 80.1001C32.4122 80.149 32.2681 80.1323 32.1359 80.069C32.03 80.0183 30.196 75.5005 30.0095 74.9966C30.0031 75.0243 29.997 75.0525 29.9911 75.0807C29.878 75.6243 29.5554 78.7796 29.9099 79.3272C30.0816 79.5921 30.8172 79.5432 31.0565 79.9112L31.0186 80.0586C30.4962 80.3794 25.2035 80.1358 24.2138 80.198C24.0186 80.2101 23.567 80.1352 23.5732 79.8323C23.8557 79.4459 24.5482 79.7914 24.6104 79.056C24.6686 78.3684 24.6408 77.6981 24.6332 77.0076C23.6545 76.965 22.6451 77.0427 21.7125 76.984C21.7303 77.6313 21.673 78.2809 21.727 78.9385C21.7981 79.8029 22.3679 79.4539 22.7653 79.7649C22.8371 79.9515 22.8248 79.8714 22.7749 80.0983C22.4966 80.2826 19.03 80.3385 18.7891 79.9688C18.8442 79.5253 19.4721 79.6451 19.7319 79.3768C19.9644 79.136 19.9187 75.0818 19.9041 74.4351C19.8787 73.3202 19.4115 73.861 18.8935 73.3686C18.8519 73.1809 18.8508 73.2598 18.9265 73.057L19.0866 73.0012C19.6396 72.9609 22.328 72.8843 22.6744 73.1112L22.6881 73.1964C22.5679 73.3772 22.061 73.6548 21.8198 73.8541C21.6599 74.1512 21.7051 75.5886 21.6982 76.0378C22.4866 76.1213 23.8395 76.0781 24.6408 76.0672C24.6354 75.3704 24.6807 74.6638 24.5781 73.9767C24.4968 73.4325 23.6218 73.6122 23.5286 73.1976C23.6577 73.0484 23.6953 73.0035 23.9348 72.9966C24.4989 72.9805 27.1059 72.8515 27.4379 73.1348L27.4087 73.2563C27.1385 73.5287 26.9049 73.5771 26.5431 73.7331C26.3498 74.5774 26.4297 78.4392 26.5131 79.409C27.4638 79.709 27.6718 79.6987 28.6279 79.462Z" fill="white"/>
<path d="M41.9275 72.6245C44.1045 72.6314 45.8675 74.3948 45.875 76.5716C45.8824 78.7485 44.1315 80.5239 41.9546 80.5458C39.7566 80.5682 37.9607 78.7968 37.9531 76.5987C37.9457 74.4006 39.7295 72.617 41.9275 72.6245ZM42.4462 79.6917L43.0496 79.4585C43.3086 79.1297 43.4444 78.9529 43.5871 78.5452C44.1454 76.9488 43.8463 73.1808 41.4521 73.4313C40.9921 73.5298 40.6946 73.6778 40.4445 74.1022C39.4963 75.7101 39.9423 79.9037 42.4462 79.6917Z" fill="white"/>
<path d="M14.9812 72.8113C15.9896 72.7186 17.3169 72.8119 18.3221 72.9915C18.1962 73.6239 18.2419 74.3126 18.0804 74.9363C18.0426 75.082 17.9739 75.0762 17.818 75.1499C17.419 75.1142 17.4756 74.2775 17.0351 73.8842C15.892 72.862 14.1051 73.3204 13.6607 74.82C13.0904 76.744 13.6495 79.6124 16.122 79.6257C16.6711 79.6286 16.9987 79.3861 17.3468 79.0037C17.5768 78.7164 17.9674 78.0599 18.3748 78.1877C18.6445 78.5851 18.1132 79.3781 17.8827 79.6936C17.5492 80.1549 17.1159 80.2707 16.5902 80.3542C14.2289 80.7296 11.6762 79.8537 11.4 77.1252C11.2916 76.0535 11.4294 75.1119 12.1503 74.2233C12.8906 73.3106 13.8464 72.9351 14.9812 72.8113Z" fill="white"/>
<path d="M24.9624 82.4199L25.1514 82.481C25.0498 83.1357 25.2056 82.9929 25.667 83.3759C26.2435 83.8544 26.6624 84.5397 25.6418 84.7943L25.5936 84.7292L25.7144 84.367C25.5237 83.5976 23.9771 83.6373 24.9624 82.4199Z" fill="white"/>
<path d="M39.2115 82.4478C39.4137 82.4536 39.8653 82.4225 40.0022 82.4875L39.9945 82.601C39.6963 83.0588 39.5219 82.7265 39.1386 82.9586L39.1093 83.0945C39.3553 83.5385 40.2786 83.3007 40.1946 84.2993C40.0929 84.51 40.0213 84.6552 39.8419 84.8049L39.7543 84.7945C39.866 83.5679 39.0457 84.0511 38.8354 83.409C38.813 83.1256 39.058 82.6793 39.2115 82.4478Z" fill="white"/>
<path d="M32.2427 82.4955L32.3644 82.4863C32.5359 82.7714 32.2491 84.1817 32.4821 84.5457C32.5228 84.609 32.543 84.6678 32.572 84.7369C32.4033 84.8492 32.0261 84.8129 31.8032 84.8106L31.7327 84.7397C31.7528 84.6764 31.8469 84.4956 31.8493 84.4564C31.8799 83.9496 32.0097 83.1935 31.761 82.7426C31.7088 82.6476 31.6965 82.704 31.7061 82.5773C31.8846 82.5474 32.0635 82.5203 32.2427 82.4955Z" fill="white"/>
<path d="M21.8564 82.4683C22.1159 82.4107 22.194 82.4205 22.4623 82.4372L22.4788 82.5121C22.4691 82.7914 22.4213 83.2388 22.5289 83.4796L22.457 83.6696C22.4693 83.9408 22.4243 84.4747 22.5311 84.6503C22.3904 84.8099 22.2843 84.7206 22.0224 84.8035C21.8497 84.8156 21.891 84.8398 21.7832 84.7574C21.9143 84.2029 22.0832 82.9906 21.8564 82.4683Z" fill="white"/>
<path d="M27.8705 82.5016L27.8887 82.4538C28.0376 82.3761 28.26 82.3876 28.3998 82.4746C28.3784 82.9192 28.3293 84.079 28.3853 84.4844C28.5095 84.5927 28.5695 84.6042 28.5926 84.7384C28.4526 84.8293 27.7344 84.8668 27.6289 84.7119L27.6604 84.6865C27.7718 84.5955 27.7994 84.5748 27.8782 84.4568C27.8783 83.8884 27.901 83.051 27.8705 82.5016Z" fill="white"/>
<path d="M36.783 82.4575L36.8392 82.5525C36.7577 82.6792 36.7463 82.7172 36.6931 82.8601C36.7727 83.5966 38.6761 83.7193 37.3601 84.8111L37.2876 84.7058L37.3025 84.6568C37.5371 83.8702 36.5888 83.9024 36.295 83.2678C36.1148 82.8791 36.4676 82.5842 36.783 82.4575Z" fill="white"/>
<path d="M34.2447 82.4526L34.3086 82.5523C34.2284 82.679 34.2149 82.7187 34.1608 82.8598C34.2384 83.5865 36.1559 83.7357 34.8233 84.808L34.7539 84.7055C34.8592 84.3651 34.8902 84.2114 34.5688 84.0029C33.9735 83.6165 33.161 82.9542 34.2447 82.4526Z" fill="white"/>
<path d="M27.8706 82.502C27.1408 82.4433 27.2753 82.8729 26.9961 82.8781C26.9992 82.6903 26.988 82.5717 27.0671 82.3983C27.3614 82.2567 28.838 82.3062 29.21 82.3505L29.2906 82.415L29.2969 82.5688L29.2287 82.4433L29.114 82.4156L28.9833 82.5187C28.8265 82.4882 28.5672 82.483 28.3999 82.4749C28.2601 82.388 28.0376 82.3765 27.8888 82.4542L27.8706 82.502Z" fill="white"/>
<path d="M33.9121 83.8047C34.2546 83.9043 33.983 84.1951 34.1059 84.4502C34.1641 84.5706 34.4118 84.7226 34.3847 84.9023C33.7232 84.6662 33.4181 84.479 33.9121 83.8047Z" fill="white"/>
<path d="M36.4497 83.8057C36.7657 83.869 36.5333 84.2773 36.6347 84.4524C36.6821 84.5347 36.8205 84.6643 36.8965 84.7893L36.8575 84.8682C36.1832 84.6804 35.9952 84.4075 36.4497 83.8057Z" fill="white"/>
<path d="M21.856 82.4684L21.7539 82.4148L21.7729 82.3463C22.0622 82.3089 23.2302 82.268 23.4551 82.4195C23.503 82.5876 23.512 82.6124 23.4749 82.7817C23.1088 82.7523 23.3016 82.4431 22.4784 82.5122L22.462 82.4373C22.1936 82.4206 22.1156 82.4108 21.856 82.4684Z" fill="white"/>
<path d="M22.5302 84.6501C22.825 84.6155 23.1986 84.6478 23.4113 84.543L23.6414 84.2251L23.7107 84.2596C23.7422 85.0308 22.5431 84.8229 22.0215 84.8033C22.2834 84.7204 22.3895 84.8096 22.5302 84.6501Z" fill="white"/>
<path d="M34.5039 82.4744C35.1343 82.4559 35.2537 82.7865 35.0261 83.3088L34.9461 83.3653L34.8699 83.3376C34.835 82.9189 34.7924 82.7715 34.5039 82.4744Z" fill="white"/>
<path d="M37.0332 82.4746C37.6565 82.4999 37.7933 82.7274 37.5579 83.3096L37.4789 83.3638L37.4013 83.3367C37.3609 82.914 37.3249 82.7775 37.0332 82.4746Z" fill="white"/>
<path d="M22.527 83.48C22.8158 83.4667 22.9225 83.465 23.1984 83.3901L23.3319 83.4345C23.3952 83.6032 23.3836 83.5306 23.3561 83.7253C23.0356 83.8111 22.8488 83.5479 22.4551 83.67L22.527 83.48Z" fill="white"/>
<path d="M25.7652 82.2837C26.0875 82.3401 26.0852 82.3943 26.1337 82.7162L26.0802 82.8031C25.841 82.7738 25.8479 82.597 25.7188 82.4288L25.7652 82.2837Z" fill="white"/>
<path d="M24.9609 82.4196C25.0827 82.3136 25.5951 82.2935 25.7641 82.2837L25.7176 82.4288C25.5973 82.438 25.252 82.4565 25.1499 82.4806L24.9609 82.4196Z" fill="white"/>
<path d="M28.9824 82.5181L29.113 82.415L29.2278 82.4427L29.296 82.5682C29.2736 82.7375 29.2766 82.8377 29.1801 82.9777C29.0557 82.866 29.04 82.7018 28.9824 82.5181Z" fill="white"/>
<path d="M47.8539 74.865C47.8585 76.1562 47.7949 77.4133 47.8959 78.7073C47.9976 80.0094 49.1545 79.2446 49.2303 79.9909C48.8956 80.3537 47.5136 80.17 46.9928 80.2086C46.7078 80.2299 45.7508 80.2743 45.7678 79.8971C45.9553 79.6437 46.3555 79.5527 46.6166 79.3805C46.7915 79.2653 46.933 79.1018 46.9694 78.8904C47.0767 78.2679 47.2154 74.2909 46.9136 73.8975C46.6507 73.5549 46.0603 73.6948 45.8407 73.3931C45.8087 73.2324 45.8057 73.2122 45.8784 73.0671C46.2632 72.8903 48.1418 72.9623 48.6344 72.9986C48.8829 73.2025 49.9273 74.5397 50.1925 74.8708C50.9807 75.8717 51.7943 76.853 52.6326 77.8124C52.6134 76.6238 52.6632 75.4328 52.5376 74.2511C52.4518 73.4437 51.2391 73.715 51.1529 73.1765C51.1824 73.1339 51.2095 73.0746 51.2574 73.0545C51.7247 72.8592 58.2669 72.9393 59.1359 73.0205C59.615 73.0654 60.0861 73.1587 60.5295 73.3516C61.6732 73.8497 61.9992 74.7366 62.4271 75.8003V77.0989C62.074 77.9425 61.9842 78.4516 61.2488 79.1237C59.8943 80.3451 57.8327 80.337 56.1195 80.2276C55.5952 80.1942 54.5333 80.3376 54.1988 79.9639L54.2098 79.8366C54.414 79.6034 55.0178 79.5446 55.3319 79.4916C55.5499 78.6802 55.5632 74.5903 55.3533 73.73C55.0848 73.6545 54.7938 73.5756 54.5156 73.5532C54.252 73.5319 53.9269 73.5422 53.7223 73.7351C53.198 74.231 53.4093 79.2976 53.392 80.3031C53.0082 80.344 52.4821 80.3255 52.0849 80.3226C51.4665 79.6333 50.6953 78.553 50.1212 77.7911C49.3759 76.8075 48.62 75.8325 47.8539 74.865ZM57.3906 79.1841C58.3337 79.847 58.9839 79.7162 59.7717 78.9296C60.7962 77.646 60.7201 75.1725 59.4043 74.1066C58.7552 73.5808 58.1632 73.658 57.4097 73.5445C57.2251 74.193 57.2527 78.4096 57.3906 79.1841Z" fill="white"/>
<path d="M0 73.0164C1.37744 72.8943 2.67952 72.9968 4.13123 72.9795C5.78023 72.9599 7.49981 74.296 6.20529 75.9683C6.01145 76.2188 5.43199 76.5356 5.31997 76.7723C5.37979 77.3274 6.81872 78.9047 7.28483 79.3315C7.84419 79.8434 8.42116 79.5935 8.4184 78.8408C8.41258 77.2508 8.46326 75.6205 8.4002 74.0334C8.38402 73.6262 7.4151 73.5611 7.30729 73.1695C7.49705 72.9686 7.74203 72.9726 8.01488 72.9772C8.57723 72.987 10.916 72.8753 11.2715 73.0947C11.3113 73.2628 11.3188 73.1914 11.2267 73.3625C10.9389 73.545 10.3243 73.6775 10.2957 74.0478C10.1695 75.6844 10.2965 77.3591 10.2655 79.0026C10.2511 79.7714 11.2917 79.4236 11.4653 79.9258C11.4113 80.0179 11.356 80.1435 11.2323 80.1573C10.4191 80.2454 9.56169 80.2108 8.74158 80.2143C7.69146 80.2177 6.63121 80.4193 5.6269 80.0139C4.98832 79.7484 4.36634 78.6191 4.01888 78.0634C3.50784 77.2456 2.76151 76.7221 2.87267 78.1388C2.90126 78.4987 2.72709 79.3056 3.14301 79.495C3.38203 79.5981 3.72138 79.5993 3.91423 79.7622C3.97883 79.9505 3.9707 79.8699 3.89244 80.1031C3.6307 80.3105 0.553137 80.2103 0 80.1567V79.6995C0.285286 79.6758 0.768283 79.635 0.932299 79.3781C1.10835 78.7608 1.15843 74.425 0.964283 73.8664C0.716292 73.5502 0.393318 73.5335 0 73.4488V73.0164ZM2.84717 76.4947C3.54178 76.4809 3.81683 76.5108 4.46165 76.235C5.34815 75.0855 4.66583 73.5047 3.02776 73.5963C2.76234 74.0334 2.86289 75.8681 2.84717 76.4947Z" fill="white"/>
<path d="M25.1946 84.9999C25.047 84.8473 24.9712 84.8375 24.7712 84.7897C24.6316 84.686 24.611 84.5738 24.5547 84.4108L24.5785 84.3232C24.7247 84.3636 25.3481 84.8842 25.4669 84.9999H25.1946Z" fill="white"/>
</g>
<defs>
<clipPath id="clip0_30141_32744">
<rect width="62.4255" height="85" fill="white"/>
</clipPath>
</defs>
</svg>
