<svg width="164" height="30" viewBox="0 0 164 30" fill="none" xmlns="http://www.w3.org/2000/svg">
<g clip-path="url(#clip0_30141_32281)">
<path d="M94.843 0.464771L100.818 0.46167C100.435 1.18712 99.9809 2.24624 99.6265 3.00777L97.3232 7.95674L92.1422 19.0801C91.3402 20.802 90.4927 22.7192 89.6482 24.4006C87.7626 24.4287 85.8104 24.4032 83.9197 24.404C83.7663 19.597 83.5089 14.6312 83.417 9.84386C81.5768 14.6691 79.3902 19.5656 77.4994 24.402L71.9507 24.4001L70.1973 0.463507L75.8942 0.463336C76.2165 3.97083 76.3779 7.51918 76.6819 11.0306C76.7767 12.1323 76.8634 13.2682 76.9077 14.3707C77.1133 13.8282 77.373 13.2536 77.6068 12.7197C79.3902 8.6507 81.0712 4.52341 82.8758 0.465059L87.5742 0.464714C87.7787 4.98337 88.0281 9.86529 88.3452 14.3684C88.7985 13.1405 89.9286 10.9163 90.5088 9.68127L94.843 0.464771Z" fill="white"/>
<path d="M12.8894 0.0770576C13.2045 0.0450568 13.8714 0.0560877 14.2021 0.0513192C15.8371 0.0360944 17.3834 0.180356 18.7456 1.15555C23.5715 4.61053 22.0145 11.3144 17.7878 14.5365C16.5258 15.4986 15.3765 15.9853 13.7886 16.2482L20.4577 24.403L13.4235 24.3987L11.1032 21.2871C10.0243 19.8452 8.55502 18.0009 7.58954 16.5439C7.2168 19.0646 6.57856 21.84 6.14319 24.4027L0.246094 24.4005C0.859738 21.5596 1.39645 18.3163 1.9365 15.4342L4.80054 0.109059C7.24753 0.111127 10.5404 0.207876 12.8894 0.0770576ZM8.55002 11.4874C10.3807 11.4944 12.332 11.6752 14.0001 10.8826C14.8899 10.3624 15.6293 9.61592 15.8425 8.58701C16.7304 4.30081 12.5738 4.53866 9.91675 4.55463C9.4438 6.83812 9.05095 9.22956 8.55002 11.4874Z" fill="white"/>
<path d="M31.7472 5.88095C34.3697 5.61161 36.2461 6.32241 37.4738 8.7204C37.6244 7.96915 37.8183 7.18855 37.9938 6.43932L43.3738 6.43944C42.3397 12.414 41.0516 18.4264 40.0358 24.3979C38.2856 24.4643 36.1132 24.4016 34.3369 24.3986C34.4555 23.8416 34.5568 23.2403 34.6622 22.6776L34.8322 21.8315C34.7365 21.9683 34.6381 22.1032 34.5372 22.2362C32.1548 25.3556 27.398 25.9285 24.3215 23.5093C20.2862 20.3362 21.3956 13.772 24.2488 10.1396C26.0756 7.77152 28.7776 6.23692 31.7472 5.88095ZM31.6911 19.9425C33.1611 19.7378 34.2673 19.042 35.1945 17.8558C36.6012 16.0564 37.0343 13.1573 35.0628 11.5724C34.2895 10.9507 33.01 10.7495 32.0216 10.8705C26.005 11.7528 25.3666 20.7823 31.6911 19.9425Z" fill="white"/>
<path d="M149.625 6.05324C150.557 5.90737 152.26 6.11834 153.158 6.41278C158.161 8.05338 159.117 12.894 157.703 17.4241L144.147 17.4128C144.214 19.5863 145.517 20.5468 147.602 20.6429C149.097 20.7118 150.015 20.4609 151.144 19.413L157.131 19.4108L156.837 19.8559C156.723 20.0227 156.557 20.2465 156.428 20.3993C154.288 22.8035 151.881 24.5652 148.648 24.969C139.506 26.1108 136.209 16.8868 141.636 10.3908C143.693 7.92807 146.295 6.37796 149.625 6.05324ZM144.855 13.959L148.763 13.9548L153.107 13.9565C152.846 11.8901 151.4 10.7099 149.342 10.8816C147.892 10.9719 146.704 11.4769 145.73 12.5817C145.368 12.9921 145.073 13.4568 144.855 13.959Z" fill="white"/>
<path d="M102.591 0.463695L107.957 0.462891C107.845 1.26412 107.624 2.28716 107.473 3.09476L106.509 8.24321C108.104 6.12116 110.45 5.56847 112.995 5.94519C115.954 6.38303 117.39 8.70087 117.113 11.5825C116.948 13.2975 116.594 14.9425 116.277 16.6369L114.832 24.3984C113.061 24.4317 111.206 24.4022 109.429 24.4002C109.941 21.8609 110.401 19.2236 110.879 16.6729C111.082 14.9027 112.492 10.9379 109.628 10.5193C105.284 9.88438 105.213 15.4812 104.619 18.375C104.213 20.3576 103.772 22.4741 103.504 24.4005C101.743 24.4357 99.8619 24.4002 98.0918 24.3986C99.4299 17.8338 100.492 11.1697 101.797 4.59415C102.067 3.23598 102.269 1.80583 102.591 0.463695Z" fill="white"/>
<path d="M45.2876 6.4402C47.2054 6.43187 49.1231 6.43319 51.0415 6.44422L52.1175 11.9865C52.356 13.2184 52.649 14.5864 52.8345 15.8131C53.3976 14.7009 54.1479 13.4325 54.7666 12.3305L58.0787 6.44037L63.674 6.44009L57.0452 17.9915C56.3322 19.2998 55.502 20.683 54.7563 21.982L50.1958 29.9233L44.6953 29.9201C45.9437 27.637 47.3542 25.2594 48.6503 22.9917C48.3533 21.1909 47.8529 19.0309 47.4829 17.2119L45.2876 6.4402Z" fill="white"/>
<path d="M132.774 0.526855L138.178 0.527315C138.034 1.06409 137.897 1.96522 137.79 2.54428C137.548 3.8747 137.299 5.20385 137.042 6.53156L139.639 6.51571C139.479 7.75724 139.111 9.31252 138.901 10.6094C138.053 10.6306 137.145 10.6128 136.293 10.6104C136.024 11.7334 135.799 13.169 135.581 14.3368L134.298 21.2384C134.112 22.2434 133.912 23.4924 133.675 24.4646L128.308 24.4635C129.138 19.8856 130.117 15.185 130.874 10.6124L128.225 10.6155C128.42 9.32976 128.74 7.82314 128.982 6.52806C129.873 6.52541 130.764 6.52846 131.654 6.53725C131.954 4.60543 132.427 2.4808 132.774 0.526855Z" fill="white"/>
<path d="M121.036 6.53224C122.686 6.47381 124.722 6.52655 126.407 6.525C126.096 8.44114 125.681 10.4822 125.323 12.3972L123.074 24.4636L117.688 24.4639L121.036 6.53224Z" fill="white"/>
<path d="M122.156 0.527373L127.523 0.526855C127.387 1.52663 126.983 3.68827 126.761 4.62272L121.389 4.61439C121.677 3.33246 121.898 1.84325 122.156 0.527373Z" fill="white"/>
<path d="M160.202 19.4889C161.58 19.2389 162.897 20.1601 163.135 21.5401C163.374 22.9201 162.441 24.2297 161.059 24.4562C159.694 24.6799 158.404 23.7611 158.168 22.3977C157.932 21.0342 158.84 19.736 160.202 19.4889ZM160.826 24.0746C161.996 23.9766 162.862 22.9439 162.755 21.7748C162.648 20.6058 161.608 19.7482 160.44 19.8649C159.284 19.9803 158.439 21.0056 158.545 22.1616C158.651 23.3175 159.67 24.1716 160.826 24.0746Z" fill="white"/>
<path d="M159.691 20.5033C160.38 20.4952 162.33 20.3295 161.782 21.6589C161.653 21.9732 161.498 21.9919 161.188 22.1172C161.005 22.3769 161.793 23.0134 161.841 23.4179C161.658 23.4901 161.456 23.4421 161.333 23.2927C161.15 22.9909 160.764 22.2455 160.456 22.1638C159.722 22.2955 160.345 23.0524 160.075 23.4222C159.917 23.4419 159.88 23.4526 159.73 23.4055C159.627 23.2117 159.687 20.8475 159.691 20.5033ZM160.123 21.7995C160.577 21.8108 160.749 21.8111 161.195 21.739C161.914 20.8538 160.696 20.8602 160.151 20.8689C160.101 21.1108 160.12 21.5387 160.123 21.7995Z" fill="white"/>
</g>
<defs>
<clipPath id="clip0_30141_32281">
<rect width="163.393" height="30" fill="white"/>
</clipPath>
</defs>
</svg>
