<svg width="155" height="35" viewBox="0 0 155 35" fill="none" xmlns="http://www.w3.org/2000/svg">
<g clip-path="url(#clip0_30141_32878)">
<path d="M90.7278 1.6802C90.7656 1.67464 90.8039 1.67014 90.8422 1.6667C92.7763 1.50082 94.9349 2.3876 96.4017 3.61354C98.2815 5.18573 99.4569 7.44208 99.6684 9.88327C99.871 12.3614 99.0785 14.8181 97.4649 16.7099C95.9416 18.5263 94.0191 19.5457 91.6644 19.7512C89.8465 20.0037 87.4819 19.0397 86.0983 17.8949C84.2152 16.3049 83.0349 14.0363 82.8136 11.5815C82.5912 9.16311 83.346 6.75627 84.9098 4.8981C86.3673 3.14648 88.4339 1.88982 90.7278 1.6802ZM91.6644 19.1597C92.9565 19.0377 94.2886 18.6917 95.1008 17.5994C96.9133 15.1614 96.8081 11.2302 96.5814 8.35619C96.3059 4.86074 94.73 2.03629 90.8187 2.26227C89.5211 2.39117 88.246 2.78918 87.4343 3.8725C85.578 6.3487 85.6574 10.2436 85.8979 13.1736C86.1958 16.8106 87.6572 19.3417 91.6644 19.1597Z" fill="white"/>
<path d="M32.6875 2.0813H46.6558V6.49117C46.5823 6.49484 46.5087 6.49692 46.4351 6.49742C46.0623 6.49649 45.9797 6.04998 45.8784 5.72813C44.9374 2.73819 42.9478 2.55822 40.1743 2.67873C39.541 2.70625 38.6646 2.68196 38.0017 2.68377V9.8131C40.5149 9.83299 41.8579 10.0522 42.6101 7.17441C42.6796 6.90827 42.7179 6.60926 42.8254 6.36065C42.995 6.22278 42.9359 6.2287 43.1117 6.23549C43.5357 6.53428 43.2113 10.7504 43.3116 11.475C43.3334 11.6322 43.3273 13.853 43.2871 13.9769C42.9683 14.1233 42.7469 13.8876 42.6903 13.5788C42.0831 10.2693 40.8941 10.396 38.0017 10.4159V11.5844V18.7959L41.1286 18.8025C41.7679 18.8033 42.4316 18.8296 43.0652 18.7512C45.1122 18.4979 46.4266 16.6898 46.8688 14.8051C46.9382 14.5092 46.9835 14.2301 47.0739 13.9378C47.2795 13.9069 47.3208 13.9061 47.5235 13.9508C47.5938 14.2545 47.5648 15.3877 47.5643 15.7542L47.559 19.3987H32.6875L32.6877 18.7959H35.3446V2.68377H32.6878L32.6875 2.0813Z" fill="white"/>
<path d="M100.141 2.0813H105.464C106.349 3.44643 107.253 4.96132 108.115 6.35052L113.405 14.8762V2.68377H110.759L110.758 2.0813H116.68L116.681 2.68377H114.026V19.7274H113.329C113.095 19.3345 112.844 18.9379 112.604 18.5476C112.268 18.0803 111.784 17.2501 111.454 16.724L109.078 12.9359C107.212 9.95152 105.233 6.90318 103.418 3.89888V18.7959H106.06L106.066 19.3987H100.141C100.136 19.1971 100.116 19.0054 100.189 18.8186C100.576 18.7579 102.308 18.7935 102.797 18.7959V2.68377H100.143L100.141 2.0813Z" fill="white"/>
<path d="M49.9224 2.0813H55.2633C56.0877 3.47346 57.0347 4.93922 57.8919 6.32143L63.2142 14.9107V2.68377H60.5418L60.5407 2.0813H66.4831V2.68377H63.826V19.7274H63.1359L62.409 18.5737L53.2094 3.91022V18.7959H55.8757V19.3987H49.9219V18.7959H52.5975V2.68377H49.9301L49.9224 2.0813Z" fill="white"/>
<path d="M5.28113 1.67916C6.84802 1.47931 7.88947 2.03586 9.28433 2.53704C9.8963 2.75693 9.97206 2.33459 10.3995 2.06558C10.6126 2.0403 10.5309 2.02596 10.7285 2.13963C10.7937 2.42186 10.7949 6.36953 10.7416 6.65073C10.051 6.77529 10.156 6.31235 10.0134 5.72096C9.21674 2.41598 5.5964 1.18798 2.92484 3.23531C2.39688 3.6405 1.97343 4.58604 1.99375 5.26157C2.12132 9.49614 9.30969 8.49248 11.458 11.1865C13.1911 13.3599 12.4766 16.4941 10.5973 18.1912C9.04201 19.5956 7.2133 19.8395 5.2326 19.7406C4.70135 19.7128 4.17389 19.6356 3.65699 19.5099C3.1493 19.3912 1.57222 18.7998 1.05544 18.905C0.528301 19.0122 0.957503 19.4352 0.015625 19.3989V13.9983L0.507378 13.9944C1.33746 17.6121 2.83786 19.5111 6.88329 19.1369C9.07602 18.9341 10.6155 17.1755 10.3159 14.9855C9.81524 11.3257 4.1425 11.9358 1.88235 9.9053C1.06075 9.16723 0.581595 8.49341 0.474568 7.36936C0.196814 4.21552 2.2221 1.99194 5.28113 1.67916Z" fill="white"/>
<path d="M73.2886 1.66901C75.0824 1.54956 75.8619 2.12567 77.4782 2.59561C77.7504 2.6748 78.2965 1.8192 78.6476 2.15864C78.7183 2.74284 78.6591 3.83527 78.6657 4.48572C78.6712 5.0696 78.704 6.05296 78.6525 6.60573C78.5474 6.73116 78.5956 6.69299 78.4313 6.75187C78.308 6.71029 78.1875 6.62337 78.1508 6.49739C77.8189 5.3628 77.6387 4.55378 76.8204 3.61873C76.122 2.80931 75.1257 2.31777 74.0587 2.25661C70.2438 2.01745 68.2736 5.883 71.417 7.8126C74.4629 9.68184 80.6463 9.02183 80.3439 14.3162C80.264 15.8067 79.5974 17.205 78.4893 18.2054C76.9688 19.5608 75.1755 19.8564 73.2059 19.7421C71.623 19.654 70.5839 19.1343 69.0623 18.8768C68.8043 18.8332 68.6324 19.1822 68.4719 19.3284C68.3525 19.4369 68.089 19.4048 67.9258 19.3989V13.9941H68.4209C69.1971 17.5791 70.7669 19.4957 74.7368 19.1421C76.9502 18.9449 78.5123 17.2413 78.2264 15.0113C77.7515 11.3054 72.0179 11.9502 69.7645 9.88182C68.9615 9.14512 68.4867 8.4621 68.3766 7.35021C68.1295 4.1481 70.1633 1.96403 73.2886 1.66901Z" fill="white"/>
<path d="M12.9492 2.0813H20.6065L20.6076 2.68376H18.0154L23.1411 16.0748C23.6229 14.6165 24.3909 12.753 24.9439 11.288L28.2002 2.68376H25.6498L25.6488 2.0813H29.6736H31.0682L31.0692 2.68376H28.8821L22.4353 19.7642H21.656L15.1423 2.68376H12.9568L12.9492 2.0813Z" fill="white"/>
<path d="M0.015625 23.4884C2.19357 23.4787 5.09884 23.2798 4.82355 26.4844C4.76829 27.1282 4.43806 27.5936 3.93672 27.982C5.65785 28.6207 6.20537 30.3552 5.3417 31.9321C4.15488 33.4959 1.78989 33.1913 0.015625 33.1836V23.4884ZM1.10227 32.1606C2.08555 32.1663 3.31461 32.2732 4.1207 31.6561C4.30633 31.4618 4.51381 31.2193 4.56973 30.9477C5.06225 28.5561 2.66878 28.6847 1.10227 28.6922V32.1606ZM1.10227 27.7621C1.86635 27.7503 2.70789 27.7993 3.34468 27.3223C3.74211 26.8143 3.80537 26.3788 3.73647 25.7385C3.59176 24.3931 2.08188 24.5083 1.10227 24.5116V27.7621Z" fill="white"/>
<path d="M98.498 23.4886C99.7841 23.4841 101.531 23.3538 102.596 24.1612C103.919 25.1652 103.69 27.6293 102.268 28.4503C101.815 28.7121 101.55 28.7745 101.037 28.8384L104.122 33.1839H102.793L102.599 32.9259L100.796 30.2989C100.48 29.8386 99.9884 29.0871 99.6269 28.6906C99.5721 29.06 99.5908 29.9146 99.5908 30.3089L99.5935 33.1839H98.498V23.4886ZM99.5935 27.9612C100.44 27.9618 101.182 27.9943 101.901 27.4689C102.478 26.782 102.597 25.6141 101.88 24.9602C101.351 24.4783 100.296 24.5025 99.5935 24.5118V27.9612Z" fill="white"/>
<path d="M26.7363 23.4884C28.0205 23.4836 29.7451 23.3613 30.8107 24.1468C32.1496 25.1338 31.9245 27.6097 30.5148 28.4403C30.0554 28.711 29.7854 28.7753 29.2634 28.8394C30.2895 30.1919 31.3549 31.783 32.3627 33.1836H31.0154L30.7384 32.7888C29.871 31.6127 28.7704 29.7515 27.8701 28.693C27.8117 29.0355 27.8287 29.9509 27.8287 30.3255L27.8322 33.1836H26.7363V23.4884ZM27.8322 27.9609C28.7188 27.9622 29.4122 27.997 30.157 27.446C30.5612 26.934 30.6448 26.5562 30.5779 25.8951C30.4356 24.4879 28.9137 24.4941 27.8322 24.5115V27.9609Z" fill="white"/>
<path d="M39.4414 23.4884C40.7288 23.4836 42.4214 23.3501 43.5146 24.1527C44.6185 24.9631 44.6485 26.8483 43.836 27.8759C43.3345 28.5102 42.7546 28.7415 41.9681 28.8401L43.9799 31.6632C44.2437 32.0339 44.823 32.8074 45.0272 33.1837H43.7156L43.4837 32.8508C42.7172 31.8236 42.0352 30.6779 41.2759 29.6399C41.0983 29.3972 40.8897 28.9834 40.5867 28.9709C40.4673 29.1601 40.5182 32.6871 40.5193 33.1837H39.4414V23.4884ZM42.817 27.4695C43.2182 27.0333 43.3065 26.7204 43.2948 26.1364C43.2619 24.4902 41.7477 24.4977 40.5193 24.5116V27.961C41.364 27.9616 42.1095 28.0003 42.817 27.4695Z" fill="white"/>
<path d="M15.4455 23.0479C15.6587 23.2707 19.3993 32.1853 19.8271 33.1837H18.6208C18.2271 32.2961 17.8433 31.328 17.467 30.4271H15.4346H13.3611C12.9834 31.2025 12.5325 32.3631 12.1825 33.1837H10.9805L15.4455 23.0479ZM13.7982 29.4131H15.4893H17.039C16.8309 28.9099 15.586 25.7912 15.4188 25.6125L13.7982 29.4131Z" fill="white"/>
<path d="M85.7812 23.4883H90.8028V24.5114H86.8773V27.3583H90.6933V28.3815H86.8773V29.3308V32.1604H90.8028V33.1835H85.7812V23.4883Z" fill="white"/>
<path d="M113.321 23.3539C114.733 23.2407 115.577 23.6091 116.344 24.8263L115.47 25.3943C115.408 25.2985 115.344 25.2039 115.278 25.1106C114.383 23.8519 112.431 24.1572 112.204 25.7267C112.074 26.8226 113.709 27.3178 114.5 27.6838C115.903 28.3324 116.909 29.1034 116.65 30.8118C116.531 31.5975 116.101 32.3022 115.456 32.7673C114.696 33.3195 113.875 33.423 112.969 33.2835C111.594 32.9452 110.954 32.1624 110.605 30.8279L111.652 30.5343C112.163 32.4018 113.943 33.0654 115.313 31.4044C115.528 31.1427 115.681 30.3797 115.559 30.0407C114.885 28.1747 111.7 28.4858 111.174 26.4065C111.016 25.7878 111.112 25.1316 111.439 24.5836C111.904 23.8184 112.496 23.5537 113.321 23.3539Z" fill="white"/>
<path d="M63.4972 23.3472C64.8567 23.2581 65.7637 23.6229 66.4709 24.8332L65.6011 25.3915C65.52 25.2681 65.4362 25.1467 65.3496 25.0273C64.7827 24.2587 63.6637 24.1021 62.9101 24.679C62.5951 24.9203 62.3903 25.2779 62.3415 25.6716C62.1389 27.3468 65.5096 27.5253 66.3536 28.8803C66.7655 29.4301 66.9063 30.0495 66.7896 30.7571C66.4752 32.6736 64.8956 33.5306 63.1291 33.2889C61.7187 32.9724 61.1157 32.1511 60.7246 30.8288L61.785 30.5425C62.5622 33.5108 66.0748 32.4095 65.6755 30.0597C65.3929 28.3976 61.6174 28.3376 61.2915 26.3743C61.0111 24.6858 61.9515 23.6854 63.4972 23.3472Z" fill="white"/>
<path d="M73.0273 23.4883H78.8065V24.5114H76.4512V30.8097V33.1835H75.3547V24.5114H73.0273V23.4883Z" fill="white"/>
<path d="M52.2949 23.4883L53.3729 23.4883V33.1835H52.2949V23.4883Z" fill="white"/>
<path d="M135.499 0H137.739C138.936 0.188573 139.681 0.21878 140.918 0.528189C144.885 1.53849 148.374 3.90589 150.778 7.21959C153.507 10.9778 154.63 15.6662 153.9 20.2527C153.162 24.8559 150.621 28.9753 146.838 31.6994C144.694 33.2422 142.231 34.2836 139.63 34.7466C138.948 34.8682 138.228 34.8821 137.577 35H135.662C135.538 34.9678 135.048 34.9308 134.894 34.9133C134.377 34.8569 133.862 34.7828 133.35 34.6909C130.816 34.2163 128.421 33.181 126.339 31.6608C122.576 28.9329 120.052 24.821 119.323 20.231C118.595 15.6409 119.726 10.9498 122.466 7.19581C124.878 3.88337 128.375 1.52087 132.348 0.518985C133.565 0.217048 134.319 0.183759 135.499 0ZM137.523 34.4196C146.878 33.9172 154.051 25.92 153.536 16.5655C153.022 7.21104 145.016 0.0481935 135.662 0.574115C126.325 1.09911 119.178 9.088 119.691 18.4259C120.204 27.7638 128.184 34.9212 137.523 34.4196Z" fill="white"/>
<path d="M135.66 1.12886C144.708 0.601437 152.468 7.51545 152.982 16.5641C153.497 25.6127 146.573 33.3626 137.524 33.8654C128.492 34.3672 120.76 27.4589 120.246 18.4277C119.732 9.39641 126.629 1.65527 135.66 1.12886ZM137.249 33.3234C145.999 32.9724 152.804 25.5889 152.441 16.8397C152.079 8.09062 144.686 1.29548 135.937 1.66963C127.205 2.04309 120.425 9.41881 120.787 18.1516C121.149 26.8844 128.516 33.6739 137.249 33.3234Z" fill="white"/>
<path d="M142.973 7.87012C143.407 8.15822 143.304 9.28628 143.256 9.71318C143.103 11.0701 142.173 11.7482 141.228 12.586C141.101 12.6986 140.806 12.9321 140.735 13.0715C140.848 13.162 140.811 13.1359 140.988 13.127C141.463 12.8733 141.685 12.0787 142.357 12.0421C143.026 12.5137 141.899 13.5752 141.518 13.8805C142.183 15.3046 142.166 16.6748 142.126 18.2006C142.089 19.5972 141.909 19.5991 141.363 20.8046C140.616 22.4537 139.977 24.5386 140.431 26.3398C140.488 26.3941 140.543 26.4495 140.596 26.5059C140.752 26.6711 140.916 26.8596 140.715 27.0431C138.858 27.2427 140.122 22.0673 139.777 21.5613C138.388 21.759 138.474 25.1304 138.677 26.1231C138.745 26.4552 138.916 27.2467 138.884 27.5315L138.774 27.5982C137.914 27.5843 138.139 25.9878 138.062 25.464C137.872 24.2035 137.739 22.9071 137.511 21.6595C137.441 21.2769 136.365 21.1632 135.974 20.9918C135.321 21.7974 134.678 22.4497 133.899 23.1273C133.853 23.1671 133.682 23.3826 133.679 23.4366C133.631 24.2238 134.111 25.1273 134.45 25.8255C134.558 26.0469 135.178 26.3627 135.064 26.6791C134.809 26.6945 134.42 26.7355 134.274 26.501C134.124 26.2614 134.065 25.972 133.792 25.9101C133.78 25.9074 133.621 25.5826 133.601 25.5346C133.245 24.6722 132.705 23.8175 132.498 22.9107C132.484 22.8494 132.792 22.5032 132.852 22.4423C133.36 21.9259 133.427 21.875 133.675 21.1934C132.963 21.8291 132.098 22.1957 131.363 22.9931C130.617 23.8007 131.175 26.7075 130.422 26.9966C129.976 26.8879 130.006 26.3923 130.024 26.0465C130.804 25.0233 130.214 23.8543 130.194 22.7387C130.189 22.4579 130.731 22.0583 130.964 21.8632C131.801 21.1639 131.609 19.896 131.66 18.8414C131.598 18.6824 131.522 18.659 131.367 18.5761C131.909 17.7121 131.868 17.3414 132.948 16.9324C134.435 16.3685 135.739 16.7811 137.25 16.9211C137.777 16.9698 138.377 16.9031 138.9 16.8181L139.567 16.2714C139.558 16.1847 139.498 15.6152 139.465 15.5876C139.131 15.3846 137.986 15.6645 137.808 15.1555C137.699 14.8432 138.648 14.1207 138.87 13.8109C138.352 13.4216 138.284 13.1458 138.064 12.5569C137.194 12.4087 136.292 12.0625 136.599 10.9601C136.703 10.9884 136.705 11.2265 136.741 11.343C136.839 11.6638 137.203 12.1642 137.558 12.1902C137.751 11.853 137.061 10.9662 137.123 10.2714C137.175 9.67314 137.209 9.67966 137.427 9.09517C137.284 10.0954 137.478 11.055 138.072 11.8623C139.193 13.3863 139.236 11.0932 139.264 10.5295C139.004 10.1772 138.29 9.02638 138.575 8.64329C138.808 8.90379 139.108 9.84255 139.284 10.2358L139.446 10.2807C139.892 10.0702 140.258 9.09227 140.493 8.65726C140.342 9.65698 140.298 9.79955 139.662 10.5854C139.623 10.88 139.37 12.1381 139.477 12.3048C139.631 12.0842 139.66 11.7853 139.705 11.5178C139.731 11.9559 139.716 12.4754 139.925 12.8544C140.088 12.972 140.016 12.9488 140.219 12.9393C140.429 12.8431 140.57 12.6336 140.719 12.4511L140.714 12.0048L140.812 11.9325L140.751 11.8328L140.76 11.8265C140.831 11.9628 140.88 12.0794 141.004 12.1724C141.129 12.1481 141.549 11.7348 141.678 11.6221C141.317 11.453 139.912 10.9388 139.794 10.7635C140.198 10.672 140.867 11.1581 141.249 10.9856C141.462 10.6286 140.743 9.29745 140.618 8.89897C140.557 8.70502 140.527 8.53671 140.495 8.33509C140.994 9.04725 141.72 11.1191 142.021 11.3832C142.099 11.3743 142.15 11.3444 142.206 11.2907C142.316 11.1857 142.468 10.8532 142.544 10.7561C143.514 9.51534 141.974 8.45882 141.99 8.07678C142.527 8.10482 142.917 8.94257 143.102 9.35469C143.115 8.90856 143.028 8.32556 142.973 7.87012Z" fill="white"/>
<path d="M125.178 19.7983C125.397 19.8743 125.419 20.231 125.488 20.4959C125.801 21.7031 126.314 22.8492 127.007 23.8867C128.716 26.4901 131.391 28.3057 134.442 28.9324C139.596 29.9902 144.822 27.4796 147.218 22.7951C147.49 22.2646 147.727 21.6973 147.936 21.1383C148.059 20.8052 148.096 20.047 148.392 19.8522L148.538 19.9018L148.511 20.0587C148.194 21.48 147.621 22.8319 146.821 24.0487C145.07 26.7147 142.33 28.5728 139.205 29.2118C136.077 29.8527 132.824 29.2218 130.162 27.4587C127.619 25.7743 125.68 23.0267 125.086 20.017C125.067 19.9202 125.123 19.8789 125.178 19.7983Z" fill="white"/>
<path d="M135.707 5.62793C137.066 5.4187 139.121 5.72049 140.427 6.13869C143.477 7.11611 146.013 9.26437 147.48 12.1113C147.732 12.6021 148.638 14.7688 148.507 15.1738L148.392 15.2287C148.163 15.098 148.166 14.6746 148.09 14.4318C147.972 14.0512 147.847 13.6762 147.702 13.3044C147.261 12.1828 146.649 11.1361 145.888 10.2013C143.918 7.7712 141.059 6.22879 137.946 5.91697C136.394 5.75938 134.827 5.91795 133.338 6.38303C130.14 7.38061 127.518 9.69067 126.125 12.7368C125.813 13.4242 125.58 14.1301 125.391 14.8591C125.358 14.9847 125.321 15.1019 125.26 15.2173L125.19 15.2199C125.005 14.9301 125.21 14.3998 125.306 14.0882C125.769 12.5617 126.534 11.144 127.557 9.91956C129.595 7.46261 132.528 5.91833 135.707 5.62793Z" fill="white"/>
<path d="M143.521 28.2644L143.69 28.3193C143.802 28.4997 143.645 28.7093 143.715 29.0343C144.594 28.9419 145.203 29.1275 144.707 30.1386C143.726 30.9833 143.274 29.8548 143.44 29.0078C143.479 28.8079 143.496 28.4796 143.521 28.2644ZM144.312 30.1151C144.558 30.0122 144.673 29.7301 144.571 29.4845C144.469 29.2389 144.187 29.1224 143.941 29.2241C143.694 29.3262 143.577 29.6092 143.68 29.8557C143.783 30.1022 144.066 30.2184 144.312 30.1151Z" fill="white"/>
<path d="M140.73 29.5266C140.802 29.5226 140.875 29.5219 140.946 29.5244C142.07 29.5716 141.525 31.4136 141.192 31.7051L141.011 31.6498C141.079 31.4518 141.199 31.1563 141.193 30.958C140.037 30.9865 139.852 30.051 140.73 29.5266ZM140.974 30.7283C141.148 30.7131 141.301 30.6047 141.372 30.4452C141.443 30.2856 141.422 30.0999 141.317 29.9601C141.213 29.8203 141.04 29.7483 140.867 29.7722C140.608 29.8077 140.425 30.0431 140.454 30.3026C140.483 30.5622 140.714 30.7511 140.974 30.7283Z" fill="white"/>
<path d="M127.103 26.2422C127.377 26.4823 127.681 26.6986 127.801 27.0407L127.739 27.0742C127.508 26.9987 127.304 26.7621 127.127 26.5858L126.703 27.0317C126.875 27.1888 127.208 27.4384 127.259 27.6261L127.184 27.7402C127.015 27.7349 126.823 27.3898 126.541 27.2454L126.451 27.3142L125.988 27.8026C126.176 27.974 126.464 28.2036 126.531 28.4466C126.282 28.4824 125.819 27.9909 125.637 27.8195C126.121 27.2896 126.61 26.7637 127.103 26.2422Z" fill="white"/>
<path d="M145.931 26.5081C146.796 26.4943 146.566 27.081 146.713 27.15C148.573 28.0221 146.415 28.9664 146.36 28.2493C146.648 28.1138 146.576 28.3477 147.025 28.1992C147.152 27.9445 147.213 27.8334 147.066 27.582C146.896 27.4774 146.618 27.5011 146.406 27.4991C146.216 27.3436 146.565 27.2513 146.37 26.8576C146.212 26.7598 146.168 26.7642 145.979 26.7623C145.61 26.964 145.912 27.2113 145.726 27.4527C145.556 27.4596 145.612 27.4809 145.482 27.3875C145.393 27.0491 145.665 26.6908 145.931 26.5081Z" fill="white"/>
<path d="M129.651 28.4231C130.065 28.4322 130.547 28.5217 130.458 29.0505C130.285 29.1288 130.147 28.7005 129.843 28.6461C128.858 29.0023 131.026 29.9179 129.411 30.5439C129.374 30.5357 129.338 30.5262 129.302 30.5152C128.837 30.3729 128.459 29.7914 128.857 29.5962C129.124 29.8641 128.92 30.1437 129.303 30.3209C129.407 30.3152 129.606 30.2186 129.65 30.1463C130.134 29.3471 128.691 29.2729 129.651 28.4231Z" fill="white"/>
<path d="M135.301 2.84424C135.564 2.85598 135.892 2.91723 135.906 3.24093L135.761 3.24775C135.636 3.14864 135.617 3.13265 135.464 3.08922C135.307 3.10595 135.285 3.1247 135.16 3.22532C135.08 3.7034 136.07 3.9297 136.144 4.44168C136.204 4.86075 135.736 5.03209 135.422 5.0981C135.112 5.018 134.974 4.877 134.858 4.58205L134.903 4.50294C135.198 4.53882 135.085 4.69313 135.299 4.80938C135.495 4.91575 135.839 4.73222 135.909 4.53118C135.882 4.13526 135.09 3.91963 134.887 3.55904C134.839 3.47349 134.829 3.37221 134.858 3.27858C134.927 3.04581 135.103 2.95002 135.301 2.84424Z" fill="white"/>
<path d="M144.122 4.70898C144.531 4.71007 144.842 4.84246 144.877 5.28616L144.805 5.35852C144.628 5.303 144.603 5.13669 144.381 4.95817C144.207 4.94191 144.261 4.94376 144.089 5.044C143.83 5.51459 145.265 6.73965 143.663 6.81578C143.28 6.65108 143.03 6.3771 143.21 5.96121L143.298 5.94117C143.6 6.1573 143.329 6.46825 143.744 6.61515C144.783 6.45461 143.66 5.60037 143.757 5.1387C143.804 4.91671 143.945 4.82584 144.122 4.70898Z" fill="white"/>
<path d="M132.386 29.5391C132.66 29.6096 133.417 29.7939 133.585 29.9964L133.536 30.0494C133.378 30.0808 133.198 30.0144 133.039 29.9714C132.912 30.4285 132.781 30.8846 132.647 31.3398C132.609 31.5105 132.591 31.6354 132.493 31.783C132.361 31.7652 132.405 31.7873 132.312 31.7105C132.347 31.3501 132.686 30.2959 132.799 29.9037C132.584 29.8451 132.499 29.8577 132.35 29.7152L132.386 29.5391Z" fill="white"/>
<path d="M138.73 2.97876C139.044 3.02795 139.757 3.07761 139.934 3.25439L139.927 3.36046C139.756 3.44758 139.661 3.30011 139.428 3.35997C139.341 3.56079 139.243 4.34455 139.205 4.60727C139.174 4.82632 139.195 5.18289 138.946 5.19033C138.761 4.97392 139.218 3.7706 139.098 3.41763C139.004 3.13941 138.852 3.3225 138.705 3.15553L138.73 2.97876Z" fill="white"/>
<path d="M128.282 4.96021C128.487 5.06969 129.125 6.35466 129.283 6.65077C129.487 6.5255 129.544 6.4859 129.783 6.4394C129.828 6.45495 129.856 6.49455 129.89 6.53048L129.879 6.5536L129.851 6.47927L129.87 6.59287L129.803 6.64206L129.181 6.97716C128.886 6.39832 128.438 5.74038 128.208 5.12799C128.191 5.08485 128.25 5.01352 128.282 4.96021Z" fill="white"/>
<path d="M148.476 17.0627C148.711 17.0387 148.924 17.1985 148.967 17.4299C149.01 17.6613 148.868 17.887 148.641 17.9488C148.476 17.9935 148.301 17.9419 148.187 17.8155C148.073 17.6891 148.039 17.5092 148.101 17.3502C148.161 17.1911 148.307 17.08 148.476 17.0627Z" fill="white"/>
<path d="M124.978 17.0615C125.216 17.0133 125.45 17.1625 125.506 17.3991C125.563 17.6357 125.422 17.8746 125.188 17.9396C125.029 17.9837 124.858 17.9374 124.743 17.8189C124.628 17.7004 124.587 17.5284 124.635 17.3707C124.685 17.2129 124.816 17.0943 124.978 17.0615Z" fill="white"/>
<path d="M137.5 30.1965C137.682 30.1851 137.887 30.1399 138.027 30.2113C138.038 30.2606 138.048 30.3102 138.056 30.3599C138.113 30.6664 138.277 32.1615 138.13 32.3757C137.761 32.0695 138.019 30.9836 137.78 30.487C137.692 30.418 137.659 30.4161 137.55 30.3982L137.518 30.393L137.5 30.1965Z" fill="white"/>
<path d="M131.609 3.52661L131.792 3.55537C131.987 3.77008 132.365 5.27041 132.466 5.6388L132.291 5.63272C132.086 5.45577 131.696 3.87754 131.609 3.52661Z" fill="white"/>
</g>
<defs>
<clipPath id="clip0_30141_32878">
<rect width="154.175" height="35" fill="white"/>
</clipPath>
</defs>
</svg>
