<svg width="147" height="35" viewBox="0 0 147 35" fill="none" xmlns="http://www.w3.org/2000/svg">
<g clip-path="url(#clip0_30141_32389)">
<path d="M44.478 0.110757C45.2298 0.019568 47.9109 0.0731797 48.7507 0.0940599C50.5767 0.13945 53.0848 -0.0198766 54.8396 0.156428C53.9979 1.40135 53.709 3.22991 53.3559 4.76249L52.5002 8.37452C51.5113 12.6879 50.5477 17.0038 49.5293 21.3076C48.6525 25.0131 48.3964 28.0292 44.6029 28.2919L33.9824 28.2876C35.1167 26.7293 35.4927 25.0782 35.9979 23.1163C36.3553 21.7278 36.7244 20.3409 37.0812 18.9515L40.0631 7.42994C40.3628 6.24952 40.6647 5.03558 40.9625 3.85486C41.5643 1.46779 42.4593 0.357399 44.478 0.110757Z" fill="white"/>
<path d="M0.204808 0.121055C2.29418 0.0273163 4.52547 0.13101 6.63177 0.0900386C8.00004 0.144585 9.39728 -0.0242899 10.758 0.171681C12.3542 0.401563 13.2151 1.42721 13.7655 3.25701C14.3582 5.22736 14.8169 7.20151 15.3218 9.18105L17.8683 19.0593C18.5671 21.8271 19.1485 24.8651 20.3053 27.3512C20.4593 27.6821 20.77 27.9714 20.8046 28.2926L13.7446 28.2987C10.9707 28.3005 7.46097 28.8763 6.24296 24.866C5.84931 23.5699 5.56263 22.1393 5.25607 20.8012C4.26278 16.3296 3.23602 11.8698 2.17594 7.42232C1.69076 5.36037 1.15004 1.90284 0.169922 0.276944L0.204808 0.121055Z" fill="white"/>
<path d="M21.5352 0.323446C21.9639 0.339354 22.428 0.334499 22.8581 0.327112C26.376 0.266668 29.9333 0.426141 33.4473 0.299072L33.4583 28.2959C29.525 28.2373 25.4933 28.2967 21.5517 28.2978C21.5049 19.0252 21.6626 9.57055 21.5352 0.323446Z" fill="white"/>
<path d="M107.199 9.73251C107.225 9.72507 107.252 9.7189 107.279 9.71409C108.714 9.46699 110.849 10.0606 111.97 11.2143C116.559 15.94 114.797 27.8695 108.329 28.5558C105.693 28.8357 104.452 28.4585 102.378 26.4482L102.374 32.5182L102.375 34.9082C100.804 34.8863 99.2346 34.8867 97.6641 34.9093C97.7596 26.7489 97.6706 18.2775 97.6684 10.0898C99.236 10.1009 100.804 10.0965 102.371 10.0765L102.379 13.4752C103.443 11.0632 105.058 9.97834 107.199 9.73251ZM102.403 16.2637C102.311 18.2841 102.351 21.3774 102.376 23.4517C103.452 24.6273 104.654 25.5993 106.158 25.4708L106.172 25.4695C107.191 25.226 107.897 24.8373 108.479 23.726C109.417 21.9345 109.709 19.4387 109.364 17.3565C108.928 14.724 107.832 13.4503 105.71 13.6265C104.394 13.9081 103.268 15.0405 102.403 16.2637Z" fill="white"/>
<path d="M122.406 9.74136C124.299 9.46677 127.493 10.0041 128.879 11.7086C129.324 12.2522 129.644 12.937 129.802 13.69C129.883 14.0662 129.954 14.5885 129.961 14.9787C130.012 17.703 129.943 20.4364 129.948 23.161C129.948 23.7929 129.974 24.6057 130.346 25.0778C130.717 25.5494 131.425 25.4862 131.914 25.4791C131.98 26.2455 131.982 27.4626 132 28.266C130.309 28.6337 128.011 29.0907 126.514 27.7339C126.09 27.3492 125.88 26.8558 125.626 26.2959C123.192 28.6434 120.629 29.3798 117.712 27.944C115.208 26.2429 114.587 22.4218 116.618 19.8154C118.738 17.0965 122.619 17.1861 125.463 17.1582C125.499 14.2726 125.374 12.8849 122.648 12.776C120.664 12.6968 118.701 13.3413 116.913 14.4023V10.9432C119.029 10.1664 120.236 9.89853 122.406 9.74136ZM122.157 25.3387C123.653 25.1445 124.281 24.6853 125.463 23.6378L125.472 20.0376C124.82 20.0326 124.014 19.9996 123.375 20.0707C122.287 20.2669 120.968 20.5804 120.282 21.7616C119.16 23.6923 120.681 25.2589 122.157 25.3387Z" fill="white"/>
<path d="M60.5727 9.73296C60.6628 9.71381 60.7534 9.69966 60.8445 9.69058C62.7725 9.50039 65.159 10.1363 66.6324 11.7423C68.5379 13.8194 68.666 17.1913 68.8369 20.1154C65.4432 20.025 61.542 20.0728 58.1409 20.1301C58.2182 20.6533 58.2951 21.2544 58.4356 21.7497C59.4953 25.4863 63.1413 25.6911 65.7822 25.0981C66.584 24.9181 67.4094 24.7316 68.1741 24.3987C68.2898 24.3468 68.6278 24.2537 68.7639 24.2111L68.7682 27.632C64.8698 28.9115 59.1285 29.5644 55.7779 26.2116C52.7226 23.0536 52.4675 16.788 54.9042 13.0079C56.3819 10.7158 58.3383 10.0094 60.5727 9.73296ZM58.0773 17.3473C58.9723 17.3937 59.858 17.3857 60.7531 17.3833L64.1391 17.3813C64.0889 15.0905 63.6583 12.8806 61.423 12.8217C59.0765 13.0644 58.4944 14.6742 58.0773 17.3473Z" fill="white"/>
<path d="M76.7971 9.74918C78.629 9.49274 80.9844 10.0083 82.8018 10.2858L82.791 13.7539C81.0097 13.128 77.0867 11.9377 75.5698 13.7931C74.1579 15.5206 76.9977 16.5552 77.8999 16.9473C80.487 18.0219 85.1637 19.5156 83.9936 24.2128C83.0451 28.0201 79.0526 28.6902 76.422 28.6576C74.4475 28.6152 72.4838 28.2951 70.5664 27.7034L70.5754 24.1194C72.7264 24.8676 74.5293 25.7709 76.8449 25.5759C77.7797 25.4971 79.369 25.0132 79.2828 23.4989C79.1728 21.5573 76.0846 21.0194 74.929 20.3714C73.7575 19.7147 72.6446 19.2963 71.67 18.1643C70.2416 16.6568 70.4201 13.6765 71.6222 12.0332C72.9212 10.2569 74.9435 9.86116 76.7971 9.74918Z" fill="white"/>
<path d="M140.541 9.74876C142.31 9.48052 144.694 10.0392 146.442 10.3485C146.476 11.513 146.455 12.8642 146.46 14.044C143.276 12.7891 139.151 11.7468 137.77 16.7355C137.253 18.543 137.339 20.5346 138.009 22.2617C139.155 25.2029 141.654 25.7397 144.038 25.2341C144.822 25.0679 145.873 24.8574 146.584 24.4232L146.589 25.5739L146.596 27.9119C142.93 28.7842 138.079 29.5256 134.948 26.2976C131.99 23.2481 131.547 17.011 133.993 13.3024C135.719 10.6857 137.939 10.0177 140.541 9.74876Z" fill="white"/>
<path d="M90.9513 6.46574C91.1555 6.43262 91.2894 6.391 91.4835 6.48289C91.5523 7.05411 91.5103 9.3779 91.5088 10.0782C92.7311 10.1026 93.9533 10.0995 95.1755 10.0688C95.1885 11.1259 95.182 12.1832 95.156 13.2398C93.9591 13.1956 92.7072 13.2216 91.5059 13.2252L91.5009 19.3469C91.4987 23.3964 91.1511 26.3412 95.4796 25.1284C95.4731 26.1357 95.4832 27.1553 95.4869 28.1637C94.8337 28.3626 94.2806 28.4586 93.6202 28.5559C93.2676 28.6235 92.9113 28.6561 92.5544 28.6538C89.0969 28.6647 86.567 27.0651 86.7821 22.3862C86.8154 21.6534 86.7864 20.7328 86.7864 19.9832L86.7857 13.2432C86.1753 13.2043 85.5222 13.2258 84.9082 13.2323V10.0963L86.7546 10.0701C86.8089 9.19233 86.7843 7.90088 86.7872 6.99132C87.9674 6.77282 89.7124 6.62587 90.9513 6.46574Z" fill="white"/>
</g>
<defs>
<clipPath id="clip0_30141_32389">
<rect width="146.632" height="35" fill="white"/>
</clipPath>
</defs>
</svg>
