<svg width="186" height="35" viewBox="0 0 186 35" fill="none" xmlns="http://www.w3.org/2000/svg">
<g clip-path="url(#clip0_30141_32456)">
<path d="M27.8276 0.895508C32.0085 1.86665 37.4583 4.41001 39.6479 8.17712C44.601 16.809 39.1169 26.5373 31.2915 31.1613C25.7105 34.4592 19.8568 35.7885 13.4581 34.4483C4.74186 32.6227 -0.928695 23.2109 0.520708 14.5824C0.534586 17.8771 1.21413 20.2136 3.59728 22.6761C4.11487 23.211 5.72351 24.5028 6.42469 24.6745C7.37036 25.8622 13.8082 27.0216 15.4103 26.7872C15.7421 26.7386 18.5701 26.4112 18.6849 26.4424L17.2721 26.7015C18.4902 26.648 19.7738 26.4545 20.952 26.1122C21.2772 26.0177 22.605 25.4677 22.8338 25.4365C23.6542 25.0811 24.3199 24.8117 24.998 24.2122C24.5078 24.4319 24.0149 24.6451 23.5192 24.852L23.4229 24.7785L23.3025 24.8522L23.438 24.8789L23.2575 24.9204C23.5425 24.6425 24.8465 24.1111 25.2909 23.9123C26.7552 23.181 29.5002 20.9994 30.5245 19.6915C30.8765 19.3102 31.2038 18.8673 31.5228 18.455C31.8843 17.9743 32.3525 17.2078 32.6925 16.6858C35.6169 9.98914 34.155 4.72063 27.7673 1.04995L27.8276 0.895508Z" fill="white"/>
<path d="M31.5237 18.4548C32.8381 19.8644 33.9127 21.2401 33.9022 23.3094C33.8995 23.8325 33.7185 24.696 33.4377 25.1433C32.8621 26.1553 31.622 26.944 31.3888 27.6015C31.1685 27.7246 30.9388 27.8303 30.702 27.9177C28.3011 28.8014 24.8161 27.8322 23.8914 25.218C23.5373 25.3572 23.1861 25.5487 22.8347 25.4363C23.6551 25.0809 25.009 24.8146 25.6871 24.2151C25.6871 23.8081 25.2802 24.0116 24.8732 24.2151L23.4238 24.7783L20.3964 25.843L17.1406 26.657L19.786 27.6015L23.6523 25.843C23.9372 25.5651 24.8474 24.1109 25.2918 23.9121C26.7561 23.1808 29.5011 20.9992 30.5254 19.6913C30.8774 19.3101 31.2047 18.8671 31.5237 18.4548Z" fill="white"/>
<path d="M30.5266 19.6914C31.4516 20.8003 32.4601 21.2492 32.317 22.9754C32.2536 23.7465 31.8784 24.4585 31.2781 24.9464C29.4534 26.4508 27.4203 25.325 26.3159 23.7705C26.149 23.5354 25.6864 24.1839 25.293 23.9122C26.7573 23.1809 29.5023 20.9993 30.5266 19.6914Z" fill="white"/>
<path d="M32.6933 16.6855L32.7791 16.8835C32.552 17.2972 32.3539 17.6375 32.0994 18.0345C33.4573 19.6407 34.5981 20.9222 34.4636 23.2544C34.4366 23.7231 34.155 24.8573 33.8999 25.255C33.1588 26.287 32.5725 27.0212 31.3887 27.6015C31.6218 26.9439 32.8619 26.1553 33.4376 25.1433C33.7184 24.696 33.8993 23.8324 33.9021 23.3094C33.9125 21.2401 32.838 19.8643 31.5236 18.4548C31.885 17.974 32.3533 17.2075 32.6933 16.6855Z" fill="white"/>
<path d="M0.521484 14.5824C1.17881 11.5304 2.06115 9.77212 4.2039 7.40638C8.04118 3.16975 13.7484 0.961171 19.3181 0.218769C20.2222 0.0981883 21.5578 0.0750994 22.4968 0.0388184C21.824 3.86821 22.9836 5.31615 25.5899 7.92644C23.3323 7.84632 21.4189 8.04372 19.2018 8.36637C18.2608 8.55205 17.5211 8.72773 16.5957 8.98092L15.9291 9.21054C13.6676 10.1203 12.3577 10.7597 10.4353 12.3638C9.82061 12.9004 8.65033 14.3167 8.19063 14.6482C5.94851 18.1574 5.24568 20.6009 6.42547 24.6745C5.72429 24.5028 4.11565 23.211 3.59806 22.6761C1.2149 20.2136 0.535362 17.877 0.521484 14.5824Z" fill="#9D9D9D"/>
<path d="M8.19021 14.6481L8.08789 14.5401C8.2932 14.1796 8.3703 14.1264 8.64874 13.8269C8.95821 13.5369 8.53187 13.3793 8.52654 13.298C8.47785 12.5544 8.31822 11.0243 8.44333 10.3282C8.82631 8.1985 11.2241 6.40463 13.3519 6.36748C13.8868 6.35817 14.7741 6.4057 15.1997 6.7851C15.5386 6.91063 16.3712 7.29847 16.6455 7.35415C16.9986 7.42584 17.3456 6.95748 17.923 7.19971L17.9352 7.31884L17.2147 7.56427L17.1585 7.71056C17.8568 8.34363 18.4003 8.40222 19.2951 8.13555C19.2707 8.19977 19.2334 8.31094 19.2013 8.36623C18.2604 8.5519 17.5206 8.72759 16.5952 8.98078L15.9287 9.2104C13.6672 10.1201 12.3573 10.7595 10.4349 12.3636C9.82018 12.9003 8.6499 14.3166 8.19021 14.6481Z" fill="#9D9D9D"/>
<path d="M13.7343 7.46876L14.007 7.33838C14.321 7.52192 14.4701 7.4156 14.7498 7.51717C15.354 7.73631 15.7575 8.27131 16.1308 8.76808C16.1449 8.98781 16.0906 8.97607 15.9297 9.21063C13.6682 10.1204 12.3584 10.7598 10.4359 12.3639L10.2817 12.322L10.3647 12.1592L10.2461 11.9479L10.2487 11.8781C10.3381 9.89774 10.9371 9.39922 12.269 8.19127L12.5701 8.20922L12.6558 8.10183C12.4736 8.07574 12.2633 8.0737 12.143 7.94982C12.689 7.5421 12.8502 7.45518 13.5733 7.65521L13.7343 7.46876Z" fill="#9D9D9D"/>
<path d="M10.2461 11.9477L10.0019 11.6358L9.91832 11.7385L10.0716 11.7369L9.91017 11.7749L9.92152 11.7557L9.75054 11.9534C9.32236 10.936 10.3221 10.6104 10.4345 9.96383C10.5972 9.02664 10.1707 8.53083 11.3753 7.90988C12.0819 7.54562 12.8794 7.21637 13.7344 7.46859L13.5734 7.65504C12.8503 7.45501 12.689 7.54193 12.143 7.94966C12.2633 8.07354 12.4736 8.07557 12.6558 8.10167L12.5701 8.20906L12.2691 8.19111C10.9371 9.39905 10.3382 9.89758 10.2487 11.8779L10.2461 11.9477Z" fill="#9D9D9D"/>
<path d="M113.07 11.0416C114.925 10.9443 116.266 10.948 117.822 12.1877C120.995 14.7155 121.088 20.6533 118.608 23.6382C117.577 24.8871 116.084 25.6638 114.471 25.7905C112.463 25.9524 111.494 25.5182 110.021 24.2654C110.188 25.4954 110.128 27.952 110.126 29.2957L110.134 31.436C108.619 31.4281 107.104 31.4289 105.589 31.4384C105.498 24.8157 105.825 17.8149 105.473 11.242L109.513 11.2568C109.545 11.9595 109.589 12.6617 109.643 13.3629C110.651 11.8426 111.385 11.5016 113.07 11.0416ZM113.14 22.3932C116.917 21.3676 116.575 14.8277 112.839 14.4533C110.721 14.8169 110.16 16.2254 110.057 18.2186C109.949 20.2948 110.616 22.4847 113.14 22.3932Z" fill="white"/>
<path d="M147.172 11.2327C148.262 11.2803 149.575 11.2483 150.682 11.2463C151.592 14.885 152.412 18.0737 153.15 21.753C153.332 20.704 153.408 19.6061 153.62 18.5413C154.103 16.1071 154.627 13.6737 155.142 11.2463L159.59 11.2434L158.961 13.3861L156.634 20.9173C156.176 22.4088 155.688 24.1465 155.166 25.585C153.732 25.5546 152.41 25.5269 150.979 25.5815C150.085 22.0891 149.362 19.5458 148.659 15.9659C148.272 19.6503 147.47 22.0649 146.398 25.5878C144.949 25.5595 143.653 25.5412 142.207 25.5997C140.739 21.0137 139.356 15.891 137.99 11.2382C139.466 11.2884 141.087 11.2478 142.575 11.2369C142.862 12.0864 143.084 13.5449 143.285 14.4588C143.857 17.0433 144.216 19.4269 144.53 22.0549C145.026 18.8283 146.001 15.6381 146.786 12.4706C146.887 12.0565 147.029 11.6351 147.172 11.2327Z" fill="white"/>
<path d="M128.235 10.9813C132.332 10.1513 136.326 12.8057 137.147 16.9058C137.97 21.0061 135.309 24.9951 131.208 25.8097C127.118 26.6221 123.143 23.9688 122.323 19.8794C121.503 15.7901 124.149 11.8089 128.235 10.9813ZM130.062 22.5998C132.658 21.7526 132.87 18.6125 132.223 16.3405C131.847 15.0222 130.889 14.1752 129.491 14.1595C128.871 14.351 128.445 14.5068 128.01 15.0058C126.175 17.1089 126.419 22.6478 130.062 22.5998Z" fill="white"/>
<path d="M95.7876 10.9963C97.7253 10.7262 99.9811 11.2525 101.318 12.7526C103.121 14.7772 103.131 17.2412 103.013 19.78C99.9016 19.8503 96.7652 19.7956 93.6492 19.783C94.0264 20.511 94.0245 20.821 94.6898 21.4452C95.9903 22.6656 97.9523 22.6484 99.598 22.3141C100.17 22.1978 101.045 21.8925 101.58 21.8789C101.785 22.0389 101.721 21.9912 101.799 22.3092C101.995 23.173 102.184 24.0389 102.361 24.907C99.2867 25.9552 94.3814 26.4836 91.8327 24.1956C87.3395 20.1618 89.385 11.626 95.7876 10.9963ZM93.7016 16.7142L96.7022 16.7177L98.9143 16.6911C98.6661 14.9181 97.863 13.7199 95.9292 13.9578C94.3814 14.5977 94.2146 15.1925 93.7016 16.7142Z" fill="white"/>
<path d="M166.701 10.9933C167.315 10.9008 167.855 10.9073 168.469 10.9811C173.283 11.5597 174.278 15.7614 173.879 19.8L164.629 19.7699C165.391 22.6023 168.18 22.7613 170.602 22.3053C171.21 22.1909 171.917 21.9028 172.514 21.8813C172.716 22.0791 172.741 22.4482 172.801 22.7488C172.897 23.4045 173.093 24.2421 173.229 24.9048C170.129 25.9725 165.175 26.4966 162.645 24.1253C158.279 20.0339 160.329 11.5711 166.701 10.9933ZM164.648 16.7483C165.679 16.6741 166.821 16.7043 167.861 16.7097C168.52 16.7116 169.188 16.7073 169.847 16.7159C169.485 14.9383 168.939 13.8156 166.923 13.9587C165.399 14.4906 164.978 15.1781 164.648 16.7483Z" fill="white"/>
<path d="M62.7422 11.2241C64.383 11.2625 66.0243 11.2684 67.6654 11.2417C68.042 11.9739 68.4442 13.5014 68.7102 14.3384C69.422 16.5782 70.0245 18.7513 70.5773 21.0368C71.2354 17.8337 72.1547 14.4409 72.9743 11.2544L77.7834 11.2433C76.5148 15.0021 75.185 18.74 73.7945 22.4554C71.9943 27.2273 70.4067 30.7467 65.1499 31.9634C64.7975 30.8622 64.4288 29.2983 64.1229 28.1568C64.3313 28.0905 64.5382 28.0193 64.7433 27.9433C66.424 27.3289 67.4237 26.6557 68.1939 25.0015C67.7756 23.6093 67.0476 22.0352 66.5142 20.6589C65.3082 17.5473 63.8553 14.3595 62.7422 11.2241Z" fill="white"/>
<path d="M48.615 5.93912C53.143 6.05068 59.1669 6.07396 63.6979 5.92505C63.7367 7.05306 63.7692 8.5756 63.6884 9.67683C61.9264 9.6585 60.1643 9.65995 58.4024 9.6811C58.5674 12.6099 58.4226 17.2079 58.4202 20.274L58.435 25.5469C56.9262 25.4981 55.4165 25.4885 53.9074 25.5181C53.8121 20.3135 53.8855 14.8908 53.8869 9.66878L48.5688 9.66995C48.5724 8.70559 48.5176 6.83052 48.615 5.93912Z" fill="white"/>
<path d="M185.097 10.9995L185.142 11.0139C185.32 11.2756 185.218 14.7344 185.209 15.2547C180.773 14.8521 180.981 16.9509 180.988 20.474L180.996 25.5651C179.47 25.5475 177.971 25.5229 176.445 25.57L176.457 23.2814C176.456 19.3326 176.524 15.1825 176.355 11.2539L180.239 11.2575C180.283 12.1188 180.307 13.1792 180.476 14.0077C181.365 11.4817 182.529 10.9733 185.097 10.9995Z" fill="white"/>
<path d="M86.3504 11.0412C86.9171 11.0063 87.5872 11.0072 88.163 10.9944C88.1289 12.3709 88.165 13.8415 88.1777 15.2261C87.7817 15.2086 87.3853 15.168 86.9883 15.1694C83.3905 15.1824 83.8395 18.4917 83.8449 20.9906C83.852 22.5178 83.8473 24.045 83.8312 25.5722C82.3878 25.4906 80.9595 25.5181 79.5144 25.5297C79.3515 25.3267 79.4062 25.2395 79.4009 24.9306C79.4385 20.3714 79.4071 15.8119 79.3066 11.2537C80.6029 11.256 81.8993 11.2509 83.1954 11.2383C83.219 12.2678 83.2501 13.2972 83.2887 14.3261C83.8803 12.4243 84.4166 11.7122 86.3504 11.0412Z" fill="white"/>
<path d="M27.7686 1.04975C27.4754 0.972148 27.2663 0.949837 27.0547 0.739621C27.3107 0.669775 27.5621 0.801413 27.8289 0.895317L27.7686 1.04975Z" fill="white"/>
<path d="M24.6699 24.8256V24.2151H25.0769L25.8909 24.6221L24.6699 24.8256Z" fill="white"/>
</g>
<defs>
<clipPath id="clip0_30141_32456">
<rect width="185.448" height="35" fill="white"/>
</clipPath>
</defs>
</svg>
