<svg width="165" height="50" viewBox="0 0 165 50" fill="none" xmlns="http://www.w3.org/2000/svg">
<path d="M86.5571 16.1603L93.9256 16.1454C97.5132 16.1425 102.223 15.7206 104.498 19.5542C105.701 21.5811 105.718 24.4886 105.303 26.7866C104.976 28.6006 104.115 29.9166 102.717 30.9054C105.654 32.7787 106.055 34.5725 106.007 38.1687C105.984 39.9342 105.752 41.1005 104.948 42.6546C102.994 46.9222 96.6731 46.5207 93.0831 46.5193L86.5748 46.511C86.4528 36.4787 86.5651 26.2172 86.5571 16.1603ZM92.1427 40.6919C94.0412 40.7155 98.1888 41.1203 99.5561 39.7763C100.676 38.2055 100.572 34.9331 98.6382 34.3886C96.7942 33.8694 94.1744 34.0785 92.2438 34.0852C92.0881 34.6766 92.2093 39.5623 92.1427 40.6919ZM92.0624 28.4675C93.9032 28.4611 97.5806 28.8535 99.0001 27.6847C99.7343 26.6192 99.8755 25.3761 99.711 24.0656C99.6356 23.4683 99.37 22.9191 98.9294 22.557C97.7547 21.5915 93.6536 22.1121 92.0648 21.9689C92.259 22.6503 92.2358 27.7084 92.0624 28.4675Z" fill="white"/>
<path d="M44.6764 16.1606L52.2713 16.1453C53.9544 16.1442 55.5447 16.0988 57.2151 16.2675C63.4334 16.8957 65.217 22.0683 64.538 28.2963C64.202 31.3769 63.0564 32.9716 60.8243 34.8739C60.814 35.1912 61.2064 36.1158 61.2944 36.4604C61.73 38.1667 64.4625 45.3241 64.4861 46.5104L59.5201 46.5156L58.5443 46.4962C58.1536 45.7041 57.3512 43.0521 57.057 42.1083C56.5527 40.4909 55.7707 38.3881 55.3857 36.7801L50.2881 36.777L50.2886 46.5085L44.6906 46.5144C44.5947 36.4621 44.6865 26.2254 44.6764 16.1606ZM57.9955 29.6505C59.158 27.92 59.4046 24.3199 57.699 22.911C57.3252 22.605 56.8946 22.3942 56.4382 22.294C55.4259 22.068 51.6027 22.2718 50.2878 22.2085L50.2894 30.7344C52.4808 30.7511 56.3753 31.3028 57.9955 29.6505Z" fill="white"/>
<path d="M10.6095 2.70078C15.9427 1.13722 24.9138 1.26248 30.436 2.17931C30.7337 2.22873 32.5301 2.5715 32.7227 2.69305C34.0778 2.97125 35.1689 3.24614 36.5064 3.62798C36.8994 3.68195 37.8389 3.98955 38.1667 4.23003C39.4245 4.72474 40.5818 5.11051 41.7761 5.78717C41.4663 8.21443 40.7788 12.8224 40.0735 15.157C39.5247 14.9425 39.0172 14.7501 38.4595 14.5658C37.9608 14.4975 36.9493 14.1251 36.4213 13.9642C28.5779 11.5759 20.3545 11.1465 12.3357 12.636C11.3689 12.8156 10.4182 13.1476 9.43907 13.2252C9.17074 13.3384 9.11473 13.3463 8.8318 13.3589C8.60215 13.6189 6.89169 14.0329 6.58794 14.0008C6.02025 14.0688 3.74456 14.8522 3.2636 15.1783C2.71764 12.7134 1.78763 8.17622 1.6582 5.73397C2.70689 5.18634 3.70181 4.79939 4.79161 4.38929C5.23699 4.10099 6.3532 3.78417 6.89988 3.61631C7.88207 3.27932 9.59939 2.88911 10.6095 2.70078Z" fill="#9D9D9D"/>
<path d="M6.89988 3.61621C7.88207 3.27922 9.59939 2.88901 10.6095 2.70068L10.7817 2.8073C10.8393 3.21064 10.8364 3.62146 10.8333 4.02932C10.8118 6.93708 10.9993 9.82522 11.1794 12.7242C10.6725 12.805 9.90896 12.9963 9.43906 13.2251C9.17074 13.3383 9.11473 13.3462 8.8318 13.3588C8.60215 13.6188 6.89169 14.0328 6.58794 14.0007C6.02025 14.0687 3.74456 14.8521 3.2636 15.1782C2.71764 12.7133 1.78763 8.17612 1.6582 5.73387C2.70689 5.18624 3.70181 4.79929 4.79161 4.38919C5.23699 4.10089 6.3532 3.78407 6.89988 3.61621Z" fill="white"/>
<path d="M4.79161 4.3892L5.57498 4.18945C5.70394 6.07572 5.82025 7.61838 6.0644 9.47488C6.16035 10.2044 6.60909 13.5313 6.58794 14.0007C6.02025 14.0687 3.74456 14.8521 3.2636 15.1782C2.71764 12.7134 1.78763 8.17613 1.6582 5.73388C2.70689 5.18625 3.70181 4.7993 4.79161 4.3892Z" fill="#ECECEC"/>
<path d="M4.79102 4.38919C5.2364 4.10089 6.35261 3.78407 6.89929 3.61621C6.88965 6.43142 7.40245 9.37407 7.65949 12.1677C7.69996 12.6075 7.75083 13.0894 7.81263 13.5244C8.1076 13.4588 8.54435 13.3411 8.83121 13.3588C8.60156 13.6188 6.8911 14.0328 6.58734 14.0007C6.6085 13.5313 6.15976 10.2044 6.0638 9.47487C5.81966 7.61837 5.70335 6.07571 5.57438 4.18945L4.79102 4.38919Z" fill="#CECECE"/>
<path d="M36.6875 13.9073C36.8599 12.9521 37.0063 11.9914 37.1267 11.0265C37.226 10.2042 37.7173 4.48821 37.8989 4.22241L38.1664 4.22977C39.4242 4.72448 40.5815 5.11025 41.7757 5.78691C41.466 8.21417 40.7785 12.8221 40.0732 15.1567C39.5243 14.9423 39.0169 14.7498 38.4592 14.5656C37.9335 14.2267 37.2767 14.0697 36.6875 13.9073Z" fill="#ECECEC"/>
<path d="M32.7221 2.69287C34.0772 2.97107 35.1684 3.24596 36.5058 3.6278C36.4869 6.00369 35.8661 11.1364 35.495 13.4868C34.3947 13.2639 33.3175 12.9289 32.2441 12.7226C32.2624 10.7535 32.449 8.62475 32.4758 6.62943C32.4864 5.83851 32.4589 3.35544 32.5495 2.80724L32.7221 2.69287Z" fill="white"/>
<path d="M21.5894 1.7334C21.9411 2.11898 22.3236 3.69182 22.4888 4.29458C23.2489 3.93227 24.0723 3.49199 24.836 3.1125C24.5867 3.85364 24.116 4.79979 23.8113 5.63459C24.6179 5.93857 25.4406 6.29935 26.239 6.63583C25.4429 6.91066 24.5848 7.18413 23.8268 7.55648C24.062 8.36444 24.5356 9.36194 24.881 10.1438C24.0978 9.77985 23.2996 9.33145 22.5332 8.9178C22.3689 9.41141 21.8885 11.2735 21.5772 11.4539C21.4219 10.7978 21.0004 9.64492 20.7835 8.91363C20.0152 9.36141 19.2321 9.7592 18.4456 10.1659C18.8274 9.36531 19.2034 8.42723 19.5543 7.60028C18.8974 7.23173 17.8162 6.89176 17.0879 6.64551C17.7877 6.30419 18.8216 5.90633 19.5635 5.58846C19.1799 4.75303 18.8156 3.90694 18.4709 3.05102L20.7904 4.29566C21.0329 3.44749 21.3374 2.59793 21.5894 1.7334Z" fill="white"/>
<path d="M108.375 16.1558L125.819 16.1445C125.872 17.0889 125.929 21.3916 125.811 22.2223C121.889 22.1577 117.815 22.3178 113.914 22.2L113.925 28.6264L123.415 28.6121C123.409 30.5577 123.413 32.5031 123.426 34.4487C120.442 34.3451 116.808 34.6104 113.919 34.4065V36.3032L113.924 40.4833L125.827 40.4855C125.876 41.4755 126.001 45.7225 125.676 46.3881C125.089 46.5883 120.919 46.5186 119.922 46.5186L108.304 46.5055C108.242 44.0174 108.283 41.3717 108.282 38.865L108.281 25.2205V19.4163C108.281 18.7096 108.233 16.7472 108.375 16.1558Z" fill="white"/>
<path d="M66.8555 16.1615C72.6022 16.0824 78.4437 16.1622 84.2023 16.1365C84.1638 17.9706 84.1943 19.9978 84.2055 21.8316L84.1253 22.0483C83.7201 22.1261 81.2543 22.0857 80.6099 22.0857L72.2376 22.0825C72.2368 23.2288 72.3823 27.7605 72.2175 28.6086C74.1866 28.6284 76.1558 28.6331 78.1249 28.6226C79.1806 28.6215 80.7576 28.6679 81.7686 28.5857C81.6667 30.0155 81.7405 32.842 81.755 34.3332C78.6481 34.3435 75.3266 34.4099 72.2373 34.3192C72.2379 36.3578 72.2553 38.4258 72.234 40.4619C73.0126 40.5523 75.3025 40.4839 76.168 40.4836L84.2232 40.4665C84.0755 42.2416 84.3307 44.7518 84.151 46.5142L66.8695 46.5143C66.7994 43.0797 66.8548 39.395 66.8547 35.9417L66.8555 16.1615Z" fill="white"/>
<path d="M153.112 16.1816C156.187 16.0883 159.468 16.1459 162.558 16.1368C162.479 18.0644 162.521 20.2756 162.518 22.2237L156.502 22.2138C155.819 22.2143 154.17 22.168 153.54 22.2404C153.206 22.281 152.879 22.3763 152.57 22.5232C151.957 22.8199 151.487 23.3123 151.247 24.0078C149.681 28.5357 159.886 28.8609 161.969 34.0442C162.717 35.907 162.784 39.8876 162.117 41.7955C161.256 44.2629 159.323 45.817 156.96 46.145C156.266 46.2414 155.391 46.1739 154.752 46.4921L154.724 46.5065C151.7 46.5643 148.541 46.5122 145.505 46.5119L145.506 40.4693C147.616 40.4393 149.734 40.5024 151.841 40.4709C153.366 40.448 155.235 40.7155 156.573 39.8458C157.158 38.8865 157.227 37.1474 156.32 36.4141C153.947 34.4948 150.886 33.8334 148.443 31.9341C146.897 30.7322 146 29.4117 145.681 27.2972C145.28 24.8172 145.438 22.0811 146.736 19.9354C148.403 17.3151 150.455 16.7363 153.112 16.1816Z" fill="white"/>
<path d="M6.15467 15.4573C6.82089 15.1602 7.53412 14.8944 8.23543 14.7129C15.4179 12.8537 23.0273 12.3749 30.3205 13.7074C30.7643 13.7884 32.7603 14.0689 33.038 14.2494C33.7714 14.3849 34.6749 14.6736 35.2886 14.7719C36.3163 15.0449 37.9237 15.5075 38.8492 16.0074L39.8699 16.3719C39.1598 19.1848 38.4919 21.5266 37.7211 24.2867C37.271 24.061 37.0157 23.9996 36.5433 23.8738C35.9292 23.8278 33.8285 23.1898 33.162 22.9679L33.0885 22.9494C32.2354 22.9554 31.496 22.6183 30.669 22.4741C25.94 21.6501 21.1924 21.338 16.4249 21.9414C15.0768 22.112 13.5826 22.4161 12.2537 22.5244C11.9755 22.7021 8.82528 23.417 8.52574 23.3851C7.57048 23.6047 6.5426 23.9473 5.59627 24.2399C5.53369 23.9745 5.45568 23.7006 5.37602 23.4406C4.6611 21.1067 4.0904 18.769 3.56055 16.374C4.13829 16.1011 5.50299 15.6806 6.15467 15.4573Z" fill="#9D9D9D"/>
<path d="M35.2887 14.7717C36.3164 15.0447 37.9238 15.5074 38.8493 16.0073L39.87 16.3717C39.1599 19.1846 38.492 21.5264 37.7212 24.2865C37.2711 24.0608 37.0158 23.9995 36.5434 23.8737C35.9293 23.8277 33.8286 23.1896 33.1621 22.9677C33.4141 22.9762 33.499 22.9863 33.7457 22.8952C34.0542 22.0823 35.2686 15.5818 35.2887 14.7717Z" fill="#ECECEC"/>
<path d="M35.2887 14.7717C36.3164 15.0447 37.9238 15.5074 38.8493 16.0073C38.0531 15.8001 37.3194 15.5563 36.5381 15.2979C36.2507 16.7835 35.2839 22.1575 34.821 23.3107C35.2873 23.446 36.1369 23.6673 36.5434 23.8737C35.9293 23.8277 33.8286 23.1896 33.1621 22.9677C33.4141 22.9762 33.499 22.9863 33.7457 22.8952C34.0542 22.0823 35.2686 15.5818 35.2887 14.7717Z" fill="#9D9D9D"/>
<path d="M6.15467 15.4576C6.36562 15.4167 6.68892 15.3178 6.86725 15.4135C7.29667 17.4198 7.58537 19.4943 8.06748 21.4944C8.19555 22.0256 8.35282 22.8918 8.52574 23.3854C7.57048 23.605 6.5426 23.9475 5.59627 24.2402C5.53369 23.9748 5.45568 23.7009 5.37602 23.4409C4.6611 21.1069 4.0904 18.7693 3.56055 16.3743C4.13829 16.1014 5.50299 15.6809 6.15467 15.4576Z" fill="#ECECEC"/>
<path d="M32.1196 14.1572C32.3995 14.2047 32.7646 14.2858 33.0368 14.2496C33.7702 14.3852 34.6737 14.6738 35.2874 14.7721C35.2673 15.5822 34.0529 22.0827 33.7444 22.8956C33.4977 22.9867 33.4128 22.9766 33.1608 22.9681L33.0873 22.9496C32.3367 22.6674 31.8805 22.5588 31.1035 22.4278C31.5961 19.712 31.8299 16.9136 32.1196 14.1572Z" fill="white"/>
<path d="M8.17448 14.8108C9.05754 14.6509 10.5007 14.2306 11.2585 14.1467C11.4694 16.7544 11.8063 19.9442 12.2526 22.5243C11.7995 22.4811 10.1791 22.9123 9.61264 23.0247C9.42536 22.0488 7.89562 15.2916 8.17448 14.8108Z" fill="white"/>
<path d="M21.5974 13.1733C21.9287 13.5443 22.3238 15.0163 22.4819 15.5714C23.237 15.3493 24.0623 15.0383 24.8131 14.774C24.4119 15.5234 24.0158 16.2761 23.6249 17.032C24.1238 17.5108 25.0228 18.1396 25.5966 18.5653L23.2482 18.9113L23.376 21.5404C22.8016 20.9378 22.2191 20.3449 21.6286 19.7618C21.3001 20.2109 20.452 20.9524 19.9698 21.5744C20.043 20.7099 20.0828 19.7762 20.1291 18.9071L17.7012 18.5657C18.3807 18.0919 19.0701 17.5696 19.7411 17.0762C19.3431 16.3151 18.9545 15.5481 18.5756 14.7753C19.2879 15.0537 20.0759 15.3176 20.7994 15.5776C21.0371 14.767 21.3535 14.0047 21.5974 13.1733Z" fill="white"/>
<path d="M128.162 16.1607L133.77 16.1357C133.693 18.772 133.755 21.832 133.755 24.4999L133.76 40.4741C134.772 40.4232 136.083 40.4633 137.113 40.462L143.555 40.4543C143.551 42.2869 143.619 44.7373 143.517 46.5122L128.193 46.5046C128.048 36.4496 128.262 26.2377 128.162 16.1607Z" fill="white"/>
<path d="M11.8341 23.8542C12.3068 23.6946 12.9412 23.5899 13.457 23.5C18.8301 22.5632 24.577 22.5571 29.9486 23.5062C30.197 23.5501 31.2084 23.7498 31.3941 23.8179L31.8205 23.913C32.4412 23.974 34.6161 24.4246 35.0962 24.7553C35.6083 24.9995 36.7547 25.3012 37.346 25.469C36.9646 26.8658 36.3073 28.4761 35.8007 29.8427C35.536 30.5568 35.0764 31.4643 34.8745 32.184C34.6826 32.2921 34.4506 32.195 34.2335 32.1368C28.0984 30.4926 20.7418 29.872 14.5064 30.9763C13.1732 31.2136 11.8444 31.481 10.521 31.7786C10.1338 31.8669 8.79618 32.2376 8.55072 32.2403L8.43983 32.1119C8.09864 30.9624 5.92362 26.1312 6.22841 25.3851C6.97367 24.9983 10.4908 24.0247 11.3133 23.9551L11.8341 23.8542Z" fill="#9D9D9D"/>
<path d="M32.3789 31.5031C33.2464 29.6893 33.82 26.5542 34.5277 24.7909C34.7502 24.647 34.7987 24.7126 35.0966 24.7549C35.6087 24.999 36.7551 25.3007 37.3464 25.4685C36.9649 26.8653 36.3077 28.4756 35.801 29.8423C35.5363 30.5564 35.0768 31.4638 34.8749 32.1835C34.6057 32.0474 32.7558 31.5994 32.3789 31.5031Z" fill="#ECECEC"/>
<path d="M6.22841 25.3848C7.05761 25.2569 8.01367 24.9314 8.82314 24.6594C9.48424 27.0468 10.1835 29.2063 10.9472 31.5419C10.5111 31.6507 8.79056 32.1023 8.43983 32.1116C8.09864 30.9621 5.92362 26.1309 6.22841 25.3848Z" fill="#ECECEC"/>
<path d="M31.3953 23.8179L31.8217 23.9129C32.1608 24.0892 32.9911 24.2529 33.3997 24.3471C32.754 26.7088 32.0118 28.9847 31.3831 31.2798C30.6614 31.1619 30.0546 31.0472 29.3418 30.8782C29.749 29.6519 30.0226 28.1666 30.2952 26.8931C30.4411 26.2116 30.6965 24.426 30.9444 23.8812L31.3953 23.8179Z" fill="white"/>
<path d="M11.3151 23.9552L11.8359 23.8544C12.0317 23.8567 12.3639 23.8225 12.4943 23.9545C12.9353 26.5504 13.4726 28.4659 13.9604 30.9146C13.3747 30.9811 12.5833 31.2162 12.1008 31.2096C11.6472 30.518 10.1876 25.3642 9.98633 24.3443C10.2685 24.2772 11.136 24.1207 11.3151 23.9552Z" fill="white"/>
<path d="M21.606 23.0205C21.9523 23.4042 22.2452 24.628 22.3896 25.163L24.354 24.4374C24.1296 25.0374 23.6598 25.8549 23.3458 26.4352C23.8597 26.7729 24.566 27.3448 25.0745 27.7313C24.4299 27.8568 23.6551 27.9509 22.9975 28.0495C23.0629 28.8223 23.0994 29.5513 23.1335 30.3267C22.6408 29.8059 22.1389 29.2959 21.6281 28.7969C21.392 29.1127 20.4431 30.0339 20.1237 30.3577C20.2151 29.8039 20.2646 28.6361 20.3033 28.0424C19.6113 27.9365 18.9203 27.8224 18.2305 27.7001C18.8109 27.3015 19.4333 26.8215 20.0065 26.3991C19.6344 25.742 19.2775 25.0746 18.9363 24.3973C19.6015 24.626 20.2302 24.8868 20.8833 25.1545C21.1411 24.445 21.4015 23.7522 21.606 23.0205Z" fill="white"/>
<path d="M13.7751 32.2713C14.6952 31.921 17.1286 31.9686 18.1924 31.7967C19.1092 31.6485 22.4779 31.3815 23.2852 31.5777C24.4984 31.8724 28.3145 31.803 29.1857 32.2171L29.631 32.3059C30.1419 32.2494 32.1579 32.6725 32.6008 32.9109C33.1759 33.0646 33.6642 33.1928 34.2253 33.4026C33.6767 34.7631 31.9975 37.9787 31.1342 39.1406C30.7174 39.0638 30.2997 38.9935 29.8811 38.9296C29.235 38.9142 28.6364 38.8552 28.0323 38.5893L27.9129 38.5575C27.4379 38.5911 26.5543 38.4382 26.0462 38.3808C23.4399 38.0859 20.7622 38.0773 18.1509 38.2955C17.2856 38.3678 16.4022 38.5502 15.5411 38.5566L15.3864 38.5944C14.6569 38.875 14.2144 38.8764 13.4515 38.9298C13.1689 38.9412 12.5182 39.0989 12.2134 39.1636C11.5782 38.2714 9.48657 34.3944 9.14258 33.3623C9.4446 33.2486 9.88657 33.1339 10.2047 33.0401C10.3686 32.8482 12.439 32.4412 12.7739 32.4362L13.7751 32.2713Z" fill="#9D9D9D"/>
<path d="M29.6303 32.306C30.1412 32.2496 32.1572 32.6726 32.6 32.9111C33.1752 33.0647 33.6634 33.1929 34.2246 33.4027C33.676 34.7632 31.9968 37.9788 31.1335 39.1408C30.7167 39.0639 30.2989 38.9936 29.8803 38.9298C29.2342 38.9144 28.6356 38.8553 28.0316 38.5894L27.9122 38.5576C27.6227 38.491 27.4224 38.4637 27.169 38.2906C27.1149 38.091 27.5214 37.0565 27.622 36.7629C27.9424 35.8285 28.2482 34.8883 28.5394 33.9425C28.6656 33.5303 28.9209 32.4138 29.185 32.2173L29.6303 32.306Z" fill="white"/>
<path d="M29.8809 38.9293C29.627 38.8596 29.4716 38.8686 29.3125 38.6814C29.5469 38.0607 30.0395 37.2545 30.3372 36.5902C30.8776 35.3842 31.3322 34.1105 31.88 32.9228C32.0375 32.8073 32.3926 32.887 32.6006 32.9106C33.1758 33.0642 33.664 33.1924 34.2252 33.4023C33.6766 34.7627 31.9974 37.9783 31.134 39.1403C30.7173 39.0634 30.2995 38.9931 29.8809 38.9293Z" fill="#ECECEC"/>
<path d="M29.6319 32.3054C30.1428 32.249 32.1588 32.672 32.6016 32.9105C32.3937 32.8869 32.0385 32.8072 31.881 32.9227C31.3332 34.1104 30.8786 35.3841 30.3382 36.5901C30.0405 37.2544 29.5479 38.0606 29.3135 38.6813C29.4726 38.8685 29.6281 38.8595 29.882 38.9292C29.2359 38.9138 28.6373 38.8547 28.0332 38.5888L28.2845 38.5326C28.8081 38.0447 30.5065 33.5283 30.7986 32.5648C30.5018 32.5146 29.8777 32.4358 29.6319 32.3054Z" fill="#9D9D9D"/>
<path d="M10.2047 33.0399C10.3686 32.848 12.439 32.441 12.7739 32.436C12.6907 32.5253 12.602 32.5822 12.6201 32.7027C12.7677 33.6794 14.6377 38.0389 15.0657 38.5242L15.3864 38.5943C14.6569 38.8749 14.2144 38.8763 13.4515 38.9297C13.1689 38.9411 12.5182 39.0987 12.2134 39.1634C11.5782 38.2712 9.48657 34.3943 9.14258 33.3621C9.4446 33.2484 9.88657 33.1337 10.2047 33.0399Z" fill="#ECECEC"/>
<path d="M10.2051 33.0399C10.3689 32.848 12.4393 32.441 12.7742 32.436C12.691 32.5253 12.6024 32.5822 12.6205 32.7027C12.7681 33.6794 14.6381 38.0389 15.0661 38.5242L15.3867 38.5943C14.6572 38.8749 14.2147 38.8763 13.4519 38.9297C13.6637 38.8816 13.8097 38.8652 13.986 38.7217C13.9855 38.7574 11.6383 33.2974 11.4321 32.8232C10.9957 32.9225 10.6543 33.006 10.2051 33.0399Z" fill="#9D9D9D"/>
<path d="M13.7746 32.271C14.0357 32.2931 14.188 32.2572 14.3789 32.4092C14.8008 33.742 15.17 35.0843 15.5926 36.4172C15.7718 36.9826 16.1535 37.7325 16.2603 38.2546C16.1129 38.4408 15.7893 38.483 15.5406 38.5563L15.3858 38.5941L15.0652 38.5241C14.6371 38.0387 12.7671 33.6792 12.6196 32.7026C12.6014 32.5821 12.6901 32.5252 12.7733 32.4359L13.7746 32.271Z" fill="white"/>
<path d="M21.6018 31.8762C21.9818 32.2514 22.1765 32.9984 22.336 33.5299L24.173 33.29C23.7302 33.8774 23.4614 34.2376 23.0972 34.8817L24.133 36.4252L22.3331 36.2206C22.1098 36.8983 21.9965 37.2268 21.6802 37.8534C21.5007 37.7529 21.0512 36.52 20.9349 36.2303C20.3492 36.2909 19.7641 36.3588 19.1797 36.4337C19.5937 35.8862 19.8841 35.4354 20.2528 34.8478C20.0131 34.416 19.494 33.7133 19.1955 33.2881L20.923 33.5279L21.6018 31.8762Z" fill="white"/>
<path d="M16.1602 39.7173C16.5631 39.5051 17.2048 39.5594 17.6627 39.5024C20.2851 39.1762 23.1813 39.1729 25.802 39.5228C26.2551 39.5834 26.7349 39.5244 27.169 39.6896C27.1889 39.6972 27.2086 39.7053 27.2282 39.7137L27.3854 39.7247C28.0815 39.7252 29.3507 39.94 29.9524 40.2872L30.2149 40.3655L30.2387 40.497C28.0622 43.6759 26.191 45.7373 23.2186 48.0098C22.8543 48.3148 22.3755 48.6462 21.9521 48.8446C21.7554 48.8469 21.5481 48.8304 21.3508 48.8188C21.1222 48.7163 20.4544 48.3085 20.2906 48.1185C17.7919 46.1794 14.75 43.1977 13.0254 40.4L13.8889 40.1439L13.9764 40.0262C14.8822 39.8404 15.1474 39.7655 16.0672 39.7117L16.1602 39.7173Z" fill="#9D9D9D"/>
<path d="M13.8889 40.1437L13.9764 40.026C14.8822 39.8401 15.1474 39.7652 16.0672 39.7114L15.7772 39.8632C15.7403 40.6823 19.2401 45.8295 19.9266 46.6686L19.9664 46.7169C20.1597 47.0333 20.7625 47.7978 20.8245 48.0392C20.6623 48.0713 20.7084 48.0583 20.5309 47.9228L20.2906 48.1183C17.7919 46.1792 14.75 43.1975 13.0254 40.3997L13.8889 40.1437Z" fill="#ECECEC"/>
<path d="M13.8867 40.1437L13.9743 40.026C14.8801 39.8401 15.1453 39.7652 16.0651 39.7114L15.775 39.8632C15.7381 40.6823 19.238 45.8295 19.9244 46.6686L19.9642 46.7169C20.1575 47.0333 20.7603 47.7978 20.8223 48.0392C20.6602 48.0713 20.7062 48.0583 20.5287 47.9228C18.0351 45.3322 16.5977 43.1706 14.7433 40.0335C14.4405 40.0833 14.1923 40.1217 13.8867 40.1437Z" fill="#9D9D9D"/>
<path d="M27.3841 39.7246C28.0802 39.7251 29.3494 39.9399 29.9512 40.2871L30.2136 40.3654L30.2375 40.4969C28.0609 43.6759 26.1897 45.7372 23.2173 48.0097L22.8034 47.9228C22.7377 47.9744 22.6315 47.9931 22.5502 48.0148C22.4792 47.893 22.5242 47.8893 22.6245 47.7737C23.4207 46.857 27.6405 40.8021 27.6112 39.8618L27.3841 39.7246Z" fill="#ECECEC"/>
<path d="M27.3841 39.7246C28.0802 39.7251 29.3494 39.9399 29.9512 40.2871C29.4479 40.2173 29.0968 40.1431 28.6046 40.0255C27.08 42.745 25.0003 45.8419 22.8034 47.9228C22.7377 47.9744 22.6315 47.9931 22.5502 48.0148C22.4792 47.893 22.5242 47.8893 22.6245 47.7737C23.4207 46.857 27.6405 40.8021 27.6112 39.8618L27.3841 39.7246Z" fill="#9D9D9D"/>
<path d="M27.2273 39.7139L27.3844 39.7249L27.6115 39.8621C27.6408 40.8023 23.421 46.8572 22.6249 47.774C22.5245 47.8896 22.4796 47.8933 22.5506 48.015C22.6319 47.9934 22.738 47.9747 22.8037 47.9231L23.2176 48.01C22.8534 48.3149 22.3745 48.6464 21.9512 48.8447C22.2975 47.6224 24.0039 45.3558 24.6647 43.8956C25.1987 42.7156 25.9582 40.9349 26.5182 39.8484C26.677 39.6885 26.9963 39.7207 27.2273 39.7139Z" fill="white"/>
<path d="M16.0677 39.7114L16.1607 39.717C16.4453 39.7337 16.663 39.6919 16.872 39.8441C17.8486 42.0856 18.8644 44.3768 20.1104 46.4541C20.4508 47.0163 21.3472 48.1513 21.3959 48.6542L21.3512 48.8185C21.1226 48.716 20.4549 48.3082 20.2911 48.1183L20.5313 47.9228C20.7088 48.0583 20.6628 48.0713 20.8249 48.0392C20.7629 47.7978 20.1601 47.0333 19.9668 46.7169L19.927 46.6686C19.2406 45.8295 15.7407 40.6823 15.7776 39.8632L16.0677 39.7114Z" fill="white"/>
<path d="M21.5838 39.585C21.8602 39.7823 22.117 40.8388 22.2179 41.2149L23.8888 41.2079C23.517 41.6097 23.0452 41.9693 22.6232 42.3114C22.7162 42.8843 22.9059 43.6358 23.0382 44.2155C22.5229 43.7432 22.2702 43.5363 21.6936 43.1692C21.2323 43.3719 20.6296 43.8815 20.2035 44.2146L20.7353 42.3732L19.4219 41.1983L21.0435 41.2159C21.2922 40.5881 21.4112 40.2426 21.5838 39.585Z" fill="white"/>
<path d="M44.8928 5.08847C45.692 5.0739 46.4434 5.0542 47.2438 5.10776C47.7193 6.83257 48.3041 9.45314 48.6821 11.217C48.8193 10.0741 49.7677 6.44885 50.0645 5.11252C50.7253 5.03455 51.9151 5.06743 52.5822 5.12298L52.5795 13.6921L50.997 13.6975C50.9607 12.0733 50.9739 10.3758 50.9648 8.7459C50.9872 8.08765 51.0044 7.49695 50.99 6.83856C50.5149 9.0073 50.0863 11.2151 49.4551 13.3343L47.8443 13.3307C47.2724 11.2577 46.8938 9.05402 46.3164 7.03067C46.2559 9.08709 46.3138 11.5921 46.3026 13.696L44.7428 13.6968C44.6676 12.1045 44.7312 10.3616 44.7077 8.75331C44.6915 7.64297 44.6884 6.42821 44.741 5.32277C44.748 5.17621 44.7716 5.19582 44.8928 5.08847Z" fill="#ECECEC"/>
<path d="M104.142 4.99135C106.203 4.8574 107.495 5.68409 107.776 8.05978C108.065 10.4937 107.884 13.3685 105.234 13.8135C103.18 13.8924 101.823 13.3582 101.562 10.816C101.315 8.43119 101.428 5.33416 104.142 4.99135ZM103.415 11.4215C104.017 12.0693 104.373 12.1942 105.214 12.0137C105.743 11.6273 106.049 11.2225 106.126 10.5035C106.326 8.61273 106.287 6.45216 104.056 6.76367C102.936 7.60359 102.979 10.1969 103.415 11.4215Z" fill="#ECECEC"/>
<path d="M88.2961 5.08934C89.6104 5.0612 91.5201 4.84729 92.6684 5.55236C93.8311 6.26565 93.6915 8.20675 92.8987 9.17517C92.6933 9.42588 93.5502 10.0498 93.6072 10.6644C93.6907 11.5609 93.604 12.1082 93.1683 12.8968C92.2977 14.0226 89.3882 13.7033 88.0802 13.6854C88.0842 12.6105 87.9719 5.6808 88.1284 5.16436L88.2961 5.08934ZM89.7139 12.0468C90.3944 12.0468 91.1005 12.0966 91.7368 11.8205C92.4975 9.99201 90.7908 10.2245 89.7179 10.2175C89.7155 10.8225 89.7067 11.4433 89.7139 12.0468ZM89.7067 8.56971C90.2018 8.54579 91.1518 8.52714 91.6068 8.44904C92.1332 6.49308 91.07 6.74524 89.7099 6.75612L89.7067 8.56971Z" fill="#ECECEC"/>
<path d="M143.092 5.08415C143.854 5.07297 144.615 5.07226 145.377 5.08203C146.104 7.27717 147.068 9.60488 147.598 11.8674C147.677 11.1409 147.635 9.9532 147.631 9.19389L147.632 5.10931C148.096 5.07458 148.734 5.09997 149.214 5.10499C149.237 5.95984 149.315 13.2223 149.18 13.667L149.012 13.7065C148.284 13.7008 147.555 13.7055 146.827 13.7206C146.166 11.7465 144.968 8.79912 144.495 6.92792C144.623 9.28183 144.569 11.342 144.524 13.7051L142.906 13.6976L142.897 8.00182C142.896 7.13419 142.868 6.11492 142.937 5.25715C142.944 5.16982 143.01 5.14778 143.092 5.08415Z" fill="#ECECEC"/>
<path d="M129.435 5.09385C131.054 5.02772 134.399 4.58281 134.973 6.69874C135.404 8.28054 135.099 9.4278 133.998 10.4573C134.442 11.531 134.774 12.5962 135.098 13.7159L133.542 13.6993L133.409 13.6706C133.094 13.4017 132.638 11.5021 132.51 11.0008L131.027 10.9995C131.046 11.8816 131.034 12.8095 131.036 13.6955L129.434 13.6999L129.435 5.09385ZM131.026 9.21513C131.783 9.21495 132.441 9.238 133.187 9.06903C133.366 8.80355 133.429 8.29893 133.458 7.96653C133.574 6.64185 131.731 6.83846 131.05 6.85204L131.026 9.21513Z" fill="#ECECEC"/>
<path d="M157.391 5.10059C158.633 5.00954 161.139 5.03934 162.37 5.11786L162.357 6.84741L159.043 6.85417L159.048 8.61679C159.902 8.63416 160.842 8.61164 161.702 8.60837L161.707 10.3465C161.168 10.3684 159.417 10.2333 159.08 10.4782L159.048 10.7931L159.05 11.9468C160.156 11.9378 161.261 11.9394 162.366 11.9516L162.357 13.6996C160.7 13.6867 159.043 13.6904 157.386 13.7109C157.329 10.9328 157.352 7.88385 157.391 5.10059Z" fill="#ECECEC"/>
<path d="M115.747 5.08816C116.199 5.07598 116.709 5.10172 117.166 5.11339C117.156 6.87506 117.127 8.64603 117.158 10.4065C117.181 11.7371 117.499 11.8284 118.511 12.0868C118.823 11.9998 119.204 11.9184 119.443 11.662C119.95 11.1177 119.722 6.16067 119.718 5.11719C120.215 5.07726 120.844 5.09593 121.353 5.09661L121.357 7.04461C121.324 10.5396 122.256 14.5022 117.515 13.7244C114.818 13.282 115.673 9.58559 115.556 7.48545C115.523 6.91346 115.497 5.71038 115.589 5.20111L115.747 5.08816Z" fill="#ECECEC"/>
<path d="M60.9363 5.08708C62.521 5.06038 64.1061 5.06423 65.6909 5.09864L65.6811 6.84832L62.3573 6.85358L62.364 8.62312L65.0794 8.60287L65.0818 10.3585C64.324 10.3561 63.1328 10.3151 62.4109 10.3983C62.3321 10.5945 62.3582 11.1269 62.3598 11.3698C62.3428 11.6201 62.3403 11.6658 62.4102 11.9026C62.7524 12.0108 65.1678 11.9488 65.6885 11.9494L65.6837 13.7152C64.1492 13.6463 62.3095 13.6978 60.7518 13.6961C60.7083 11.5745 60.7635 9.41142 60.7382 7.28628C60.7301 6.61039 60.7133 5.88831 60.7838 5.22238C60.7879 5.18401 60.9001 5.11413 60.9363 5.08708Z" fill="#ECECEC"/>
<path d="M75.0582 5.08852C75.5185 5.07784 76.0195 5.10288 76.4827 5.11595L76.4795 11.9103C77.3798 11.8763 78.3077 11.8909 79.2105 11.8929C79.2142 12.3043 79.2622 13.3488 79.1381 13.6489L78.9781 13.6908L74.8645 13.6895L74.852 7.96155C74.8518 7.35004 74.8184 5.64886 74.9074 5.1925L75.0582 5.08852Z" fill="#ECECEC"/>
<path d="M81.767 28.5859L81.9139 28.6376C82.0663 29.0041 82.0086 33.7399 81.9917 34.4912C81.0369 34.4896 72.7122 34.3785 72.3439 34.5389C72.3711 34.7591 72.5593 34.9665 72.5578 34.9893C72.4939 35.9728 72.6997 39.5565 72.455 40.2214L72.2324 40.4622C72.2538 38.4261 72.2364 36.358 72.2357 34.3194C75.3251 34.4101 78.6466 34.3437 81.7534 34.3335C81.739 32.8422 81.6651 30.0157 81.767 28.5859Z" fill="black" fill-opacity="0.968627"/>
<path d="M84.2049 21.8315L84.2313 22.1577C83.989 22.4005 83.2548 22.2414 82.929 22.2542C79.4639 22.39 75.7681 22.0915 72.3266 22.2788C72.3714 22.4619 72.5485 22.5456 72.5483 22.5629C72.5244 24.2841 72.6411 26.0287 72.5116 27.7422C72.4839 28.1075 72.3077 28.306 72.2168 28.6085C72.3817 27.7604 72.2361 23.2288 72.2369 22.0824L80.6093 22.0856C81.2536 22.0856 83.7194 22.126 84.1246 22.0482L84.2049 21.8315Z" fill="black" fill-opacity="0.968627"/>
</svg>
