<svg width="127" height="18" viewBox="0 0 127 18" fill="none" xmlns="http://www.w3.org/2000/svg">
<path d="M8.83439 0.433177C9.02205 -0.144392 9.83916 -0.144393 10.0268 0.433176L11.8233 5.96222C11.9072 6.22051 12.1479 6.39539 12.4195 6.39539H18.2331C18.8404 6.39539 19.0929 7.17251 18.6016 7.52947L13.8983 10.9466C13.6786 11.1062 13.5866 11.3892 13.6706 11.6475L15.4671 17.1765C15.6547 17.7541 14.9937 18.2344 14.5024 17.8774L9.79909 14.4603C9.57937 14.3007 9.28184 14.3007 9.06212 14.4603L4.35884 17.8774C3.86753 18.2344 3.20648 17.7541 3.39414 17.1765L5.19063 11.6475C5.27456 11.3892 5.18262 11.1062 4.9629 10.9466L0.259619 7.52947C-0.231691 7.17251 0.0208086 6.39539 0.628101 6.39539H6.44168C6.71327 6.39539 6.95397 6.22051 7.03789 5.96222L8.83439 0.433177Z" fill="#FFB800"/>
<path d="M35.6956 0.433177C35.8833 -0.144392 36.7004 -0.144393 36.888 0.433176L38.6845 5.96222C38.7684 6.22051 39.0092 6.39539 39.2807 6.39539H45.0943C45.7016 6.39539 45.9541 7.17251 45.4628 7.52947L40.7595 10.9466C40.5398 11.1062 40.4479 11.3892 40.5318 11.6475L42.3283 17.1765C42.5159 17.7541 41.8549 18.2344 41.3636 17.8774L36.6603 14.4603C36.4406 14.3007 36.143 14.3007 35.9233 14.4603L31.22 17.8774C30.7287 18.2344 30.0677 17.7541 30.2553 17.1765L32.0518 11.6475C32.1358 11.3892 32.0438 11.1062 31.8241 10.9466L27.1208 7.52947C26.6295 7.17251 26.882 6.39539 27.4893 6.39539H33.3029C33.5745 6.39539 33.8152 6.22051 33.8991 5.96222L35.6956 0.433177Z" fill="#FFB800"/>
<path d="M62.5568 0.433177C62.7445 -0.144392 63.5616 -0.144393 63.7492 0.433176L65.5457 5.96222C65.6297 6.22051 65.8704 6.39539 66.1419 6.39539H71.9555C72.5628 6.39539 72.8153 7.17251 72.324 7.52947L67.6207 10.9466C67.401 11.1062 67.3091 11.3892 67.393 11.6475L69.1895 17.1765C69.3771 17.7541 68.7161 18.2344 68.2248 17.8774L63.5215 14.4603C63.3018 14.3007 63.0043 14.3007 62.7845 14.4603L58.0813 17.8774C57.5899 18.2344 56.9289 17.7541 57.1166 17.1765L58.913 11.6475C58.997 11.3892 58.905 11.1062 58.6853 10.9466L53.982 7.52947C53.4907 7.17251 53.7432 6.39539 54.3505 6.39539H60.1641C60.4357 6.39539 60.6764 6.22051 60.7603 5.96222L62.5568 0.433177Z" fill="#FFB800"/>
<path d="M89.418 0.433177C89.6057 -0.144392 90.4228 -0.144393 90.6104 0.433176L92.4069 5.96222C92.4909 6.22051 92.7316 6.39539 93.0032 6.39539H98.8167C99.424 6.39539 99.6765 7.17251 99.1852 7.52947L94.4819 10.9466C94.2622 11.1062 94.1703 11.3892 94.2542 11.6475L96.0507 17.1765C96.2384 17.7541 95.5773 18.2344 95.086 17.8774L90.3827 14.4603C90.163 14.3007 89.8655 14.3007 89.6457 14.4603L84.9425 17.8774C84.4511 18.2344 83.7901 17.7541 83.9778 17.1765L85.7743 11.6475C85.8582 11.3892 85.7662 11.1062 85.5465 10.9466L80.8432 7.52947C80.3519 7.17251 80.6044 6.39539 81.2117 6.39539H87.0253C87.2969 6.39539 87.5376 6.22051 87.6215 5.96222L89.418 0.433177Z" fill="#FFB800"/>
<path d="M116.279 0.433177C116.467 -0.144392 117.284 -0.144393 117.472 0.433176L119.268 5.96222C119.352 6.22051 119.593 6.39539 119.864 6.39539H125.678C126.285 6.39539 126.538 7.17251 126.046 7.52947L121.343 10.9466C121.123 11.1062 121.031 11.3892 121.115 11.6475L122.912 17.1765C123.1 17.7541 122.439 18.2344 121.947 17.8774L117.244 14.4603C117.024 14.3007 116.727 14.3007 116.507 14.4603L111.804 17.8774C111.312 18.2344 110.651 17.7541 110.839 17.1765L112.635 11.6475C112.719 11.3892 112.627 11.1062 112.408 10.9466L107.704 7.52947C107.213 7.17251 107.466 6.39539 108.073 6.39539H113.887C114.158 6.39539 114.399 6.22051 114.483 5.96222L116.279 0.433177Z" fill="#FFB800"/>
</svg>
